G04 EAGLE Gerber RS-274X export*
G75*
%MOMM*%
%FSLAX34Y34*%
%LPD*%
%INTop Copper*%
%IPPOS*%
%AMOC8*
5,1,8,0,0,1.08239X$1,22.5*%
G01*
%ADD10C,0.254000*%
%ADD11C,1.500000*%
%ADD12C,1.500000*%
%ADD13C,0.304800*%

G36*
X113425Y15566D02*
X113425Y15566D01*
X113435Y15565D01*
X116420Y18551D01*
X117351Y18551D01*
X117351Y17600D01*
X117367Y17579D01*
X117365Y17565D01*
X118365Y16565D01*
X118424Y16557D01*
X118425Y16566D01*
X118435Y16565D01*
X136435Y34565D01*
X136435Y34568D01*
X136438Y34568D01*
X147438Y47568D01*
X147438Y47573D01*
X147441Y47573D01*
X155441Y59573D01*
X155441Y59579D01*
X155445Y59581D01*
X158445Y66581D01*
X158442Y66594D01*
X158449Y66600D01*
X158449Y71600D01*
X158433Y71621D01*
X158435Y71635D01*
X155435Y74635D01*
X155416Y74637D01*
X155412Y74648D01*
X151412Y75648D01*
X151404Y75644D01*
X151400Y75649D01*
X142400Y75649D01*
X142394Y75645D01*
X142390Y75648D01*
X137597Y74690D01*
X150430Y84561D01*
X150434Y84577D01*
X150446Y84586D01*
X150439Y84595D01*
X150446Y84618D01*
X150433Y84622D01*
X150435Y84635D01*
X147435Y87635D01*
X147393Y87641D01*
X147384Y87647D01*
X109384Y74647D01*
X109380Y74641D01*
X109376Y74643D01*
X108544Y74167D01*
X108541Y74160D01*
X108534Y74159D01*
X108536Y74146D01*
X108521Y74112D01*
X108542Y74103D01*
X108545Y74081D01*
X109979Y73278D01*
X108543Y72416D01*
X108540Y72407D01*
X108530Y72405D01*
X108534Y72392D01*
X108521Y72361D01*
X108544Y72352D01*
X108549Y72329D01*
X112652Y70578D01*
X112678Y70585D01*
X112690Y70578D01*
X127235Y76279D01*
X114356Y64176D01*
X114355Y64175D01*
X114354Y64174D01*
X114355Y64171D01*
X114346Y64117D01*
X114363Y64114D01*
X114365Y64097D01*
X118671Y61711D01*
X118712Y61716D01*
X118723Y61713D01*
X121339Y63467D01*
X122387Y62532D01*
X122446Y62527D01*
X122447Y62533D01*
X122453Y62532D01*
X124689Y64595D01*
X129600Y67530D01*
X133114Y69098D01*
X135082Y69620D01*
X141410Y69649D01*
X143009Y69077D01*
X143783Y66842D01*
X143320Y63893D01*
X138467Y54504D01*
X129371Y41628D01*
X120330Y30428D01*
X114536Y23882D01*
X109619Y18699D01*
X109612Y18640D01*
X109619Y18639D01*
X109618Y18632D01*
X111891Y16090D01*
X111949Y16078D01*
X111951Y16090D01*
X111963Y16088D01*
X112400Y16530D01*
X113365Y15565D01*
X113424Y15557D01*
X113425Y15566D01*
G37*
G36*
X118202Y37597D02*
X118202Y37597D01*
X118204Y37596D01*
X124204Y43596D01*
X124204Y43599D01*
X124205Y43600D01*
X124205Y49600D01*
X124201Y49605D01*
X124200Y49605D01*
X112200Y49605D01*
X112198Y49603D01*
X112196Y49604D01*
X108196Y45604D01*
X108196Y45602D01*
X108195Y45601D01*
X108196Y45599D01*
X108196Y45597D01*
X108198Y45597D01*
X108200Y45595D01*
X113195Y45595D01*
X113195Y42605D01*
X105205Y42605D01*
X105205Y52595D01*
X119200Y52595D01*
X119202Y52597D01*
X119204Y52596D01*
X124204Y57596D01*
X124204Y57598D01*
X124204Y57599D01*
X124205Y57599D01*
X124204Y57601D01*
X124204Y57603D01*
X124202Y57603D01*
X124200Y57605D01*
X100200Y57605D01*
X100198Y57603D01*
X100196Y57604D01*
X94196Y51604D01*
X94196Y51601D01*
X94195Y51600D01*
X94195Y37600D01*
X94199Y37595D01*
X94200Y37595D01*
X118200Y37595D01*
X118202Y37597D01*
G37*
G36*
X406602Y51597D02*
X406602Y51597D01*
X406604Y51596D01*
X409604Y54596D01*
X409604Y54599D01*
X409605Y54600D01*
X409605Y63600D01*
X409603Y63602D01*
X409604Y63604D01*
X406604Y66604D01*
X406601Y66604D01*
X406600Y66605D01*
X390600Y66605D01*
X390598Y66603D01*
X390596Y66604D01*
X387596Y63604D01*
X387596Y63601D01*
X387595Y63600D01*
X387595Y54600D01*
X387597Y54598D01*
X387596Y54596D01*
X390596Y51596D01*
X390599Y51596D01*
X390600Y51595D01*
X406600Y51595D01*
X406602Y51597D01*
G37*
G36*
X372602Y32597D02*
X372602Y32597D01*
X372604Y32596D01*
X375604Y35596D01*
X375604Y35599D01*
X375605Y35600D01*
X375605Y44600D01*
X375603Y44602D01*
X375604Y44604D01*
X372604Y47604D01*
X372601Y47604D01*
X372600Y47605D01*
X356600Y47605D01*
X356598Y47603D01*
X356596Y47604D01*
X353596Y44604D01*
X353596Y44601D01*
X353595Y44600D01*
X353595Y35600D01*
X353597Y35598D01*
X353596Y35596D01*
X356596Y32596D01*
X356599Y32596D01*
X356600Y32595D01*
X372600Y32595D01*
X372602Y32597D01*
G37*
G36*
X346605Y70599D02*
X346605Y70599D01*
X346605Y70600D01*
X346605Y76595D01*
X353595Y76595D01*
X353595Y70600D01*
X353599Y70595D01*
X353600Y70595D01*
X361600Y70595D01*
X361605Y70599D01*
X361605Y70600D01*
X361605Y85600D01*
X361601Y85605D01*
X361600Y85605D01*
X343600Y85605D01*
X343598Y85603D01*
X343596Y85604D01*
X338596Y80604D01*
X338596Y80601D01*
X338595Y80600D01*
X338595Y70600D01*
X338599Y70595D01*
X338600Y70595D01*
X346600Y70595D01*
X346605Y70599D01*
G37*
G36*
X420605Y51599D02*
X420605Y51599D01*
X420605Y51600D01*
X420605Y61592D01*
X427595Y58597D01*
X427595Y51600D01*
X427599Y51595D01*
X427600Y51595D01*
X435600Y51595D01*
X435605Y51599D01*
X435605Y51600D01*
X435605Y66600D01*
X435601Y66605D01*
X435600Y66605D01*
X427600Y66605D01*
X427595Y66601D01*
X427595Y66600D01*
X427595Y63608D01*
X420602Y66605D01*
X420601Y66604D01*
X420600Y66605D01*
X412600Y66605D01*
X412595Y66601D01*
X412595Y66600D01*
X412595Y51600D01*
X412599Y51595D01*
X412600Y51595D01*
X420600Y51595D01*
X420605Y51599D01*
G37*
G36*
X310605Y51599D02*
X310605Y51599D01*
X310605Y51600D01*
X310605Y61592D01*
X317595Y58597D01*
X317595Y51600D01*
X317599Y51595D01*
X317600Y51595D01*
X325600Y51595D01*
X325605Y51599D01*
X325605Y51600D01*
X325605Y66600D01*
X325601Y66605D01*
X325600Y66605D01*
X317600Y66605D01*
X317595Y66601D01*
X317595Y66600D01*
X317595Y63608D01*
X310602Y66605D01*
X310601Y66604D01*
X310600Y66605D01*
X302600Y66605D01*
X302595Y66601D01*
X302595Y66600D01*
X302595Y51600D01*
X302599Y51595D01*
X302600Y51595D01*
X310600Y51595D01*
X310605Y51599D01*
G37*
G36*
X267605Y32599D02*
X267605Y32599D01*
X267605Y32600D01*
X267605Y44595D01*
X274595Y44595D01*
X274595Y41605D01*
X269600Y41605D01*
X269599Y41604D01*
X269598Y41605D01*
X269598Y41603D01*
X269595Y41601D01*
X269596Y41599D01*
X269596Y41598D01*
X274596Y32598D01*
X274599Y32597D01*
X274600Y32595D01*
X282600Y32595D01*
X282601Y32596D01*
X282602Y32595D01*
X282602Y32597D01*
X282605Y32599D01*
X282604Y32601D01*
X282604Y32602D01*
X279606Y38598D01*
X282603Y40596D01*
X282603Y40598D01*
X282604Y40599D01*
X282605Y40600D01*
X282605Y47600D01*
X282601Y47605D01*
X282600Y47605D01*
X264600Y47605D01*
X264598Y47603D01*
X264596Y47604D01*
X259596Y42604D01*
X259596Y42601D01*
X259595Y42600D01*
X259595Y32600D01*
X259599Y32595D01*
X259600Y32595D01*
X267600Y32595D01*
X267605Y32599D01*
G37*
G36*
X386605Y32599D02*
X386605Y32599D01*
X386605Y32600D01*
X386605Y44595D01*
X393595Y44595D01*
X393595Y41605D01*
X388600Y41605D01*
X388599Y41604D01*
X388598Y41605D01*
X388598Y41603D01*
X388595Y41601D01*
X388596Y41599D01*
X388596Y41598D01*
X393596Y32598D01*
X393599Y32597D01*
X393600Y32595D01*
X401600Y32595D01*
X401601Y32596D01*
X401602Y32595D01*
X401602Y32597D01*
X401605Y32599D01*
X401604Y32601D01*
X401604Y32602D01*
X398606Y38598D01*
X401603Y40596D01*
X401603Y40598D01*
X401604Y40599D01*
X401605Y40600D01*
X401605Y47600D01*
X401601Y47605D01*
X401600Y47605D01*
X383600Y47605D01*
X383598Y47603D01*
X383596Y47604D01*
X378596Y42604D01*
X378596Y42601D01*
X378595Y42600D01*
X378595Y32600D01*
X378599Y32595D01*
X378600Y32595D01*
X386600Y32595D01*
X386605Y32599D01*
G37*
G36*
X330602Y70597D02*
X330602Y70597D01*
X330604Y70596D01*
X335604Y75596D01*
X335604Y75599D01*
X335605Y75600D01*
X335605Y85600D01*
X335601Y85605D01*
X335600Y85605D01*
X327600Y85605D01*
X327595Y85601D01*
X327595Y85600D01*
X327595Y76602D01*
X324598Y73605D01*
X323602Y73605D01*
X320605Y76602D01*
X320605Y85600D01*
X320601Y85605D01*
X320600Y85605D01*
X312600Y85605D01*
X312595Y85601D01*
X312595Y85600D01*
X312595Y75600D01*
X312597Y75598D01*
X312596Y75596D01*
X317596Y70596D01*
X317599Y70596D01*
X317600Y70595D01*
X330600Y70595D01*
X330602Y70597D01*
G37*
G36*
X294602Y51597D02*
X294602Y51597D01*
X294604Y51596D01*
X299604Y56596D01*
X299604Y56599D01*
X299605Y56600D01*
X299605Y66600D01*
X299601Y66605D01*
X299600Y66605D01*
X291600Y66605D01*
X291595Y66601D01*
X291595Y66600D01*
X291595Y54605D01*
X284605Y54605D01*
X284605Y66600D01*
X284601Y66605D01*
X284600Y66605D01*
X276600Y66605D01*
X276595Y66601D01*
X276595Y66600D01*
X276595Y56600D01*
X276597Y56598D01*
X276596Y56596D01*
X281596Y51596D01*
X281599Y51596D01*
X281600Y51595D01*
X294600Y51595D01*
X294602Y51597D01*
G37*
G36*
X326602Y32597D02*
X326602Y32597D01*
X326604Y32596D01*
X331604Y37596D01*
X331604Y37599D01*
X331605Y37600D01*
X331605Y41600D01*
X331601Y41605D01*
X331600Y41605D01*
X316605Y41605D01*
X316605Y44595D01*
X328600Y44595D01*
X328602Y44597D01*
X328604Y44596D01*
X331604Y47596D01*
X331604Y47598D01*
X331605Y47599D01*
X331604Y47601D01*
X331604Y47603D01*
X331602Y47603D01*
X331600Y47605D01*
X313600Y47605D01*
X313598Y47603D01*
X313596Y47604D01*
X308596Y42604D01*
X308596Y42601D01*
X308595Y42600D01*
X308595Y38600D01*
X308599Y38595D01*
X308600Y38595D01*
X323595Y38595D01*
X323595Y35605D01*
X311600Y35605D01*
X311598Y35603D01*
X311596Y35604D01*
X308596Y32604D01*
X308596Y32602D01*
X308595Y32601D01*
X308596Y32599D01*
X308596Y32597D01*
X308598Y32597D01*
X308600Y32595D01*
X326600Y32595D01*
X326602Y32597D01*
G37*
G36*
X424602Y32597D02*
X424602Y32597D01*
X424604Y32596D01*
X427604Y35596D01*
X427604Y35598D01*
X427605Y35599D01*
X427604Y35601D01*
X427604Y35603D01*
X427602Y35603D01*
X427600Y35605D01*
X412605Y35605D01*
X412605Y38595D01*
X421600Y38595D01*
X421602Y38597D01*
X421604Y38596D01*
X424604Y41596D01*
X424604Y41598D01*
X424605Y41599D01*
X424604Y41601D01*
X424604Y41603D01*
X424602Y41603D01*
X424600Y41605D01*
X412605Y41605D01*
X412605Y44595D01*
X424600Y44595D01*
X424602Y44597D01*
X424604Y44596D01*
X427604Y47596D01*
X427604Y47598D01*
X427605Y47599D01*
X427604Y47601D01*
X427604Y47603D01*
X427602Y47603D01*
X427600Y47605D01*
X409600Y47605D01*
X409598Y47603D01*
X409596Y47604D01*
X404596Y42604D01*
X404596Y42601D01*
X404595Y42600D01*
X404595Y32600D01*
X404599Y32595D01*
X404600Y32595D01*
X424600Y32595D01*
X424602Y32597D01*
G37*
G36*
X305602Y32597D02*
X305602Y32597D01*
X305604Y32596D01*
X308604Y35596D01*
X308604Y35598D01*
X308605Y35599D01*
X308604Y35601D01*
X308604Y35603D01*
X308602Y35603D01*
X308600Y35605D01*
X293605Y35605D01*
X293605Y38595D01*
X302600Y38595D01*
X302602Y38597D01*
X302604Y38596D01*
X305604Y41596D01*
X305604Y41598D01*
X305605Y41599D01*
X305604Y41601D01*
X305604Y41603D01*
X305602Y41603D01*
X305600Y41605D01*
X293605Y41605D01*
X293605Y44595D01*
X305600Y44595D01*
X305602Y44597D01*
X305604Y44596D01*
X308604Y47596D01*
X308604Y47598D01*
X308605Y47599D01*
X308604Y47601D01*
X308604Y47603D01*
X308602Y47603D01*
X308600Y47605D01*
X290600Y47605D01*
X290598Y47603D01*
X290596Y47604D01*
X285596Y42604D01*
X285596Y42601D01*
X285595Y42600D01*
X285595Y32600D01*
X285599Y32595D01*
X285600Y32595D01*
X305600Y32595D01*
X305602Y32597D01*
G37*
G36*
X348602Y51597D02*
X348602Y51597D01*
X348604Y51596D01*
X351604Y54596D01*
X351604Y54598D01*
X351605Y54599D01*
X351604Y54601D01*
X351604Y54603D01*
X351602Y54603D01*
X351600Y54605D01*
X336605Y54605D01*
X336605Y63595D01*
X348600Y63595D01*
X348602Y63597D01*
X348604Y63596D01*
X351604Y66596D01*
X351604Y66598D01*
X351605Y66599D01*
X351604Y66601D01*
X351604Y66603D01*
X351602Y66603D01*
X351600Y66605D01*
X333600Y66605D01*
X333598Y66603D01*
X333596Y66604D01*
X328596Y61604D01*
X328596Y61601D01*
X328595Y61600D01*
X328595Y51600D01*
X328599Y51595D01*
X328600Y51595D01*
X348600Y51595D01*
X348602Y51597D01*
G37*
G36*
X258605Y51599D02*
X258605Y51599D01*
X258605Y51600D01*
X258605Y57595D01*
X267600Y57595D01*
X267602Y57597D01*
X267604Y57596D01*
X270604Y60596D01*
X270604Y60598D01*
X270605Y60599D01*
X270604Y60601D01*
X270604Y60603D01*
X270602Y60603D01*
X270600Y60605D01*
X258605Y60605D01*
X258605Y63595D01*
X270600Y63595D01*
X270602Y63597D01*
X270604Y63596D01*
X273604Y66596D01*
X273604Y66598D01*
X273605Y66599D01*
X273604Y66601D01*
X273604Y66603D01*
X273602Y66603D01*
X273600Y66605D01*
X255600Y66605D01*
X255598Y66603D01*
X255597Y66604D01*
X250596Y61604D01*
X250596Y61601D01*
X250595Y61600D01*
X250595Y51600D01*
X250599Y51595D01*
X250600Y51595D01*
X258600Y51595D01*
X258605Y51599D01*
G37*
G36*
X366605Y51599D02*
X366605Y51599D01*
X366605Y51600D01*
X366605Y63595D01*
X370600Y63595D01*
X370602Y63597D01*
X370604Y63596D01*
X373604Y66596D01*
X373604Y66598D01*
X373605Y66599D01*
X373604Y66601D01*
X373604Y66603D01*
X373602Y66603D01*
X373600Y66605D01*
X354600Y66605D01*
X354598Y66603D01*
X354596Y66604D01*
X351596Y63604D01*
X351596Y63602D01*
X351595Y63601D01*
X351596Y63599D01*
X351596Y63597D01*
X351598Y63597D01*
X351600Y63595D01*
X358595Y63595D01*
X358595Y51600D01*
X358599Y51595D01*
X358600Y51595D01*
X366600Y51595D01*
X366605Y51599D01*
G37*
G36*
X346605Y32599D02*
X346605Y32599D01*
X346605Y32600D01*
X346605Y44595D01*
X350600Y44595D01*
X350602Y44597D01*
X350604Y44596D01*
X353604Y47596D01*
X353604Y47598D01*
X353605Y47599D01*
X353604Y47601D01*
X353604Y47603D01*
X353602Y47603D01*
X353600Y47605D01*
X334600Y47605D01*
X334598Y47603D01*
X334596Y47604D01*
X331596Y44604D01*
X331596Y44602D01*
X331595Y44601D01*
X331596Y44599D01*
X331596Y44597D01*
X331598Y44597D01*
X331600Y44595D01*
X338595Y44595D01*
X338595Y32600D01*
X338599Y32595D01*
X338600Y32595D01*
X346600Y32595D01*
X346605Y32599D01*
G37*
G36*
X384605Y51599D02*
X384605Y51599D01*
X384605Y51600D01*
X384605Y66600D01*
X384601Y66605D01*
X384600Y66605D01*
X376600Y66605D01*
X376595Y66601D01*
X376595Y66600D01*
X376595Y51600D01*
X376599Y51595D01*
X376600Y51595D01*
X384600Y51595D01*
X384605Y51599D01*
G37*
G36*
X372605Y70599D02*
X372605Y70599D01*
X372605Y70600D01*
X372605Y85600D01*
X372601Y85605D01*
X372600Y85605D01*
X369600Y85605D01*
X369598Y85603D01*
X369596Y85604D01*
X364596Y80604D01*
X364596Y80601D01*
X364595Y80600D01*
X364595Y70600D01*
X364599Y70595D01*
X364600Y70595D01*
X372600Y70595D01*
X372605Y70599D01*
G37*
%LPC*%
G36*
X395605Y54605D02*
X395605Y54605D01*
X395605Y63595D01*
X401595Y63595D01*
X401595Y54605D01*
X395605Y54605D01*
G37*
%LPD*%
%LPC*%
G36*
X361605Y35605D02*
X361605Y35605D01*
X361605Y44595D01*
X367595Y44595D01*
X367595Y35605D01*
X361605Y35605D01*
G37*
%LPD*%
%LPC*%
G36*
X346605Y79605D02*
X346605Y79605D01*
X346605Y82595D01*
X353595Y82595D01*
X353595Y79605D01*
X346605Y79605D01*
G37*
%LPD*%
D10*
X280870Y26980D02*
X284240Y16870D01*
X287610Y26980D01*
X292817Y24733D02*
X295625Y26980D01*
X295625Y16870D01*
X292817Y16870D02*
X298433Y16870D01*
X303314Y16870D02*
X303314Y17432D01*
X303875Y17432D01*
X303875Y16870D01*
X303314Y16870D01*
X308756Y24733D02*
X311564Y26980D01*
X311564Y16870D01*
X308756Y16870D02*
X314372Y16870D01*
X326213Y24733D02*
X329021Y26980D01*
X329021Y16870D01*
X326213Y16870D02*
X331829Y16870D01*
X340687Y26980D02*
X340786Y26978D01*
X340885Y26972D01*
X340984Y26962D01*
X341082Y26949D01*
X341180Y26931D01*
X341277Y26910D01*
X341373Y26885D01*
X341468Y26856D01*
X341562Y26824D01*
X341654Y26788D01*
X341745Y26748D01*
X341835Y26704D01*
X341922Y26658D01*
X342008Y26607D01*
X342091Y26554D01*
X342173Y26497D01*
X342252Y26437D01*
X342329Y26374D01*
X342403Y26308D01*
X342475Y26240D01*
X342543Y26168D01*
X342609Y26094D01*
X342672Y26017D01*
X342732Y25938D01*
X342789Y25856D01*
X342842Y25773D01*
X342893Y25687D01*
X342939Y25600D01*
X342983Y25510D01*
X343023Y25419D01*
X343059Y25327D01*
X343091Y25233D01*
X343120Y25138D01*
X343145Y25042D01*
X343166Y24945D01*
X343184Y24847D01*
X343197Y24749D01*
X343207Y24650D01*
X343213Y24551D01*
X343215Y24452D01*
X340687Y26980D02*
X340577Y26978D01*
X340466Y26973D01*
X340356Y26963D01*
X340247Y26950D01*
X340138Y26933D01*
X340029Y26913D01*
X339922Y26889D01*
X339815Y26861D01*
X339709Y26829D01*
X339604Y26794D01*
X339501Y26756D01*
X339399Y26714D01*
X339299Y26668D01*
X339200Y26619D01*
X339102Y26567D01*
X339007Y26512D01*
X338914Y26453D01*
X338822Y26391D01*
X338733Y26326D01*
X338646Y26258D01*
X338561Y26187D01*
X338479Y26114D01*
X338399Y26037D01*
X338322Y25958D01*
X338248Y25877D01*
X338177Y25793D01*
X338108Y25706D01*
X338043Y25617D01*
X337980Y25526D01*
X337921Y25433D01*
X337865Y25338D01*
X337812Y25241D01*
X337762Y25143D01*
X337716Y25043D01*
X337673Y24941D01*
X337634Y24838D01*
X337598Y24733D01*
X342372Y22486D02*
X342443Y22556D01*
X342512Y22629D01*
X342578Y22704D01*
X342641Y22782D01*
X342701Y22862D01*
X342758Y22944D01*
X342812Y23028D01*
X342862Y23114D01*
X342910Y23202D01*
X342954Y23291D01*
X342995Y23383D01*
X343033Y23475D01*
X343067Y23569D01*
X343098Y23664D01*
X343125Y23760D01*
X343149Y23857D01*
X343169Y23955D01*
X343186Y24054D01*
X343198Y24153D01*
X343208Y24252D01*
X343213Y24352D01*
X343215Y24452D01*
X342372Y22487D02*
X337598Y16870D01*
X343214Y16870D01*
X348406Y15747D02*
X352899Y28103D01*
X358933Y25576D02*
X358848Y25396D01*
X358768Y25214D01*
X358691Y25030D01*
X358619Y24845D01*
X358552Y24658D01*
X358489Y24469D01*
X358431Y24279D01*
X358377Y24088D01*
X358327Y23895D01*
X358283Y23701D01*
X358242Y23506D01*
X358207Y23311D01*
X358176Y23114D01*
X358150Y22917D01*
X358129Y22719D01*
X358112Y22521D01*
X358100Y22323D01*
X358093Y22124D01*
X358091Y21925D01*
X358933Y25576D02*
X358964Y25659D01*
X358998Y25741D01*
X359036Y25822D01*
X359077Y25901D01*
X359121Y25978D01*
X359169Y26053D01*
X359220Y26126D01*
X359273Y26196D01*
X359330Y26265D01*
X359390Y26331D01*
X359452Y26394D01*
X359518Y26454D01*
X359585Y26512D01*
X359655Y26567D01*
X359728Y26618D01*
X359802Y26667D01*
X359879Y26712D01*
X359957Y26754D01*
X360037Y26793D01*
X360119Y26828D01*
X360202Y26860D01*
X360286Y26888D01*
X360371Y26912D01*
X360458Y26933D01*
X360545Y26950D01*
X360633Y26963D01*
X360721Y26972D01*
X360810Y26978D01*
X360899Y26980D01*
X360988Y26978D01*
X361077Y26972D01*
X361165Y26963D01*
X361253Y26950D01*
X361340Y26933D01*
X361426Y26912D01*
X361512Y26888D01*
X361596Y26860D01*
X361679Y26828D01*
X361761Y26793D01*
X361841Y26754D01*
X361919Y26712D01*
X361996Y26667D01*
X362070Y26618D01*
X362143Y26567D01*
X362213Y26512D01*
X362280Y26454D01*
X362346Y26394D01*
X362408Y26331D01*
X362468Y26265D01*
X362525Y26196D01*
X362578Y26126D01*
X362629Y26053D01*
X362677Y25978D01*
X362721Y25901D01*
X362762Y25822D01*
X362800Y25741D01*
X362834Y25659D01*
X362865Y25576D01*
X362950Y25396D01*
X363030Y25214D01*
X363107Y25030D01*
X363179Y24845D01*
X363246Y24658D01*
X363309Y24469D01*
X363367Y24279D01*
X363421Y24088D01*
X363471Y23895D01*
X363515Y23701D01*
X363556Y23506D01*
X363591Y23311D01*
X363622Y23114D01*
X363648Y22917D01*
X363669Y22719D01*
X363686Y22521D01*
X363698Y22323D01*
X363705Y22124D01*
X363707Y21925D01*
X358090Y21925D02*
X358092Y21726D01*
X358099Y21527D01*
X358111Y21329D01*
X358128Y21131D01*
X358149Y20933D01*
X358175Y20736D01*
X358206Y20539D01*
X358241Y20343D01*
X358282Y20149D01*
X358326Y19955D01*
X358376Y19762D01*
X358430Y19571D01*
X358488Y19380D01*
X358551Y19192D01*
X358619Y19005D01*
X358690Y18819D01*
X358767Y18636D01*
X358848Y18454D01*
X358933Y18274D01*
X358964Y18191D01*
X358998Y18109D01*
X359036Y18028D01*
X359077Y17949D01*
X359121Y17872D01*
X359169Y17797D01*
X359220Y17724D01*
X359273Y17654D01*
X359330Y17585D01*
X359390Y17519D01*
X359452Y17456D01*
X359518Y17396D01*
X359585Y17338D01*
X359655Y17283D01*
X359728Y17232D01*
X359802Y17183D01*
X359879Y17138D01*
X359957Y17096D01*
X360037Y17057D01*
X360119Y17022D01*
X360202Y16990D01*
X360286Y16962D01*
X360372Y16938D01*
X360458Y16917D01*
X360545Y16900D01*
X360633Y16887D01*
X360721Y16878D01*
X360810Y16872D01*
X360899Y16870D01*
X362865Y18274D02*
X362950Y18454D01*
X363031Y18636D01*
X363108Y18819D01*
X363179Y19005D01*
X363247Y19192D01*
X363310Y19380D01*
X363368Y19571D01*
X363422Y19762D01*
X363472Y19955D01*
X363516Y20149D01*
X363557Y20343D01*
X363592Y20539D01*
X363623Y20736D01*
X363649Y20933D01*
X363670Y21131D01*
X363687Y21329D01*
X363699Y21527D01*
X363706Y21726D01*
X363708Y21925D01*
X362865Y18274D02*
X362834Y18191D01*
X362800Y18109D01*
X362762Y18028D01*
X362721Y17949D01*
X362677Y17872D01*
X362629Y17797D01*
X362578Y17724D01*
X362525Y17654D01*
X362468Y17585D01*
X362408Y17519D01*
X362346Y17456D01*
X362280Y17396D01*
X362213Y17338D01*
X362143Y17283D01*
X362070Y17232D01*
X361996Y17183D01*
X361919Y17138D01*
X361841Y17096D01*
X361761Y17057D01*
X361679Y17022D01*
X361596Y16990D01*
X361512Y16962D01*
X361426Y16938D01*
X361340Y16917D01*
X361253Y16900D01*
X361165Y16887D01*
X361077Y16878D01*
X360988Y16872D01*
X360899Y16870D01*
X358652Y19117D02*
X363146Y24733D01*
X369476Y19678D02*
X369478Y19783D01*
X369484Y19888D01*
X369494Y19992D01*
X369507Y20097D01*
X369525Y20200D01*
X369546Y20303D01*
X369572Y20405D01*
X369601Y20506D01*
X369634Y20605D01*
X369670Y20704D01*
X369710Y20801D01*
X369754Y20896D01*
X369801Y20990D01*
X369852Y21082D01*
X369906Y21172D01*
X369964Y21260D01*
X370025Y21345D01*
X370089Y21429D01*
X370156Y21510D01*
X370226Y21588D01*
X370298Y21664D01*
X370374Y21736D01*
X370452Y21806D01*
X370533Y21873D01*
X370617Y21937D01*
X370702Y21998D01*
X370790Y22056D01*
X370880Y22110D01*
X370972Y22161D01*
X371066Y22208D01*
X371161Y22252D01*
X371258Y22292D01*
X371357Y22328D01*
X371456Y22361D01*
X371557Y22390D01*
X371659Y22416D01*
X371762Y22437D01*
X371865Y22455D01*
X371970Y22468D01*
X372074Y22478D01*
X372179Y22484D01*
X372284Y22486D01*
X372389Y22484D01*
X372494Y22478D01*
X372598Y22468D01*
X372703Y22455D01*
X372806Y22437D01*
X372909Y22416D01*
X373011Y22390D01*
X373112Y22361D01*
X373211Y22328D01*
X373310Y22292D01*
X373407Y22252D01*
X373502Y22208D01*
X373596Y22161D01*
X373688Y22110D01*
X373778Y22056D01*
X373866Y21998D01*
X373951Y21937D01*
X374035Y21873D01*
X374116Y21806D01*
X374194Y21736D01*
X374270Y21664D01*
X374342Y21588D01*
X374412Y21510D01*
X374479Y21429D01*
X374543Y21345D01*
X374604Y21260D01*
X374662Y21172D01*
X374716Y21082D01*
X374767Y20990D01*
X374814Y20896D01*
X374858Y20801D01*
X374898Y20704D01*
X374934Y20605D01*
X374967Y20506D01*
X374996Y20405D01*
X375022Y20303D01*
X375043Y20200D01*
X375061Y20097D01*
X375074Y19992D01*
X375084Y19888D01*
X375090Y19783D01*
X375092Y19678D01*
X375090Y19573D01*
X375084Y19468D01*
X375074Y19364D01*
X375061Y19259D01*
X375043Y19156D01*
X375022Y19053D01*
X374996Y18951D01*
X374967Y18850D01*
X374934Y18751D01*
X374898Y18652D01*
X374858Y18555D01*
X374814Y18460D01*
X374767Y18366D01*
X374716Y18274D01*
X374662Y18184D01*
X374604Y18096D01*
X374543Y18011D01*
X374479Y17927D01*
X374412Y17846D01*
X374342Y17768D01*
X374270Y17692D01*
X374194Y17620D01*
X374116Y17550D01*
X374035Y17483D01*
X373951Y17419D01*
X373866Y17358D01*
X373778Y17300D01*
X373688Y17246D01*
X373596Y17195D01*
X373502Y17148D01*
X373407Y17104D01*
X373310Y17064D01*
X373211Y17028D01*
X373112Y16995D01*
X373011Y16966D01*
X372909Y16940D01*
X372806Y16919D01*
X372703Y16901D01*
X372598Y16888D01*
X372494Y16878D01*
X372389Y16872D01*
X372284Y16870D01*
X372179Y16872D01*
X372074Y16878D01*
X371970Y16888D01*
X371865Y16901D01*
X371762Y16919D01*
X371659Y16940D01*
X371557Y16966D01*
X371456Y16995D01*
X371357Y17028D01*
X371258Y17064D01*
X371161Y17104D01*
X371066Y17148D01*
X370972Y17195D01*
X370880Y17246D01*
X370790Y17300D01*
X370702Y17358D01*
X370617Y17419D01*
X370533Y17483D01*
X370452Y17550D01*
X370374Y17620D01*
X370298Y17692D01*
X370226Y17768D01*
X370156Y17846D01*
X370089Y17927D01*
X370025Y18011D01*
X369964Y18096D01*
X369906Y18184D01*
X369852Y18274D01*
X369801Y18366D01*
X369754Y18460D01*
X369710Y18555D01*
X369670Y18652D01*
X369634Y18751D01*
X369601Y18850D01*
X369572Y18951D01*
X369546Y19053D01*
X369525Y19156D01*
X369507Y19259D01*
X369494Y19364D01*
X369484Y19468D01*
X369478Y19573D01*
X369476Y19678D01*
X370037Y24733D02*
X370039Y24827D01*
X370045Y24921D01*
X370055Y25015D01*
X370068Y25108D01*
X370086Y25200D01*
X370108Y25292D01*
X370133Y25382D01*
X370162Y25472D01*
X370195Y25560D01*
X370231Y25647D01*
X370271Y25732D01*
X370315Y25816D01*
X370362Y25897D01*
X370412Y25976D01*
X370466Y26054D01*
X370523Y26129D01*
X370583Y26201D01*
X370646Y26271D01*
X370712Y26338D01*
X370780Y26403D01*
X370852Y26464D01*
X370925Y26523D01*
X371002Y26578D01*
X371080Y26630D01*
X371161Y26679D01*
X371243Y26724D01*
X371327Y26766D01*
X371413Y26804D01*
X371501Y26839D01*
X371590Y26870D01*
X371680Y26897D01*
X371771Y26921D01*
X371863Y26940D01*
X371956Y26956D01*
X372049Y26968D01*
X372143Y26976D01*
X372237Y26980D01*
X372331Y26980D01*
X372425Y26976D01*
X372519Y26968D01*
X372612Y26956D01*
X372705Y26940D01*
X372797Y26921D01*
X372888Y26897D01*
X372978Y26870D01*
X373067Y26839D01*
X373155Y26804D01*
X373241Y26766D01*
X373325Y26724D01*
X373408Y26679D01*
X373488Y26630D01*
X373566Y26578D01*
X373643Y26523D01*
X373716Y26464D01*
X373788Y26403D01*
X373856Y26338D01*
X373922Y26271D01*
X373985Y26201D01*
X374045Y26129D01*
X374102Y26054D01*
X374156Y25976D01*
X374206Y25897D01*
X374253Y25816D01*
X374297Y25732D01*
X374337Y25647D01*
X374373Y25560D01*
X374406Y25472D01*
X374435Y25382D01*
X374460Y25292D01*
X374482Y25200D01*
X374500Y25108D01*
X374513Y25015D01*
X374523Y24921D01*
X374529Y24827D01*
X374531Y24733D01*
X374529Y24639D01*
X374523Y24545D01*
X374513Y24451D01*
X374500Y24358D01*
X374482Y24266D01*
X374460Y24174D01*
X374435Y24084D01*
X374406Y23994D01*
X374373Y23906D01*
X374337Y23819D01*
X374297Y23734D01*
X374253Y23650D01*
X374206Y23569D01*
X374156Y23490D01*
X374102Y23412D01*
X374045Y23337D01*
X373985Y23265D01*
X373922Y23195D01*
X373856Y23128D01*
X373788Y23063D01*
X373716Y23002D01*
X373643Y22943D01*
X373566Y22888D01*
X373488Y22836D01*
X373408Y22787D01*
X373325Y22742D01*
X373241Y22700D01*
X373155Y22662D01*
X373067Y22627D01*
X372978Y22596D01*
X372888Y22569D01*
X372797Y22545D01*
X372705Y22526D01*
X372612Y22510D01*
X372519Y22498D01*
X372425Y22490D01*
X372331Y22486D01*
X372237Y22486D01*
X372143Y22490D01*
X372049Y22498D01*
X371956Y22510D01*
X371863Y22526D01*
X371771Y22545D01*
X371680Y22569D01*
X371590Y22596D01*
X371501Y22627D01*
X371413Y22662D01*
X371327Y22700D01*
X371243Y22742D01*
X371161Y22787D01*
X371080Y22836D01*
X371002Y22888D01*
X370925Y22943D01*
X370852Y23002D01*
X370780Y23063D01*
X370712Y23128D01*
X370646Y23195D01*
X370583Y23265D01*
X370523Y23337D01*
X370466Y23412D01*
X370412Y23490D01*
X370362Y23569D01*
X370315Y23650D01*
X370271Y23734D01*
X370231Y23819D01*
X370195Y23906D01*
X370162Y23994D01*
X370133Y24084D01*
X370108Y24174D01*
X370086Y24266D01*
X370068Y24358D01*
X370055Y24451D01*
X370045Y24545D01*
X370039Y24639D01*
X370037Y24733D01*
X380284Y15747D02*
X384777Y28103D01*
X393058Y26980D02*
X393157Y26978D01*
X393256Y26972D01*
X393355Y26962D01*
X393453Y26949D01*
X393551Y26931D01*
X393648Y26910D01*
X393744Y26885D01*
X393839Y26856D01*
X393933Y26824D01*
X394025Y26788D01*
X394116Y26748D01*
X394206Y26704D01*
X394293Y26658D01*
X394379Y26607D01*
X394462Y26554D01*
X394544Y26497D01*
X394623Y26437D01*
X394700Y26374D01*
X394774Y26308D01*
X394846Y26240D01*
X394914Y26168D01*
X394980Y26094D01*
X395043Y26017D01*
X395103Y25938D01*
X395160Y25856D01*
X395213Y25773D01*
X395264Y25687D01*
X395310Y25600D01*
X395354Y25510D01*
X395394Y25419D01*
X395430Y25327D01*
X395462Y25233D01*
X395491Y25138D01*
X395516Y25042D01*
X395537Y24945D01*
X395555Y24847D01*
X395568Y24749D01*
X395578Y24650D01*
X395584Y24551D01*
X395586Y24452D01*
X393058Y26980D02*
X392948Y26978D01*
X392837Y26973D01*
X392727Y26963D01*
X392618Y26950D01*
X392509Y26933D01*
X392400Y26913D01*
X392293Y26889D01*
X392186Y26861D01*
X392080Y26829D01*
X391975Y26794D01*
X391872Y26756D01*
X391770Y26714D01*
X391670Y26668D01*
X391571Y26619D01*
X391473Y26567D01*
X391378Y26512D01*
X391285Y26453D01*
X391193Y26391D01*
X391104Y26326D01*
X391017Y26258D01*
X390932Y26187D01*
X390850Y26114D01*
X390770Y26037D01*
X390693Y25958D01*
X390619Y25877D01*
X390548Y25793D01*
X390479Y25706D01*
X390414Y25617D01*
X390351Y25526D01*
X390292Y25433D01*
X390236Y25338D01*
X390183Y25241D01*
X390133Y25143D01*
X390087Y25043D01*
X390044Y24941D01*
X390005Y24838D01*
X389969Y24733D01*
X394742Y22486D02*
X394813Y22556D01*
X394882Y22629D01*
X394948Y22704D01*
X395011Y22782D01*
X395071Y22862D01*
X395128Y22944D01*
X395182Y23028D01*
X395232Y23114D01*
X395280Y23202D01*
X395324Y23291D01*
X395365Y23383D01*
X395403Y23475D01*
X395437Y23569D01*
X395468Y23664D01*
X395495Y23760D01*
X395519Y23857D01*
X395539Y23955D01*
X395556Y24054D01*
X395568Y24153D01*
X395578Y24252D01*
X395583Y24352D01*
X395585Y24452D01*
X394743Y22487D02*
X389968Y16870D01*
X395585Y16870D01*
X401353Y16870D02*
X404162Y16870D01*
X404267Y16872D01*
X404372Y16878D01*
X404476Y16888D01*
X404581Y16901D01*
X404684Y16919D01*
X404787Y16940D01*
X404889Y16966D01*
X404990Y16995D01*
X405089Y17028D01*
X405188Y17064D01*
X405285Y17104D01*
X405380Y17148D01*
X405474Y17195D01*
X405566Y17246D01*
X405656Y17300D01*
X405744Y17358D01*
X405829Y17419D01*
X405913Y17483D01*
X405994Y17550D01*
X406072Y17620D01*
X406148Y17692D01*
X406220Y17768D01*
X406290Y17846D01*
X406357Y17927D01*
X406421Y18011D01*
X406482Y18096D01*
X406540Y18184D01*
X406594Y18274D01*
X406645Y18366D01*
X406692Y18460D01*
X406736Y18555D01*
X406776Y18652D01*
X406812Y18751D01*
X406845Y18850D01*
X406874Y18951D01*
X406900Y19053D01*
X406921Y19156D01*
X406939Y19259D01*
X406952Y19364D01*
X406962Y19468D01*
X406968Y19573D01*
X406970Y19678D01*
X406968Y19783D01*
X406962Y19888D01*
X406952Y19992D01*
X406939Y20097D01*
X406921Y20200D01*
X406900Y20303D01*
X406874Y20405D01*
X406845Y20506D01*
X406812Y20605D01*
X406776Y20704D01*
X406736Y20801D01*
X406692Y20896D01*
X406645Y20990D01*
X406594Y21082D01*
X406540Y21172D01*
X406482Y21260D01*
X406421Y21345D01*
X406357Y21429D01*
X406290Y21510D01*
X406220Y21588D01*
X406148Y21664D01*
X406072Y21736D01*
X405994Y21806D01*
X405913Y21873D01*
X405829Y21937D01*
X405744Y21998D01*
X405656Y22056D01*
X405566Y22110D01*
X405474Y22161D01*
X405380Y22208D01*
X405285Y22252D01*
X405188Y22292D01*
X405089Y22328D01*
X404990Y22361D01*
X404889Y22390D01*
X404787Y22416D01*
X404684Y22437D01*
X404581Y22455D01*
X404476Y22468D01*
X404372Y22478D01*
X404267Y22484D01*
X404162Y22486D01*
X404723Y26980D02*
X401353Y26980D01*
X404723Y26980D02*
X404817Y26978D01*
X404911Y26972D01*
X405005Y26962D01*
X405098Y26949D01*
X405190Y26931D01*
X405282Y26909D01*
X405372Y26884D01*
X405462Y26855D01*
X405550Y26822D01*
X405637Y26786D01*
X405722Y26746D01*
X405806Y26702D01*
X405887Y26655D01*
X405966Y26605D01*
X406044Y26551D01*
X406119Y26494D01*
X406191Y26434D01*
X406261Y26371D01*
X406328Y26305D01*
X406393Y26237D01*
X406454Y26165D01*
X406513Y26092D01*
X406568Y26015D01*
X406620Y25937D01*
X406669Y25857D01*
X406714Y25774D01*
X406756Y25690D01*
X406794Y25604D01*
X406829Y25516D01*
X406860Y25427D01*
X406887Y25337D01*
X406911Y25246D01*
X406930Y25154D01*
X406946Y25061D01*
X406958Y24968D01*
X406966Y24874D01*
X406970Y24780D01*
X406970Y24686D01*
X406966Y24592D01*
X406958Y24498D01*
X406946Y24405D01*
X406930Y24312D01*
X406911Y24220D01*
X406887Y24129D01*
X406860Y24039D01*
X406829Y23950D01*
X406794Y23862D01*
X406756Y23776D01*
X406714Y23692D01*
X406669Y23610D01*
X406620Y23529D01*
X406568Y23451D01*
X406513Y23374D01*
X406454Y23301D01*
X406393Y23229D01*
X406328Y23161D01*
X406261Y23095D01*
X406191Y23032D01*
X406119Y22972D01*
X406044Y22915D01*
X405966Y22861D01*
X405887Y22811D01*
X405806Y22764D01*
X405722Y22720D01*
X405637Y22680D01*
X405550Y22644D01*
X405462Y22611D01*
X405372Y22582D01*
X405282Y22557D01*
X405190Y22535D01*
X405098Y22517D01*
X405005Y22504D01*
X404911Y22494D01*
X404817Y22488D01*
X404723Y22486D01*
X404723Y22487D02*
X402477Y22487D01*
D11*
X0Y20638D03*
X25400Y20638D03*
X50800Y20638D03*
X76200Y20638D03*
X457200Y20638D03*
X508000Y20638D03*
X177800Y20638D03*
X228600Y20638D03*
D12*
X228600Y59100D02*
X228600Y101600D01*
X177800Y101600D02*
X177800Y59100D01*
X508000Y59100D02*
X508000Y101600D01*
X457200Y101600D02*
X457200Y59100D01*
X76200Y59100D02*
X76200Y101600D01*
X50800Y101600D02*
X50800Y59100D01*
X25400Y59100D02*
X25400Y101600D01*
X0Y101600D02*
X0Y59100D01*
D11*
X0Y101600D03*
X25400Y101600D03*
X50800Y101600D03*
X76200Y101600D03*
X177800Y101600D03*
X228600Y101600D03*
X457200Y101600D03*
X508000Y101600D03*
D13*
X228600Y80350D02*
X228600Y20638D01*
X177800Y20638D02*
X177800Y80350D01*
X508000Y80350D02*
X508000Y20638D01*
X457200Y20638D02*
X457200Y80350D01*
X76200Y80350D02*
X76200Y20638D01*
X50800Y20638D02*
X50800Y80350D01*
X25400Y80350D02*
X25400Y20638D01*
X0Y20638D02*
X0Y80350D01*
M02*
