M48
;GenerationSoftware,Autodesk,EAGLE,9.6.2*%
;CreationDate,2023-08-21T18:04:47Z*%
FMAT,2
ICI,OFF
METRIC,TZ,000.000
T1C1.200
%
G90
M71
T1
X0Y10160
X2540Y10160
X5080Y10160
X7620Y10160
X17780Y10160
X22860Y10160
X45720Y10160
X50800Y10160
X10160Y10160
X12700Y10160
X15240Y10160
X20320Y10160
X25400Y10160
X27940Y10160
X30480Y10160
X33020Y10160
X35560Y10160
X38100Y10160
X40640Y10160
X43180Y10160
X48260Y10160
M30