G04 EAGLE Gerber RS-274X export*
G75*
%MOMM*%
%FSLAX34Y34*%
%LPD*%
%IN*%
%IPPOS*%
%AMOC8*
5,1,8,0,0,1.08239X$1,22.5*%
G01*
%ADD10C,0.254000*%


D10*
X-14288Y20638D02*
X-14233Y19392D01*
X-14070Y18157D01*
X-13801Y16940D01*
X-13426Y15751D01*
X-12949Y14599D01*
X-12373Y13494D01*
X-11704Y12443D01*
X-10945Y11454D01*
X-10103Y10535D01*
X-9184Y9693D01*
X-8195Y8934D01*
X-7144Y8264D01*
X-6038Y7689D01*
X-4887Y7212D01*
X-3698Y6837D01*
X-2481Y6567D01*
X-1245Y6404D01*
X0Y6350D01*
X508000Y6350D01*
X509245Y6404D01*
X510481Y6567D01*
X511698Y6837D01*
X512887Y7212D01*
X514038Y7689D01*
X515144Y8264D01*
X516195Y8934D01*
X517184Y9693D01*
X518103Y10535D01*
X518945Y11454D01*
X519704Y12443D01*
X520373Y13494D01*
X520949Y14599D01*
X521426Y15751D01*
X521801Y16940D01*
X522070Y18157D01*
X522233Y19392D01*
X522288Y20638D01*
X522288Y101600D01*
X-14288Y101600D01*
X-14288Y20638D01*
X107600Y101263D02*
X107525Y100593D01*
X107375Y99936D01*
X107152Y99300D01*
X106860Y98693D01*
X106501Y98123D01*
X106081Y97596D01*
X105604Y97119D01*
X105078Y96699D01*
X104507Y96340D01*
X103900Y96048D01*
X103264Y95825D01*
X102607Y95675D01*
X101937Y95600D01*
X101263Y95600D01*
X100593Y95675D01*
X99936Y95825D01*
X99300Y96048D01*
X98693Y96340D01*
X98123Y96699D01*
X97596Y97119D01*
X97119Y97596D01*
X96699Y98123D01*
X96340Y98693D01*
X96048Y99300D01*
X95825Y99936D01*
X95675Y100593D01*
X95600Y101263D01*
X95600Y101937D01*
X95675Y102607D01*
X95825Y103264D01*
X96048Y103900D01*
X96340Y104507D01*
X96699Y105078D01*
X97119Y105604D01*
X97596Y106081D01*
X98123Y106501D01*
X98693Y106860D01*
X99300Y107152D01*
X99936Y107375D01*
X100593Y107525D01*
X101263Y107600D01*
X101937Y107600D01*
X102607Y107525D01*
X103264Y107375D01*
X103900Y107152D01*
X104507Y106860D01*
X105078Y106501D01*
X105604Y106081D01*
X106081Y105604D01*
X106501Y105078D01*
X106860Y104507D01*
X107152Y103900D01*
X107375Y103264D01*
X107525Y102607D01*
X107600Y101937D01*
X107600Y101263D01*
X133000Y101263D02*
X132925Y100593D01*
X132775Y99936D01*
X132552Y99300D01*
X132260Y98693D01*
X131901Y98123D01*
X131481Y97596D01*
X131004Y97119D01*
X130478Y96699D01*
X129907Y96340D01*
X129300Y96048D01*
X128664Y95825D01*
X128007Y95675D01*
X127337Y95600D01*
X126663Y95600D01*
X125993Y95675D01*
X125336Y95825D01*
X124700Y96048D01*
X124093Y96340D01*
X123523Y96699D01*
X122996Y97119D01*
X122519Y97596D01*
X122099Y98123D01*
X121740Y98693D01*
X121448Y99300D01*
X121225Y99936D01*
X121075Y100593D01*
X121000Y101263D01*
X121000Y101937D01*
X121075Y102607D01*
X121225Y103264D01*
X121448Y103900D01*
X121740Y104507D01*
X122099Y105078D01*
X122519Y105604D01*
X122996Y106081D01*
X123523Y106501D01*
X124093Y106860D01*
X124700Y107152D01*
X125336Y107375D01*
X125993Y107525D01*
X126663Y107600D01*
X127337Y107600D01*
X128007Y107525D01*
X128664Y107375D01*
X129300Y107152D01*
X129907Y106860D01*
X130478Y106501D01*
X131004Y106081D01*
X131481Y105604D01*
X131901Y105078D01*
X132260Y104507D01*
X132552Y103900D01*
X132775Y103264D01*
X132925Y102607D01*
X133000Y101937D01*
X133000Y101263D01*
X158400Y101263D02*
X158325Y100593D01*
X158175Y99936D01*
X157952Y99300D01*
X157660Y98693D01*
X157301Y98123D01*
X156881Y97596D01*
X156404Y97119D01*
X155878Y96699D01*
X155307Y96340D01*
X154700Y96048D01*
X154064Y95825D01*
X153407Y95675D01*
X152737Y95600D01*
X152063Y95600D01*
X151393Y95675D01*
X150736Y95825D01*
X150100Y96048D01*
X149493Y96340D01*
X148923Y96699D01*
X148396Y97119D01*
X147919Y97596D01*
X147499Y98123D01*
X147140Y98693D01*
X146848Y99300D01*
X146625Y99936D01*
X146475Y100593D01*
X146400Y101263D01*
X146400Y101937D01*
X146475Y102607D01*
X146625Y103264D01*
X146848Y103900D01*
X147140Y104507D01*
X147499Y105078D01*
X147919Y105604D01*
X148396Y106081D01*
X148923Y106501D01*
X149493Y106860D01*
X150100Y107152D01*
X150736Y107375D01*
X151393Y107525D01*
X152063Y107600D01*
X152737Y107600D01*
X153407Y107525D01*
X154064Y107375D01*
X154700Y107152D01*
X155307Y106860D01*
X155878Y106501D01*
X156404Y106081D01*
X156881Y105604D01*
X157301Y105078D01*
X157660Y104507D01*
X157952Y103900D01*
X158175Y103264D01*
X158325Y102607D01*
X158400Y101937D01*
X158400Y101263D01*
X209200Y101263D02*
X209125Y100593D01*
X208975Y99936D01*
X208752Y99300D01*
X208460Y98693D01*
X208101Y98123D01*
X207681Y97596D01*
X207204Y97119D01*
X206678Y96699D01*
X206107Y96340D01*
X205500Y96048D01*
X204864Y95825D01*
X204207Y95675D01*
X203537Y95600D01*
X202863Y95600D01*
X202193Y95675D01*
X201536Y95825D01*
X200900Y96048D01*
X200293Y96340D01*
X199723Y96699D01*
X199196Y97119D01*
X198719Y97596D01*
X198299Y98123D01*
X197940Y98693D01*
X197648Y99300D01*
X197425Y99936D01*
X197275Y100593D01*
X197200Y101263D01*
X197200Y101937D01*
X197275Y102607D01*
X197425Y103264D01*
X197648Y103900D01*
X197940Y104507D01*
X198299Y105078D01*
X198719Y105604D01*
X199196Y106081D01*
X199723Y106501D01*
X200293Y106860D01*
X200900Y107152D01*
X201536Y107375D01*
X202193Y107525D01*
X202863Y107600D01*
X203537Y107600D01*
X204207Y107525D01*
X204864Y107375D01*
X205500Y107152D01*
X206107Y106860D01*
X206678Y106501D01*
X207204Y106081D01*
X207681Y105604D01*
X208101Y105078D01*
X208460Y104507D01*
X208752Y103900D01*
X208975Y103264D01*
X209125Y102607D01*
X209200Y101937D01*
X209200Y101263D01*
X260000Y101263D02*
X259925Y100593D01*
X259775Y99936D01*
X259552Y99300D01*
X259260Y98693D01*
X258901Y98123D01*
X258481Y97596D01*
X258004Y97119D01*
X257478Y96699D01*
X256907Y96340D01*
X256300Y96048D01*
X255664Y95825D01*
X255007Y95675D01*
X254337Y95600D01*
X253663Y95600D01*
X252993Y95675D01*
X252336Y95825D01*
X251700Y96048D01*
X251093Y96340D01*
X250523Y96699D01*
X249996Y97119D01*
X249519Y97596D01*
X249099Y98123D01*
X248740Y98693D01*
X248448Y99300D01*
X248225Y99936D01*
X248075Y100593D01*
X248000Y101263D01*
X248000Y101937D01*
X248075Y102607D01*
X248225Y103264D01*
X248448Y103900D01*
X248740Y104507D01*
X249099Y105078D01*
X249519Y105604D01*
X249996Y106081D01*
X250523Y106501D01*
X251093Y106860D01*
X251700Y107152D01*
X252336Y107375D01*
X252993Y107525D01*
X253663Y107600D01*
X254337Y107600D01*
X255007Y107525D01*
X255664Y107375D01*
X256300Y107152D01*
X256907Y106860D01*
X257478Y106501D01*
X258004Y106081D01*
X258481Y105604D01*
X258901Y105078D01*
X259260Y104507D01*
X259552Y103900D01*
X259775Y103264D01*
X259925Y102607D01*
X260000Y101937D01*
X260000Y101263D01*
X285400Y101263D02*
X285325Y100593D01*
X285175Y99936D01*
X284952Y99300D01*
X284660Y98693D01*
X284301Y98123D01*
X283881Y97596D01*
X283404Y97119D01*
X282878Y96699D01*
X282307Y96340D01*
X281700Y96048D01*
X281064Y95825D01*
X280407Y95675D01*
X279737Y95600D01*
X279063Y95600D01*
X278393Y95675D01*
X277736Y95825D01*
X277100Y96048D01*
X276493Y96340D01*
X275923Y96699D01*
X275396Y97119D01*
X274919Y97596D01*
X274499Y98123D01*
X274140Y98693D01*
X273848Y99300D01*
X273625Y99936D01*
X273475Y100593D01*
X273400Y101263D01*
X273400Y101937D01*
X273475Y102607D01*
X273625Y103264D01*
X273848Y103900D01*
X274140Y104507D01*
X274499Y105078D01*
X274919Y105604D01*
X275396Y106081D01*
X275923Y106501D01*
X276493Y106860D01*
X277100Y107152D01*
X277736Y107375D01*
X278393Y107525D01*
X279063Y107600D01*
X279737Y107600D01*
X280407Y107525D01*
X281064Y107375D01*
X281700Y107152D01*
X282307Y106860D01*
X282878Y106501D01*
X283404Y106081D01*
X283881Y105604D01*
X284301Y105078D01*
X284660Y104507D01*
X284952Y103900D01*
X285175Y103264D01*
X285325Y102607D01*
X285400Y101937D01*
X285400Y101263D01*
X310800Y101263D02*
X310725Y100593D01*
X310575Y99936D01*
X310352Y99300D01*
X310060Y98693D01*
X309701Y98123D01*
X309281Y97596D01*
X308804Y97119D01*
X308278Y96699D01*
X307707Y96340D01*
X307100Y96048D01*
X306464Y95825D01*
X305807Y95675D01*
X305137Y95600D01*
X304463Y95600D01*
X303793Y95675D01*
X303136Y95825D01*
X302500Y96048D01*
X301893Y96340D01*
X301323Y96699D01*
X300796Y97119D01*
X300319Y97596D01*
X299899Y98123D01*
X299540Y98693D01*
X299248Y99300D01*
X299025Y99936D01*
X298875Y100593D01*
X298800Y101263D01*
X298800Y101937D01*
X298875Y102607D01*
X299025Y103264D01*
X299248Y103900D01*
X299540Y104507D01*
X299899Y105078D01*
X300319Y105604D01*
X300796Y106081D01*
X301323Y106501D01*
X301893Y106860D01*
X302500Y107152D01*
X303136Y107375D01*
X303793Y107525D01*
X304463Y107600D01*
X305137Y107600D01*
X305807Y107525D01*
X306464Y107375D01*
X307100Y107152D01*
X307707Y106860D01*
X308278Y106501D01*
X308804Y106081D01*
X309281Y105604D01*
X309701Y105078D01*
X310060Y104507D01*
X310352Y103900D01*
X310575Y103264D01*
X310725Y102607D01*
X310800Y101937D01*
X310800Y101263D01*
X336200Y101263D02*
X336125Y100593D01*
X335975Y99936D01*
X335752Y99300D01*
X335460Y98693D01*
X335101Y98123D01*
X334681Y97596D01*
X334204Y97119D01*
X333678Y96699D01*
X333107Y96340D01*
X332500Y96048D01*
X331864Y95825D01*
X331207Y95675D01*
X330537Y95600D01*
X329863Y95600D01*
X329193Y95675D01*
X328536Y95825D01*
X327900Y96048D01*
X327293Y96340D01*
X326723Y96699D01*
X326196Y97119D01*
X325719Y97596D01*
X325299Y98123D01*
X324940Y98693D01*
X324648Y99300D01*
X324425Y99936D01*
X324275Y100593D01*
X324200Y101263D01*
X324200Y101937D01*
X324275Y102607D01*
X324425Y103264D01*
X324648Y103900D01*
X324940Y104507D01*
X325299Y105078D01*
X325719Y105604D01*
X326196Y106081D01*
X326723Y106501D01*
X327293Y106860D01*
X327900Y107152D01*
X328536Y107375D01*
X329193Y107525D01*
X329863Y107600D01*
X330537Y107600D01*
X331207Y107525D01*
X331864Y107375D01*
X332500Y107152D01*
X333107Y106860D01*
X333678Y106501D01*
X334204Y106081D01*
X334681Y105604D01*
X335101Y105078D01*
X335460Y104507D01*
X335752Y103900D01*
X335975Y103264D01*
X336125Y102607D01*
X336200Y101937D01*
X336200Y101263D01*
X361600Y101263D02*
X361525Y100593D01*
X361375Y99936D01*
X361152Y99300D01*
X360860Y98693D01*
X360501Y98123D01*
X360081Y97596D01*
X359604Y97119D01*
X359078Y96699D01*
X358507Y96340D01*
X357900Y96048D01*
X357264Y95825D01*
X356607Y95675D01*
X355937Y95600D01*
X355263Y95600D01*
X354593Y95675D01*
X353936Y95825D01*
X353300Y96048D01*
X352693Y96340D01*
X352123Y96699D01*
X351596Y97119D01*
X351119Y97596D01*
X350699Y98123D01*
X350340Y98693D01*
X350048Y99300D01*
X349825Y99936D01*
X349675Y100593D01*
X349600Y101263D01*
X349600Y101937D01*
X349675Y102607D01*
X349825Y103264D01*
X350048Y103900D01*
X350340Y104507D01*
X350699Y105078D01*
X351119Y105604D01*
X351596Y106081D01*
X352123Y106501D01*
X352693Y106860D01*
X353300Y107152D01*
X353936Y107375D01*
X354593Y107525D01*
X355263Y107600D01*
X355937Y107600D01*
X356607Y107525D01*
X357264Y107375D01*
X357900Y107152D01*
X358507Y106860D01*
X359078Y106501D01*
X359604Y106081D01*
X360081Y105604D01*
X360501Y105078D01*
X360860Y104507D01*
X361152Y103900D01*
X361375Y103264D01*
X361525Y102607D01*
X361600Y101937D01*
X361600Y101263D01*
X387000Y101263D02*
X386925Y100593D01*
X386775Y99936D01*
X386552Y99300D01*
X386260Y98693D01*
X385901Y98123D01*
X385481Y97596D01*
X385004Y97119D01*
X384478Y96699D01*
X383907Y96340D01*
X383300Y96048D01*
X382664Y95825D01*
X382007Y95675D01*
X381337Y95600D01*
X380663Y95600D01*
X379993Y95675D01*
X379336Y95825D01*
X378700Y96048D01*
X378093Y96340D01*
X377523Y96699D01*
X376996Y97119D01*
X376519Y97596D01*
X376099Y98123D01*
X375740Y98693D01*
X375448Y99300D01*
X375225Y99936D01*
X375075Y100593D01*
X375000Y101263D01*
X375000Y101937D01*
X375075Y102607D01*
X375225Y103264D01*
X375448Y103900D01*
X375740Y104507D01*
X376099Y105078D01*
X376519Y105604D01*
X376996Y106081D01*
X377523Y106501D01*
X378093Y106860D01*
X378700Y107152D01*
X379336Y107375D01*
X379993Y107525D01*
X380663Y107600D01*
X381337Y107600D01*
X382007Y107525D01*
X382664Y107375D01*
X383300Y107152D01*
X383907Y106860D01*
X384478Y106501D01*
X385004Y106081D01*
X385481Y105604D01*
X385901Y105078D01*
X386260Y104507D01*
X386552Y103900D01*
X386775Y103264D01*
X386925Y102607D01*
X387000Y101937D01*
X387000Y101263D01*
X412400Y101263D02*
X412325Y100593D01*
X412175Y99936D01*
X411952Y99300D01*
X411660Y98693D01*
X411301Y98123D01*
X410881Y97596D01*
X410404Y97119D01*
X409878Y96699D01*
X409307Y96340D01*
X408700Y96048D01*
X408064Y95825D01*
X407407Y95675D01*
X406737Y95600D01*
X406063Y95600D01*
X405393Y95675D01*
X404736Y95825D01*
X404100Y96048D01*
X403493Y96340D01*
X402923Y96699D01*
X402396Y97119D01*
X401919Y97596D01*
X401499Y98123D01*
X401140Y98693D01*
X400848Y99300D01*
X400625Y99936D01*
X400475Y100593D01*
X400400Y101263D01*
X400400Y101937D01*
X400475Y102607D01*
X400625Y103264D01*
X400848Y103900D01*
X401140Y104507D01*
X401499Y105078D01*
X401919Y105604D01*
X402396Y106081D01*
X402923Y106501D01*
X403493Y106860D01*
X404100Y107152D01*
X404736Y107375D01*
X405393Y107525D01*
X406063Y107600D01*
X406737Y107600D01*
X407407Y107525D01*
X408064Y107375D01*
X408700Y107152D01*
X409307Y106860D01*
X409878Y106501D01*
X410404Y106081D01*
X410881Y105604D01*
X411301Y105078D01*
X411660Y104507D01*
X411952Y103900D01*
X412175Y103264D01*
X412325Y102607D01*
X412400Y101937D01*
X412400Y101263D01*
X437800Y101263D02*
X437725Y100593D01*
X437575Y99936D01*
X437352Y99300D01*
X437060Y98693D01*
X436701Y98123D01*
X436281Y97596D01*
X435804Y97119D01*
X435278Y96699D01*
X434707Y96340D01*
X434100Y96048D01*
X433464Y95825D01*
X432807Y95675D01*
X432137Y95600D01*
X431463Y95600D01*
X430793Y95675D01*
X430136Y95825D01*
X429500Y96048D01*
X428893Y96340D01*
X428323Y96699D01*
X427796Y97119D01*
X427319Y97596D01*
X426899Y98123D01*
X426540Y98693D01*
X426248Y99300D01*
X426025Y99936D01*
X425875Y100593D01*
X425800Y101263D01*
X425800Y101937D01*
X425875Y102607D01*
X426025Y103264D01*
X426248Y103900D01*
X426540Y104507D01*
X426899Y105078D01*
X427319Y105604D01*
X427796Y106081D01*
X428323Y106501D01*
X428893Y106860D01*
X429500Y107152D01*
X430136Y107375D01*
X430793Y107525D01*
X431463Y107600D01*
X432137Y107600D01*
X432807Y107525D01*
X433464Y107375D01*
X434100Y107152D01*
X434707Y106860D01*
X435278Y106501D01*
X435804Y106081D01*
X436281Y105604D01*
X436701Y105078D01*
X437060Y104507D01*
X437352Y103900D01*
X437575Y103264D01*
X437725Y102607D01*
X437800Y101937D01*
X437800Y101263D01*
X488600Y101263D02*
X488525Y100593D01*
X488375Y99936D01*
X488152Y99300D01*
X487860Y98693D01*
X487501Y98123D01*
X487081Y97596D01*
X486604Y97119D01*
X486078Y96699D01*
X485507Y96340D01*
X484900Y96048D01*
X484264Y95825D01*
X483607Y95675D01*
X482937Y95600D01*
X482263Y95600D01*
X481593Y95675D01*
X480936Y95825D01*
X480300Y96048D01*
X479693Y96340D01*
X479123Y96699D01*
X478596Y97119D01*
X478119Y97596D01*
X477699Y98123D01*
X477340Y98693D01*
X477048Y99300D01*
X476825Y99936D01*
X476675Y100593D01*
X476600Y101263D01*
X476600Y101937D01*
X476675Y102607D01*
X476825Y103264D01*
X477048Y103900D01*
X477340Y104507D01*
X477699Y105078D01*
X478119Y105604D01*
X478596Y106081D01*
X479123Y106501D01*
X479693Y106860D01*
X480300Y107152D01*
X480936Y107375D01*
X481593Y107525D01*
X482263Y107600D01*
X482937Y107600D01*
X483607Y107525D01*
X484264Y107375D01*
X484900Y107152D01*
X485507Y106860D01*
X486078Y106501D01*
X486604Y106081D01*
X487081Y105604D01*
X487501Y105078D01*
X487860Y104507D01*
X488152Y103900D01*
X488375Y103264D01*
X488525Y102607D01*
X488600Y101937D01*
X488600Y101263D01*
M02*
