G04 EAGLE Gerber RS-274X export*
G75*
%MOMM*%
%FSLAX34Y34*%
%LPD*%
%INSoldermask Top*%
%IPPOS*%
%AMOC8*
5,1,8,0,0,1.08239X$1,22.5*%
G01*
%ADD10C,1.327000*%
%ADD11C,1.627000*%
%ADD12C,1.627000*%


D10*
X101600Y101600D03*
X127000Y101600D03*
X152400Y101600D03*
X203200Y101600D03*
X254000Y101600D03*
X279400Y101600D03*
X304800Y101600D03*
X330200Y101600D03*
X355600Y101600D03*
X381000Y101600D03*
X406400Y101600D03*
X431800Y101600D03*
X482600Y101600D03*
D11*
X0Y20638D03*
X25400Y20638D03*
X50800Y20638D03*
X76200Y20638D03*
X457200Y20638D03*
X508000Y20638D03*
X177800Y20638D03*
X228600Y20638D03*
D12*
X228600Y59100D02*
X228600Y101600D01*
X177800Y101600D02*
X177800Y59100D01*
X508000Y59100D02*
X508000Y101600D01*
X457200Y101600D02*
X457200Y59100D01*
X76200Y59100D02*
X76200Y101600D01*
X50800Y101600D02*
X50800Y59100D01*
X25400Y59100D02*
X25400Y101600D01*
X0Y101600D02*
X0Y59100D01*
D11*
X0Y101600D03*
X25400Y101600D03*
X50800Y101600D03*
X76200Y101600D03*
X177800Y101600D03*
X228600Y101600D03*
X457200Y101600D03*
X508000Y101600D03*
M02*
