G04 EAGLE Gerber RS-274X export*
G75*
%MOMM*%
%FSLAX34Y34*%
%LPD*%
%INTop Copper*%
%IPPOS*%
%AMOC8*
5,1,8,0,0,1.08239X$1,22.5*%
G01*
%ADD10C,0.228600*%
%ADD11C,0.254000*%
%ADD12C,0.304800*%
%ADD13C,1.500000*%
%ADD14C,1.500000*%
%ADD15C,0.203200*%

G36*
X215025Y15566D02*
X215025Y15566D01*
X215035Y15565D01*
X218020Y18551D01*
X218951Y18551D01*
X218951Y17600D01*
X218967Y17579D01*
X218965Y17565D01*
X219965Y16565D01*
X220024Y16557D01*
X220025Y16566D01*
X220035Y16565D01*
X238035Y34565D01*
X238035Y34568D01*
X238038Y34568D01*
X249038Y47568D01*
X249038Y47573D01*
X249041Y47573D01*
X257041Y59573D01*
X257041Y59579D01*
X257045Y59581D01*
X260045Y66581D01*
X260042Y66594D01*
X260049Y66600D01*
X260049Y71600D01*
X260033Y71621D01*
X260035Y71635D01*
X257035Y74635D01*
X257016Y74637D01*
X257012Y74648D01*
X253012Y75648D01*
X253004Y75644D01*
X253000Y75649D01*
X244000Y75649D01*
X243994Y75645D01*
X243990Y75648D01*
X239197Y74690D01*
X252030Y84561D01*
X252034Y84577D01*
X252046Y84586D01*
X252039Y84595D01*
X252046Y84618D01*
X252033Y84622D01*
X252035Y84635D01*
X249035Y87635D01*
X248993Y87641D01*
X248984Y87647D01*
X210984Y74647D01*
X210980Y74641D01*
X210976Y74643D01*
X210144Y74167D01*
X210141Y74160D01*
X210134Y74159D01*
X210136Y74146D01*
X210121Y74112D01*
X210142Y74103D01*
X210145Y74081D01*
X211579Y73278D01*
X210143Y72416D01*
X210140Y72407D01*
X210130Y72405D01*
X210134Y72392D01*
X210121Y72361D01*
X210144Y72352D01*
X210149Y72329D01*
X214252Y70578D01*
X214278Y70585D01*
X214290Y70578D01*
X228835Y76279D01*
X215956Y64176D01*
X215955Y64175D01*
X215954Y64174D01*
X215955Y64171D01*
X215946Y64117D01*
X215963Y64114D01*
X215965Y64097D01*
X220271Y61711D01*
X220312Y61716D01*
X220323Y61713D01*
X222939Y63467D01*
X223987Y62532D01*
X224046Y62527D01*
X224047Y62533D01*
X224053Y62532D01*
X226289Y64595D01*
X231200Y67530D01*
X234714Y69098D01*
X236682Y69620D01*
X243010Y69649D01*
X244609Y69077D01*
X245383Y66842D01*
X244920Y63893D01*
X240067Y54504D01*
X230971Y41628D01*
X221930Y30428D01*
X216136Y23882D01*
X211219Y18699D01*
X211212Y18640D01*
X211219Y18639D01*
X211218Y18632D01*
X213491Y16090D01*
X213549Y16078D01*
X213551Y16090D01*
X213563Y16088D01*
X214000Y16530D01*
X214965Y15565D01*
X215024Y15557D01*
X215025Y15566D01*
G37*
G36*
X97005Y37599D02*
X97005Y37599D01*
X97005Y37600D01*
X97005Y51592D01*
X104995Y47597D01*
X104995Y37600D01*
X104999Y37595D01*
X105000Y37595D01*
X116000Y37595D01*
X116005Y37599D01*
X116005Y37600D01*
X116005Y57600D01*
X116001Y57605D01*
X116000Y57605D01*
X105000Y57605D01*
X104995Y57601D01*
X104995Y57600D01*
X104995Y53608D01*
X97002Y57604D01*
X97001Y57604D01*
X97000Y57605D01*
X86000Y57605D01*
X85995Y57601D01*
X85995Y57600D01*
X85995Y37600D01*
X85999Y37595D01*
X86000Y37595D01*
X97000Y37595D01*
X97005Y37599D01*
G37*
G36*
X42002Y37597D02*
X42002Y37597D01*
X42004Y37596D01*
X48004Y43596D01*
X48004Y43599D01*
X48005Y43600D01*
X48005Y49600D01*
X48001Y49605D01*
X48000Y49605D01*
X36000Y49605D01*
X35998Y49603D01*
X35996Y49604D01*
X31996Y45604D01*
X31996Y45602D01*
X31995Y45601D01*
X31996Y45599D01*
X31996Y45597D01*
X31998Y45597D01*
X32000Y45595D01*
X36995Y45595D01*
X36995Y42605D01*
X29005Y42605D01*
X29005Y52595D01*
X43000Y52595D01*
X43002Y52597D01*
X43004Y52596D01*
X48004Y57596D01*
X48004Y57598D01*
X48004Y57599D01*
X48005Y57599D01*
X48004Y57601D01*
X48004Y57603D01*
X48002Y57603D01*
X48000Y57605D01*
X24000Y57605D01*
X23998Y57603D01*
X23996Y57604D01*
X17996Y51604D01*
X17996Y51601D01*
X17995Y51600D01*
X17995Y37600D01*
X17999Y37595D01*
X18000Y37595D01*
X42000Y37595D01*
X42002Y37597D01*
G37*
G36*
X173002Y37597D02*
X173002Y37597D01*
X173004Y37596D01*
X179004Y43596D01*
X179004Y43599D01*
X179005Y43600D01*
X179005Y49600D01*
X179001Y49605D01*
X179000Y49605D01*
X160005Y49605D01*
X160005Y52595D01*
X174000Y52595D01*
X174002Y52597D01*
X174004Y52596D01*
X179004Y57596D01*
X179004Y57598D01*
X179004Y57599D01*
X179005Y57599D01*
X179004Y57601D01*
X179004Y57603D01*
X179002Y57603D01*
X179000Y57605D01*
X155000Y57605D01*
X154998Y57603D01*
X154996Y57604D01*
X148996Y51604D01*
X148996Y51601D01*
X148995Y51600D01*
X148995Y45600D01*
X148999Y45595D01*
X149000Y45595D01*
X167995Y45595D01*
X167995Y42605D01*
X154000Y42605D01*
X153998Y42603D01*
X153996Y42604D01*
X148996Y37604D01*
X148996Y37602D01*
X148995Y37601D01*
X148996Y37599D01*
X148996Y37597D01*
X148998Y37597D01*
X149000Y37595D01*
X173000Y37595D01*
X173002Y37597D01*
G37*
G36*
X222002Y37597D02*
X222002Y37597D01*
X222004Y37596D01*
X228004Y43596D01*
X228004Y43599D01*
X228005Y43600D01*
X228005Y49600D01*
X228001Y49605D01*
X228000Y49605D01*
X209005Y49605D01*
X209005Y52595D01*
X223000Y52595D01*
X223002Y52597D01*
X223004Y52596D01*
X228004Y57596D01*
X228004Y57598D01*
X228004Y57599D01*
X228005Y57599D01*
X228004Y57601D01*
X228004Y57603D01*
X228002Y57603D01*
X228000Y57605D01*
X204000Y57605D01*
X203998Y57603D01*
X203996Y57604D01*
X197996Y51604D01*
X197996Y51601D01*
X197995Y51600D01*
X197995Y45600D01*
X197999Y45595D01*
X198000Y45595D01*
X216995Y45595D01*
X216995Y42605D01*
X203000Y42605D01*
X202998Y42603D01*
X202996Y42604D01*
X197996Y37604D01*
X197996Y37602D01*
X197995Y37601D01*
X197996Y37599D01*
X197996Y37597D01*
X197998Y37597D01*
X198000Y37595D01*
X222000Y37595D01*
X222002Y37597D01*
G37*
G36*
X145002Y37597D02*
X145002Y37597D01*
X145004Y37596D01*
X150004Y42596D01*
X150004Y42598D01*
X150005Y42599D01*
X150004Y42601D01*
X150004Y42603D01*
X150002Y42603D01*
X150000Y42605D01*
X131005Y42605D01*
X131005Y45595D01*
X141000Y45595D01*
X141002Y45597D01*
X141004Y45596D01*
X145004Y49596D01*
X145004Y49598D01*
X145004Y49599D01*
X145005Y49599D01*
X145004Y49601D01*
X145004Y49603D01*
X145002Y49603D01*
X145000Y49605D01*
X131005Y49605D01*
X131005Y52595D01*
X145000Y52595D01*
X145002Y52597D01*
X145004Y52596D01*
X150004Y57596D01*
X150004Y57598D01*
X150004Y57599D01*
X150005Y57599D01*
X150004Y57601D01*
X150004Y57603D01*
X150002Y57603D01*
X150000Y57605D01*
X126000Y57605D01*
X125998Y57603D01*
X125996Y57604D01*
X119996Y51604D01*
X119996Y51601D01*
X119995Y51600D01*
X119995Y37600D01*
X119999Y37595D01*
X120000Y37595D01*
X145000Y37595D01*
X145002Y37597D01*
G37*
G36*
X77002Y37597D02*
X77002Y37597D01*
X77004Y37596D01*
X82004Y42596D01*
X82004Y42598D01*
X82005Y42599D01*
X82004Y42601D01*
X82004Y42603D01*
X82002Y42603D01*
X82000Y42605D01*
X63005Y42605D01*
X63005Y45595D01*
X73000Y45595D01*
X73002Y45597D01*
X73004Y45596D01*
X77004Y49596D01*
X77004Y49598D01*
X77004Y49599D01*
X77005Y49599D01*
X77004Y49601D01*
X77004Y49603D01*
X77002Y49603D01*
X77000Y49605D01*
X63005Y49605D01*
X63005Y52595D01*
X77000Y52595D01*
X77002Y52597D01*
X77004Y52596D01*
X82004Y57596D01*
X82004Y57598D01*
X82004Y57599D01*
X82005Y57599D01*
X82004Y57601D01*
X82004Y57603D01*
X82002Y57603D01*
X82000Y57605D01*
X58000Y57605D01*
X57998Y57603D01*
X57996Y57604D01*
X51996Y51604D01*
X51996Y51601D01*
X51995Y51600D01*
X51995Y37600D01*
X51999Y37595D01*
X52000Y37595D01*
X77000Y37595D01*
X77002Y37597D01*
G37*
G36*
X686002Y51597D02*
X686002Y51597D01*
X686004Y51596D01*
X689004Y54596D01*
X689004Y54599D01*
X689005Y54600D01*
X689005Y63600D01*
X689003Y63602D01*
X689004Y63604D01*
X686004Y66604D01*
X686001Y66604D01*
X686000Y66605D01*
X670000Y66605D01*
X669998Y66603D01*
X669996Y66604D01*
X666996Y63604D01*
X666996Y63601D01*
X666995Y63600D01*
X666995Y54600D01*
X666997Y54598D01*
X666996Y54596D01*
X669996Y51596D01*
X669999Y51596D01*
X670000Y51595D01*
X686000Y51595D01*
X686002Y51597D01*
G37*
G36*
X652002Y32597D02*
X652002Y32597D01*
X652004Y32596D01*
X655004Y35596D01*
X655004Y35599D01*
X655005Y35600D01*
X655005Y44600D01*
X655003Y44602D01*
X655004Y44604D01*
X652004Y47604D01*
X652001Y47604D01*
X652000Y47605D01*
X636000Y47605D01*
X635998Y47603D01*
X635996Y47604D01*
X632996Y44604D01*
X632996Y44601D01*
X632995Y44600D01*
X632995Y35600D01*
X632997Y35598D01*
X632996Y35596D01*
X635996Y32596D01*
X635999Y32596D01*
X636000Y32595D01*
X652000Y32595D01*
X652002Y32597D01*
G37*
G36*
X626005Y70599D02*
X626005Y70599D01*
X626005Y70600D01*
X626005Y76595D01*
X632995Y76595D01*
X632995Y70600D01*
X632999Y70595D01*
X633000Y70595D01*
X641000Y70595D01*
X641005Y70599D01*
X641005Y70600D01*
X641005Y85600D01*
X641001Y85605D01*
X641000Y85605D01*
X623000Y85605D01*
X622998Y85603D01*
X622996Y85604D01*
X617996Y80604D01*
X617996Y80601D01*
X617995Y80600D01*
X617995Y70600D01*
X617999Y70595D01*
X618000Y70595D01*
X626000Y70595D01*
X626005Y70599D01*
G37*
G36*
X590005Y51599D02*
X590005Y51599D01*
X590005Y51600D01*
X590005Y61592D01*
X596995Y58597D01*
X596995Y51600D01*
X596999Y51595D01*
X597000Y51595D01*
X605000Y51595D01*
X605005Y51599D01*
X605005Y51600D01*
X605005Y66600D01*
X605001Y66605D01*
X605000Y66605D01*
X597000Y66605D01*
X596995Y66601D01*
X596995Y66600D01*
X596995Y63608D01*
X590002Y66605D01*
X590001Y66604D01*
X590000Y66605D01*
X582000Y66605D01*
X581995Y66601D01*
X581995Y66600D01*
X581995Y51600D01*
X581999Y51595D01*
X582000Y51595D01*
X590000Y51595D01*
X590005Y51599D01*
G37*
G36*
X700005Y51599D02*
X700005Y51599D01*
X700005Y51600D01*
X700005Y61592D01*
X706995Y58597D01*
X706995Y51600D01*
X706999Y51595D01*
X707000Y51595D01*
X715000Y51595D01*
X715005Y51599D01*
X715005Y51600D01*
X715005Y66600D01*
X715001Y66605D01*
X715000Y66605D01*
X707000Y66605D01*
X706995Y66601D01*
X706995Y66600D01*
X706995Y63608D01*
X700002Y66605D01*
X700001Y66604D01*
X700000Y66605D01*
X692000Y66605D01*
X691995Y66601D01*
X691995Y66600D01*
X691995Y51600D01*
X691999Y51595D01*
X692000Y51595D01*
X700000Y51595D01*
X700005Y51599D01*
G37*
G36*
X666005Y32599D02*
X666005Y32599D01*
X666005Y32600D01*
X666005Y44595D01*
X672995Y44595D01*
X672995Y41605D01*
X668000Y41605D01*
X667999Y41604D01*
X667998Y41605D01*
X667998Y41603D01*
X667995Y41601D01*
X667996Y41599D01*
X667996Y41598D01*
X672996Y32598D01*
X672999Y32597D01*
X673000Y32595D01*
X681000Y32595D01*
X681001Y32596D01*
X681002Y32595D01*
X681002Y32597D01*
X681005Y32599D01*
X681004Y32601D01*
X681004Y32602D01*
X678006Y38598D01*
X681003Y40596D01*
X681003Y40598D01*
X681004Y40599D01*
X681005Y40600D01*
X681005Y47600D01*
X681001Y47605D01*
X681000Y47605D01*
X663000Y47605D01*
X662998Y47603D01*
X662996Y47604D01*
X657996Y42604D01*
X657996Y42601D01*
X657995Y42600D01*
X657995Y32600D01*
X657999Y32595D01*
X658000Y32595D01*
X666000Y32595D01*
X666005Y32599D01*
G37*
G36*
X547005Y32599D02*
X547005Y32599D01*
X547005Y32600D01*
X547005Y44595D01*
X553995Y44595D01*
X553995Y41605D01*
X549000Y41605D01*
X548999Y41604D01*
X548998Y41605D01*
X548998Y41603D01*
X548995Y41601D01*
X548996Y41599D01*
X548996Y41598D01*
X553996Y32598D01*
X553999Y32597D01*
X554000Y32595D01*
X562000Y32595D01*
X562001Y32596D01*
X562002Y32595D01*
X562002Y32597D01*
X562005Y32599D01*
X562004Y32601D01*
X562004Y32602D01*
X559006Y38598D01*
X562003Y40596D01*
X562003Y40598D01*
X562004Y40599D01*
X562005Y40600D01*
X562005Y47600D01*
X562001Y47605D01*
X562000Y47605D01*
X544000Y47605D01*
X543998Y47603D01*
X543996Y47604D01*
X538996Y42604D01*
X538996Y42601D01*
X538995Y42600D01*
X538995Y32600D01*
X538999Y32595D01*
X539000Y32595D01*
X547000Y32595D01*
X547005Y32599D01*
G37*
G36*
X610002Y70597D02*
X610002Y70597D01*
X610004Y70596D01*
X615004Y75596D01*
X615004Y75599D01*
X615005Y75600D01*
X615005Y85600D01*
X615001Y85605D01*
X615000Y85605D01*
X607000Y85605D01*
X606995Y85601D01*
X606995Y85600D01*
X606995Y76602D01*
X603998Y73605D01*
X603002Y73605D01*
X600005Y76602D01*
X600005Y85600D01*
X600001Y85605D01*
X600000Y85605D01*
X592000Y85605D01*
X591995Y85601D01*
X591995Y85600D01*
X591995Y75600D01*
X591997Y75598D01*
X591996Y75596D01*
X596996Y70596D01*
X596999Y70596D01*
X597000Y70595D01*
X610000Y70595D01*
X610002Y70597D01*
G37*
G36*
X574002Y51597D02*
X574002Y51597D01*
X574004Y51596D01*
X579004Y56596D01*
X579004Y56599D01*
X579005Y56600D01*
X579005Y66600D01*
X579001Y66605D01*
X579000Y66605D01*
X571000Y66605D01*
X570995Y66601D01*
X570995Y66600D01*
X570995Y54605D01*
X564005Y54605D01*
X564005Y66600D01*
X564001Y66605D01*
X564000Y66605D01*
X556000Y66605D01*
X555995Y66601D01*
X555995Y66600D01*
X555995Y56600D01*
X555997Y56598D01*
X555996Y56596D01*
X560996Y51596D01*
X560999Y51596D01*
X561000Y51595D01*
X574000Y51595D01*
X574002Y51597D01*
G37*
G36*
X606002Y32597D02*
X606002Y32597D01*
X606004Y32596D01*
X611004Y37596D01*
X611004Y37599D01*
X611005Y37600D01*
X611005Y41600D01*
X611001Y41605D01*
X611000Y41605D01*
X596005Y41605D01*
X596005Y44595D01*
X608000Y44595D01*
X608002Y44597D01*
X608004Y44596D01*
X611004Y47596D01*
X611004Y47598D01*
X611005Y47599D01*
X611004Y47601D01*
X611004Y47603D01*
X611002Y47603D01*
X611000Y47605D01*
X593000Y47605D01*
X592998Y47603D01*
X592996Y47604D01*
X587996Y42604D01*
X587996Y42601D01*
X587995Y42600D01*
X587995Y38600D01*
X587999Y38595D01*
X588000Y38595D01*
X602995Y38595D01*
X602995Y35605D01*
X591000Y35605D01*
X590998Y35603D01*
X590996Y35604D01*
X587996Y32604D01*
X587996Y32602D01*
X587995Y32601D01*
X587996Y32599D01*
X587996Y32597D01*
X587998Y32597D01*
X588000Y32595D01*
X606000Y32595D01*
X606002Y32597D01*
G37*
G36*
X704002Y32597D02*
X704002Y32597D01*
X704004Y32596D01*
X707004Y35596D01*
X707004Y35598D01*
X707005Y35599D01*
X707004Y35601D01*
X707004Y35603D01*
X707002Y35603D01*
X707000Y35605D01*
X692005Y35605D01*
X692005Y38595D01*
X701000Y38595D01*
X701002Y38597D01*
X701004Y38596D01*
X704004Y41596D01*
X704004Y41598D01*
X704005Y41599D01*
X704004Y41601D01*
X704004Y41603D01*
X704002Y41603D01*
X704000Y41605D01*
X692005Y41605D01*
X692005Y44595D01*
X704000Y44595D01*
X704002Y44597D01*
X704004Y44596D01*
X707004Y47596D01*
X707004Y47598D01*
X707005Y47599D01*
X707004Y47601D01*
X707004Y47603D01*
X707002Y47603D01*
X707000Y47605D01*
X689000Y47605D01*
X688998Y47603D01*
X688996Y47604D01*
X683996Y42604D01*
X683996Y42601D01*
X683995Y42600D01*
X683995Y32600D01*
X683999Y32595D01*
X684000Y32595D01*
X704000Y32595D01*
X704002Y32597D01*
G37*
G36*
X585002Y32597D02*
X585002Y32597D01*
X585004Y32596D01*
X588004Y35596D01*
X588004Y35598D01*
X588005Y35599D01*
X588004Y35601D01*
X588004Y35603D01*
X588002Y35603D01*
X588000Y35605D01*
X573005Y35605D01*
X573005Y38595D01*
X582000Y38595D01*
X582002Y38597D01*
X582004Y38596D01*
X585004Y41596D01*
X585004Y41598D01*
X585005Y41599D01*
X585004Y41601D01*
X585004Y41603D01*
X585002Y41603D01*
X585000Y41605D01*
X573005Y41605D01*
X573005Y44595D01*
X585000Y44595D01*
X585002Y44597D01*
X585004Y44596D01*
X588004Y47596D01*
X588004Y47598D01*
X588005Y47599D01*
X588004Y47601D01*
X588004Y47603D01*
X588002Y47603D01*
X588000Y47605D01*
X570000Y47605D01*
X569998Y47603D01*
X569996Y47604D01*
X564996Y42604D01*
X564996Y42601D01*
X564995Y42600D01*
X564995Y32600D01*
X564999Y32595D01*
X565000Y32595D01*
X585000Y32595D01*
X585002Y32597D01*
G37*
G36*
X194005Y37599D02*
X194005Y37599D01*
X194005Y37600D01*
X194005Y57600D01*
X194001Y57605D01*
X194000Y57605D01*
X183000Y57605D01*
X182995Y57601D01*
X182995Y57600D01*
X182995Y37600D01*
X182999Y37595D01*
X183000Y37595D01*
X194000Y37595D01*
X194005Y37599D01*
G37*
G36*
X628002Y51597D02*
X628002Y51597D01*
X628004Y51596D01*
X631004Y54596D01*
X631004Y54598D01*
X631005Y54599D01*
X631004Y54601D01*
X631004Y54603D01*
X631002Y54603D01*
X631000Y54605D01*
X616005Y54605D01*
X616005Y63595D01*
X628000Y63595D01*
X628002Y63597D01*
X628004Y63596D01*
X631004Y66596D01*
X631004Y66598D01*
X631005Y66599D01*
X631004Y66601D01*
X631004Y66603D01*
X631002Y66603D01*
X631000Y66605D01*
X613000Y66605D01*
X612998Y66603D01*
X612996Y66604D01*
X607996Y61604D01*
X607996Y61601D01*
X607995Y61600D01*
X607995Y51600D01*
X607999Y51595D01*
X608000Y51595D01*
X628000Y51595D01*
X628002Y51597D01*
G37*
G36*
X538005Y51599D02*
X538005Y51599D01*
X538005Y51600D01*
X538005Y57595D01*
X547000Y57595D01*
X547002Y57597D01*
X547004Y57596D01*
X550004Y60596D01*
X550004Y60598D01*
X550005Y60599D01*
X550004Y60601D01*
X550004Y60603D01*
X550002Y60603D01*
X550000Y60605D01*
X538005Y60605D01*
X538005Y63595D01*
X550000Y63595D01*
X550002Y63597D01*
X550004Y63596D01*
X553004Y66596D01*
X553004Y66598D01*
X553005Y66599D01*
X553004Y66601D01*
X553004Y66603D01*
X553002Y66603D01*
X553000Y66605D01*
X535000Y66605D01*
X534998Y66603D01*
X534997Y66604D01*
X529996Y61604D01*
X529996Y61601D01*
X529995Y61600D01*
X529995Y51600D01*
X529999Y51595D01*
X530000Y51595D01*
X538000Y51595D01*
X538005Y51599D01*
G37*
G36*
X646005Y51599D02*
X646005Y51599D01*
X646005Y51600D01*
X646005Y63595D01*
X650000Y63595D01*
X650002Y63597D01*
X650004Y63596D01*
X653004Y66596D01*
X653004Y66598D01*
X653005Y66599D01*
X653004Y66601D01*
X653004Y66603D01*
X653002Y66603D01*
X653000Y66605D01*
X634000Y66605D01*
X633998Y66603D01*
X633996Y66604D01*
X630996Y63604D01*
X630996Y63602D01*
X630995Y63601D01*
X630996Y63599D01*
X630996Y63597D01*
X630998Y63597D01*
X631000Y63595D01*
X637995Y63595D01*
X637995Y51600D01*
X637999Y51595D01*
X638000Y51595D01*
X646000Y51595D01*
X646005Y51599D01*
G37*
G36*
X626005Y32599D02*
X626005Y32599D01*
X626005Y32600D01*
X626005Y44595D01*
X630000Y44595D01*
X630002Y44597D01*
X630004Y44596D01*
X633004Y47596D01*
X633004Y47598D01*
X633005Y47599D01*
X633004Y47601D01*
X633004Y47603D01*
X633002Y47603D01*
X633000Y47605D01*
X614000Y47605D01*
X613998Y47603D01*
X613996Y47604D01*
X610996Y44604D01*
X610996Y44602D01*
X610995Y44601D01*
X610996Y44599D01*
X610996Y44597D01*
X610998Y44597D01*
X611000Y44595D01*
X617995Y44595D01*
X617995Y32600D01*
X617999Y32595D01*
X618000Y32595D01*
X626000Y32595D01*
X626005Y32599D01*
G37*
G36*
X664005Y51599D02*
X664005Y51599D01*
X664005Y51600D01*
X664005Y66600D01*
X664001Y66605D01*
X664000Y66605D01*
X656000Y66605D01*
X655995Y66601D01*
X655995Y66600D01*
X655995Y51600D01*
X655999Y51595D01*
X656000Y51595D01*
X664000Y51595D01*
X664005Y51599D01*
G37*
G36*
X652005Y70599D02*
X652005Y70599D01*
X652005Y70600D01*
X652005Y85600D01*
X652001Y85605D01*
X652000Y85605D01*
X649000Y85605D01*
X648998Y85603D01*
X648996Y85604D01*
X643996Y80604D01*
X643996Y80601D01*
X643995Y80600D01*
X643995Y70600D01*
X643999Y70595D01*
X644000Y70595D01*
X652000Y70595D01*
X652005Y70599D01*
G37*
%LPC*%
G36*
X675005Y54605D02*
X675005Y54605D01*
X675005Y63595D01*
X680995Y63595D01*
X680995Y54605D01*
X675005Y54605D01*
G37*
%LPD*%
%LPC*%
G36*
X641005Y35605D02*
X641005Y35605D01*
X641005Y44595D01*
X646995Y44595D01*
X646995Y35605D01*
X641005Y35605D01*
G37*
%LPD*%
%LPC*%
G36*
X626005Y79605D02*
X626005Y79605D01*
X626005Y82595D01*
X632995Y82595D01*
X632995Y79605D01*
X626005Y79605D01*
G37*
%LPD*%
D10*
X23749Y62743D02*
X21446Y62743D01*
X21351Y62745D01*
X21256Y62751D01*
X21161Y62761D01*
X21067Y62774D01*
X20973Y62792D01*
X20881Y62813D01*
X20789Y62839D01*
X20698Y62868D01*
X20609Y62901D01*
X20521Y62937D01*
X20435Y62977D01*
X20350Y63021D01*
X20267Y63068D01*
X20186Y63118D01*
X20108Y63172D01*
X20031Y63229D01*
X19958Y63289D01*
X19886Y63352D01*
X19818Y63418D01*
X19752Y63486D01*
X19689Y63558D01*
X19629Y63631D01*
X19572Y63708D01*
X19518Y63786D01*
X19468Y63867D01*
X19421Y63950D01*
X19377Y64035D01*
X19337Y64121D01*
X19301Y64209D01*
X19268Y64298D01*
X19239Y64389D01*
X19213Y64481D01*
X19192Y64573D01*
X19174Y64667D01*
X19161Y64761D01*
X19151Y64856D01*
X19145Y64951D01*
X19143Y65046D01*
X19143Y70804D01*
X19145Y70899D01*
X19151Y70994D01*
X19161Y71089D01*
X19174Y71183D01*
X19192Y71277D01*
X19213Y71369D01*
X19239Y71461D01*
X19268Y71552D01*
X19301Y71641D01*
X19337Y71729D01*
X19377Y71815D01*
X19421Y71900D01*
X19468Y71983D01*
X19518Y72064D01*
X19572Y72142D01*
X19629Y72219D01*
X19689Y72292D01*
X19752Y72364D01*
X19818Y72432D01*
X19886Y72498D01*
X19958Y72561D01*
X20031Y72621D01*
X20108Y72678D01*
X20186Y72732D01*
X20267Y72782D01*
X20350Y72829D01*
X20435Y72873D01*
X20521Y72913D01*
X20609Y72949D01*
X20698Y72982D01*
X20789Y73011D01*
X20881Y73037D01*
X20973Y73058D01*
X21067Y73076D01*
X21161Y73089D01*
X21256Y73099D01*
X21351Y73105D01*
X21446Y73107D01*
X23749Y73107D01*
X28684Y70228D02*
X28684Y65622D01*
X28684Y70228D02*
X28686Y70334D01*
X28692Y70441D01*
X28702Y70547D01*
X28715Y70652D01*
X28733Y70757D01*
X28755Y70861D01*
X28780Y70965D01*
X28809Y71067D01*
X28842Y71168D01*
X28878Y71268D01*
X28919Y71367D01*
X28963Y71463D01*
X29010Y71559D01*
X29061Y71652D01*
X29115Y71744D01*
X29173Y71833D01*
X29234Y71920D01*
X29298Y72005D01*
X29365Y72088D01*
X29435Y72168D01*
X29509Y72245D01*
X29584Y72319D01*
X29663Y72391D01*
X29744Y72460D01*
X29828Y72525D01*
X29914Y72588D01*
X30002Y72647D01*
X30093Y72703D01*
X30185Y72756D01*
X30280Y72805D01*
X30376Y72851D01*
X30474Y72893D01*
X30573Y72931D01*
X30673Y72966D01*
X30775Y72997D01*
X30878Y73024D01*
X30982Y73048D01*
X31086Y73067D01*
X31192Y73083D01*
X31297Y73095D01*
X31403Y73103D01*
X31510Y73107D01*
X31616Y73107D01*
X31723Y73103D01*
X31829Y73095D01*
X31934Y73083D01*
X32040Y73067D01*
X32144Y73048D01*
X32248Y73024D01*
X32351Y72997D01*
X32453Y72966D01*
X32553Y72931D01*
X32652Y72893D01*
X32750Y72851D01*
X32846Y72805D01*
X32941Y72756D01*
X33033Y72703D01*
X33124Y72647D01*
X33212Y72588D01*
X33298Y72525D01*
X33382Y72460D01*
X33463Y72391D01*
X33542Y72319D01*
X33617Y72245D01*
X33691Y72168D01*
X33761Y72088D01*
X33828Y72005D01*
X33892Y71920D01*
X33953Y71833D01*
X34011Y71744D01*
X34065Y71652D01*
X34116Y71559D01*
X34163Y71463D01*
X34207Y71367D01*
X34248Y71268D01*
X34284Y71168D01*
X34317Y71067D01*
X34346Y70965D01*
X34371Y70861D01*
X34393Y70757D01*
X34411Y70652D01*
X34424Y70547D01*
X34434Y70441D01*
X34440Y70334D01*
X34442Y70228D01*
X34442Y65622D01*
X34440Y65516D01*
X34434Y65409D01*
X34424Y65303D01*
X34411Y65198D01*
X34393Y65093D01*
X34371Y64989D01*
X34346Y64885D01*
X34317Y64783D01*
X34284Y64682D01*
X34248Y64582D01*
X34207Y64483D01*
X34163Y64387D01*
X34116Y64291D01*
X34065Y64198D01*
X34011Y64106D01*
X33953Y64017D01*
X33892Y63930D01*
X33828Y63845D01*
X33761Y63762D01*
X33691Y63682D01*
X33617Y63605D01*
X33542Y63531D01*
X33463Y63459D01*
X33382Y63390D01*
X33298Y63325D01*
X33212Y63262D01*
X33124Y63203D01*
X33033Y63147D01*
X32941Y63094D01*
X32846Y63045D01*
X32750Y62999D01*
X32652Y62957D01*
X32553Y62919D01*
X32453Y62884D01*
X32351Y62853D01*
X32248Y62826D01*
X32144Y62802D01*
X32040Y62783D01*
X31934Y62767D01*
X31829Y62755D01*
X31723Y62747D01*
X31616Y62743D01*
X31510Y62743D01*
X31403Y62747D01*
X31297Y62755D01*
X31192Y62767D01*
X31086Y62783D01*
X30982Y62802D01*
X30878Y62826D01*
X30775Y62853D01*
X30673Y62884D01*
X30573Y62919D01*
X30474Y62957D01*
X30376Y62999D01*
X30280Y63045D01*
X30185Y63094D01*
X30093Y63147D01*
X30002Y63203D01*
X29914Y63262D01*
X29828Y63325D01*
X29744Y63390D01*
X29663Y63459D01*
X29584Y63531D01*
X29509Y63605D01*
X29435Y63682D01*
X29365Y63762D01*
X29298Y63845D01*
X29234Y63930D01*
X29173Y64017D01*
X29115Y64106D01*
X29061Y64198D01*
X29010Y64291D01*
X28963Y64387D01*
X28919Y64483D01*
X28878Y64582D01*
X28842Y64682D01*
X28809Y64783D01*
X28780Y64885D01*
X28755Y64989D01*
X28733Y65093D01*
X28715Y65198D01*
X28702Y65303D01*
X28692Y65409D01*
X28686Y65516D01*
X28684Y65622D01*
X40449Y62743D02*
X40449Y73107D01*
X46207Y62743D01*
X46207Y73107D01*
X55289Y62743D02*
X55384Y62745D01*
X55479Y62751D01*
X55574Y62761D01*
X55668Y62774D01*
X55762Y62792D01*
X55854Y62813D01*
X55946Y62839D01*
X56037Y62868D01*
X56126Y62901D01*
X56214Y62937D01*
X56300Y62977D01*
X56385Y63021D01*
X56468Y63068D01*
X56549Y63118D01*
X56627Y63172D01*
X56704Y63229D01*
X56777Y63289D01*
X56849Y63352D01*
X56917Y63418D01*
X56983Y63486D01*
X57046Y63558D01*
X57106Y63631D01*
X57163Y63708D01*
X57217Y63786D01*
X57267Y63867D01*
X57314Y63950D01*
X57358Y64035D01*
X57398Y64121D01*
X57434Y64209D01*
X57467Y64298D01*
X57496Y64389D01*
X57522Y64481D01*
X57543Y64573D01*
X57561Y64667D01*
X57574Y64761D01*
X57584Y64856D01*
X57590Y64951D01*
X57592Y65046D01*
X55288Y62743D02*
X55151Y62745D01*
X55014Y62751D01*
X54877Y62760D01*
X54740Y62774D01*
X54604Y62791D01*
X54469Y62812D01*
X54334Y62837D01*
X54200Y62866D01*
X54067Y62899D01*
X53934Y62935D01*
X53803Y62975D01*
X53673Y63019D01*
X53544Y63066D01*
X53417Y63117D01*
X53291Y63172D01*
X53167Y63230D01*
X53044Y63291D01*
X52923Y63356D01*
X52804Y63425D01*
X52687Y63496D01*
X52572Y63571D01*
X52460Y63650D01*
X52349Y63731D01*
X52241Y63815D01*
X52135Y63903D01*
X52032Y63993D01*
X51931Y64086D01*
X51834Y64182D01*
X52122Y70804D02*
X52124Y70899D01*
X52130Y70994D01*
X52140Y71089D01*
X52153Y71183D01*
X52171Y71277D01*
X52192Y71369D01*
X52218Y71461D01*
X52247Y71552D01*
X52280Y71641D01*
X52316Y71729D01*
X52356Y71815D01*
X52400Y71900D01*
X52447Y71983D01*
X52497Y72064D01*
X52551Y72142D01*
X52608Y72219D01*
X52668Y72292D01*
X52731Y72364D01*
X52797Y72432D01*
X52865Y72498D01*
X52937Y72561D01*
X53010Y72621D01*
X53087Y72678D01*
X53165Y72732D01*
X53246Y72782D01*
X53329Y72829D01*
X53414Y72873D01*
X53500Y72913D01*
X53588Y72949D01*
X53677Y72982D01*
X53768Y73011D01*
X53860Y73037D01*
X53952Y73058D01*
X54046Y73076D01*
X54140Y73089D01*
X54235Y73099D01*
X54330Y73105D01*
X54425Y73107D01*
X54551Y73105D01*
X54677Y73100D01*
X54803Y73090D01*
X54929Y73077D01*
X55054Y73061D01*
X55179Y73041D01*
X55303Y73017D01*
X55426Y72989D01*
X55549Y72958D01*
X55670Y72924D01*
X55791Y72885D01*
X55910Y72844D01*
X56028Y72799D01*
X56144Y72750D01*
X56259Y72698D01*
X56373Y72643D01*
X56485Y72584D01*
X56595Y72522D01*
X56703Y72457D01*
X56809Y72389D01*
X56914Y72318D01*
X57016Y72243D01*
X53273Y68789D02*
X53194Y68838D01*
X53117Y68890D01*
X53041Y68945D01*
X52968Y69003D01*
X52897Y69064D01*
X52829Y69128D01*
X52764Y69195D01*
X52701Y69264D01*
X52641Y69335D01*
X52583Y69409D01*
X52529Y69485D01*
X52478Y69563D01*
X52430Y69644D01*
X52385Y69726D01*
X52344Y69809D01*
X52306Y69895D01*
X52271Y69981D01*
X52240Y70069D01*
X52213Y70159D01*
X52189Y70249D01*
X52168Y70340D01*
X52152Y70432D01*
X52139Y70524D01*
X52129Y70617D01*
X52124Y70711D01*
X52122Y70804D01*
X56441Y67061D02*
X56520Y67012D01*
X56597Y66960D01*
X56673Y66905D01*
X56746Y66847D01*
X56817Y66786D01*
X56885Y66722D01*
X56950Y66655D01*
X57013Y66586D01*
X57073Y66515D01*
X57131Y66441D01*
X57185Y66365D01*
X57236Y66287D01*
X57284Y66206D01*
X57329Y66124D01*
X57370Y66041D01*
X57408Y65955D01*
X57443Y65869D01*
X57474Y65781D01*
X57501Y65691D01*
X57525Y65601D01*
X57546Y65510D01*
X57562Y65418D01*
X57575Y65326D01*
X57585Y65233D01*
X57590Y65139D01*
X57592Y65046D01*
X56440Y67061D02*
X53273Y68789D01*
X62839Y70228D02*
X62839Y65622D01*
X62839Y70228D02*
X62841Y70334D01*
X62847Y70441D01*
X62857Y70547D01*
X62870Y70652D01*
X62888Y70757D01*
X62910Y70861D01*
X62935Y70965D01*
X62964Y71067D01*
X62997Y71168D01*
X63033Y71268D01*
X63074Y71367D01*
X63118Y71463D01*
X63165Y71559D01*
X63216Y71652D01*
X63270Y71744D01*
X63328Y71833D01*
X63389Y71920D01*
X63453Y72005D01*
X63520Y72088D01*
X63590Y72168D01*
X63664Y72245D01*
X63739Y72319D01*
X63818Y72391D01*
X63899Y72460D01*
X63983Y72525D01*
X64069Y72588D01*
X64157Y72647D01*
X64248Y72703D01*
X64340Y72756D01*
X64435Y72805D01*
X64531Y72851D01*
X64629Y72893D01*
X64728Y72931D01*
X64828Y72966D01*
X64930Y72997D01*
X65033Y73024D01*
X65137Y73048D01*
X65241Y73067D01*
X65347Y73083D01*
X65452Y73095D01*
X65558Y73103D01*
X65665Y73107D01*
X65771Y73107D01*
X65878Y73103D01*
X65984Y73095D01*
X66089Y73083D01*
X66195Y73067D01*
X66299Y73048D01*
X66403Y73024D01*
X66506Y72997D01*
X66608Y72966D01*
X66708Y72931D01*
X66807Y72893D01*
X66905Y72851D01*
X67001Y72805D01*
X67096Y72756D01*
X67188Y72703D01*
X67279Y72647D01*
X67367Y72588D01*
X67453Y72525D01*
X67537Y72460D01*
X67618Y72391D01*
X67697Y72319D01*
X67772Y72245D01*
X67846Y72168D01*
X67916Y72088D01*
X67983Y72005D01*
X68047Y71920D01*
X68108Y71833D01*
X68166Y71744D01*
X68220Y71652D01*
X68271Y71559D01*
X68318Y71463D01*
X68362Y71367D01*
X68403Y71268D01*
X68439Y71168D01*
X68472Y71067D01*
X68501Y70965D01*
X68526Y70861D01*
X68548Y70757D01*
X68566Y70652D01*
X68579Y70547D01*
X68589Y70441D01*
X68595Y70334D01*
X68597Y70228D01*
X68597Y65622D01*
X68595Y65516D01*
X68589Y65409D01*
X68579Y65303D01*
X68566Y65198D01*
X68548Y65093D01*
X68526Y64989D01*
X68501Y64885D01*
X68472Y64783D01*
X68439Y64682D01*
X68403Y64582D01*
X68362Y64483D01*
X68318Y64387D01*
X68271Y64291D01*
X68220Y64198D01*
X68166Y64106D01*
X68108Y64017D01*
X68047Y63930D01*
X67983Y63845D01*
X67916Y63762D01*
X67846Y63682D01*
X67772Y63605D01*
X67697Y63531D01*
X67618Y63459D01*
X67537Y63390D01*
X67453Y63325D01*
X67367Y63262D01*
X67279Y63203D01*
X67188Y63147D01*
X67096Y63094D01*
X67001Y63045D01*
X66905Y62999D01*
X66807Y62957D01*
X66708Y62919D01*
X66608Y62884D01*
X66506Y62853D01*
X66403Y62826D01*
X66299Y62802D01*
X66195Y62783D01*
X66089Y62767D01*
X65984Y62755D01*
X65878Y62747D01*
X65771Y62743D01*
X65665Y62743D01*
X65558Y62747D01*
X65452Y62755D01*
X65347Y62767D01*
X65241Y62783D01*
X65137Y62802D01*
X65033Y62826D01*
X64930Y62853D01*
X64828Y62884D01*
X64728Y62919D01*
X64629Y62957D01*
X64531Y62999D01*
X64435Y63045D01*
X64340Y63094D01*
X64248Y63147D01*
X64157Y63203D01*
X64069Y63262D01*
X63983Y63325D01*
X63899Y63390D01*
X63818Y63459D01*
X63739Y63531D01*
X63664Y63605D01*
X63590Y63682D01*
X63520Y63762D01*
X63453Y63845D01*
X63389Y63930D01*
X63328Y64017D01*
X63270Y64106D01*
X63216Y64198D01*
X63165Y64291D01*
X63118Y64387D01*
X63074Y64483D01*
X63033Y64582D01*
X62997Y64682D01*
X62964Y64783D01*
X62935Y64885D01*
X62910Y64989D01*
X62888Y65093D01*
X62870Y65198D01*
X62857Y65303D01*
X62847Y65409D01*
X62841Y65516D01*
X62839Y65622D01*
X74641Y62743D02*
X74641Y73107D01*
X74641Y62743D02*
X79247Y62743D01*
X84507Y62743D02*
X89114Y62743D01*
X84507Y62743D02*
X84507Y73107D01*
X89114Y73107D01*
X87962Y68501D02*
X84507Y68501D01*
X97033Y62743D02*
X97128Y62745D01*
X97223Y62751D01*
X97318Y62761D01*
X97412Y62774D01*
X97506Y62792D01*
X97598Y62813D01*
X97690Y62839D01*
X97781Y62868D01*
X97870Y62901D01*
X97958Y62937D01*
X98044Y62977D01*
X98129Y63021D01*
X98212Y63068D01*
X98293Y63118D01*
X98371Y63172D01*
X98448Y63229D01*
X98521Y63289D01*
X98593Y63352D01*
X98661Y63418D01*
X98727Y63486D01*
X98790Y63558D01*
X98850Y63631D01*
X98907Y63708D01*
X98961Y63786D01*
X99011Y63867D01*
X99058Y63950D01*
X99102Y64035D01*
X99142Y64121D01*
X99178Y64209D01*
X99211Y64298D01*
X99240Y64389D01*
X99266Y64481D01*
X99287Y64573D01*
X99305Y64667D01*
X99318Y64761D01*
X99328Y64856D01*
X99334Y64951D01*
X99336Y65046D01*
X97033Y62743D02*
X96896Y62745D01*
X96759Y62751D01*
X96622Y62760D01*
X96485Y62774D01*
X96349Y62791D01*
X96214Y62812D01*
X96079Y62837D01*
X95945Y62866D01*
X95812Y62899D01*
X95679Y62935D01*
X95548Y62975D01*
X95418Y63019D01*
X95289Y63066D01*
X95162Y63117D01*
X95036Y63172D01*
X94912Y63230D01*
X94789Y63291D01*
X94668Y63356D01*
X94549Y63425D01*
X94432Y63496D01*
X94317Y63571D01*
X94205Y63650D01*
X94094Y63731D01*
X93986Y63815D01*
X93880Y63903D01*
X93777Y63993D01*
X93676Y64086D01*
X93579Y64182D01*
X93867Y70804D02*
X93869Y70899D01*
X93875Y70994D01*
X93885Y71089D01*
X93898Y71183D01*
X93916Y71277D01*
X93937Y71369D01*
X93963Y71461D01*
X93992Y71552D01*
X94025Y71641D01*
X94061Y71729D01*
X94101Y71815D01*
X94145Y71900D01*
X94192Y71983D01*
X94242Y72064D01*
X94296Y72142D01*
X94353Y72219D01*
X94413Y72292D01*
X94476Y72364D01*
X94542Y72432D01*
X94610Y72498D01*
X94682Y72561D01*
X94755Y72621D01*
X94832Y72678D01*
X94910Y72732D01*
X94991Y72782D01*
X95074Y72829D01*
X95159Y72873D01*
X95245Y72913D01*
X95333Y72949D01*
X95422Y72982D01*
X95513Y73011D01*
X95605Y73037D01*
X95697Y73058D01*
X95791Y73076D01*
X95885Y73089D01*
X95980Y73099D01*
X96075Y73105D01*
X96170Y73107D01*
X96296Y73105D01*
X96422Y73100D01*
X96548Y73090D01*
X96674Y73077D01*
X96799Y73061D01*
X96924Y73041D01*
X97048Y73017D01*
X97171Y72989D01*
X97294Y72958D01*
X97415Y72924D01*
X97536Y72885D01*
X97655Y72844D01*
X97773Y72799D01*
X97889Y72750D01*
X98004Y72698D01*
X98118Y72643D01*
X98230Y72584D01*
X98340Y72522D01*
X98448Y72457D01*
X98554Y72389D01*
X98659Y72318D01*
X98761Y72243D01*
X95018Y68789D02*
X94939Y68838D01*
X94862Y68890D01*
X94786Y68945D01*
X94713Y69003D01*
X94642Y69064D01*
X94574Y69128D01*
X94509Y69195D01*
X94446Y69264D01*
X94386Y69335D01*
X94328Y69409D01*
X94274Y69485D01*
X94223Y69563D01*
X94175Y69644D01*
X94130Y69726D01*
X94089Y69809D01*
X94051Y69895D01*
X94016Y69981D01*
X93985Y70069D01*
X93958Y70159D01*
X93934Y70249D01*
X93913Y70340D01*
X93897Y70432D01*
X93884Y70524D01*
X93874Y70617D01*
X93869Y70711D01*
X93867Y70804D01*
X98185Y67061D02*
X98264Y67012D01*
X98341Y66960D01*
X98417Y66905D01*
X98490Y66847D01*
X98561Y66786D01*
X98629Y66722D01*
X98694Y66655D01*
X98757Y66586D01*
X98817Y66515D01*
X98875Y66441D01*
X98929Y66365D01*
X98980Y66287D01*
X99028Y66206D01*
X99073Y66124D01*
X99114Y66041D01*
X99152Y65955D01*
X99187Y65869D01*
X99218Y65781D01*
X99245Y65691D01*
X99269Y65601D01*
X99290Y65510D01*
X99306Y65418D01*
X99319Y65326D01*
X99329Y65233D01*
X99334Y65139D01*
X99336Y65046D01*
X98185Y67061D02*
X95018Y68789D01*
X111036Y65622D02*
X111036Y73107D01*
X111036Y65622D02*
X111038Y65516D01*
X111044Y65409D01*
X111054Y65303D01*
X111067Y65198D01*
X111085Y65093D01*
X111107Y64989D01*
X111132Y64885D01*
X111161Y64783D01*
X111194Y64682D01*
X111230Y64582D01*
X111271Y64483D01*
X111315Y64387D01*
X111362Y64291D01*
X111413Y64198D01*
X111467Y64106D01*
X111525Y64017D01*
X111586Y63930D01*
X111650Y63845D01*
X111717Y63762D01*
X111787Y63682D01*
X111861Y63605D01*
X111936Y63531D01*
X112015Y63459D01*
X112096Y63390D01*
X112180Y63325D01*
X112266Y63262D01*
X112354Y63203D01*
X112445Y63147D01*
X112537Y63094D01*
X112632Y63045D01*
X112728Y62999D01*
X112826Y62957D01*
X112925Y62919D01*
X113025Y62884D01*
X113127Y62853D01*
X113230Y62826D01*
X113334Y62802D01*
X113438Y62783D01*
X113544Y62767D01*
X113649Y62755D01*
X113755Y62747D01*
X113862Y62743D01*
X113968Y62743D01*
X114075Y62747D01*
X114181Y62755D01*
X114286Y62767D01*
X114392Y62783D01*
X114496Y62802D01*
X114600Y62826D01*
X114703Y62853D01*
X114805Y62884D01*
X114905Y62919D01*
X115004Y62957D01*
X115102Y62999D01*
X115198Y63045D01*
X115293Y63094D01*
X115385Y63147D01*
X115476Y63203D01*
X115564Y63262D01*
X115650Y63325D01*
X115734Y63390D01*
X115815Y63459D01*
X115894Y63531D01*
X115969Y63605D01*
X116043Y63682D01*
X116113Y63762D01*
X116180Y63845D01*
X116244Y63930D01*
X116305Y64017D01*
X116363Y64106D01*
X116417Y64198D01*
X116468Y64291D01*
X116515Y64387D01*
X116559Y64483D01*
X116600Y64582D01*
X116636Y64682D01*
X116669Y64783D01*
X116698Y64885D01*
X116723Y64989D01*
X116745Y65093D01*
X116763Y65198D01*
X116776Y65303D01*
X116786Y65409D01*
X116792Y65516D01*
X116794Y65622D01*
X116794Y73107D01*
X123180Y73107D02*
X123180Y62743D01*
X128938Y62743D02*
X123180Y73107D01*
X128938Y73107D02*
X128938Y62743D01*
X135360Y62743D02*
X135360Y73107D01*
X135360Y62743D02*
X139967Y62743D01*
X145227Y62743D02*
X149834Y62743D01*
X145227Y62743D02*
X145227Y73107D01*
X149834Y73107D01*
X148682Y68501D02*
X145227Y68501D01*
X154102Y62743D02*
X157557Y73107D01*
X161012Y62743D01*
X160148Y65334D02*
X154966Y65334D01*
X169138Y62743D02*
X169233Y62745D01*
X169328Y62751D01*
X169423Y62761D01*
X169517Y62774D01*
X169611Y62792D01*
X169703Y62813D01*
X169795Y62839D01*
X169886Y62868D01*
X169975Y62901D01*
X170063Y62937D01*
X170149Y62977D01*
X170234Y63021D01*
X170317Y63068D01*
X170398Y63118D01*
X170476Y63172D01*
X170553Y63229D01*
X170626Y63289D01*
X170698Y63352D01*
X170766Y63418D01*
X170832Y63486D01*
X170895Y63558D01*
X170955Y63631D01*
X171012Y63708D01*
X171066Y63786D01*
X171116Y63867D01*
X171163Y63950D01*
X171207Y64035D01*
X171247Y64121D01*
X171283Y64209D01*
X171316Y64298D01*
X171345Y64389D01*
X171371Y64481D01*
X171392Y64573D01*
X171410Y64667D01*
X171423Y64761D01*
X171433Y64856D01*
X171439Y64951D01*
X171441Y65046D01*
X169138Y62743D02*
X169001Y62745D01*
X168864Y62751D01*
X168727Y62760D01*
X168590Y62774D01*
X168454Y62791D01*
X168319Y62812D01*
X168184Y62837D01*
X168050Y62866D01*
X167917Y62899D01*
X167784Y62935D01*
X167653Y62975D01*
X167523Y63019D01*
X167394Y63066D01*
X167267Y63117D01*
X167141Y63172D01*
X167017Y63230D01*
X166894Y63291D01*
X166773Y63356D01*
X166654Y63425D01*
X166537Y63496D01*
X166422Y63571D01*
X166310Y63650D01*
X166199Y63731D01*
X166091Y63815D01*
X165985Y63903D01*
X165882Y63993D01*
X165781Y64086D01*
X165684Y64182D01*
X165972Y70804D02*
X165974Y70899D01*
X165980Y70994D01*
X165990Y71089D01*
X166003Y71183D01*
X166021Y71277D01*
X166042Y71369D01*
X166068Y71461D01*
X166097Y71552D01*
X166130Y71641D01*
X166166Y71729D01*
X166206Y71815D01*
X166250Y71900D01*
X166297Y71983D01*
X166347Y72064D01*
X166401Y72142D01*
X166458Y72219D01*
X166518Y72292D01*
X166581Y72364D01*
X166647Y72432D01*
X166715Y72498D01*
X166787Y72561D01*
X166860Y72621D01*
X166937Y72678D01*
X167015Y72732D01*
X167096Y72782D01*
X167179Y72829D01*
X167264Y72873D01*
X167350Y72913D01*
X167438Y72949D01*
X167527Y72982D01*
X167618Y73011D01*
X167710Y73037D01*
X167802Y73058D01*
X167896Y73076D01*
X167990Y73089D01*
X168085Y73099D01*
X168180Y73105D01*
X168275Y73107D01*
X168401Y73105D01*
X168527Y73100D01*
X168653Y73090D01*
X168779Y73077D01*
X168904Y73061D01*
X169029Y73041D01*
X169153Y73017D01*
X169276Y72989D01*
X169399Y72958D01*
X169520Y72924D01*
X169641Y72885D01*
X169760Y72844D01*
X169878Y72799D01*
X169994Y72750D01*
X170109Y72698D01*
X170223Y72643D01*
X170335Y72584D01*
X170445Y72522D01*
X170553Y72457D01*
X170659Y72389D01*
X170764Y72318D01*
X170866Y72243D01*
X167123Y68789D02*
X167044Y68838D01*
X166967Y68890D01*
X166891Y68945D01*
X166818Y69003D01*
X166747Y69064D01*
X166679Y69128D01*
X166614Y69195D01*
X166551Y69264D01*
X166491Y69335D01*
X166433Y69409D01*
X166379Y69485D01*
X166328Y69563D01*
X166280Y69644D01*
X166235Y69726D01*
X166194Y69809D01*
X166156Y69895D01*
X166121Y69981D01*
X166090Y70069D01*
X166063Y70159D01*
X166039Y70249D01*
X166018Y70340D01*
X166002Y70432D01*
X165989Y70524D01*
X165979Y70617D01*
X165974Y70711D01*
X165972Y70804D01*
X170290Y67061D02*
X170369Y67012D01*
X170446Y66960D01*
X170522Y66905D01*
X170595Y66847D01*
X170666Y66786D01*
X170734Y66722D01*
X170799Y66655D01*
X170862Y66586D01*
X170922Y66515D01*
X170980Y66441D01*
X171034Y66365D01*
X171085Y66287D01*
X171133Y66206D01*
X171178Y66124D01*
X171219Y66041D01*
X171257Y65955D01*
X171292Y65869D01*
X171323Y65781D01*
X171350Y65691D01*
X171374Y65601D01*
X171395Y65510D01*
X171411Y65418D01*
X171424Y65326D01*
X171434Y65233D01*
X171439Y65139D01*
X171441Y65046D01*
X170290Y67061D02*
X167123Y68789D01*
X177069Y73107D02*
X177069Y62743D01*
X177069Y68501D02*
X182826Y68501D01*
X182826Y73107D02*
X182826Y62743D01*
X189249Y62743D02*
X193856Y62743D01*
X189249Y62743D02*
X189249Y73107D01*
X193856Y73107D01*
X192704Y68501D02*
X189249Y68501D01*
X199080Y73107D02*
X199080Y62743D01*
X199080Y73107D02*
X201959Y73107D01*
X202064Y73105D01*
X202169Y73099D01*
X202274Y73090D01*
X202378Y73076D01*
X202482Y73059D01*
X202585Y73038D01*
X202687Y73013D01*
X202788Y72985D01*
X202889Y72953D01*
X202987Y72917D01*
X203085Y72878D01*
X203181Y72835D01*
X203275Y72788D01*
X203368Y72739D01*
X203459Y72685D01*
X203548Y72629D01*
X203634Y72569D01*
X203719Y72507D01*
X203801Y72441D01*
X203880Y72372D01*
X203957Y72301D01*
X204032Y72226D01*
X204103Y72149D01*
X204172Y72070D01*
X204238Y71988D01*
X204300Y71903D01*
X204360Y71817D01*
X204416Y71728D01*
X204470Y71637D01*
X204519Y71544D01*
X204566Y71450D01*
X204609Y71354D01*
X204648Y71256D01*
X204684Y71158D01*
X204716Y71057D01*
X204744Y70956D01*
X204769Y70854D01*
X204790Y70751D01*
X204807Y70647D01*
X204821Y70543D01*
X204830Y70438D01*
X204836Y70333D01*
X204838Y70228D01*
X204837Y70228D02*
X204837Y65622D01*
X204838Y65622D02*
X204836Y65517D01*
X204830Y65412D01*
X204821Y65307D01*
X204807Y65203D01*
X204790Y65099D01*
X204769Y64996D01*
X204744Y64894D01*
X204716Y64793D01*
X204684Y64692D01*
X204648Y64594D01*
X204609Y64496D01*
X204566Y64400D01*
X204519Y64306D01*
X204470Y64213D01*
X204416Y64122D01*
X204360Y64033D01*
X204300Y63947D01*
X204238Y63862D01*
X204172Y63780D01*
X204103Y63701D01*
X204032Y63624D01*
X203957Y63549D01*
X203880Y63478D01*
X203801Y63409D01*
X203719Y63343D01*
X203634Y63281D01*
X203548Y63221D01*
X203459Y63165D01*
X203368Y63111D01*
X203275Y63062D01*
X203181Y63015D01*
X203085Y62972D01*
X202987Y62933D01*
X202889Y62897D01*
X202788Y62865D01*
X202687Y62837D01*
X202585Y62812D01*
X202482Y62791D01*
X202378Y62774D01*
X202274Y62760D01*
X202169Y62751D01*
X202064Y62745D01*
X201959Y62743D01*
X199080Y62743D01*
D11*
X560270Y26980D02*
X563640Y16870D01*
X567010Y26980D01*
X572217Y24733D02*
X575025Y26980D01*
X575025Y16870D01*
X572217Y16870D02*
X577833Y16870D01*
X582714Y16870D02*
X582714Y17432D01*
X583275Y17432D01*
X583275Y16870D01*
X582714Y16870D01*
X588156Y24733D02*
X590964Y26980D01*
X590964Y16870D01*
X588156Y16870D02*
X593772Y16870D01*
X605613Y24733D02*
X608421Y26980D01*
X608421Y16870D01*
X605613Y16870D02*
X611229Y16870D01*
X620087Y26980D02*
X620186Y26978D01*
X620285Y26972D01*
X620384Y26962D01*
X620482Y26949D01*
X620580Y26931D01*
X620677Y26910D01*
X620773Y26885D01*
X620868Y26856D01*
X620962Y26824D01*
X621054Y26788D01*
X621145Y26748D01*
X621235Y26704D01*
X621322Y26658D01*
X621408Y26607D01*
X621491Y26554D01*
X621573Y26497D01*
X621652Y26437D01*
X621729Y26374D01*
X621803Y26308D01*
X621875Y26240D01*
X621943Y26168D01*
X622009Y26094D01*
X622072Y26017D01*
X622132Y25938D01*
X622189Y25856D01*
X622242Y25773D01*
X622293Y25687D01*
X622339Y25600D01*
X622383Y25510D01*
X622423Y25419D01*
X622459Y25327D01*
X622491Y25233D01*
X622520Y25138D01*
X622545Y25042D01*
X622566Y24945D01*
X622584Y24847D01*
X622597Y24749D01*
X622607Y24650D01*
X622613Y24551D01*
X622615Y24452D01*
X620087Y26980D02*
X619977Y26978D01*
X619866Y26973D01*
X619756Y26963D01*
X619647Y26950D01*
X619538Y26933D01*
X619429Y26913D01*
X619322Y26889D01*
X619215Y26861D01*
X619109Y26829D01*
X619004Y26794D01*
X618901Y26756D01*
X618799Y26714D01*
X618699Y26668D01*
X618600Y26619D01*
X618502Y26567D01*
X618407Y26512D01*
X618314Y26453D01*
X618222Y26391D01*
X618133Y26326D01*
X618046Y26258D01*
X617961Y26187D01*
X617879Y26114D01*
X617799Y26037D01*
X617722Y25958D01*
X617648Y25877D01*
X617577Y25793D01*
X617508Y25706D01*
X617443Y25617D01*
X617380Y25526D01*
X617321Y25433D01*
X617265Y25338D01*
X617212Y25241D01*
X617162Y25143D01*
X617116Y25043D01*
X617073Y24941D01*
X617034Y24838D01*
X616998Y24733D01*
X621772Y22486D02*
X621843Y22556D01*
X621912Y22629D01*
X621978Y22704D01*
X622041Y22782D01*
X622101Y22862D01*
X622158Y22944D01*
X622212Y23028D01*
X622262Y23114D01*
X622310Y23202D01*
X622354Y23291D01*
X622395Y23383D01*
X622433Y23475D01*
X622467Y23569D01*
X622498Y23664D01*
X622525Y23760D01*
X622549Y23857D01*
X622569Y23955D01*
X622586Y24054D01*
X622598Y24153D01*
X622608Y24252D01*
X622613Y24352D01*
X622615Y24452D01*
X621772Y22487D02*
X616998Y16870D01*
X622614Y16870D01*
X627806Y15747D02*
X632299Y28103D01*
X638333Y25576D02*
X638248Y25396D01*
X638168Y25214D01*
X638091Y25030D01*
X638019Y24845D01*
X637952Y24658D01*
X637889Y24469D01*
X637831Y24279D01*
X637777Y24088D01*
X637727Y23895D01*
X637683Y23701D01*
X637642Y23506D01*
X637607Y23311D01*
X637576Y23114D01*
X637550Y22917D01*
X637529Y22719D01*
X637512Y22521D01*
X637500Y22323D01*
X637493Y22124D01*
X637491Y21925D01*
X638333Y25576D02*
X638364Y25659D01*
X638398Y25741D01*
X638436Y25822D01*
X638477Y25901D01*
X638521Y25978D01*
X638569Y26053D01*
X638620Y26126D01*
X638673Y26196D01*
X638730Y26265D01*
X638790Y26331D01*
X638852Y26394D01*
X638918Y26454D01*
X638985Y26512D01*
X639055Y26567D01*
X639128Y26618D01*
X639202Y26667D01*
X639279Y26712D01*
X639357Y26754D01*
X639437Y26793D01*
X639519Y26828D01*
X639602Y26860D01*
X639686Y26888D01*
X639771Y26912D01*
X639858Y26933D01*
X639945Y26950D01*
X640033Y26963D01*
X640121Y26972D01*
X640210Y26978D01*
X640299Y26980D01*
X640388Y26978D01*
X640477Y26972D01*
X640565Y26963D01*
X640653Y26950D01*
X640740Y26933D01*
X640826Y26912D01*
X640912Y26888D01*
X640996Y26860D01*
X641079Y26828D01*
X641161Y26793D01*
X641241Y26754D01*
X641319Y26712D01*
X641396Y26667D01*
X641470Y26618D01*
X641543Y26567D01*
X641613Y26512D01*
X641680Y26454D01*
X641746Y26394D01*
X641808Y26331D01*
X641868Y26265D01*
X641925Y26196D01*
X641978Y26126D01*
X642029Y26053D01*
X642077Y25978D01*
X642121Y25901D01*
X642162Y25822D01*
X642200Y25741D01*
X642234Y25659D01*
X642265Y25576D01*
X642350Y25396D01*
X642430Y25214D01*
X642507Y25030D01*
X642579Y24845D01*
X642646Y24658D01*
X642709Y24469D01*
X642767Y24279D01*
X642821Y24088D01*
X642871Y23895D01*
X642915Y23701D01*
X642956Y23506D01*
X642991Y23311D01*
X643022Y23114D01*
X643048Y22917D01*
X643069Y22719D01*
X643086Y22521D01*
X643098Y22323D01*
X643105Y22124D01*
X643107Y21925D01*
X637490Y21925D02*
X637492Y21726D01*
X637499Y21527D01*
X637511Y21329D01*
X637528Y21131D01*
X637549Y20933D01*
X637575Y20736D01*
X637606Y20539D01*
X637641Y20343D01*
X637682Y20149D01*
X637726Y19955D01*
X637776Y19762D01*
X637830Y19571D01*
X637888Y19380D01*
X637951Y19192D01*
X638019Y19005D01*
X638090Y18819D01*
X638167Y18636D01*
X638248Y18454D01*
X638333Y18274D01*
X638364Y18191D01*
X638398Y18109D01*
X638436Y18028D01*
X638477Y17949D01*
X638521Y17872D01*
X638569Y17797D01*
X638620Y17724D01*
X638673Y17654D01*
X638730Y17585D01*
X638790Y17519D01*
X638852Y17456D01*
X638918Y17396D01*
X638985Y17338D01*
X639055Y17283D01*
X639128Y17232D01*
X639202Y17183D01*
X639279Y17138D01*
X639357Y17096D01*
X639437Y17057D01*
X639519Y17022D01*
X639602Y16990D01*
X639686Y16962D01*
X639772Y16938D01*
X639858Y16917D01*
X639945Y16900D01*
X640033Y16887D01*
X640121Y16878D01*
X640210Y16872D01*
X640299Y16870D01*
X642265Y18274D02*
X642350Y18454D01*
X642431Y18636D01*
X642508Y18819D01*
X642579Y19005D01*
X642647Y19192D01*
X642710Y19380D01*
X642768Y19571D01*
X642822Y19762D01*
X642872Y19955D01*
X642916Y20149D01*
X642957Y20343D01*
X642992Y20539D01*
X643023Y20736D01*
X643049Y20933D01*
X643070Y21131D01*
X643087Y21329D01*
X643099Y21527D01*
X643106Y21726D01*
X643108Y21925D01*
X642265Y18274D02*
X642234Y18191D01*
X642200Y18109D01*
X642162Y18028D01*
X642121Y17949D01*
X642077Y17872D01*
X642029Y17797D01*
X641978Y17724D01*
X641925Y17654D01*
X641868Y17585D01*
X641808Y17519D01*
X641746Y17456D01*
X641680Y17396D01*
X641613Y17338D01*
X641543Y17283D01*
X641470Y17232D01*
X641396Y17183D01*
X641319Y17138D01*
X641241Y17096D01*
X641161Y17057D01*
X641079Y17022D01*
X640996Y16990D01*
X640912Y16962D01*
X640826Y16938D01*
X640740Y16917D01*
X640653Y16900D01*
X640565Y16887D01*
X640477Y16878D01*
X640388Y16872D01*
X640299Y16870D01*
X638052Y19117D02*
X642546Y24733D01*
X648876Y19678D02*
X648878Y19783D01*
X648884Y19888D01*
X648894Y19992D01*
X648907Y20097D01*
X648925Y20200D01*
X648946Y20303D01*
X648972Y20405D01*
X649001Y20506D01*
X649034Y20605D01*
X649070Y20704D01*
X649110Y20801D01*
X649154Y20896D01*
X649201Y20990D01*
X649252Y21082D01*
X649306Y21172D01*
X649364Y21260D01*
X649425Y21345D01*
X649489Y21429D01*
X649556Y21510D01*
X649626Y21588D01*
X649698Y21664D01*
X649774Y21736D01*
X649852Y21806D01*
X649933Y21873D01*
X650017Y21937D01*
X650102Y21998D01*
X650190Y22056D01*
X650280Y22110D01*
X650372Y22161D01*
X650466Y22208D01*
X650561Y22252D01*
X650658Y22292D01*
X650757Y22328D01*
X650856Y22361D01*
X650957Y22390D01*
X651059Y22416D01*
X651162Y22437D01*
X651265Y22455D01*
X651370Y22468D01*
X651474Y22478D01*
X651579Y22484D01*
X651684Y22486D01*
X651789Y22484D01*
X651894Y22478D01*
X651998Y22468D01*
X652103Y22455D01*
X652206Y22437D01*
X652309Y22416D01*
X652411Y22390D01*
X652512Y22361D01*
X652611Y22328D01*
X652710Y22292D01*
X652807Y22252D01*
X652902Y22208D01*
X652996Y22161D01*
X653088Y22110D01*
X653178Y22056D01*
X653266Y21998D01*
X653351Y21937D01*
X653435Y21873D01*
X653516Y21806D01*
X653594Y21736D01*
X653670Y21664D01*
X653742Y21588D01*
X653812Y21510D01*
X653879Y21429D01*
X653943Y21345D01*
X654004Y21260D01*
X654062Y21172D01*
X654116Y21082D01*
X654167Y20990D01*
X654214Y20896D01*
X654258Y20801D01*
X654298Y20704D01*
X654334Y20605D01*
X654367Y20506D01*
X654396Y20405D01*
X654422Y20303D01*
X654443Y20200D01*
X654461Y20097D01*
X654474Y19992D01*
X654484Y19888D01*
X654490Y19783D01*
X654492Y19678D01*
X654490Y19573D01*
X654484Y19468D01*
X654474Y19364D01*
X654461Y19259D01*
X654443Y19156D01*
X654422Y19053D01*
X654396Y18951D01*
X654367Y18850D01*
X654334Y18751D01*
X654298Y18652D01*
X654258Y18555D01*
X654214Y18460D01*
X654167Y18366D01*
X654116Y18274D01*
X654062Y18184D01*
X654004Y18096D01*
X653943Y18011D01*
X653879Y17927D01*
X653812Y17846D01*
X653742Y17768D01*
X653670Y17692D01*
X653594Y17620D01*
X653516Y17550D01*
X653435Y17483D01*
X653351Y17419D01*
X653266Y17358D01*
X653178Y17300D01*
X653088Y17246D01*
X652996Y17195D01*
X652902Y17148D01*
X652807Y17104D01*
X652710Y17064D01*
X652611Y17028D01*
X652512Y16995D01*
X652411Y16966D01*
X652309Y16940D01*
X652206Y16919D01*
X652103Y16901D01*
X651998Y16888D01*
X651894Y16878D01*
X651789Y16872D01*
X651684Y16870D01*
X651579Y16872D01*
X651474Y16878D01*
X651370Y16888D01*
X651265Y16901D01*
X651162Y16919D01*
X651059Y16940D01*
X650957Y16966D01*
X650856Y16995D01*
X650757Y17028D01*
X650658Y17064D01*
X650561Y17104D01*
X650466Y17148D01*
X650372Y17195D01*
X650280Y17246D01*
X650190Y17300D01*
X650102Y17358D01*
X650017Y17419D01*
X649933Y17483D01*
X649852Y17550D01*
X649774Y17620D01*
X649698Y17692D01*
X649626Y17768D01*
X649556Y17846D01*
X649489Y17927D01*
X649425Y18011D01*
X649364Y18096D01*
X649306Y18184D01*
X649252Y18274D01*
X649201Y18366D01*
X649154Y18460D01*
X649110Y18555D01*
X649070Y18652D01*
X649034Y18751D01*
X649001Y18850D01*
X648972Y18951D01*
X648946Y19053D01*
X648925Y19156D01*
X648907Y19259D01*
X648894Y19364D01*
X648884Y19468D01*
X648878Y19573D01*
X648876Y19678D01*
X649437Y24733D02*
X649439Y24827D01*
X649445Y24921D01*
X649455Y25015D01*
X649468Y25108D01*
X649486Y25200D01*
X649508Y25292D01*
X649533Y25382D01*
X649562Y25472D01*
X649595Y25560D01*
X649631Y25647D01*
X649671Y25732D01*
X649715Y25816D01*
X649762Y25897D01*
X649812Y25976D01*
X649866Y26054D01*
X649923Y26129D01*
X649983Y26201D01*
X650046Y26271D01*
X650112Y26338D01*
X650180Y26403D01*
X650252Y26464D01*
X650325Y26523D01*
X650402Y26578D01*
X650480Y26630D01*
X650561Y26679D01*
X650643Y26724D01*
X650727Y26766D01*
X650813Y26804D01*
X650901Y26839D01*
X650990Y26870D01*
X651080Y26897D01*
X651171Y26921D01*
X651263Y26940D01*
X651356Y26956D01*
X651449Y26968D01*
X651543Y26976D01*
X651637Y26980D01*
X651731Y26980D01*
X651825Y26976D01*
X651919Y26968D01*
X652012Y26956D01*
X652105Y26940D01*
X652197Y26921D01*
X652288Y26897D01*
X652378Y26870D01*
X652467Y26839D01*
X652555Y26804D01*
X652641Y26766D01*
X652725Y26724D01*
X652808Y26679D01*
X652888Y26630D01*
X652966Y26578D01*
X653043Y26523D01*
X653116Y26464D01*
X653188Y26403D01*
X653256Y26338D01*
X653322Y26271D01*
X653385Y26201D01*
X653445Y26129D01*
X653502Y26054D01*
X653556Y25976D01*
X653606Y25897D01*
X653653Y25816D01*
X653697Y25732D01*
X653737Y25647D01*
X653773Y25560D01*
X653806Y25472D01*
X653835Y25382D01*
X653860Y25292D01*
X653882Y25200D01*
X653900Y25108D01*
X653913Y25015D01*
X653923Y24921D01*
X653929Y24827D01*
X653931Y24733D01*
X653929Y24639D01*
X653923Y24545D01*
X653913Y24451D01*
X653900Y24358D01*
X653882Y24266D01*
X653860Y24174D01*
X653835Y24084D01*
X653806Y23994D01*
X653773Y23906D01*
X653737Y23819D01*
X653697Y23734D01*
X653653Y23650D01*
X653606Y23569D01*
X653556Y23490D01*
X653502Y23412D01*
X653445Y23337D01*
X653385Y23265D01*
X653322Y23195D01*
X653256Y23128D01*
X653188Y23063D01*
X653116Y23002D01*
X653043Y22943D01*
X652966Y22888D01*
X652888Y22836D01*
X652808Y22787D01*
X652725Y22742D01*
X652641Y22700D01*
X652555Y22662D01*
X652467Y22627D01*
X652378Y22596D01*
X652288Y22569D01*
X652197Y22545D01*
X652105Y22526D01*
X652012Y22510D01*
X651919Y22498D01*
X651825Y22490D01*
X651731Y22486D01*
X651637Y22486D01*
X651543Y22490D01*
X651449Y22498D01*
X651356Y22510D01*
X651263Y22526D01*
X651171Y22545D01*
X651080Y22569D01*
X650990Y22596D01*
X650901Y22627D01*
X650813Y22662D01*
X650727Y22700D01*
X650643Y22742D01*
X650561Y22787D01*
X650480Y22836D01*
X650402Y22888D01*
X650325Y22943D01*
X650252Y23002D01*
X650180Y23063D01*
X650112Y23128D01*
X650046Y23195D01*
X649983Y23265D01*
X649923Y23337D01*
X649866Y23412D01*
X649812Y23490D01*
X649762Y23569D01*
X649715Y23650D01*
X649671Y23734D01*
X649631Y23819D01*
X649595Y23906D01*
X649562Y23994D01*
X649533Y24084D01*
X649508Y24174D01*
X649486Y24266D01*
X649468Y24358D01*
X649455Y24451D01*
X649445Y24545D01*
X649439Y24639D01*
X649437Y24733D01*
X659684Y15747D02*
X664177Y28103D01*
X672458Y26980D02*
X672557Y26978D01*
X672656Y26972D01*
X672755Y26962D01*
X672853Y26949D01*
X672951Y26931D01*
X673048Y26910D01*
X673144Y26885D01*
X673239Y26856D01*
X673333Y26824D01*
X673425Y26788D01*
X673516Y26748D01*
X673606Y26704D01*
X673693Y26658D01*
X673779Y26607D01*
X673862Y26554D01*
X673944Y26497D01*
X674023Y26437D01*
X674100Y26374D01*
X674174Y26308D01*
X674246Y26240D01*
X674314Y26168D01*
X674380Y26094D01*
X674443Y26017D01*
X674503Y25938D01*
X674560Y25856D01*
X674613Y25773D01*
X674664Y25687D01*
X674710Y25600D01*
X674754Y25510D01*
X674794Y25419D01*
X674830Y25327D01*
X674862Y25233D01*
X674891Y25138D01*
X674916Y25042D01*
X674937Y24945D01*
X674955Y24847D01*
X674968Y24749D01*
X674978Y24650D01*
X674984Y24551D01*
X674986Y24452D01*
X672458Y26980D02*
X672348Y26978D01*
X672237Y26973D01*
X672127Y26963D01*
X672018Y26950D01*
X671909Y26933D01*
X671800Y26913D01*
X671693Y26889D01*
X671586Y26861D01*
X671480Y26829D01*
X671375Y26794D01*
X671272Y26756D01*
X671170Y26714D01*
X671070Y26668D01*
X670971Y26619D01*
X670873Y26567D01*
X670778Y26512D01*
X670685Y26453D01*
X670593Y26391D01*
X670504Y26326D01*
X670417Y26258D01*
X670332Y26187D01*
X670250Y26114D01*
X670170Y26037D01*
X670093Y25958D01*
X670019Y25877D01*
X669948Y25793D01*
X669879Y25706D01*
X669814Y25617D01*
X669751Y25526D01*
X669692Y25433D01*
X669636Y25338D01*
X669583Y25241D01*
X669533Y25143D01*
X669487Y25043D01*
X669444Y24941D01*
X669405Y24838D01*
X669369Y24733D01*
X674142Y22486D02*
X674213Y22556D01*
X674282Y22629D01*
X674348Y22704D01*
X674411Y22782D01*
X674471Y22862D01*
X674528Y22944D01*
X674582Y23028D01*
X674632Y23114D01*
X674680Y23202D01*
X674724Y23291D01*
X674765Y23383D01*
X674803Y23475D01*
X674837Y23569D01*
X674868Y23664D01*
X674895Y23760D01*
X674919Y23857D01*
X674939Y23955D01*
X674956Y24054D01*
X674968Y24153D01*
X674978Y24252D01*
X674983Y24352D01*
X674985Y24452D01*
X674143Y22487D02*
X669368Y16870D01*
X674985Y16870D01*
X680753Y16870D02*
X683562Y16870D01*
X683667Y16872D01*
X683772Y16878D01*
X683876Y16888D01*
X683981Y16901D01*
X684084Y16919D01*
X684187Y16940D01*
X684289Y16966D01*
X684390Y16995D01*
X684489Y17028D01*
X684588Y17064D01*
X684685Y17104D01*
X684780Y17148D01*
X684874Y17195D01*
X684966Y17246D01*
X685056Y17300D01*
X685144Y17358D01*
X685229Y17419D01*
X685313Y17483D01*
X685394Y17550D01*
X685472Y17620D01*
X685548Y17692D01*
X685620Y17768D01*
X685690Y17846D01*
X685757Y17927D01*
X685821Y18011D01*
X685882Y18096D01*
X685940Y18184D01*
X685994Y18274D01*
X686045Y18366D01*
X686092Y18460D01*
X686136Y18555D01*
X686176Y18652D01*
X686212Y18751D01*
X686245Y18850D01*
X686274Y18951D01*
X686300Y19053D01*
X686321Y19156D01*
X686339Y19259D01*
X686352Y19364D01*
X686362Y19468D01*
X686368Y19573D01*
X686370Y19678D01*
X686368Y19783D01*
X686362Y19888D01*
X686352Y19992D01*
X686339Y20097D01*
X686321Y20200D01*
X686300Y20303D01*
X686274Y20405D01*
X686245Y20506D01*
X686212Y20605D01*
X686176Y20704D01*
X686136Y20801D01*
X686092Y20896D01*
X686045Y20990D01*
X685994Y21082D01*
X685940Y21172D01*
X685882Y21260D01*
X685821Y21345D01*
X685757Y21429D01*
X685690Y21510D01*
X685620Y21588D01*
X685548Y21664D01*
X685472Y21736D01*
X685394Y21806D01*
X685313Y21873D01*
X685229Y21937D01*
X685144Y21998D01*
X685056Y22056D01*
X684966Y22110D01*
X684874Y22161D01*
X684780Y22208D01*
X684685Y22252D01*
X684588Y22292D01*
X684489Y22328D01*
X684390Y22361D01*
X684289Y22390D01*
X684187Y22416D01*
X684084Y22437D01*
X683981Y22455D01*
X683876Y22468D01*
X683772Y22478D01*
X683667Y22484D01*
X683562Y22486D01*
X684123Y26980D02*
X680753Y26980D01*
X684123Y26980D02*
X684217Y26978D01*
X684311Y26972D01*
X684405Y26962D01*
X684498Y26949D01*
X684590Y26931D01*
X684682Y26909D01*
X684772Y26884D01*
X684862Y26855D01*
X684950Y26822D01*
X685037Y26786D01*
X685122Y26746D01*
X685206Y26702D01*
X685287Y26655D01*
X685366Y26605D01*
X685444Y26551D01*
X685519Y26494D01*
X685591Y26434D01*
X685661Y26371D01*
X685728Y26305D01*
X685793Y26237D01*
X685854Y26165D01*
X685913Y26092D01*
X685968Y26015D01*
X686020Y25937D01*
X686069Y25857D01*
X686114Y25774D01*
X686156Y25690D01*
X686194Y25604D01*
X686229Y25516D01*
X686260Y25427D01*
X686287Y25337D01*
X686311Y25246D01*
X686330Y25154D01*
X686346Y25061D01*
X686358Y24968D01*
X686366Y24874D01*
X686370Y24780D01*
X686370Y24686D01*
X686366Y24592D01*
X686358Y24498D01*
X686346Y24405D01*
X686330Y24312D01*
X686311Y24220D01*
X686287Y24129D01*
X686260Y24039D01*
X686229Y23950D01*
X686194Y23862D01*
X686156Y23776D01*
X686114Y23692D01*
X686069Y23610D01*
X686020Y23529D01*
X685968Y23451D01*
X685913Y23374D01*
X685854Y23301D01*
X685793Y23229D01*
X685728Y23161D01*
X685661Y23095D01*
X685591Y23032D01*
X685519Y22972D01*
X685444Y22915D01*
X685366Y22861D01*
X685287Y22811D01*
X685206Y22764D01*
X685122Y22720D01*
X685037Y22680D01*
X684950Y22644D01*
X684862Y22611D01*
X684772Y22582D01*
X684682Y22557D01*
X684590Y22535D01*
X684498Y22517D01*
X684405Y22504D01*
X684311Y22494D01*
X684217Y22488D01*
X684123Y22486D01*
X684123Y22487D02*
X681877Y22487D01*
D12*
X385075Y49888D02*
X385082Y50428D01*
X385101Y50967D01*
X385135Y51506D01*
X385181Y52044D01*
X385240Y52581D01*
X385313Y53116D01*
X385399Y53649D01*
X385498Y54180D01*
X385610Y54708D01*
X385734Y55234D01*
X385872Y55756D01*
X386022Y56274D01*
X386185Y56789D01*
X386361Y57300D01*
X386549Y57806D01*
X386750Y58307D01*
X386962Y58803D01*
X387187Y59294D01*
X387424Y59779D01*
X387673Y60259D01*
X387933Y60732D01*
X388205Y61198D01*
X388488Y61658D01*
X388783Y62111D01*
X389088Y62556D01*
X389404Y62993D01*
X389731Y63423D01*
X390069Y63845D01*
X390416Y64258D01*
X390774Y64662D01*
X391142Y65058D01*
X391519Y65444D01*
X391905Y65821D01*
X392301Y66189D01*
X392705Y66547D01*
X393118Y66894D01*
X393540Y67232D01*
X393970Y67559D01*
X394407Y67875D01*
X394852Y68180D01*
X395305Y68475D01*
X395765Y68758D01*
X396231Y69030D01*
X396704Y69290D01*
X397184Y69539D01*
X397669Y69776D01*
X398160Y70001D01*
X398656Y70213D01*
X399157Y70414D01*
X399663Y70602D01*
X400174Y70778D01*
X400689Y70941D01*
X401207Y71091D01*
X401729Y71229D01*
X402255Y71353D01*
X402783Y71465D01*
X403314Y71564D01*
X403847Y71650D01*
X404382Y71723D01*
X404919Y71782D01*
X405457Y71828D01*
X405996Y71862D01*
X406535Y71881D01*
X407075Y71888D01*
X407615Y71881D01*
X408154Y71862D01*
X408693Y71828D01*
X409231Y71782D01*
X409768Y71723D01*
X410303Y71650D01*
X410836Y71564D01*
X411367Y71465D01*
X411895Y71353D01*
X412421Y71229D01*
X412943Y71091D01*
X413461Y70941D01*
X413976Y70778D01*
X414487Y70602D01*
X414993Y70414D01*
X415494Y70213D01*
X415990Y70001D01*
X416481Y69776D01*
X416966Y69539D01*
X417446Y69290D01*
X417919Y69030D01*
X418385Y68758D01*
X418845Y68475D01*
X419298Y68180D01*
X419743Y67875D01*
X420180Y67559D01*
X420610Y67232D01*
X421032Y66894D01*
X421445Y66547D01*
X421849Y66189D01*
X422245Y65821D01*
X422631Y65444D01*
X423008Y65058D01*
X423376Y64662D01*
X423734Y64258D01*
X424081Y63845D01*
X424419Y63423D01*
X424746Y62993D01*
X425062Y62556D01*
X425367Y62111D01*
X425662Y61658D01*
X425945Y61198D01*
X426217Y60732D01*
X426477Y60259D01*
X426726Y59779D01*
X426963Y59294D01*
X427188Y58803D01*
X427400Y58307D01*
X427601Y57806D01*
X427789Y57300D01*
X427965Y56789D01*
X428128Y56274D01*
X428278Y55756D01*
X428416Y55234D01*
X428540Y54708D01*
X428652Y54180D01*
X428751Y53649D01*
X428837Y53116D01*
X428910Y52581D01*
X428969Y52044D01*
X429015Y51506D01*
X429049Y50967D01*
X429068Y50428D01*
X429075Y49888D01*
X429068Y49348D01*
X429049Y48809D01*
X429015Y48270D01*
X428969Y47732D01*
X428910Y47195D01*
X428837Y46660D01*
X428751Y46127D01*
X428652Y45596D01*
X428540Y45068D01*
X428416Y44542D01*
X428278Y44020D01*
X428128Y43502D01*
X427965Y42987D01*
X427789Y42476D01*
X427601Y41970D01*
X427400Y41469D01*
X427188Y40973D01*
X426963Y40482D01*
X426726Y39997D01*
X426477Y39517D01*
X426217Y39044D01*
X425945Y38578D01*
X425662Y38118D01*
X425367Y37665D01*
X425062Y37220D01*
X424746Y36783D01*
X424419Y36353D01*
X424081Y35931D01*
X423734Y35518D01*
X423376Y35114D01*
X423008Y34718D01*
X422631Y34332D01*
X422245Y33955D01*
X421849Y33587D01*
X421445Y33229D01*
X421032Y32882D01*
X420610Y32544D01*
X420180Y32217D01*
X419743Y31901D01*
X419298Y31596D01*
X418845Y31301D01*
X418385Y31018D01*
X417919Y30746D01*
X417446Y30486D01*
X416966Y30237D01*
X416481Y30000D01*
X415990Y29775D01*
X415494Y29563D01*
X414993Y29362D01*
X414487Y29174D01*
X413976Y28998D01*
X413461Y28835D01*
X412943Y28685D01*
X412421Y28547D01*
X411895Y28423D01*
X411367Y28311D01*
X410836Y28212D01*
X410303Y28126D01*
X409768Y28053D01*
X409231Y27994D01*
X408693Y27948D01*
X408154Y27914D01*
X407615Y27895D01*
X407075Y27888D01*
X406535Y27895D01*
X405996Y27914D01*
X405457Y27948D01*
X404919Y27994D01*
X404382Y28053D01*
X403847Y28126D01*
X403314Y28212D01*
X402783Y28311D01*
X402255Y28423D01*
X401729Y28547D01*
X401207Y28685D01*
X400689Y28835D01*
X400174Y28998D01*
X399663Y29174D01*
X399157Y29362D01*
X398656Y29563D01*
X398160Y29775D01*
X397669Y30000D01*
X397184Y30237D01*
X396704Y30486D01*
X396231Y30746D01*
X395765Y31018D01*
X395305Y31301D01*
X394852Y31596D01*
X394407Y31901D01*
X393970Y32217D01*
X393540Y32544D01*
X393118Y32882D01*
X392705Y33229D01*
X392301Y33587D01*
X391905Y33955D01*
X391519Y34332D01*
X391142Y34718D01*
X390774Y35114D01*
X390416Y35518D01*
X390069Y35931D01*
X389731Y36353D01*
X389404Y36783D01*
X389088Y37220D01*
X388783Y37665D01*
X388488Y38118D01*
X388205Y38578D01*
X387933Y39044D01*
X387673Y39517D01*
X387424Y39997D01*
X387187Y40482D01*
X386962Y40973D01*
X386750Y41469D01*
X386549Y41970D01*
X386361Y42476D01*
X386185Y42987D01*
X386022Y43502D01*
X385872Y44020D01*
X385734Y44542D01*
X385610Y45068D01*
X385498Y45596D01*
X385399Y46127D01*
X385313Y46660D01*
X385240Y47195D01*
X385181Y47732D01*
X385135Y48270D01*
X385101Y48809D01*
X385082Y49348D01*
X385075Y49888D01*
D13*
X279400Y20638D03*
X304800Y20638D03*
X330200Y20638D03*
X355600Y20638D03*
X736600Y20638D03*
X787400Y20638D03*
X457200Y20638D03*
X508000Y20638D03*
D14*
X508000Y59100D02*
X508000Y101600D01*
X457200Y101600D02*
X457200Y59100D01*
X787400Y59100D02*
X787400Y101600D01*
X736600Y101600D02*
X736600Y59100D01*
X355600Y59100D02*
X355600Y101600D01*
X330200Y101600D02*
X330200Y59100D01*
X304800Y59100D02*
X304800Y101600D01*
X279400Y101600D02*
X279400Y59100D01*
X0Y59100D02*
X0Y101600D01*
D13*
X279400Y101600D03*
X304800Y101600D03*
X330200Y101600D03*
X355600Y101600D03*
X457200Y101600D03*
X508000Y101600D03*
X736600Y101600D03*
X787400Y101600D03*
X0Y101600D03*
D12*
X508000Y80350D02*
X508000Y20638D01*
X457200Y20638D02*
X457200Y80350D01*
X787400Y80350D02*
X787400Y20638D01*
X736600Y20638D02*
X736600Y80350D01*
X355600Y80350D02*
X355600Y20638D01*
X330200Y20638D02*
X330200Y80350D01*
X304800Y80350D02*
X304800Y20638D01*
X279400Y20638D02*
X279400Y80350D01*
D11*
X409575Y63638D02*
X409575Y58638D01*
X397075Y58638D01*
X397075Y52388D01*
X409575Y52388D01*
X409575Y39888D01*
X415825Y39888D01*
X415825Y52388D01*
X420825Y52388D01*
X420825Y34888D01*
X404575Y34888D01*
X404575Y47388D01*
X392075Y47388D01*
X392075Y63638D01*
X409575Y63638D01*
X392075Y63638D02*
X390825Y63638D01*
X420488Y34888D02*
X420825Y34888D01*
D15*
X420077Y35068D02*
X420077Y31893D01*
D11*
X420440Y35123D02*
X423615Y35123D01*
X392343Y63436D02*
X392343Y66408D01*
X391862Y63025D02*
X389396Y63025D01*
M02*
