G04 EAGLE Gerber RS-274X export*
G75*
%MOMM*%
%FSLAX34Y34*%
%LPD*%
%IN*%
%IPPOS*%
%AMOC8*
5,1,8,0,0,1.08239X$1,22.5*%
G01*
%ADD10C,0.254000*%


D10*
X-14288Y20638D02*
X-14233Y19392D01*
X-14070Y18157D01*
X-13801Y16940D01*
X-13426Y15751D01*
X-12949Y14599D01*
X-12373Y13494D01*
X-11704Y12443D01*
X-10945Y11454D01*
X-10103Y10535D01*
X-9184Y9693D01*
X-8195Y8934D01*
X-7144Y8264D01*
X-6038Y7689D01*
X-4887Y7212D01*
X-3698Y6837D01*
X-2481Y6567D01*
X-1245Y6404D01*
X0Y6350D01*
X787400Y6350D01*
X788645Y6404D01*
X789881Y6567D01*
X791098Y6837D01*
X792287Y7212D01*
X793438Y7689D01*
X794544Y8264D01*
X795595Y8934D01*
X796584Y9693D01*
X797503Y10535D01*
X798345Y11454D01*
X799104Y12443D01*
X799773Y13494D01*
X800349Y14599D01*
X800826Y15751D01*
X801201Y16940D01*
X801470Y18157D01*
X801633Y19392D01*
X801688Y20638D01*
X801688Y101600D01*
X-14288Y101600D01*
X-14288Y20638D01*
X31400Y101263D02*
X31325Y100593D01*
X31175Y99936D01*
X30952Y99300D01*
X30660Y98693D01*
X30301Y98123D01*
X29881Y97596D01*
X29404Y97119D01*
X28878Y96699D01*
X28307Y96340D01*
X27700Y96048D01*
X27064Y95825D01*
X26407Y95675D01*
X25737Y95600D01*
X25063Y95600D01*
X24393Y95675D01*
X23736Y95825D01*
X23100Y96048D01*
X22493Y96340D01*
X21923Y96699D01*
X21396Y97119D01*
X20919Y97596D01*
X20499Y98123D01*
X20140Y98693D01*
X19848Y99300D01*
X19625Y99936D01*
X19475Y100593D01*
X19400Y101263D01*
X19400Y101937D01*
X19475Y102607D01*
X19625Y103264D01*
X19848Y103900D01*
X20140Y104507D01*
X20499Y105078D01*
X20919Y105604D01*
X21396Y106081D01*
X21923Y106501D01*
X22493Y106860D01*
X23100Y107152D01*
X23736Y107375D01*
X24393Y107525D01*
X25063Y107600D01*
X25737Y107600D01*
X26407Y107525D01*
X27064Y107375D01*
X27700Y107152D01*
X28307Y106860D01*
X28878Y106501D01*
X29404Y106081D01*
X29881Y105604D01*
X30301Y105078D01*
X30660Y104507D01*
X30952Y103900D01*
X31175Y103264D01*
X31325Y102607D01*
X31400Y101937D01*
X31400Y101263D01*
X56800Y101263D02*
X56725Y100593D01*
X56575Y99936D01*
X56352Y99300D01*
X56060Y98693D01*
X55701Y98123D01*
X55281Y97596D01*
X54804Y97119D01*
X54278Y96699D01*
X53707Y96340D01*
X53100Y96048D01*
X52464Y95825D01*
X51807Y95675D01*
X51137Y95600D01*
X50463Y95600D01*
X49793Y95675D01*
X49136Y95825D01*
X48500Y96048D01*
X47893Y96340D01*
X47323Y96699D01*
X46796Y97119D01*
X46319Y97596D01*
X45899Y98123D01*
X45540Y98693D01*
X45248Y99300D01*
X45025Y99936D01*
X44875Y100593D01*
X44800Y101263D01*
X44800Y101937D01*
X44875Y102607D01*
X45025Y103264D01*
X45248Y103900D01*
X45540Y104507D01*
X45899Y105078D01*
X46319Y105604D01*
X46796Y106081D01*
X47323Y106501D01*
X47893Y106860D01*
X48500Y107152D01*
X49136Y107375D01*
X49793Y107525D01*
X50463Y107600D01*
X51137Y107600D01*
X51807Y107525D01*
X52464Y107375D01*
X53100Y107152D01*
X53707Y106860D01*
X54278Y106501D01*
X54804Y106081D01*
X55281Y105604D01*
X55701Y105078D01*
X56060Y104507D01*
X56352Y103900D01*
X56575Y103264D01*
X56725Y102607D01*
X56800Y101937D01*
X56800Y101263D01*
X82200Y101263D02*
X82125Y100593D01*
X81975Y99936D01*
X81752Y99300D01*
X81460Y98693D01*
X81101Y98123D01*
X80681Y97596D01*
X80204Y97119D01*
X79678Y96699D01*
X79107Y96340D01*
X78500Y96048D01*
X77864Y95825D01*
X77207Y95675D01*
X76537Y95600D01*
X75863Y95600D01*
X75193Y95675D01*
X74536Y95825D01*
X73900Y96048D01*
X73293Y96340D01*
X72723Y96699D01*
X72196Y97119D01*
X71719Y97596D01*
X71299Y98123D01*
X70940Y98693D01*
X70648Y99300D01*
X70425Y99936D01*
X70275Y100593D01*
X70200Y101263D01*
X70200Y101937D01*
X70275Y102607D01*
X70425Y103264D01*
X70648Y103900D01*
X70940Y104507D01*
X71299Y105078D01*
X71719Y105604D01*
X72196Y106081D01*
X72723Y106501D01*
X73293Y106860D01*
X73900Y107152D01*
X74536Y107375D01*
X75193Y107525D01*
X75863Y107600D01*
X76537Y107600D01*
X77207Y107525D01*
X77864Y107375D01*
X78500Y107152D01*
X79107Y106860D01*
X79678Y106501D01*
X80204Y106081D01*
X80681Y105604D01*
X81101Y105078D01*
X81460Y104507D01*
X81752Y103900D01*
X81975Y103264D01*
X82125Y102607D01*
X82200Y101937D01*
X82200Y101263D01*
X133000Y101263D02*
X132925Y100593D01*
X132775Y99936D01*
X132552Y99300D01*
X132260Y98693D01*
X131901Y98123D01*
X131481Y97596D01*
X131004Y97119D01*
X130478Y96699D01*
X129907Y96340D01*
X129300Y96048D01*
X128664Y95825D01*
X128007Y95675D01*
X127337Y95600D01*
X126663Y95600D01*
X125993Y95675D01*
X125336Y95825D01*
X124700Y96048D01*
X124093Y96340D01*
X123523Y96699D01*
X122996Y97119D01*
X122519Y97596D01*
X122099Y98123D01*
X121740Y98693D01*
X121448Y99300D01*
X121225Y99936D01*
X121075Y100593D01*
X121000Y101263D01*
X121000Y101937D01*
X121075Y102607D01*
X121225Y103264D01*
X121448Y103900D01*
X121740Y104507D01*
X122099Y105078D01*
X122519Y105604D01*
X122996Y106081D01*
X123523Y106501D01*
X124093Y106860D01*
X124700Y107152D01*
X125336Y107375D01*
X125993Y107525D01*
X126663Y107600D01*
X127337Y107600D01*
X128007Y107525D01*
X128664Y107375D01*
X129300Y107152D01*
X129907Y106860D01*
X130478Y106501D01*
X131004Y106081D01*
X131481Y105604D01*
X131901Y105078D01*
X132260Y104507D01*
X132552Y103900D01*
X132775Y103264D01*
X132925Y102607D01*
X133000Y101937D01*
X133000Y101263D01*
X107600Y101263D02*
X107525Y100593D01*
X107375Y99936D01*
X107152Y99300D01*
X106860Y98693D01*
X106501Y98123D01*
X106081Y97596D01*
X105604Y97119D01*
X105078Y96699D01*
X104507Y96340D01*
X103900Y96048D01*
X103264Y95825D01*
X102607Y95675D01*
X101937Y95600D01*
X101263Y95600D01*
X100593Y95675D01*
X99936Y95825D01*
X99300Y96048D01*
X98693Y96340D01*
X98123Y96699D01*
X97596Y97119D01*
X97119Y97596D01*
X96699Y98123D01*
X96340Y98693D01*
X96048Y99300D01*
X95825Y99936D01*
X95675Y100593D01*
X95600Y101263D01*
X95600Y101937D01*
X95675Y102607D01*
X95825Y103264D01*
X96048Y103900D01*
X96340Y104507D01*
X96699Y105078D01*
X97119Y105604D01*
X97596Y106081D01*
X98123Y106501D01*
X98693Y106860D01*
X99300Y107152D01*
X99936Y107375D01*
X100593Y107525D01*
X101263Y107600D01*
X101937Y107600D01*
X102607Y107525D01*
X103264Y107375D01*
X103900Y107152D01*
X104507Y106860D01*
X105078Y106501D01*
X105604Y106081D01*
X106081Y105604D01*
X106501Y105078D01*
X106860Y104507D01*
X107152Y103900D01*
X107375Y103264D01*
X107525Y102607D01*
X107600Y101937D01*
X107600Y101263D01*
X158400Y101263D02*
X158325Y100593D01*
X158175Y99936D01*
X157952Y99300D01*
X157660Y98693D01*
X157301Y98123D01*
X156881Y97596D01*
X156404Y97119D01*
X155878Y96699D01*
X155307Y96340D01*
X154700Y96048D01*
X154064Y95825D01*
X153407Y95675D01*
X152737Y95600D01*
X152063Y95600D01*
X151393Y95675D01*
X150736Y95825D01*
X150100Y96048D01*
X149493Y96340D01*
X148923Y96699D01*
X148396Y97119D01*
X147919Y97596D01*
X147499Y98123D01*
X147140Y98693D01*
X146848Y99300D01*
X146625Y99936D01*
X146475Y100593D01*
X146400Y101263D01*
X146400Y101937D01*
X146475Y102607D01*
X146625Y103264D01*
X146848Y103900D01*
X147140Y104507D01*
X147499Y105078D01*
X147919Y105604D01*
X148396Y106081D01*
X148923Y106501D01*
X149493Y106860D01*
X150100Y107152D01*
X150736Y107375D01*
X151393Y107525D01*
X152063Y107600D01*
X152737Y107600D01*
X153407Y107525D01*
X154064Y107375D01*
X154700Y107152D01*
X155307Y106860D01*
X155878Y106501D01*
X156404Y106081D01*
X156881Y105604D01*
X157301Y105078D01*
X157660Y104507D01*
X157952Y103900D01*
X158175Y103264D01*
X158325Y102607D01*
X158400Y101937D01*
X158400Y101263D01*
X209200Y101263D02*
X209125Y100593D01*
X208975Y99936D01*
X208752Y99300D01*
X208460Y98693D01*
X208101Y98123D01*
X207681Y97596D01*
X207204Y97119D01*
X206678Y96699D01*
X206107Y96340D01*
X205500Y96048D01*
X204864Y95825D01*
X204207Y95675D01*
X203537Y95600D01*
X202863Y95600D01*
X202193Y95675D01*
X201536Y95825D01*
X200900Y96048D01*
X200293Y96340D01*
X199723Y96699D01*
X199196Y97119D01*
X198719Y97596D01*
X198299Y98123D01*
X197940Y98693D01*
X197648Y99300D01*
X197425Y99936D01*
X197275Y100593D01*
X197200Y101263D01*
X197200Y101937D01*
X197275Y102607D01*
X197425Y103264D01*
X197648Y103900D01*
X197940Y104507D01*
X198299Y105078D01*
X198719Y105604D01*
X199196Y106081D01*
X199723Y106501D01*
X200293Y106860D01*
X200900Y107152D01*
X201536Y107375D01*
X202193Y107525D01*
X202863Y107600D01*
X203537Y107600D01*
X204207Y107525D01*
X204864Y107375D01*
X205500Y107152D01*
X206107Y106860D01*
X206678Y106501D01*
X207204Y106081D01*
X207681Y105604D01*
X208101Y105078D01*
X208460Y104507D01*
X208752Y103900D01*
X208975Y103264D01*
X209125Y102607D01*
X209200Y101937D01*
X209200Y101263D01*
X183800Y101263D02*
X183725Y100593D01*
X183575Y99936D01*
X183352Y99300D01*
X183060Y98693D01*
X182701Y98123D01*
X182281Y97596D01*
X181804Y97119D01*
X181278Y96699D01*
X180707Y96340D01*
X180100Y96048D01*
X179464Y95825D01*
X178807Y95675D01*
X178137Y95600D01*
X177463Y95600D01*
X176793Y95675D01*
X176136Y95825D01*
X175500Y96048D01*
X174893Y96340D01*
X174323Y96699D01*
X173796Y97119D01*
X173319Y97596D01*
X172899Y98123D01*
X172540Y98693D01*
X172248Y99300D01*
X172025Y99936D01*
X171875Y100593D01*
X171800Y101263D01*
X171800Y101937D01*
X171875Y102607D01*
X172025Y103264D01*
X172248Y103900D01*
X172540Y104507D01*
X172899Y105078D01*
X173319Y105604D01*
X173796Y106081D01*
X174323Y106501D01*
X174893Y106860D01*
X175500Y107152D01*
X176136Y107375D01*
X176793Y107525D01*
X177463Y107600D01*
X178137Y107600D01*
X178807Y107525D01*
X179464Y107375D01*
X180100Y107152D01*
X180707Y106860D01*
X181278Y106501D01*
X181804Y106081D01*
X182281Y105604D01*
X182701Y105078D01*
X183060Y104507D01*
X183352Y103900D01*
X183575Y103264D01*
X183725Y102607D01*
X183800Y101937D01*
X183800Y101263D01*
X234600Y101263D02*
X234525Y100593D01*
X234375Y99936D01*
X234152Y99300D01*
X233860Y98693D01*
X233501Y98123D01*
X233081Y97596D01*
X232604Y97119D01*
X232078Y96699D01*
X231507Y96340D01*
X230900Y96048D01*
X230264Y95825D01*
X229607Y95675D01*
X228937Y95600D01*
X228263Y95600D01*
X227593Y95675D01*
X226936Y95825D01*
X226300Y96048D01*
X225693Y96340D01*
X225123Y96699D01*
X224596Y97119D01*
X224119Y97596D01*
X223699Y98123D01*
X223340Y98693D01*
X223048Y99300D01*
X222825Y99936D01*
X222675Y100593D01*
X222600Y101263D01*
X222600Y101937D01*
X222675Y102607D01*
X222825Y103264D01*
X223048Y103900D01*
X223340Y104507D01*
X223699Y105078D01*
X224119Y105604D01*
X224596Y106081D01*
X225123Y106501D01*
X225693Y106860D01*
X226300Y107152D01*
X226936Y107375D01*
X227593Y107525D01*
X228263Y107600D01*
X228937Y107600D01*
X229607Y107525D01*
X230264Y107375D01*
X230900Y107152D01*
X231507Y106860D01*
X232078Y106501D01*
X232604Y106081D01*
X233081Y105604D01*
X233501Y105078D01*
X233860Y104507D01*
X234152Y103900D01*
X234375Y103264D01*
X234525Y102607D01*
X234600Y101937D01*
X234600Y101263D01*
X387000Y101263D02*
X386925Y100593D01*
X386775Y99936D01*
X386552Y99300D01*
X386260Y98693D01*
X385901Y98123D01*
X385481Y97596D01*
X385004Y97119D01*
X384478Y96699D01*
X383907Y96340D01*
X383300Y96048D01*
X382664Y95825D01*
X382007Y95675D01*
X381337Y95600D01*
X380663Y95600D01*
X379993Y95675D01*
X379336Y95825D01*
X378700Y96048D01*
X378093Y96340D01*
X377523Y96699D01*
X376996Y97119D01*
X376519Y97596D01*
X376099Y98123D01*
X375740Y98693D01*
X375448Y99300D01*
X375225Y99936D01*
X375075Y100593D01*
X375000Y101263D01*
X375000Y101937D01*
X375075Y102607D01*
X375225Y103264D01*
X375448Y103900D01*
X375740Y104507D01*
X376099Y105078D01*
X376519Y105604D01*
X376996Y106081D01*
X377523Y106501D01*
X378093Y106860D01*
X378700Y107152D01*
X379336Y107375D01*
X379993Y107525D01*
X380663Y107600D01*
X381337Y107600D01*
X382007Y107525D01*
X382664Y107375D01*
X383300Y107152D01*
X383907Y106860D01*
X384478Y106501D01*
X385004Y106081D01*
X385481Y105604D01*
X385901Y105078D01*
X386260Y104507D01*
X386552Y103900D01*
X386775Y103264D01*
X386925Y102607D01*
X387000Y101937D01*
X387000Y101263D01*
X260000Y101263D02*
X259925Y100593D01*
X259775Y99936D01*
X259552Y99300D01*
X259260Y98693D01*
X258901Y98123D01*
X258481Y97596D01*
X258004Y97119D01*
X257478Y96699D01*
X256907Y96340D01*
X256300Y96048D01*
X255664Y95825D01*
X255007Y95675D01*
X254337Y95600D01*
X253663Y95600D01*
X252993Y95675D01*
X252336Y95825D01*
X251700Y96048D01*
X251093Y96340D01*
X250523Y96699D01*
X249996Y97119D01*
X249519Y97596D01*
X249099Y98123D01*
X248740Y98693D01*
X248448Y99300D01*
X248225Y99936D01*
X248075Y100593D01*
X248000Y101263D01*
X248000Y101937D01*
X248075Y102607D01*
X248225Y103264D01*
X248448Y103900D01*
X248740Y104507D01*
X249099Y105078D01*
X249519Y105604D01*
X249996Y106081D01*
X250523Y106501D01*
X251093Y106860D01*
X251700Y107152D01*
X252336Y107375D01*
X252993Y107525D01*
X253663Y107600D01*
X254337Y107600D01*
X255007Y107525D01*
X255664Y107375D01*
X256300Y107152D01*
X256907Y106860D01*
X257478Y106501D01*
X258004Y106081D01*
X258481Y105604D01*
X258901Y105078D01*
X259260Y104507D01*
X259552Y103900D01*
X259775Y103264D01*
X259925Y102607D01*
X260000Y101937D01*
X260000Y101263D01*
X412400Y101263D02*
X412325Y100593D01*
X412175Y99936D01*
X411952Y99300D01*
X411660Y98693D01*
X411301Y98123D01*
X410881Y97596D01*
X410404Y97119D01*
X409878Y96699D01*
X409307Y96340D01*
X408700Y96048D01*
X408064Y95825D01*
X407407Y95675D01*
X406737Y95600D01*
X406063Y95600D01*
X405393Y95675D01*
X404736Y95825D01*
X404100Y96048D01*
X403493Y96340D01*
X402923Y96699D01*
X402396Y97119D01*
X401919Y97596D01*
X401499Y98123D01*
X401140Y98693D01*
X400848Y99300D01*
X400625Y99936D01*
X400475Y100593D01*
X400400Y101263D01*
X400400Y101937D01*
X400475Y102607D01*
X400625Y103264D01*
X400848Y103900D01*
X401140Y104507D01*
X401499Y105078D01*
X401919Y105604D01*
X402396Y106081D01*
X402923Y106501D01*
X403493Y106860D01*
X404100Y107152D01*
X404736Y107375D01*
X405393Y107525D01*
X406063Y107600D01*
X406737Y107600D01*
X407407Y107525D01*
X408064Y107375D01*
X408700Y107152D01*
X409307Y106860D01*
X409878Y106501D01*
X410404Y106081D01*
X410881Y105604D01*
X411301Y105078D01*
X411660Y104507D01*
X411952Y103900D01*
X412175Y103264D01*
X412325Y102607D01*
X412400Y101937D01*
X412400Y101263D01*
X437800Y101263D02*
X437725Y100593D01*
X437575Y99936D01*
X437352Y99300D01*
X437060Y98693D01*
X436701Y98123D01*
X436281Y97596D01*
X435804Y97119D01*
X435278Y96699D01*
X434707Y96340D01*
X434100Y96048D01*
X433464Y95825D01*
X432807Y95675D01*
X432137Y95600D01*
X431463Y95600D01*
X430793Y95675D01*
X430136Y95825D01*
X429500Y96048D01*
X428893Y96340D01*
X428323Y96699D01*
X427796Y97119D01*
X427319Y97596D01*
X426899Y98123D01*
X426540Y98693D01*
X426248Y99300D01*
X426025Y99936D01*
X425875Y100593D01*
X425800Y101263D01*
X425800Y101937D01*
X425875Y102607D01*
X426025Y103264D01*
X426248Y103900D01*
X426540Y104507D01*
X426899Y105078D01*
X427319Y105604D01*
X427796Y106081D01*
X428323Y106501D01*
X428893Y106860D01*
X429500Y107152D01*
X430136Y107375D01*
X430793Y107525D01*
X431463Y107600D01*
X432137Y107600D01*
X432807Y107525D01*
X433464Y107375D01*
X434100Y107152D01*
X434707Y106860D01*
X435278Y106501D01*
X435804Y106081D01*
X436281Y105604D01*
X436701Y105078D01*
X437060Y104507D01*
X437352Y103900D01*
X437575Y103264D01*
X437725Y102607D01*
X437800Y101937D01*
X437800Y101263D01*
X488600Y101263D02*
X488525Y100593D01*
X488375Y99936D01*
X488152Y99300D01*
X487860Y98693D01*
X487501Y98123D01*
X487081Y97596D01*
X486604Y97119D01*
X486078Y96699D01*
X485507Y96340D01*
X484900Y96048D01*
X484264Y95825D01*
X483607Y95675D01*
X482937Y95600D01*
X482263Y95600D01*
X481593Y95675D01*
X480936Y95825D01*
X480300Y96048D01*
X479693Y96340D01*
X479123Y96699D01*
X478596Y97119D01*
X478119Y97596D01*
X477699Y98123D01*
X477340Y98693D01*
X477048Y99300D01*
X476825Y99936D01*
X476675Y100593D01*
X476600Y101263D01*
X476600Y101937D01*
X476675Y102607D01*
X476825Y103264D01*
X477048Y103900D01*
X477340Y104507D01*
X477699Y105078D01*
X478119Y105604D01*
X478596Y106081D01*
X479123Y106501D01*
X479693Y106860D01*
X480300Y107152D01*
X480936Y107375D01*
X481593Y107525D01*
X482263Y107600D01*
X482937Y107600D01*
X483607Y107525D01*
X484264Y107375D01*
X484900Y107152D01*
X485507Y106860D01*
X486078Y106501D01*
X486604Y106081D01*
X487081Y105604D01*
X487501Y105078D01*
X487860Y104507D01*
X488152Y103900D01*
X488375Y103264D01*
X488525Y102607D01*
X488600Y101937D01*
X488600Y101263D01*
X539400Y101263D02*
X539325Y100593D01*
X539175Y99936D01*
X538952Y99300D01*
X538660Y98693D01*
X538301Y98123D01*
X537881Y97596D01*
X537404Y97119D01*
X536878Y96699D01*
X536307Y96340D01*
X535700Y96048D01*
X535064Y95825D01*
X534407Y95675D01*
X533737Y95600D01*
X533063Y95600D01*
X532393Y95675D01*
X531736Y95825D01*
X531100Y96048D01*
X530493Y96340D01*
X529923Y96699D01*
X529396Y97119D01*
X528919Y97596D01*
X528499Y98123D01*
X528140Y98693D01*
X527848Y99300D01*
X527625Y99936D01*
X527475Y100593D01*
X527400Y101263D01*
X527400Y101937D01*
X527475Y102607D01*
X527625Y103264D01*
X527848Y103900D01*
X528140Y104507D01*
X528499Y105078D01*
X528919Y105604D01*
X529396Y106081D01*
X529923Y106501D01*
X530493Y106860D01*
X531100Y107152D01*
X531736Y107375D01*
X532393Y107525D01*
X533063Y107600D01*
X533737Y107600D01*
X534407Y107525D01*
X535064Y107375D01*
X535700Y107152D01*
X536307Y106860D01*
X536878Y106501D01*
X537404Y106081D01*
X537881Y105604D01*
X538301Y105078D01*
X538660Y104507D01*
X538952Y103900D01*
X539175Y103264D01*
X539325Y102607D01*
X539400Y101937D01*
X539400Y101263D01*
X564800Y101263D02*
X564725Y100593D01*
X564575Y99936D01*
X564352Y99300D01*
X564060Y98693D01*
X563701Y98123D01*
X563281Y97596D01*
X562804Y97119D01*
X562278Y96699D01*
X561707Y96340D01*
X561100Y96048D01*
X560464Y95825D01*
X559807Y95675D01*
X559137Y95600D01*
X558463Y95600D01*
X557793Y95675D01*
X557136Y95825D01*
X556500Y96048D01*
X555893Y96340D01*
X555323Y96699D01*
X554796Y97119D01*
X554319Y97596D01*
X553899Y98123D01*
X553540Y98693D01*
X553248Y99300D01*
X553025Y99936D01*
X552875Y100593D01*
X552800Y101263D01*
X552800Y101937D01*
X552875Y102607D01*
X553025Y103264D01*
X553248Y103900D01*
X553540Y104507D01*
X553899Y105078D01*
X554319Y105604D01*
X554796Y106081D01*
X555323Y106501D01*
X555893Y106860D01*
X556500Y107152D01*
X557136Y107375D01*
X557793Y107525D01*
X558463Y107600D01*
X559137Y107600D01*
X559807Y107525D01*
X560464Y107375D01*
X561100Y107152D01*
X561707Y106860D01*
X562278Y106501D01*
X562804Y106081D01*
X563281Y105604D01*
X563701Y105078D01*
X564060Y104507D01*
X564352Y103900D01*
X564575Y103264D01*
X564725Y102607D01*
X564800Y101937D01*
X564800Y101263D01*
X590200Y101263D02*
X590125Y100593D01*
X589975Y99936D01*
X589752Y99300D01*
X589460Y98693D01*
X589101Y98123D01*
X588681Y97596D01*
X588204Y97119D01*
X587678Y96699D01*
X587107Y96340D01*
X586500Y96048D01*
X585864Y95825D01*
X585207Y95675D01*
X584537Y95600D01*
X583863Y95600D01*
X583193Y95675D01*
X582536Y95825D01*
X581900Y96048D01*
X581293Y96340D01*
X580723Y96699D01*
X580196Y97119D01*
X579719Y97596D01*
X579299Y98123D01*
X578940Y98693D01*
X578648Y99300D01*
X578425Y99936D01*
X578275Y100593D01*
X578200Y101263D01*
X578200Y101937D01*
X578275Y102607D01*
X578425Y103264D01*
X578648Y103900D01*
X578940Y104507D01*
X579299Y105078D01*
X579719Y105604D01*
X580196Y106081D01*
X580723Y106501D01*
X581293Y106860D01*
X581900Y107152D01*
X582536Y107375D01*
X583193Y107525D01*
X583863Y107600D01*
X584537Y107600D01*
X585207Y107525D01*
X585864Y107375D01*
X586500Y107152D01*
X587107Y106860D01*
X587678Y106501D01*
X588204Y106081D01*
X588681Y105604D01*
X589101Y105078D01*
X589460Y104507D01*
X589752Y103900D01*
X589975Y103264D01*
X590125Y102607D01*
X590200Y101937D01*
X590200Y101263D01*
X615600Y101263D02*
X615525Y100593D01*
X615375Y99936D01*
X615152Y99300D01*
X614860Y98693D01*
X614501Y98123D01*
X614081Y97596D01*
X613604Y97119D01*
X613078Y96699D01*
X612507Y96340D01*
X611900Y96048D01*
X611264Y95825D01*
X610607Y95675D01*
X609937Y95600D01*
X609263Y95600D01*
X608593Y95675D01*
X607936Y95825D01*
X607300Y96048D01*
X606693Y96340D01*
X606123Y96699D01*
X605596Y97119D01*
X605119Y97596D01*
X604699Y98123D01*
X604340Y98693D01*
X604048Y99300D01*
X603825Y99936D01*
X603675Y100593D01*
X603600Y101263D01*
X603600Y101937D01*
X603675Y102607D01*
X603825Y103264D01*
X604048Y103900D01*
X604340Y104507D01*
X604699Y105078D01*
X605119Y105604D01*
X605596Y106081D01*
X606123Y106501D01*
X606693Y106860D01*
X607300Y107152D01*
X607936Y107375D01*
X608593Y107525D01*
X609263Y107600D01*
X609937Y107600D01*
X610607Y107525D01*
X611264Y107375D01*
X611900Y107152D01*
X612507Y106860D01*
X613078Y106501D01*
X613604Y106081D01*
X614081Y105604D01*
X614501Y105078D01*
X614860Y104507D01*
X615152Y103900D01*
X615375Y103264D01*
X615525Y102607D01*
X615600Y101937D01*
X615600Y101263D01*
X641000Y101263D02*
X640925Y100593D01*
X640775Y99936D01*
X640552Y99300D01*
X640260Y98693D01*
X639901Y98123D01*
X639481Y97596D01*
X639004Y97119D01*
X638478Y96699D01*
X637907Y96340D01*
X637300Y96048D01*
X636664Y95825D01*
X636007Y95675D01*
X635337Y95600D01*
X634663Y95600D01*
X633993Y95675D01*
X633336Y95825D01*
X632700Y96048D01*
X632093Y96340D01*
X631523Y96699D01*
X630996Y97119D01*
X630519Y97596D01*
X630099Y98123D01*
X629740Y98693D01*
X629448Y99300D01*
X629225Y99936D01*
X629075Y100593D01*
X629000Y101263D01*
X629000Y101937D01*
X629075Y102607D01*
X629225Y103264D01*
X629448Y103900D01*
X629740Y104507D01*
X630099Y105078D01*
X630519Y105604D01*
X630996Y106081D01*
X631523Y106501D01*
X632093Y106860D01*
X632700Y107152D01*
X633336Y107375D01*
X633993Y107525D01*
X634663Y107600D01*
X635337Y107600D01*
X636007Y107525D01*
X636664Y107375D01*
X637300Y107152D01*
X637907Y106860D01*
X638478Y106501D01*
X639004Y106081D01*
X639481Y105604D01*
X639901Y105078D01*
X640260Y104507D01*
X640552Y103900D01*
X640775Y103264D01*
X640925Y102607D01*
X641000Y101937D01*
X641000Y101263D01*
X666400Y101263D02*
X666325Y100593D01*
X666175Y99936D01*
X665952Y99300D01*
X665660Y98693D01*
X665301Y98123D01*
X664881Y97596D01*
X664404Y97119D01*
X663878Y96699D01*
X663307Y96340D01*
X662700Y96048D01*
X662064Y95825D01*
X661407Y95675D01*
X660737Y95600D01*
X660063Y95600D01*
X659393Y95675D01*
X658736Y95825D01*
X658100Y96048D01*
X657493Y96340D01*
X656923Y96699D01*
X656396Y97119D01*
X655919Y97596D01*
X655499Y98123D01*
X655140Y98693D01*
X654848Y99300D01*
X654625Y99936D01*
X654475Y100593D01*
X654400Y101263D01*
X654400Y101937D01*
X654475Y102607D01*
X654625Y103264D01*
X654848Y103900D01*
X655140Y104507D01*
X655499Y105078D01*
X655919Y105604D01*
X656396Y106081D01*
X656923Y106501D01*
X657493Y106860D01*
X658100Y107152D01*
X658736Y107375D01*
X659393Y107525D01*
X660063Y107600D01*
X660737Y107600D01*
X661407Y107525D01*
X662064Y107375D01*
X662700Y107152D01*
X663307Y106860D01*
X663878Y106501D01*
X664404Y106081D01*
X664881Y105604D01*
X665301Y105078D01*
X665660Y104507D01*
X665952Y103900D01*
X666175Y103264D01*
X666325Y102607D01*
X666400Y101937D01*
X666400Y101263D01*
X691800Y101263D02*
X691725Y100593D01*
X691575Y99936D01*
X691352Y99300D01*
X691060Y98693D01*
X690701Y98123D01*
X690281Y97596D01*
X689804Y97119D01*
X689278Y96699D01*
X688707Y96340D01*
X688100Y96048D01*
X687464Y95825D01*
X686807Y95675D01*
X686137Y95600D01*
X685463Y95600D01*
X684793Y95675D01*
X684136Y95825D01*
X683500Y96048D01*
X682893Y96340D01*
X682323Y96699D01*
X681796Y97119D01*
X681319Y97596D01*
X680899Y98123D01*
X680540Y98693D01*
X680248Y99300D01*
X680025Y99936D01*
X679875Y100593D01*
X679800Y101263D01*
X679800Y101937D01*
X679875Y102607D01*
X680025Y103264D01*
X680248Y103900D01*
X680540Y104507D01*
X680899Y105078D01*
X681319Y105604D01*
X681796Y106081D01*
X682323Y106501D01*
X682893Y106860D01*
X683500Y107152D01*
X684136Y107375D01*
X684793Y107525D01*
X685463Y107600D01*
X686137Y107600D01*
X686807Y107525D01*
X687464Y107375D01*
X688100Y107152D01*
X688707Y106860D01*
X689278Y106501D01*
X689804Y106081D01*
X690281Y105604D01*
X690701Y105078D01*
X691060Y104507D01*
X691352Y103900D01*
X691575Y103264D01*
X691725Y102607D01*
X691800Y101937D01*
X691800Y101263D01*
X717200Y101263D02*
X717125Y100593D01*
X716975Y99936D01*
X716752Y99300D01*
X716460Y98693D01*
X716101Y98123D01*
X715681Y97596D01*
X715204Y97119D01*
X714678Y96699D01*
X714107Y96340D01*
X713500Y96048D01*
X712864Y95825D01*
X712207Y95675D01*
X711537Y95600D01*
X710863Y95600D01*
X710193Y95675D01*
X709536Y95825D01*
X708900Y96048D01*
X708293Y96340D01*
X707723Y96699D01*
X707196Y97119D01*
X706719Y97596D01*
X706299Y98123D01*
X705940Y98693D01*
X705648Y99300D01*
X705425Y99936D01*
X705275Y100593D01*
X705200Y101263D01*
X705200Y101937D01*
X705275Y102607D01*
X705425Y103264D01*
X705648Y103900D01*
X705940Y104507D01*
X706299Y105078D01*
X706719Y105604D01*
X707196Y106081D01*
X707723Y106501D01*
X708293Y106860D01*
X708900Y107152D01*
X709536Y107375D01*
X710193Y107525D01*
X710863Y107600D01*
X711537Y107600D01*
X712207Y107525D01*
X712864Y107375D01*
X713500Y107152D01*
X714107Y106860D01*
X714678Y106501D01*
X715204Y106081D01*
X715681Y105604D01*
X716101Y105078D01*
X716460Y104507D01*
X716752Y103900D01*
X716975Y103264D01*
X717125Y102607D01*
X717200Y101937D01*
X717200Y101263D01*
X768000Y101263D02*
X767925Y100593D01*
X767775Y99936D01*
X767552Y99300D01*
X767260Y98693D01*
X766901Y98123D01*
X766481Y97596D01*
X766004Y97119D01*
X765478Y96699D01*
X764907Y96340D01*
X764300Y96048D01*
X763664Y95825D01*
X763007Y95675D01*
X762337Y95600D01*
X761663Y95600D01*
X760993Y95675D01*
X760336Y95825D01*
X759700Y96048D01*
X759093Y96340D01*
X758523Y96699D01*
X757996Y97119D01*
X757519Y97596D01*
X757099Y98123D01*
X756740Y98693D01*
X756448Y99300D01*
X756225Y99936D01*
X756075Y100593D01*
X756000Y101263D01*
X756000Y101937D01*
X756075Y102607D01*
X756225Y103264D01*
X756448Y103900D01*
X756740Y104507D01*
X757099Y105078D01*
X757519Y105604D01*
X757996Y106081D01*
X758523Y106501D01*
X759093Y106860D01*
X759700Y107152D01*
X760336Y107375D01*
X760993Y107525D01*
X761663Y107600D01*
X762337Y107600D01*
X763007Y107525D01*
X763664Y107375D01*
X764300Y107152D01*
X764907Y106860D01*
X765478Y106501D01*
X766004Y106081D01*
X766481Y105604D01*
X766901Y105078D01*
X767260Y104507D01*
X767552Y103900D01*
X767775Y103264D01*
X767925Y102607D01*
X768000Y101937D01*
X768000Y101263D01*
M02*
