G04 EAGLE Gerber RS-274X export*
G75*
%MOMM*%
%FSLAX34Y34*%
%LPD*%
%INSilkscreen Bottom*%
%IPPOS*%
%AMOC8*
5,1,8,0,0,1.08239X$1,22.5*%
G01*
%ADD10C,0.203200*%
%ADD11C,0.076200*%


D10*
X484103Y42291D02*
X484103Y52959D01*
X481139Y52959D01*
X481031Y52957D01*
X480923Y52951D01*
X480815Y52941D01*
X480708Y52927D01*
X480601Y52910D01*
X480495Y52888D01*
X480390Y52863D01*
X480285Y52833D01*
X480182Y52800D01*
X480081Y52763D01*
X479980Y52723D01*
X479881Y52679D01*
X479784Y52631D01*
X479689Y52580D01*
X479595Y52525D01*
X479504Y52467D01*
X479415Y52406D01*
X479328Y52341D01*
X479244Y52274D01*
X479162Y52203D01*
X479082Y52129D01*
X479006Y52053D01*
X478932Y51973D01*
X478862Y51891D01*
X478794Y51807D01*
X478729Y51720D01*
X478668Y51631D01*
X478610Y51540D01*
X478555Y51446D01*
X478504Y51351D01*
X478456Y51254D01*
X478412Y51155D01*
X478372Y51054D01*
X478335Y50953D01*
X478302Y50850D01*
X478272Y50745D01*
X478247Y50640D01*
X478225Y50534D01*
X478208Y50427D01*
X478194Y50320D01*
X478184Y50212D01*
X478178Y50104D01*
X478176Y49996D01*
X478176Y45254D01*
X478178Y45148D01*
X478184Y45043D01*
X478193Y44937D01*
X478206Y44832D01*
X478223Y44728D01*
X478244Y44624D01*
X478268Y44521D01*
X478296Y44419D01*
X478328Y44318D01*
X478363Y44219D01*
X478402Y44120D01*
X478444Y44023D01*
X478489Y43928D01*
X478538Y43834D01*
X478591Y43742D01*
X478646Y43652D01*
X478705Y43564D01*
X478767Y43478D01*
X478832Y43395D01*
X478900Y43314D01*
X478970Y43235D01*
X479044Y43159D01*
X479120Y43085D01*
X479199Y43015D01*
X479280Y42947D01*
X479363Y42882D01*
X479449Y42820D01*
X479537Y42761D01*
X479627Y42706D01*
X479719Y42653D01*
X479813Y42604D01*
X479908Y42559D01*
X480005Y42517D01*
X480104Y42478D01*
X480203Y42443D01*
X480304Y42411D01*
X480406Y42383D01*
X480509Y42359D01*
X480613Y42338D01*
X480717Y42321D01*
X480822Y42308D01*
X480928Y42299D01*
X481033Y42293D01*
X481139Y42291D01*
X484103Y42291D01*
X471877Y42291D02*
X467136Y42291D01*
X471877Y42291D02*
X471877Y52959D01*
X467136Y52959D01*
X468321Y48218D02*
X471877Y48218D01*
X459211Y42291D02*
X459116Y42293D01*
X459020Y42299D01*
X458925Y42308D01*
X458831Y42322D01*
X458737Y42339D01*
X458644Y42360D01*
X458551Y42385D01*
X458460Y42413D01*
X458370Y42445D01*
X458282Y42481D01*
X458195Y42520D01*
X458109Y42563D01*
X458026Y42609D01*
X457944Y42658D01*
X457864Y42711D01*
X457787Y42767D01*
X457711Y42825D01*
X457639Y42887D01*
X457569Y42952D01*
X457501Y43020D01*
X457436Y43090D01*
X457374Y43162D01*
X457316Y43238D01*
X457260Y43315D01*
X457207Y43395D01*
X457158Y43477D01*
X457112Y43560D01*
X457069Y43646D01*
X457030Y43733D01*
X456994Y43821D01*
X456962Y43911D01*
X456934Y44002D01*
X456909Y44095D01*
X456888Y44188D01*
X456871Y44282D01*
X456857Y44376D01*
X456848Y44471D01*
X456842Y44567D01*
X456840Y44662D01*
X459211Y42291D02*
X459347Y42293D01*
X459484Y42298D01*
X459620Y42308D01*
X459755Y42321D01*
X459891Y42337D01*
X460025Y42358D01*
X460160Y42382D01*
X460293Y42409D01*
X460426Y42441D01*
X460558Y42475D01*
X460689Y42514D01*
X460818Y42556D01*
X460947Y42601D01*
X461074Y42650D01*
X461200Y42703D01*
X461324Y42759D01*
X461447Y42818D01*
X461568Y42880D01*
X461688Y42946D01*
X461805Y43015D01*
X461921Y43088D01*
X462035Y43163D01*
X462146Y43241D01*
X462255Y43323D01*
X462363Y43407D01*
X462467Y43494D01*
X462570Y43584D01*
X462670Y43677D01*
X462767Y43773D01*
X462471Y50588D02*
X462469Y50683D01*
X462463Y50779D01*
X462454Y50874D01*
X462440Y50968D01*
X462423Y51062D01*
X462402Y51155D01*
X462377Y51248D01*
X462349Y51339D01*
X462317Y51429D01*
X462281Y51517D01*
X462242Y51604D01*
X462199Y51690D01*
X462153Y51774D01*
X462104Y51855D01*
X462051Y51935D01*
X461995Y52012D01*
X461937Y52088D01*
X461875Y52160D01*
X461810Y52230D01*
X461742Y52298D01*
X461672Y52363D01*
X461600Y52425D01*
X461524Y52483D01*
X461447Y52539D01*
X461367Y52592D01*
X461286Y52641D01*
X461202Y52687D01*
X461116Y52730D01*
X461029Y52769D01*
X460941Y52805D01*
X460851Y52837D01*
X460760Y52865D01*
X460667Y52890D01*
X460574Y52911D01*
X460480Y52928D01*
X460386Y52942D01*
X460291Y52951D01*
X460195Y52957D01*
X460100Y52959D01*
X459970Y52957D01*
X459840Y52951D01*
X459710Y52942D01*
X459581Y52929D01*
X459452Y52912D01*
X459324Y52891D01*
X459196Y52866D01*
X459069Y52838D01*
X458943Y52806D01*
X458818Y52770D01*
X458694Y52731D01*
X458572Y52688D01*
X458450Y52642D01*
X458330Y52591D01*
X458212Y52538D01*
X458095Y52481D01*
X457980Y52421D01*
X457866Y52357D01*
X457755Y52290D01*
X457645Y52220D01*
X457538Y52146D01*
X457433Y52070D01*
X461286Y48513D02*
X461367Y48564D01*
X461447Y48618D01*
X461525Y48674D01*
X461600Y48734D01*
X461673Y48797D01*
X461743Y48863D01*
X461810Y48931D01*
X461875Y49002D01*
X461937Y49076D01*
X461996Y49152D01*
X462052Y49230D01*
X462104Y49311D01*
X462154Y49393D01*
X462200Y49478D01*
X462242Y49564D01*
X462282Y49652D01*
X462317Y49741D01*
X462349Y49832D01*
X462378Y49924D01*
X462402Y50017D01*
X462423Y50110D01*
X462440Y50205D01*
X462454Y50300D01*
X462463Y50396D01*
X462469Y50492D01*
X462471Y50588D01*
X458026Y46737D02*
X457944Y46686D01*
X457864Y46632D01*
X457786Y46576D01*
X457711Y46516D01*
X457638Y46453D01*
X457568Y46387D01*
X457501Y46319D01*
X457436Y46248D01*
X457374Y46174D01*
X457315Y46098D01*
X457259Y46020D01*
X457207Y45939D01*
X457157Y45857D01*
X457111Y45772D01*
X457069Y45686D01*
X457029Y45598D01*
X456994Y45509D01*
X456962Y45418D01*
X456933Y45326D01*
X456909Y45233D01*
X456888Y45140D01*
X456871Y45045D01*
X456857Y44950D01*
X456848Y44854D01*
X456842Y44758D01*
X456840Y44662D01*
X458025Y46736D02*
X461285Y48514D01*
X451040Y52959D02*
X451040Y42291D01*
X449855Y42291D02*
X452226Y42291D01*
X452226Y52959D02*
X449855Y52959D01*
X440330Y48218D02*
X438552Y48218D01*
X438552Y42291D01*
X442108Y42291D01*
X442203Y42293D01*
X442299Y42299D01*
X442394Y42308D01*
X442488Y42322D01*
X442582Y42339D01*
X442675Y42360D01*
X442768Y42385D01*
X442859Y42413D01*
X442949Y42445D01*
X443037Y42481D01*
X443124Y42520D01*
X443210Y42563D01*
X443294Y42609D01*
X443375Y42658D01*
X443455Y42711D01*
X443532Y42767D01*
X443608Y42825D01*
X443680Y42887D01*
X443750Y42952D01*
X443818Y43020D01*
X443883Y43090D01*
X443945Y43162D01*
X444003Y43238D01*
X444059Y43315D01*
X444112Y43395D01*
X444161Y43477D01*
X444207Y43560D01*
X444250Y43646D01*
X444289Y43733D01*
X444325Y43821D01*
X444357Y43911D01*
X444385Y44002D01*
X444410Y44095D01*
X444431Y44188D01*
X444448Y44282D01*
X444462Y44376D01*
X444471Y44471D01*
X444477Y44567D01*
X444479Y44662D01*
X444479Y50588D01*
X444477Y50683D01*
X444471Y50779D01*
X444462Y50874D01*
X444448Y50968D01*
X444431Y51062D01*
X444410Y51155D01*
X444385Y51248D01*
X444357Y51339D01*
X444325Y51429D01*
X444289Y51517D01*
X444250Y51604D01*
X444207Y51690D01*
X444161Y51773D01*
X444112Y51855D01*
X444059Y51935D01*
X444003Y52012D01*
X443945Y52088D01*
X443883Y52160D01*
X443818Y52230D01*
X443750Y52298D01*
X443680Y52363D01*
X443608Y52425D01*
X443532Y52483D01*
X443455Y52539D01*
X443375Y52592D01*
X443294Y52641D01*
X443210Y52687D01*
X443124Y52730D01*
X443037Y52769D01*
X442949Y52805D01*
X442859Y52837D01*
X442768Y52865D01*
X442675Y52890D01*
X442582Y52911D01*
X442488Y52928D01*
X442394Y52942D01*
X442299Y52951D01*
X442204Y52957D01*
X442108Y52959D01*
X438552Y52959D01*
X432287Y52959D02*
X432287Y42291D01*
X426360Y42291D02*
X432287Y52959D01*
X426360Y52959D02*
X426360Y42291D01*
X414973Y42291D02*
X411417Y52959D01*
X407861Y42291D01*
X408750Y44958D02*
X414084Y44958D01*
X402569Y42291D02*
X402569Y52959D01*
X396642Y42291D01*
X396642Y52959D01*
X390377Y52959D02*
X390377Y42291D01*
X390377Y52959D02*
X387414Y52959D01*
X387306Y52957D01*
X387198Y52951D01*
X387090Y52941D01*
X386983Y52927D01*
X386876Y52910D01*
X386770Y52888D01*
X386665Y52863D01*
X386560Y52833D01*
X386457Y52800D01*
X386356Y52763D01*
X386255Y52723D01*
X386156Y52679D01*
X386059Y52631D01*
X385964Y52580D01*
X385870Y52525D01*
X385779Y52467D01*
X385690Y52406D01*
X385603Y52341D01*
X385519Y52274D01*
X385437Y52203D01*
X385357Y52129D01*
X385281Y52053D01*
X385207Y51973D01*
X385137Y51891D01*
X385069Y51807D01*
X385004Y51720D01*
X384943Y51631D01*
X384885Y51540D01*
X384830Y51446D01*
X384779Y51351D01*
X384731Y51254D01*
X384687Y51155D01*
X384647Y51054D01*
X384610Y50953D01*
X384577Y50850D01*
X384547Y50745D01*
X384522Y50640D01*
X384500Y50534D01*
X384483Y50427D01*
X384469Y50320D01*
X384459Y50212D01*
X384453Y50104D01*
X384451Y49996D01*
X384450Y49996D02*
X384450Y45254D01*
X384451Y45254D02*
X384453Y45148D01*
X384459Y45043D01*
X384468Y44937D01*
X384481Y44832D01*
X384498Y44728D01*
X384519Y44624D01*
X384543Y44521D01*
X384571Y44419D01*
X384603Y44318D01*
X384638Y44219D01*
X384677Y44120D01*
X384719Y44023D01*
X384764Y43928D01*
X384813Y43834D01*
X384866Y43742D01*
X384921Y43652D01*
X384980Y43564D01*
X385042Y43478D01*
X385107Y43395D01*
X385175Y43314D01*
X385245Y43235D01*
X385319Y43159D01*
X385395Y43085D01*
X385474Y43015D01*
X385555Y42947D01*
X385638Y42882D01*
X385724Y42820D01*
X385812Y42761D01*
X385902Y42706D01*
X385994Y42653D01*
X386088Y42604D01*
X386183Y42559D01*
X386280Y42517D01*
X386379Y42478D01*
X386478Y42443D01*
X386579Y42411D01*
X386681Y42383D01*
X386784Y42359D01*
X386888Y42338D01*
X386992Y42321D01*
X387097Y42308D01*
X387203Y42299D01*
X387308Y42293D01*
X387414Y42291D01*
X390377Y42291D01*
X370149Y42291D02*
X367778Y42291D01*
X370149Y42291D02*
X370244Y42293D01*
X370340Y42299D01*
X370435Y42308D01*
X370529Y42322D01*
X370623Y42339D01*
X370716Y42360D01*
X370809Y42385D01*
X370900Y42413D01*
X370990Y42445D01*
X371078Y42481D01*
X371165Y42520D01*
X371251Y42563D01*
X371335Y42609D01*
X371416Y42658D01*
X371496Y42711D01*
X371573Y42767D01*
X371649Y42825D01*
X371721Y42887D01*
X371791Y42952D01*
X371859Y43020D01*
X371924Y43090D01*
X371986Y43162D01*
X372044Y43238D01*
X372100Y43315D01*
X372153Y43395D01*
X372202Y43477D01*
X372248Y43560D01*
X372291Y43646D01*
X372330Y43733D01*
X372366Y43821D01*
X372398Y43911D01*
X372426Y44002D01*
X372451Y44095D01*
X372472Y44188D01*
X372489Y44282D01*
X372503Y44376D01*
X372512Y44471D01*
X372518Y44567D01*
X372520Y44662D01*
X372520Y50588D01*
X372518Y50683D01*
X372512Y50779D01*
X372503Y50874D01*
X372489Y50968D01*
X372472Y51062D01*
X372451Y51155D01*
X372426Y51248D01*
X372398Y51339D01*
X372366Y51429D01*
X372330Y51517D01*
X372291Y51604D01*
X372248Y51690D01*
X372202Y51773D01*
X372153Y51855D01*
X372100Y51935D01*
X372044Y52012D01*
X371986Y52088D01*
X371924Y52160D01*
X371859Y52230D01*
X371791Y52298D01*
X371721Y52363D01*
X371649Y52425D01*
X371573Y52483D01*
X371496Y52539D01*
X371416Y52592D01*
X371335Y52641D01*
X371251Y52687D01*
X371165Y52730D01*
X371078Y52769D01*
X370990Y52805D01*
X370900Y52837D01*
X370809Y52865D01*
X370716Y52890D01*
X370623Y52911D01*
X370529Y52928D01*
X370435Y52942D01*
X370340Y52951D01*
X370245Y52957D01*
X370149Y52959D01*
X367778Y52959D01*
X362945Y49996D02*
X362945Y45254D01*
X362945Y49996D02*
X362943Y50103D01*
X362937Y50210D01*
X362928Y50316D01*
X362914Y50422D01*
X362897Y50528D01*
X362876Y50633D01*
X362851Y50737D01*
X362822Y50840D01*
X362790Y50942D01*
X362754Y51043D01*
X362714Y51142D01*
X362671Y51240D01*
X362624Y51336D01*
X362574Y51431D01*
X362521Y51524D01*
X362464Y51614D01*
X362404Y51703D01*
X362341Y51789D01*
X362275Y51873D01*
X362205Y51955D01*
X362133Y52034D01*
X362058Y52110D01*
X361980Y52184D01*
X361900Y52254D01*
X361817Y52322D01*
X361732Y52387D01*
X361645Y52448D01*
X361555Y52507D01*
X361464Y52562D01*
X361370Y52614D01*
X361274Y52662D01*
X361177Y52707D01*
X361079Y52749D01*
X360979Y52786D01*
X360877Y52821D01*
X360775Y52851D01*
X360671Y52878D01*
X360567Y52901D01*
X360461Y52920D01*
X360355Y52935D01*
X360249Y52947D01*
X360142Y52955D01*
X360035Y52959D01*
X359929Y52959D01*
X359822Y52955D01*
X359715Y52947D01*
X359609Y52935D01*
X359503Y52920D01*
X359397Y52901D01*
X359293Y52878D01*
X359189Y52851D01*
X359087Y52821D01*
X358985Y52786D01*
X358885Y52749D01*
X358787Y52707D01*
X358690Y52662D01*
X358594Y52614D01*
X358501Y52562D01*
X358409Y52507D01*
X358319Y52448D01*
X358232Y52387D01*
X358147Y52322D01*
X358064Y52254D01*
X357984Y52184D01*
X357906Y52110D01*
X357831Y52034D01*
X357759Y51955D01*
X357689Y51873D01*
X357623Y51789D01*
X357560Y51703D01*
X357500Y51614D01*
X357443Y51524D01*
X357390Y51431D01*
X357340Y51336D01*
X357293Y51240D01*
X357250Y51142D01*
X357210Y51043D01*
X357174Y50942D01*
X357142Y50840D01*
X357113Y50737D01*
X357088Y50633D01*
X357067Y50528D01*
X357050Y50422D01*
X357036Y50316D01*
X357027Y50210D01*
X357021Y50103D01*
X357019Y49996D01*
X357018Y49996D02*
X357018Y45254D01*
X357019Y45254D02*
X357021Y45147D01*
X357027Y45040D01*
X357036Y44934D01*
X357050Y44828D01*
X357067Y44722D01*
X357088Y44617D01*
X357113Y44513D01*
X357142Y44410D01*
X357174Y44308D01*
X357210Y44207D01*
X357250Y44108D01*
X357293Y44010D01*
X357340Y43914D01*
X357390Y43819D01*
X357443Y43726D01*
X357500Y43636D01*
X357560Y43547D01*
X357623Y43461D01*
X357689Y43377D01*
X357759Y43295D01*
X357831Y43216D01*
X357906Y43140D01*
X357984Y43066D01*
X358064Y42996D01*
X358147Y42928D01*
X358232Y42863D01*
X358319Y42802D01*
X358409Y42743D01*
X358501Y42688D01*
X358594Y42636D01*
X358690Y42588D01*
X358787Y42543D01*
X358885Y42501D01*
X358985Y42464D01*
X359087Y42429D01*
X359189Y42399D01*
X359293Y42372D01*
X359397Y42349D01*
X359503Y42330D01*
X359609Y42315D01*
X359715Y42303D01*
X359822Y42295D01*
X359929Y42291D01*
X360035Y42291D01*
X360142Y42295D01*
X360249Y42303D01*
X360355Y42315D01*
X360461Y42330D01*
X360567Y42349D01*
X360671Y42372D01*
X360775Y42399D01*
X360877Y42429D01*
X360979Y42464D01*
X361079Y42501D01*
X361177Y42543D01*
X361274Y42588D01*
X361370Y42636D01*
X361464Y42688D01*
X361555Y42743D01*
X361645Y42802D01*
X361732Y42863D01*
X361817Y42928D01*
X361900Y42996D01*
X361980Y43066D01*
X362058Y43140D01*
X362133Y43216D01*
X362205Y43295D01*
X362275Y43377D01*
X362341Y43461D01*
X362404Y43547D01*
X362464Y43636D01*
X362521Y43726D01*
X362574Y43819D01*
X362624Y43914D01*
X362671Y44010D01*
X362714Y44108D01*
X362754Y44207D01*
X362790Y44308D01*
X362822Y44410D01*
X362851Y44513D01*
X362876Y44617D01*
X362897Y44722D01*
X362914Y44828D01*
X362928Y44934D01*
X362937Y45040D01*
X362943Y45147D01*
X362945Y45254D01*
X351134Y42291D02*
X351134Y52959D01*
X345207Y42291D01*
X345207Y52959D01*
X337002Y42291D02*
X334631Y42291D01*
X337002Y42291D02*
X337097Y42293D01*
X337193Y42299D01*
X337288Y42308D01*
X337382Y42322D01*
X337476Y42339D01*
X337569Y42360D01*
X337662Y42385D01*
X337753Y42413D01*
X337843Y42445D01*
X337931Y42481D01*
X338018Y42520D01*
X338104Y42563D01*
X338188Y42609D01*
X338269Y42658D01*
X338349Y42711D01*
X338426Y42767D01*
X338502Y42825D01*
X338574Y42887D01*
X338644Y42952D01*
X338712Y43020D01*
X338777Y43090D01*
X338839Y43162D01*
X338897Y43238D01*
X338953Y43315D01*
X339006Y43395D01*
X339055Y43477D01*
X339101Y43560D01*
X339144Y43646D01*
X339183Y43733D01*
X339219Y43821D01*
X339251Y43911D01*
X339279Y44002D01*
X339304Y44095D01*
X339325Y44188D01*
X339342Y44282D01*
X339356Y44376D01*
X339365Y44471D01*
X339371Y44567D01*
X339373Y44662D01*
X339373Y50588D01*
X339371Y50683D01*
X339365Y50779D01*
X339356Y50874D01*
X339342Y50968D01*
X339325Y51062D01*
X339304Y51155D01*
X339279Y51248D01*
X339251Y51339D01*
X339219Y51429D01*
X339183Y51517D01*
X339144Y51604D01*
X339101Y51690D01*
X339055Y51773D01*
X339006Y51855D01*
X338953Y51935D01*
X338897Y52012D01*
X338839Y52088D01*
X338777Y52160D01*
X338712Y52230D01*
X338644Y52298D01*
X338574Y52363D01*
X338502Y52425D01*
X338426Y52483D01*
X338349Y52539D01*
X338269Y52592D01*
X338188Y52641D01*
X338104Y52687D01*
X338018Y52730D01*
X337931Y52769D01*
X337843Y52805D01*
X337753Y52837D01*
X337662Y52865D01*
X337569Y52890D01*
X337476Y52911D01*
X337382Y52928D01*
X337288Y52942D01*
X337193Y52951D01*
X337098Y52957D01*
X337002Y52959D01*
X334631Y52959D01*
X329383Y42291D02*
X324642Y42291D01*
X329383Y42291D02*
X329383Y52959D01*
X324642Y52959D01*
X325827Y48218D02*
X329383Y48218D01*
X319257Y52959D02*
X319257Y42291D01*
X319257Y52959D02*
X316294Y52959D01*
X316187Y52957D01*
X316080Y52951D01*
X315974Y52942D01*
X315868Y52928D01*
X315762Y52911D01*
X315657Y52890D01*
X315553Y52865D01*
X315450Y52836D01*
X315348Y52804D01*
X315247Y52768D01*
X315148Y52728D01*
X315050Y52685D01*
X314954Y52638D01*
X314859Y52588D01*
X314766Y52535D01*
X314676Y52478D01*
X314587Y52418D01*
X314501Y52355D01*
X314417Y52289D01*
X314335Y52219D01*
X314256Y52147D01*
X314180Y52072D01*
X314106Y51994D01*
X314036Y51914D01*
X313968Y51831D01*
X313903Y51746D01*
X313842Y51659D01*
X313783Y51569D01*
X313728Y51478D01*
X313676Y51384D01*
X313628Y51288D01*
X313583Y51191D01*
X313541Y51093D01*
X313504Y50993D01*
X313469Y50891D01*
X313439Y50789D01*
X313412Y50685D01*
X313389Y50581D01*
X313370Y50475D01*
X313355Y50369D01*
X313343Y50263D01*
X313335Y50156D01*
X313331Y50049D01*
X313331Y49943D01*
X313335Y49836D01*
X313343Y49729D01*
X313355Y49623D01*
X313370Y49517D01*
X313389Y49411D01*
X313412Y49307D01*
X313439Y49203D01*
X313469Y49101D01*
X313504Y48999D01*
X313541Y48899D01*
X313583Y48801D01*
X313628Y48704D01*
X313676Y48608D01*
X313728Y48515D01*
X313783Y48423D01*
X313842Y48333D01*
X313903Y48246D01*
X313968Y48161D01*
X314036Y48078D01*
X314106Y47998D01*
X314180Y47920D01*
X314256Y47845D01*
X314335Y47773D01*
X314417Y47703D01*
X314501Y47637D01*
X314587Y47574D01*
X314676Y47514D01*
X314766Y47457D01*
X314859Y47404D01*
X314954Y47354D01*
X315050Y47307D01*
X315148Y47264D01*
X315247Y47224D01*
X315348Y47188D01*
X315450Y47156D01*
X315553Y47127D01*
X315657Y47102D01*
X315762Y47081D01*
X315868Y47064D01*
X315974Y47050D01*
X316080Y47041D01*
X316187Y47035D01*
X316294Y47033D01*
X316294Y47032D02*
X319257Y47032D01*
X306261Y42291D02*
X306261Y52959D01*
X309224Y52959D02*
X303297Y52959D01*
X525208Y23241D02*
X527579Y33909D01*
X522838Y30353D02*
X525208Y23241D01*
X520467Y23241D02*
X522838Y30353D01*
X518096Y33909D02*
X520467Y23241D01*
X510730Y23241D02*
X513101Y33909D01*
X508360Y30353D02*
X510730Y23241D01*
X505989Y23241D02*
X508360Y30353D01*
X503618Y33909D02*
X505989Y23241D01*
X496252Y23241D02*
X498623Y33909D01*
X493882Y30353D02*
X496252Y23241D01*
X491511Y23241D02*
X493882Y30353D01*
X489140Y33909D02*
X491511Y23241D01*
X484653Y23241D02*
X484653Y23834D01*
X484060Y23834D01*
X484060Y23241D01*
X484653Y23241D01*
X476998Y23241D02*
X474627Y23241D01*
X476998Y23241D02*
X477093Y23243D01*
X477189Y23249D01*
X477284Y23258D01*
X477378Y23272D01*
X477472Y23289D01*
X477565Y23310D01*
X477658Y23335D01*
X477749Y23363D01*
X477839Y23395D01*
X477927Y23431D01*
X478014Y23470D01*
X478100Y23513D01*
X478184Y23559D01*
X478265Y23608D01*
X478345Y23661D01*
X478422Y23717D01*
X478498Y23775D01*
X478570Y23837D01*
X478640Y23902D01*
X478708Y23970D01*
X478773Y24040D01*
X478835Y24112D01*
X478893Y24188D01*
X478949Y24265D01*
X479002Y24345D01*
X479051Y24427D01*
X479097Y24510D01*
X479140Y24596D01*
X479179Y24683D01*
X479215Y24771D01*
X479247Y24861D01*
X479275Y24952D01*
X479300Y25045D01*
X479321Y25138D01*
X479338Y25232D01*
X479352Y25326D01*
X479361Y25421D01*
X479367Y25517D01*
X479369Y25612D01*
X479369Y31538D01*
X479367Y31633D01*
X479361Y31729D01*
X479352Y31824D01*
X479338Y31918D01*
X479321Y32012D01*
X479300Y32105D01*
X479275Y32198D01*
X479247Y32289D01*
X479215Y32379D01*
X479179Y32467D01*
X479140Y32554D01*
X479097Y32640D01*
X479051Y32723D01*
X479002Y32805D01*
X478949Y32885D01*
X478893Y32962D01*
X478835Y33038D01*
X478773Y33110D01*
X478708Y33180D01*
X478640Y33248D01*
X478570Y33313D01*
X478498Y33375D01*
X478422Y33433D01*
X478345Y33489D01*
X478265Y33542D01*
X478184Y33591D01*
X478100Y33637D01*
X478014Y33680D01*
X477927Y33719D01*
X477839Y33755D01*
X477749Y33787D01*
X477658Y33815D01*
X477565Y33840D01*
X477472Y33861D01*
X477378Y33878D01*
X477284Y33892D01*
X477189Y33901D01*
X477094Y33907D01*
X476998Y33909D01*
X474627Y33909D01*
X469794Y30946D02*
X469794Y26204D01*
X469794Y30946D02*
X469792Y31053D01*
X469786Y31160D01*
X469777Y31266D01*
X469763Y31372D01*
X469746Y31478D01*
X469725Y31583D01*
X469700Y31687D01*
X469671Y31790D01*
X469639Y31892D01*
X469603Y31993D01*
X469563Y32092D01*
X469520Y32190D01*
X469473Y32286D01*
X469423Y32381D01*
X469370Y32474D01*
X469313Y32564D01*
X469253Y32653D01*
X469190Y32739D01*
X469124Y32823D01*
X469054Y32905D01*
X468982Y32984D01*
X468907Y33060D01*
X468829Y33134D01*
X468749Y33204D01*
X468666Y33272D01*
X468581Y33337D01*
X468494Y33398D01*
X468404Y33457D01*
X468313Y33512D01*
X468219Y33564D01*
X468123Y33612D01*
X468026Y33657D01*
X467928Y33699D01*
X467828Y33736D01*
X467726Y33771D01*
X467624Y33801D01*
X467520Y33828D01*
X467416Y33851D01*
X467310Y33870D01*
X467204Y33885D01*
X467098Y33897D01*
X466991Y33905D01*
X466884Y33909D01*
X466778Y33909D01*
X466671Y33905D01*
X466564Y33897D01*
X466458Y33885D01*
X466352Y33870D01*
X466246Y33851D01*
X466142Y33828D01*
X466038Y33801D01*
X465936Y33771D01*
X465834Y33736D01*
X465734Y33699D01*
X465636Y33657D01*
X465539Y33612D01*
X465443Y33564D01*
X465350Y33512D01*
X465258Y33457D01*
X465168Y33398D01*
X465081Y33337D01*
X464996Y33272D01*
X464913Y33204D01*
X464833Y33134D01*
X464755Y33060D01*
X464680Y32984D01*
X464608Y32905D01*
X464538Y32823D01*
X464472Y32739D01*
X464409Y32653D01*
X464349Y32564D01*
X464292Y32474D01*
X464239Y32381D01*
X464189Y32286D01*
X464142Y32190D01*
X464099Y32092D01*
X464059Y31993D01*
X464023Y31892D01*
X463991Y31790D01*
X463962Y31687D01*
X463937Y31583D01*
X463916Y31478D01*
X463899Y31372D01*
X463885Y31266D01*
X463876Y31160D01*
X463870Y31053D01*
X463868Y30946D01*
X463867Y30946D02*
X463867Y26204D01*
X463868Y26204D02*
X463870Y26097D01*
X463876Y25990D01*
X463885Y25884D01*
X463899Y25778D01*
X463916Y25672D01*
X463937Y25567D01*
X463962Y25463D01*
X463991Y25360D01*
X464023Y25258D01*
X464059Y25157D01*
X464099Y25058D01*
X464142Y24960D01*
X464189Y24864D01*
X464239Y24769D01*
X464292Y24676D01*
X464349Y24586D01*
X464409Y24497D01*
X464472Y24411D01*
X464538Y24327D01*
X464608Y24245D01*
X464680Y24166D01*
X464755Y24090D01*
X464833Y24016D01*
X464913Y23946D01*
X464996Y23878D01*
X465081Y23813D01*
X465168Y23752D01*
X465258Y23693D01*
X465350Y23638D01*
X465443Y23586D01*
X465539Y23538D01*
X465636Y23493D01*
X465734Y23451D01*
X465834Y23414D01*
X465936Y23379D01*
X466038Y23349D01*
X466142Y23322D01*
X466246Y23299D01*
X466352Y23280D01*
X466458Y23265D01*
X466564Y23253D01*
X466671Y23245D01*
X466778Y23241D01*
X466884Y23241D01*
X466991Y23245D01*
X467098Y23253D01*
X467204Y23265D01*
X467310Y23280D01*
X467416Y23299D01*
X467520Y23322D01*
X467624Y23349D01*
X467726Y23379D01*
X467828Y23414D01*
X467928Y23451D01*
X468026Y23493D01*
X468123Y23538D01*
X468219Y23586D01*
X468313Y23638D01*
X468404Y23693D01*
X468494Y23752D01*
X468581Y23813D01*
X468666Y23878D01*
X468749Y23946D01*
X468829Y24016D01*
X468907Y24090D01*
X468982Y24166D01*
X469054Y24245D01*
X469124Y24327D01*
X469190Y24411D01*
X469253Y24497D01*
X469313Y24586D01*
X469370Y24676D01*
X469423Y24769D01*
X469473Y24864D01*
X469520Y24960D01*
X469563Y25058D01*
X469603Y25157D01*
X469639Y25258D01*
X469671Y25360D01*
X469700Y25463D01*
X469725Y25567D01*
X469746Y25672D01*
X469763Y25778D01*
X469777Y25884D01*
X469786Y25990D01*
X469792Y26097D01*
X469794Y26204D01*
X457983Y23241D02*
X457983Y33909D01*
X452056Y23241D01*
X452056Y33909D01*
X442997Y23241D02*
X442902Y23243D01*
X442806Y23249D01*
X442711Y23258D01*
X442617Y23272D01*
X442523Y23289D01*
X442430Y23310D01*
X442337Y23335D01*
X442246Y23363D01*
X442156Y23395D01*
X442068Y23431D01*
X441981Y23470D01*
X441895Y23513D01*
X441812Y23559D01*
X441730Y23608D01*
X441650Y23661D01*
X441573Y23717D01*
X441497Y23775D01*
X441425Y23837D01*
X441355Y23902D01*
X441287Y23970D01*
X441222Y24040D01*
X441160Y24112D01*
X441102Y24188D01*
X441046Y24265D01*
X440993Y24345D01*
X440944Y24427D01*
X440898Y24510D01*
X440855Y24596D01*
X440816Y24683D01*
X440780Y24771D01*
X440748Y24861D01*
X440720Y24952D01*
X440695Y25045D01*
X440674Y25138D01*
X440657Y25232D01*
X440643Y25326D01*
X440634Y25421D01*
X440628Y25517D01*
X440626Y25612D01*
X442997Y23241D02*
X443133Y23243D01*
X443270Y23248D01*
X443406Y23258D01*
X443541Y23271D01*
X443677Y23287D01*
X443811Y23308D01*
X443946Y23332D01*
X444079Y23359D01*
X444212Y23391D01*
X444344Y23425D01*
X444475Y23464D01*
X444604Y23506D01*
X444733Y23551D01*
X444860Y23600D01*
X444986Y23653D01*
X445110Y23709D01*
X445233Y23768D01*
X445354Y23830D01*
X445474Y23896D01*
X445591Y23965D01*
X445707Y24038D01*
X445821Y24113D01*
X445932Y24191D01*
X446041Y24273D01*
X446149Y24357D01*
X446253Y24444D01*
X446356Y24534D01*
X446456Y24627D01*
X446553Y24723D01*
X446257Y31538D02*
X446255Y31633D01*
X446249Y31729D01*
X446240Y31824D01*
X446226Y31918D01*
X446209Y32012D01*
X446188Y32105D01*
X446163Y32198D01*
X446135Y32289D01*
X446103Y32379D01*
X446067Y32467D01*
X446028Y32554D01*
X445985Y32640D01*
X445939Y32724D01*
X445890Y32805D01*
X445837Y32885D01*
X445781Y32962D01*
X445723Y33038D01*
X445661Y33110D01*
X445596Y33180D01*
X445528Y33248D01*
X445458Y33313D01*
X445386Y33375D01*
X445310Y33433D01*
X445233Y33489D01*
X445153Y33542D01*
X445072Y33591D01*
X444988Y33637D01*
X444902Y33680D01*
X444815Y33719D01*
X444727Y33755D01*
X444637Y33787D01*
X444546Y33815D01*
X444453Y33840D01*
X444360Y33861D01*
X444266Y33878D01*
X444172Y33892D01*
X444077Y33901D01*
X443981Y33907D01*
X443886Y33909D01*
X443756Y33907D01*
X443626Y33901D01*
X443496Y33892D01*
X443367Y33879D01*
X443238Y33862D01*
X443110Y33841D01*
X442982Y33816D01*
X442855Y33788D01*
X442729Y33756D01*
X442604Y33720D01*
X442480Y33681D01*
X442358Y33638D01*
X442236Y33592D01*
X442116Y33541D01*
X441998Y33488D01*
X441881Y33431D01*
X441766Y33371D01*
X441652Y33307D01*
X441541Y33240D01*
X441431Y33170D01*
X441324Y33096D01*
X441219Y33020D01*
X445072Y29463D02*
X445153Y29514D01*
X445233Y29568D01*
X445311Y29624D01*
X445386Y29684D01*
X445459Y29747D01*
X445529Y29813D01*
X445596Y29881D01*
X445661Y29952D01*
X445723Y30026D01*
X445782Y30102D01*
X445838Y30180D01*
X445890Y30261D01*
X445940Y30343D01*
X445986Y30428D01*
X446028Y30514D01*
X446068Y30602D01*
X446103Y30691D01*
X446135Y30782D01*
X446164Y30874D01*
X446188Y30967D01*
X446209Y31060D01*
X446226Y31155D01*
X446240Y31250D01*
X446249Y31346D01*
X446255Y31442D01*
X446257Y31538D01*
X441812Y27687D02*
X441730Y27636D01*
X441650Y27582D01*
X441572Y27526D01*
X441497Y27466D01*
X441424Y27403D01*
X441354Y27337D01*
X441287Y27269D01*
X441222Y27198D01*
X441160Y27124D01*
X441101Y27048D01*
X441045Y26970D01*
X440993Y26889D01*
X440943Y26807D01*
X440897Y26722D01*
X440855Y26636D01*
X440815Y26548D01*
X440780Y26459D01*
X440748Y26368D01*
X440719Y26276D01*
X440695Y26183D01*
X440674Y26090D01*
X440657Y25995D01*
X440643Y25900D01*
X440634Y25804D01*
X440628Y25708D01*
X440626Y25612D01*
X441812Y27686D02*
X445071Y29464D01*
X435504Y30946D02*
X435504Y26204D01*
X435504Y30946D02*
X435502Y31053D01*
X435496Y31160D01*
X435487Y31266D01*
X435473Y31372D01*
X435456Y31478D01*
X435435Y31583D01*
X435410Y31687D01*
X435381Y31790D01*
X435349Y31892D01*
X435313Y31993D01*
X435273Y32092D01*
X435230Y32190D01*
X435183Y32286D01*
X435133Y32381D01*
X435080Y32474D01*
X435023Y32564D01*
X434963Y32653D01*
X434900Y32739D01*
X434834Y32823D01*
X434764Y32905D01*
X434692Y32984D01*
X434617Y33060D01*
X434539Y33134D01*
X434459Y33204D01*
X434376Y33272D01*
X434291Y33337D01*
X434204Y33398D01*
X434114Y33457D01*
X434023Y33512D01*
X433929Y33564D01*
X433833Y33612D01*
X433736Y33657D01*
X433638Y33699D01*
X433538Y33736D01*
X433436Y33771D01*
X433334Y33801D01*
X433230Y33828D01*
X433126Y33851D01*
X433020Y33870D01*
X432914Y33885D01*
X432808Y33897D01*
X432701Y33905D01*
X432594Y33909D01*
X432488Y33909D01*
X432381Y33905D01*
X432274Y33897D01*
X432168Y33885D01*
X432062Y33870D01*
X431956Y33851D01*
X431852Y33828D01*
X431748Y33801D01*
X431646Y33771D01*
X431544Y33736D01*
X431444Y33699D01*
X431346Y33657D01*
X431249Y33612D01*
X431153Y33564D01*
X431060Y33512D01*
X430968Y33457D01*
X430878Y33398D01*
X430791Y33337D01*
X430706Y33272D01*
X430623Y33204D01*
X430543Y33134D01*
X430465Y33060D01*
X430390Y32984D01*
X430318Y32905D01*
X430248Y32823D01*
X430182Y32739D01*
X430119Y32653D01*
X430059Y32564D01*
X430002Y32474D01*
X429949Y32381D01*
X429899Y32286D01*
X429852Y32190D01*
X429809Y32092D01*
X429769Y31993D01*
X429733Y31892D01*
X429701Y31790D01*
X429672Y31687D01*
X429647Y31583D01*
X429626Y31478D01*
X429609Y31372D01*
X429595Y31266D01*
X429586Y31160D01*
X429580Y31053D01*
X429578Y30946D01*
X429577Y30946D02*
X429577Y26204D01*
X429578Y26204D02*
X429580Y26097D01*
X429586Y25990D01*
X429595Y25884D01*
X429609Y25778D01*
X429626Y25672D01*
X429647Y25567D01*
X429672Y25463D01*
X429701Y25360D01*
X429733Y25258D01*
X429769Y25157D01*
X429809Y25058D01*
X429852Y24960D01*
X429899Y24864D01*
X429949Y24769D01*
X430002Y24676D01*
X430059Y24586D01*
X430119Y24497D01*
X430182Y24411D01*
X430248Y24327D01*
X430318Y24245D01*
X430390Y24166D01*
X430465Y24090D01*
X430543Y24016D01*
X430623Y23946D01*
X430706Y23878D01*
X430791Y23813D01*
X430878Y23752D01*
X430968Y23693D01*
X431060Y23638D01*
X431153Y23586D01*
X431249Y23538D01*
X431346Y23493D01*
X431444Y23451D01*
X431544Y23414D01*
X431646Y23379D01*
X431748Y23349D01*
X431852Y23322D01*
X431956Y23299D01*
X432062Y23280D01*
X432168Y23265D01*
X432274Y23253D01*
X432381Y23245D01*
X432488Y23241D01*
X432594Y23241D01*
X432701Y23245D01*
X432808Y23253D01*
X432914Y23265D01*
X433020Y23280D01*
X433126Y23299D01*
X433230Y23322D01*
X433334Y23349D01*
X433436Y23379D01*
X433538Y23414D01*
X433638Y23451D01*
X433736Y23493D01*
X433833Y23538D01*
X433929Y23586D01*
X434023Y23638D01*
X434114Y23693D01*
X434204Y23752D01*
X434291Y23813D01*
X434376Y23878D01*
X434459Y23946D01*
X434539Y24016D01*
X434617Y24090D01*
X434692Y24166D01*
X434764Y24245D01*
X434834Y24327D01*
X434900Y24411D01*
X434963Y24497D01*
X435023Y24586D01*
X435080Y24676D01*
X435133Y24769D01*
X435183Y24864D01*
X435230Y24960D01*
X435273Y25058D01*
X435313Y25157D01*
X435349Y25258D01*
X435381Y25360D01*
X435410Y25463D01*
X435435Y25567D01*
X435456Y25672D01*
X435473Y25778D01*
X435487Y25884D01*
X435496Y25990D01*
X435502Y26097D01*
X435504Y26204D01*
X423659Y23241D02*
X423659Y33909D01*
X423659Y23241D02*
X418918Y23241D01*
X413753Y23241D02*
X409012Y23241D01*
X413753Y23241D02*
X413753Y33909D01*
X409012Y33909D01*
X410197Y29168D02*
X413753Y29168D01*
X401087Y23241D02*
X400992Y23243D01*
X400896Y23249D01*
X400801Y23258D01*
X400707Y23272D01*
X400613Y23289D01*
X400520Y23310D01*
X400427Y23335D01*
X400336Y23363D01*
X400246Y23395D01*
X400158Y23431D01*
X400071Y23470D01*
X399985Y23513D01*
X399902Y23559D01*
X399820Y23608D01*
X399740Y23661D01*
X399663Y23717D01*
X399587Y23775D01*
X399515Y23837D01*
X399445Y23902D01*
X399377Y23970D01*
X399312Y24040D01*
X399250Y24112D01*
X399192Y24188D01*
X399136Y24265D01*
X399083Y24345D01*
X399034Y24427D01*
X398988Y24510D01*
X398945Y24596D01*
X398906Y24683D01*
X398870Y24771D01*
X398838Y24861D01*
X398810Y24952D01*
X398785Y25045D01*
X398764Y25138D01*
X398747Y25232D01*
X398733Y25326D01*
X398724Y25421D01*
X398718Y25517D01*
X398716Y25612D01*
X401087Y23241D02*
X401223Y23243D01*
X401360Y23248D01*
X401496Y23258D01*
X401631Y23271D01*
X401767Y23287D01*
X401901Y23308D01*
X402036Y23332D01*
X402169Y23359D01*
X402302Y23391D01*
X402434Y23425D01*
X402565Y23464D01*
X402694Y23506D01*
X402823Y23551D01*
X402950Y23600D01*
X403076Y23653D01*
X403200Y23709D01*
X403323Y23768D01*
X403444Y23830D01*
X403564Y23896D01*
X403681Y23965D01*
X403797Y24038D01*
X403911Y24113D01*
X404022Y24191D01*
X404131Y24273D01*
X404239Y24357D01*
X404343Y24444D01*
X404446Y24534D01*
X404546Y24627D01*
X404643Y24723D01*
X404347Y31538D02*
X404345Y31633D01*
X404339Y31729D01*
X404330Y31824D01*
X404316Y31918D01*
X404299Y32012D01*
X404278Y32105D01*
X404253Y32198D01*
X404225Y32289D01*
X404193Y32379D01*
X404157Y32467D01*
X404118Y32554D01*
X404075Y32640D01*
X404029Y32724D01*
X403980Y32805D01*
X403927Y32885D01*
X403871Y32962D01*
X403813Y33038D01*
X403751Y33110D01*
X403686Y33180D01*
X403618Y33248D01*
X403548Y33313D01*
X403476Y33375D01*
X403400Y33433D01*
X403323Y33489D01*
X403243Y33542D01*
X403162Y33591D01*
X403078Y33637D01*
X402992Y33680D01*
X402905Y33719D01*
X402817Y33755D01*
X402727Y33787D01*
X402636Y33815D01*
X402543Y33840D01*
X402450Y33861D01*
X402356Y33878D01*
X402262Y33892D01*
X402167Y33901D01*
X402071Y33907D01*
X401976Y33909D01*
X401846Y33907D01*
X401716Y33901D01*
X401586Y33892D01*
X401457Y33879D01*
X401328Y33862D01*
X401200Y33841D01*
X401072Y33816D01*
X400945Y33788D01*
X400819Y33756D01*
X400694Y33720D01*
X400570Y33681D01*
X400448Y33638D01*
X400326Y33592D01*
X400206Y33541D01*
X400088Y33488D01*
X399971Y33431D01*
X399856Y33371D01*
X399742Y33307D01*
X399631Y33240D01*
X399521Y33170D01*
X399414Y33096D01*
X399309Y33020D01*
X403162Y29463D02*
X403243Y29514D01*
X403323Y29568D01*
X403401Y29624D01*
X403476Y29684D01*
X403549Y29747D01*
X403619Y29813D01*
X403686Y29881D01*
X403751Y29952D01*
X403813Y30026D01*
X403872Y30102D01*
X403928Y30180D01*
X403980Y30261D01*
X404030Y30343D01*
X404076Y30428D01*
X404118Y30514D01*
X404158Y30602D01*
X404193Y30691D01*
X404225Y30782D01*
X404254Y30874D01*
X404278Y30967D01*
X404299Y31060D01*
X404316Y31155D01*
X404330Y31250D01*
X404339Y31346D01*
X404345Y31442D01*
X404347Y31538D01*
X399902Y27687D02*
X399820Y27636D01*
X399740Y27582D01*
X399662Y27526D01*
X399587Y27466D01*
X399514Y27403D01*
X399444Y27337D01*
X399377Y27269D01*
X399312Y27198D01*
X399250Y27124D01*
X399191Y27048D01*
X399135Y26970D01*
X399083Y26889D01*
X399033Y26807D01*
X398987Y26722D01*
X398945Y26636D01*
X398905Y26548D01*
X398870Y26459D01*
X398838Y26368D01*
X398809Y26276D01*
X398785Y26183D01*
X398764Y26090D01*
X398747Y25995D01*
X398733Y25900D01*
X398724Y25804D01*
X398718Y25708D01*
X398716Y25612D01*
X399902Y27686D02*
X403162Y29464D01*
X393213Y26204D02*
X393213Y33909D01*
X393213Y26204D02*
X393211Y26097D01*
X393205Y25990D01*
X393196Y25884D01*
X393182Y25778D01*
X393165Y25672D01*
X393144Y25567D01*
X393119Y25463D01*
X393090Y25360D01*
X393058Y25258D01*
X393022Y25157D01*
X392982Y25058D01*
X392939Y24960D01*
X392892Y24864D01*
X392842Y24769D01*
X392789Y24676D01*
X392732Y24586D01*
X392672Y24497D01*
X392609Y24411D01*
X392543Y24327D01*
X392473Y24245D01*
X392401Y24166D01*
X392326Y24090D01*
X392248Y24016D01*
X392168Y23946D01*
X392085Y23878D01*
X392000Y23813D01*
X391913Y23752D01*
X391823Y23693D01*
X391732Y23638D01*
X391638Y23586D01*
X391542Y23538D01*
X391445Y23493D01*
X391347Y23451D01*
X391247Y23414D01*
X391145Y23379D01*
X391043Y23349D01*
X390939Y23322D01*
X390835Y23299D01*
X390729Y23280D01*
X390623Y23265D01*
X390517Y23253D01*
X390410Y23245D01*
X390303Y23241D01*
X390197Y23241D01*
X390090Y23245D01*
X389983Y23253D01*
X389877Y23265D01*
X389771Y23280D01*
X389665Y23299D01*
X389561Y23322D01*
X389457Y23349D01*
X389355Y23379D01*
X389253Y23414D01*
X389153Y23451D01*
X389055Y23493D01*
X388958Y23538D01*
X388862Y23586D01*
X388769Y23638D01*
X388677Y23693D01*
X388587Y23752D01*
X388500Y23813D01*
X388415Y23878D01*
X388332Y23946D01*
X388252Y24016D01*
X388174Y24090D01*
X388099Y24166D01*
X388027Y24245D01*
X387957Y24327D01*
X387891Y24411D01*
X387828Y24497D01*
X387768Y24586D01*
X387711Y24676D01*
X387658Y24769D01*
X387608Y24864D01*
X387561Y24960D01*
X387518Y25058D01*
X387478Y25157D01*
X387442Y25258D01*
X387410Y25360D01*
X387381Y25463D01*
X387356Y25567D01*
X387335Y25672D01*
X387318Y25778D01*
X387304Y25884D01*
X387295Y25990D01*
X387289Y26097D01*
X387287Y26204D01*
X387287Y33909D01*
X381021Y33909D02*
X381021Y23241D01*
X375095Y23241D02*
X381021Y33909D01*
X375095Y33909D02*
X375095Y23241D01*
X368795Y23241D02*
X368795Y33909D01*
X368795Y23241D02*
X364054Y23241D01*
X358889Y23241D02*
X354148Y23241D01*
X358889Y23241D02*
X358889Y33909D01*
X354148Y33909D01*
X355333Y29168D02*
X358889Y29168D01*
X349991Y23241D02*
X346435Y33909D01*
X342879Y23241D01*
X343768Y25908D02*
X349102Y25908D01*
X334793Y23241D02*
X334698Y23243D01*
X334602Y23249D01*
X334507Y23258D01*
X334413Y23272D01*
X334319Y23289D01*
X334226Y23310D01*
X334133Y23335D01*
X334042Y23363D01*
X333952Y23395D01*
X333864Y23431D01*
X333777Y23470D01*
X333691Y23513D01*
X333608Y23559D01*
X333526Y23608D01*
X333446Y23661D01*
X333369Y23717D01*
X333293Y23775D01*
X333221Y23837D01*
X333151Y23902D01*
X333083Y23970D01*
X333018Y24040D01*
X332956Y24112D01*
X332898Y24188D01*
X332842Y24265D01*
X332789Y24345D01*
X332740Y24427D01*
X332694Y24510D01*
X332651Y24596D01*
X332612Y24683D01*
X332576Y24771D01*
X332544Y24861D01*
X332516Y24952D01*
X332491Y25045D01*
X332470Y25138D01*
X332453Y25232D01*
X332439Y25326D01*
X332430Y25421D01*
X332424Y25517D01*
X332422Y25612D01*
X334793Y23241D02*
X334929Y23243D01*
X335066Y23248D01*
X335202Y23258D01*
X335337Y23271D01*
X335473Y23287D01*
X335607Y23308D01*
X335742Y23332D01*
X335875Y23359D01*
X336008Y23391D01*
X336140Y23425D01*
X336271Y23464D01*
X336400Y23506D01*
X336529Y23551D01*
X336656Y23600D01*
X336782Y23653D01*
X336906Y23709D01*
X337029Y23768D01*
X337150Y23830D01*
X337270Y23896D01*
X337387Y23965D01*
X337503Y24038D01*
X337617Y24113D01*
X337728Y24191D01*
X337837Y24273D01*
X337945Y24357D01*
X338049Y24444D01*
X338152Y24534D01*
X338252Y24627D01*
X338349Y24723D01*
X338053Y31538D02*
X338051Y31633D01*
X338045Y31729D01*
X338036Y31824D01*
X338022Y31918D01*
X338005Y32012D01*
X337984Y32105D01*
X337959Y32198D01*
X337931Y32289D01*
X337899Y32379D01*
X337863Y32467D01*
X337824Y32554D01*
X337781Y32640D01*
X337735Y32724D01*
X337686Y32805D01*
X337633Y32885D01*
X337577Y32962D01*
X337519Y33038D01*
X337457Y33110D01*
X337392Y33180D01*
X337324Y33248D01*
X337254Y33313D01*
X337182Y33375D01*
X337106Y33433D01*
X337029Y33489D01*
X336949Y33542D01*
X336868Y33591D01*
X336784Y33637D01*
X336698Y33680D01*
X336611Y33719D01*
X336523Y33755D01*
X336433Y33787D01*
X336342Y33815D01*
X336249Y33840D01*
X336156Y33861D01*
X336062Y33878D01*
X335968Y33892D01*
X335873Y33901D01*
X335777Y33907D01*
X335682Y33909D01*
X335552Y33907D01*
X335422Y33901D01*
X335292Y33892D01*
X335163Y33879D01*
X335034Y33862D01*
X334906Y33841D01*
X334778Y33816D01*
X334651Y33788D01*
X334525Y33756D01*
X334400Y33720D01*
X334276Y33681D01*
X334154Y33638D01*
X334032Y33592D01*
X333912Y33541D01*
X333794Y33488D01*
X333677Y33431D01*
X333562Y33371D01*
X333448Y33307D01*
X333337Y33240D01*
X333227Y33170D01*
X333120Y33096D01*
X333015Y33020D01*
X336868Y29463D02*
X336949Y29514D01*
X337029Y29568D01*
X337107Y29624D01*
X337182Y29684D01*
X337255Y29747D01*
X337325Y29813D01*
X337392Y29881D01*
X337457Y29952D01*
X337519Y30026D01*
X337578Y30102D01*
X337634Y30180D01*
X337686Y30261D01*
X337736Y30343D01*
X337782Y30428D01*
X337824Y30514D01*
X337864Y30602D01*
X337899Y30691D01*
X337931Y30782D01*
X337960Y30874D01*
X337984Y30967D01*
X338005Y31060D01*
X338022Y31155D01*
X338036Y31250D01*
X338045Y31346D01*
X338051Y31442D01*
X338053Y31538D01*
X333608Y27687D02*
X333526Y27636D01*
X333446Y27582D01*
X333368Y27526D01*
X333293Y27466D01*
X333220Y27403D01*
X333150Y27337D01*
X333083Y27269D01*
X333018Y27198D01*
X332956Y27124D01*
X332897Y27048D01*
X332841Y26970D01*
X332789Y26889D01*
X332739Y26807D01*
X332693Y26722D01*
X332651Y26636D01*
X332611Y26548D01*
X332576Y26459D01*
X332544Y26368D01*
X332515Y26276D01*
X332491Y26183D01*
X332470Y26090D01*
X332453Y25995D01*
X332439Y25900D01*
X332430Y25804D01*
X332424Y25708D01*
X332422Y25612D01*
X333608Y27686D02*
X336868Y29464D01*
X326919Y33909D02*
X326919Y23241D01*
X326919Y29168D02*
X320993Y29168D01*
X320993Y33909D02*
X320993Y23241D01*
X314694Y23241D02*
X309952Y23241D01*
X314694Y23241D02*
X314694Y33909D01*
X309952Y33909D01*
X311138Y29168D02*
X314694Y29168D01*
X304821Y33909D02*
X304821Y23241D01*
X304821Y33909D02*
X301858Y33909D01*
X301750Y33907D01*
X301642Y33901D01*
X301534Y33891D01*
X301427Y33877D01*
X301320Y33860D01*
X301214Y33838D01*
X301109Y33813D01*
X301004Y33783D01*
X300901Y33750D01*
X300800Y33713D01*
X300699Y33673D01*
X300600Y33629D01*
X300503Y33581D01*
X300408Y33530D01*
X300314Y33475D01*
X300223Y33417D01*
X300134Y33356D01*
X300047Y33291D01*
X299963Y33224D01*
X299881Y33153D01*
X299801Y33079D01*
X299725Y33003D01*
X299651Y32923D01*
X299581Y32841D01*
X299513Y32757D01*
X299448Y32670D01*
X299387Y32581D01*
X299329Y32490D01*
X299274Y32396D01*
X299223Y32301D01*
X299175Y32204D01*
X299131Y32105D01*
X299091Y32004D01*
X299054Y31903D01*
X299021Y31800D01*
X298991Y31695D01*
X298966Y31590D01*
X298944Y31484D01*
X298927Y31377D01*
X298913Y31270D01*
X298903Y31162D01*
X298897Y31054D01*
X298895Y30946D01*
X298895Y26204D01*
X298897Y26098D01*
X298903Y25993D01*
X298912Y25887D01*
X298925Y25782D01*
X298942Y25678D01*
X298963Y25574D01*
X298987Y25471D01*
X299015Y25369D01*
X299047Y25268D01*
X299082Y25169D01*
X299121Y25070D01*
X299163Y24973D01*
X299208Y24878D01*
X299257Y24784D01*
X299310Y24692D01*
X299365Y24602D01*
X299424Y24514D01*
X299486Y24428D01*
X299551Y24345D01*
X299619Y24264D01*
X299689Y24185D01*
X299763Y24109D01*
X299839Y24035D01*
X299918Y23965D01*
X299999Y23897D01*
X300082Y23832D01*
X300168Y23770D01*
X300256Y23711D01*
X300346Y23656D01*
X300438Y23603D01*
X300532Y23554D01*
X300627Y23509D01*
X300724Y23467D01*
X300823Y23428D01*
X300922Y23393D01*
X301023Y23361D01*
X301125Y23333D01*
X301228Y23309D01*
X301332Y23288D01*
X301436Y23271D01*
X301541Y23258D01*
X301647Y23249D01*
X301752Y23243D01*
X301858Y23241D01*
X304821Y23241D01*
X293772Y23241D02*
X293772Y23834D01*
X293180Y23834D01*
X293180Y23241D01*
X293772Y23241D01*
X286118Y23241D02*
X283747Y23241D01*
X286118Y23241D02*
X286213Y23243D01*
X286309Y23249D01*
X286404Y23258D01*
X286498Y23272D01*
X286592Y23289D01*
X286685Y23310D01*
X286778Y23335D01*
X286869Y23363D01*
X286959Y23395D01*
X287047Y23431D01*
X287134Y23470D01*
X287220Y23513D01*
X287304Y23559D01*
X287385Y23608D01*
X287465Y23661D01*
X287542Y23717D01*
X287618Y23775D01*
X287690Y23837D01*
X287760Y23902D01*
X287828Y23970D01*
X287893Y24040D01*
X287955Y24112D01*
X288013Y24188D01*
X288069Y24265D01*
X288122Y24345D01*
X288171Y24427D01*
X288217Y24510D01*
X288260Y24596D01*
X288299Y24683D01*
X288335Y24771D01*
X288367Y24861D01*
X288395Y24952D01*
X288420Y25045D01*
X288441Y25138D01*
X288458Y25232D01*
X288472Y25326D01*
X288481Y25421D01*
X288487Y25517D01*
X288489Y25612D01*
X288488Y25612D02*
X288488Y31538D01*
X288489Y31538D02*
X288487Y31633D01*
X288481Y31729D01*
X288472Y31824D01*
X288458Y31918D01*
X288441Y32012D01*
X288420Y32105D01*
X288395Y32198D01*
X288367Y32289D01*
X288335Y32379D01*
X288299Y32467D01*
X288260Y32554D01*
X288217Y32640D01*
X288171Y32723D01*
X288122Y32805D01*
X288069Y32885D01*
X288013Y32962D01*
X287955Y33038D01*
X287893Y33110D01*
X287828Y33180D01*
X287760Y33248D01*
X287690Y33313D01*
X287618Y33375D01*
X287542Y33433D01*
X287465Y33489D01*
X287385Y33542D01*
X287304Y33591D01*
X287220Y33637D01*
X287134Y33680D01*
X287047Y33719D01*
X286959Y33755D01*
X286869Y33787D01*
X286778Y33815D01*
X286685Y33840D01*
X286592Y33861D01*
X286498Y33878D01*
X286404Y33892D01*
X286309Y33901D01*
X286214Y33907D01*
X286118Y33909D01*
X283747Y33909D01*
X278913Y30946D02*
X278913Y26204D01*
X278913Y30946D02*
X278911Y31053D01*
X278905Y31160D01*
X278896Y31266D01*
X278882Y31372D01*
X278865Y31478D01*
X278844Y31583D01*
X278819Y31687D01*
X278790Y31790D01*
X278758Y31892D01*
X278722Y31993D01*
X278682Y32092D01*
X278639Y32190D01*
X278592Y32286D01*
X278542Y32381D01*
X278489Y32474D01*
X278432Y32564D01*
X278372Y32653D01*
X278309Y32739D01*
X278243Y32823D01*
X278173Y32905D01*
X278101Y32984D01*
X278026Y33060D01*
X277948Y33134D01*
X277868Y33204D01*
X277785Y33272D01*
X277700Y33337D01*
X277613Y33398D01*
X277523Y33457D01*
X277432Y33512D01*
X277338Y33564D01*
X277242Y33612D01*
X277145Y33657D01*
X277047Y33699D01*
X276947Y33736D01*
X276845Y33771D01*
X276743Y33801D01*
X276639Y33828D01*
X276535Y33851D01*
X276429Y33870D01*
X276323Y33885D01*
X276217Y33897D01*
X276110Y33905D01*
X276003Y33909D01*
X275897Y33909D01*
X275790Y33905D01*
X275683Y33897D01*
X275577Y33885D01*
X275471Y33870D01*
X275365Y33851D01*
X275261Y33828D01*
X275157Y33801D01*
X275055Y33771D01*
X274953Y33736D01*
X274853Y33699D01*
X274755Y33657D01*
X274658Y33612D01*
X274562Y33564D01*
X274469Y33512D01*
X274377Y33457D01*
X274287Y33398D01*
X274200Y33337D01*
X274115Y33272D01*
X274032Y33204D01*
X273952Y33134D01*
X273874Y33060D01*
X273799Y32984D01*
X273727Y32905D01*
X273657Y32823D01*
X273591Y32739D01*
X273528Y32653D01*
X273468Y32564D01*
X273411Y32474D01*
X273358Y32381D01*
X273308Y32286D01*
X273261Y32190D01*
X273218Y32092D01*
X273178Y31993D01*
X273142Y31892D01*
X273110Y31790D01*
X273081Y31687D01*
X273056Y31583D01*
X273035Y31478D01*
X273018Y31372D01*
X273004Y31266D01*
X272995Y31160D01*
X272989Y31053D01*
X272987Y30946D01*
X272987Y26204D01*
X272989Y26097D01*
X272995Y25990D01*
X273004Y25884D01*
X273018Y25778D01*
X273035Y25672D01*
X273056Y25567D01*
X273081Y25463D01*
X273110Y25360D01*
X273142Y25258D01*
X273178Y25157D01*
X273218Y25058D01*
X273261Y24960D01*
X273308Y24864D01*
X273358Y24769D01*
X273411Y24676D01*
X273468Y24586D01*
X273528Y24497D01*
X273591Y24411D01*
X273657Y24327D01*
X273727Y24245D01*
X273799Y24166D01*
X273874Y24090D01*
X273952Y24016D01*
X274032Y23946D01*
X274115Y23878D01*
X274200Y23813D01*
X274287Y23752D01*
X274377Y23693D01*
X274469Y23638D01*
X274562Y23586D01*
X274658Y23538D01*
X274755Y23493D01*
X274853Y23451D01*
X274953Y23414D01*
X275055Y23379D01*
X275157Y23349D01*
X275261Y23322D01*
X275365Y23299D01*
X275471Y23280D01*
X275577Y23265D01*
X275683Y23253D01*
X275790Y23245D01*
X275897Y23241D01*
X276003Y23241D01*
X276110Y23245D01*
X276217Y23253D01*
X276323Y23265D01*
X276429Y23280D01*
X276535Y23299D01*
X276639Y23322D01*
X276743Y23349D01*
X276845Y23379D01*
X276947Y23414D01*
X277047Y23451D01*
X277145Y23493D01*
X277242Y23538D01*
X277338Y23586D01*
X277432Y23638D01*
X277523Y23693D01*
X277613Y23752D01*
X277700Y23813D01*
X277785Y23878D01*
X277868Y23946D01*
X277948Y24016D01*
X278026Y24090D01*
X278101Y24166D01*
X278173Y24245D01*
X278243Y24327D01*
X278309Y24411D01*
X278372Y24497D01*
X278432Y24586D01*
X278489Y24676D01*
X278542Y24769D01*
X278592Y24864D01*
X278639Y24960D01*
X278682Y25058D01*
X278722Y25157D01*
X278758Y25258D01*
X278790Y25360D01*
X278819Y25463D01*
X278844Y25567D01*
X278865Y25672D01*
X278882Y25778D01*
X278896Y25884D01*
X278905Y25990D01*
X278911Y26097D01*
X278913Y26204D01*
X266933Y23241D02*
X266933Y33909D01*
X263377Y27982D01*
X259821Y33909D01*
X259821Y23241D01*
D11*
X445908Y80250D02*
X445910Y80172D01*
X445915Y80094D01*
X445925Y80017D01*
X445938Y79940D01*
X445954Y79864D01*
X445974Y79789D01*
X445998Y79715D01*
X446025Y79642D01*
X446056Y79570D01*
X446090Y79500D01*
X446127Y79431D01*
X446168Y79365D01*
X446212Y79300D01*
X446258Y79238D01*
X446308Y79178D01*
X446360Y79120D01*
X446415Y79065D01*
X446473Y79013D01*
X446533Y78963D01*
X446595Y78917D01*
X446660Y78873D01*
X446727Y78832D01*
X446795Y78795D01*
X446865Y78761D01*
X446937Y78730D01*
X447010Y78703D01*
X447084Y78679D01*
X447159Y78659D01*
X447235Y78643D01*
X447312Y78630D01*
X447389Y78620D01*
X447467Y78615D01*
X447545Y78613D01*
X447659Y78615D01*
X447772Y78620D01*
X447886Y78630D01*
X447999Y78643D01*
X448111Y78660D01*
X448223Y78680D01*
X448334Y78704D01*
X448445Y78732D01*
X448554Y78763D01*
X448662Y78798D01*
X448769Y78837D01*
X448875Y78879D01*
X448979Y78924D01*
X449082Y78973D01*
X449183Y79026D01*
X449282Y79081D01*
X449380Y79140D01*
X449475Y79202D01*
X449568Y79267D01*
X449660Y79335D01*
X449748Y79406D01*
X449835Y79480D01*
X449919Y79557D01*
X450000Y79636D01*
X449796Y84342D02*
X449794Y84420D01*
X449789Y84498D01*
X449779Y84575D01*
X449766Y84652D01*
X449750Y84728D01*
X449730Y84803D01*
X449706Y84877D01*
X449679Y84950D01*
X449648Y85022D01*
X449614Y85092D01*
X449577Y85161D01*
X449536Y85227D01*
X449492Y85292D01*
X449446Y85354D01*
X449396Y85414D01*
X449344Y85472D01*
X449289Y85527D01*
X449231Y85579D01*
X449171Y85629D01*
X449109Y85675D01*
X449044Y85719D01*
X448978Y85760D01*
X448909Y85797D01*
X448839Y85831D01*
X448767Y85862D01*
X448694Y85889D01*
X448620Y85913D01*
X448545Y85933D01*
X448469Y85949D01*
X448392Y85962D01*
X448315Y85972D01*
X448237Y85977D01*
X448159Y85979D01*
X448049Y85977D01*
X447940Y85971D01*
X447830Y85961D01*
X447722Y85948D01*
X447613Y85930D01*
X447506Y85909D01*
X447399Y85883D01*
X447293Y85854D01*
X447188Y85822D01*
X447085Y85785D01*
X446983Y85745D01*
X446882Y85701D01*
X446783Y85653D01*
X446686Y85603D01*
X446591Y85548D01*
X446498Y85490D01*
X446407Y85429D01*
X446318Y85365D01*
X448977Y82909D02*
X449044Y82951D01*
X449109Y82995D01*
X449171Y83043D01*
X449231Y83093D01*
X449289Y83146D01*
X449344Y83202D01*
X449396Y83261D01*
X449446Y83321D01*
X449493Y83385D01*
X449536Y83450D01*
X449577Y83517D01*
X449614Y83586D01*
X449648Y83657D01*
X449679Y83729D01*
X449706Y83803D01*
X449730Y83877D01*
X449750Y83953D01*
X449766Y84030D01*
X449779Y84107D01*
X449789Y84185D01*
X449794Y84264D01*
X449796Y84342D01*
X446727Y81682D02*
X446661Y81641D01*
X446596Y81596D01*
X446534Y81549D01*
X446474Y81498D01*
X446416Y81445D01*
X446361Y81389D01*
X446308Y81331D01*
X446259Y81270D01*
X446212Y81207D01*
X446169Y81142D01*
X446128Y81075D01*
X446091Y81006D01*
X446057Y80935D01*
X446026Y80863D01*
X445999Y80789D01*
X445975Y80714D01*
X445955Y80639D01*
X445939Y80562D01*
X445926Y80485D01*
X445916Y80407D01*
X445911Y80328D01*
X445909Y80250D01*
X446727Y81682D02*
X448977Y82910D01*
X442669Y78613D02*
X439396Y78613D01*
X442669Y78613D02*
X442669Y85979D01*
X439396Y85979D01*
X440214Y82705D02*
X442669Y82705D01*
X433481Y82705D02*
X432253Y82705D01*
X432253Y78613D01*
X434709Y78613D01*
X434787Y78615D01*
X434865Y78620D01*
X434942Y78630D01*
X435019Y78643D01*
X435095Y78659D01*
X435170Y78679D01*
X435244Y78703D01*
X435317Y78730D01*
X435389Y78761D01*
X435459Y78795D01*
X435528Y78832D01*
X435594Y78873D01*
X435659Y78917D01*
X435721Y78963D01*
X435781Y79013D01*
X435839Y79065D01*
X435894Y79120D01*
X435946Y79178D01*
X435996Y79238D01*
X436042Y79300D01*
X436086Y79365D01*
X436127Y79432D01*
X436164Y79500D01*
X436198Y79570D01*
X436229Y79642D01*
X436256Y79715D01*
X436280Y79789D01*
X436300Y79864D01*
X436316Y79940D01*
X436329Y80017D01*
X436339Y80094D01*
X436344Y80172D01*
X436346Y80250D01*
X436345Y80250D02*
X436345Y84342D01*
X436346Y84342D02*
X436344Y84420D01*
X436339Y84498D01*
X436329Y84575D01*
X436316Y84652D01*
X436300Y84728D01*
X436280Y84803D01*
X436256Y84877D01*
X436229Y84950D01*
X436198Y85022D01*
X436164Y85092D01*
X436127Y85161D01*
X436086Y85227D01*
X436042Y85292D01*
X435996Y85354D01*
X435946Y85414D01*
X435894Y85472D01*
X435839Y85527D01*
X435781Y85579D01*
X435721Y85629D01*
X435659Y85675D01*
X435594Y85719D01*
X435528Y85760D01*
X435459Y85797D01*
X435389Y85831D01*
X435317Y85862D01*
X435244Y85889D01*
X435170Y85913D01*
X435095Y85933D01*
X435019Y85949D01*
X434942Y85962D01*
X434865Y85972D01*
X434787Y85977D01*
X434709Y85979D01*
X432253Y85979D01*
X426740Y85979D02*
X429196Y78613D01*
X424285Y78613D02*
X426740Y85979D01*
X424899Y80455D02*
X428582Y80455D01*
X414461Y82705D02*
X413234Y82705D01*
X413234Y78613D01*
X415689Y78613D01*
X415767Y78615D01*
X415845Y78620D01*
X415922Y78630D01*
X415999Y78643D01*
X416075Y78659D01*
X416150Y78679D01*
X416224Y78703D01*
X416297Y78730D01*
X416369Y78761D01*
X416439Y78795D01*
X416508Y78832D01*
X416574Y78873D01*
X416639Y78917D01*
X416701Y78963D01*
X416761Y79013D01*
X416819Y79065D01*
X416874Y79120D01*
X416926Y79178D01*
X416976Y79238D01*
X417022Y79300D01*
X417066Y79365D01*
X417107Y79432D01*
X417144Y79500D01*
X417178Y79570D01*
X417209Y79642D01*
X417236Y79715D01*
X417260Y79789D01*
X417280Y79864D01*
X417296Y79940D01*
X417309Y80017D01*
X417319Y80094D01*
X417324Y80172D01*
X417326Y80250D01*
X417326Y84342D01*
X417324Y84420D01*
X417319Y84498D01*
X417309Y84575D01*
X417296Y84652D01*
X417280Y84728D01*
X417260Y84803D01*
X417236Y84877D01*
X417209Y84950D01*
X417178Y85022D01*
X417144Y85092D01*
X417107Y85161D01*
X417066Y85227D01*
X417022Y85292D01*
X416976Y85354D01*
X416926Y85414D01*
X416874Y85472D01*
X416819Y85527D01*
X416761Y85579D01*
X416701Y85629D01*
X416639Y85675D01*
X416574Y85719D01*
X416508Y85760D01*
X416439Y85797D01*
X416369Y85831D01*
X416297Y85862D01*
X416224Y85889D01*
X416150Y85913D01*
X416075Y85933D01*
X415999Y85949D01*
X415922Y85962D01*
X415845Y85972D01*
X415767Y85977D01*
X415689Y85979D01*
X413234Y85979D01*
X409507Y78613D02*
X406234Y78613D01*
X409507Y78613D02*
X409507Y85979D01*
X406234Y85979D01*
X407052Y82705D02*
X409507Y82705D01*
X403183Y85979D02*
X403183Y78613D01*
X399091Y78613D02*
X403183Y85979D01*
X399091Y85979D02*
X399091Y78613D01*
X395365Y78613D02*
X392091Y78613D01*
X395365Y78613D02*
X395365Y85979D01*
X392091Y85979D01*
X392909Y82705D02*
X395365Y82705D01*
X387073Y78613D02*
X386995Y78615D01*
X386917Y78620D01*
X386840Y78630D01*
X386763Y78643D01*
X386687Y78659D01*
X386612Y78679D01*
X386538Y78703D01*
X386465Y78730D01*
X386393Y78761D01*
X386323Y78795D01*
X386255Y78832D01*
X386188Y78873D01*
X386123Y78917D01*
X386061Y78963D01*
X386001Y79013D01*
X385943Y79065D01*
X385888Y79120D01*
X385836Y79178D01*
X385786Y79238D01*
X385740Y79300D01*
X385696Y79365D01*
X385655Y79431D01*
X385618Y79500D01*
X385584Y79570D01*
X385553Y79642D01*
X385526Y79715D01*
X385502Y79789D01*
X385482Y79864D01*
X385466Y79940D01*
X385453Y80017D01*
X385443Y80094D01*
X385438Y80172D01*
X385436Y80250D01*
X387073Y78613D02*
X387187Y78615D01*
X387300Y78620D01*
X387414Y78630D01*
X387527Y78643D01*
X387639Y78660D01*
X387751Y78680D01*
X387862Y78704D01*
X387973Y78732D01*
X388082Y78763D01*
X388190Y78798D01*
X388297Y78837D01*
X388403Y78879D01*
X388507Y78924D01*
X388610Y78973D01*
X388711Y79026D01*
X388810Y79081D01*
X388908Y79140D01*
X389003Y79202D01*
X389096Y79267D01*
X389188Y79335D01*
X389276Y79406D01*
X389363Y79480D01*
X389447Y79557D01*
X389528Y79636D01*
X389324Y84342D02*
X389322Y84420D01*
X389317Y84498D01*
X389307Y84575D01*
X389294Y84652D01*
X389278Y84728D01*
X389258Y84803D01*
X389234Y84877D01*
X389207Y84950D01*
X389176Y85022D01*
X389142Y85092D01*
X389105Y85161D01*
X389064Y85227D01*
X389020Y85292D01*
X388974Y85354D01*
X388924Y85414D01*
X388872Y85472D01*
X388817Y85527D01*
X388759Y85579D01*
X388699Y85629D01*
X388637Y85675D01*
X388572Y85719D01*
X388506Y85760D01*
X388437Y85797D01*
X388367Y85831D01*
X388295Y85862D01*
X388222Y85889D01*
X388148Y85913D01*
X388073Y85933D01*
X387997Y85949D01*
X387920Y85962D01*
X387843Y85972D01*
X387765Y85977D01*
X387687Y85979D01*
X387577Y85977D01*
X387468Y85971D01*
X387358Y85961D01*
X387250Y85948D01*
X387141Y85930D01*
X387034Y85909D01*
X386927Y85883D01*
X386821Y85854D01*
X386716Y85822D01*
X386613Y85785D01*
X386511Y85745D01*
X386410Y85701D01*
X386311Y85653D01*
X386214Y85603D01*
X386119Y85548D01*
X386026Y85490D01*
X385935Y85429D01*
X385846Y85365D01*
X388505Y82909D02*
X388572Y82951D01*
X388637Y82995D01*
X388699Y83043D01*
X388759Y83093D01*
X388817Y83146D01*
X388872Y83202D01*
X388924Y83261D01*
X388974Y83321D01*
X389021Y83385D01*
X389064Y83450D01*
X389105Y83517D01*
X389142Y83586D01*
X389176Y83657D01*
X389207Y83729D01*
X389234Y83803D01*
X389258Y83877D01*
X389278Y83953D01*
X389294Y84030D01*
X389307Y84107D01*
X389317Y84185D01*
X389322Y84264D01*
X389324Y84342D01*
X386254Y81682D02*
X386188Y81641D01*
X386123Y81596D01*
X386061Y81549D01*
X386001Y81498D01*
X385943Y81445D01*
X385888Y81389D01*
X385835Y81331D01*
X385786Y81270D01*
X385739Y81207D01*
X385696Y81142D01*
X385655Y81075D01*
X385618Y81006D01*
X385584Y80935D01*
X385553Y80863D01*
X385526Y80789D01*
X385502Y80714D01*
X385482Y80639D01*
X385466Y80562D01*
X385453Y80485D01*
X385443Y80407D01*
X385438Y80328D01*
X385436Y80250D01*
X386255Y81682D02*
X388505Y82910D01*
X381874Y85979D02*
X381874Y78613D01*
X382692Y78613D02*
X381055Y78613D01*
X381055Y85979D02*
X382692Y85979D01*
X375856Y78613D02*
X375778Y78615D01*
X375700Y78620D01*
X375623Y78630D01*
X375546Y78643D01*
X375470Y78659D01*
X375395Y78679D01*
X375321Y78703D01*
X375248Y78730D01*
X375176Y78761D01*
X375106Y78795D01*
X375038Y78832D01*
X374971Y78873D01*
X374906Y78917D01*
X374844Y78963D01*
X374784Y79013D01*
X374726Y79065D01*
X374671Y79120D01*
X374619Y79178D01*
X374569Y79238D01*
X374523Y79300D01*
X374479Y79365D01*
X374438Y79431D01*
X374401Y79500D01*
X374367Y79570D01*
X374336Y79642D01*
X374309Y79715D01*
X374285Y79789D01*
X374265Y79864D01*
X374249Y79940D01*
X374236Y80017D01*
X374226Y80094D01*
X374221Y80172D01*
X374219Y80250D01*
X375856Y78613D02*
X375970Y78615D01*
X376083Y78620D01*
X376197Y78630D01*
X376310Y78643D01*
X376422Y78660D01*
X376534Y78680D01*
X376645Y78704D01*
X376756Y78732D01*
X376865Y78763D01*
X376973Y78798D01*
X377080Y78837D01*
X377186Y78879D01*
X377290Y78924D01*
X377393Y78973D01*
X377494Y79026D01*
X377593Y79081D01*
X377691Y79140D01*
X377786Y79202D01*
X377879Y79267D01*
X377971Y79335D01*
X378059Y79406D01*
X378146Y79480D01*
X378230Y79557D01*
X378311Y79636D01*
X378107Y84342D02*
X378105Y84420D01*
X378100Y84498D01*
X378090Y84575D01*
X378077Y84652D01*
X378061Y84728D01*
X378041Y84803D01*
X378017Y84877D01*
X377990Y84950D01*
X377959Y85022D01*
X377925Y85092D01*
X377888Y85161D01*
X377847Y85227D01*
X377803Y85292D01*
X377757Y85354D01*
X377707Y85414D01*
X377655Y85472D01*
X377600Y85527D01*
X377542Y85579D01*
X377482Y85629D01*
X377420Y85675D01*
X377355Y85719D01*
X377289Y85760D01*
X377220Y85797D01*
X377150Y85831D01*
X377078Y85862D01*
X377005Y85889D01*
X376931Y85913D01*
X376856Y85933D01*
X376780Y85949D01*
X376703Y85962D01*
X376626Y85972D01*
X376548Y85977D01*
X376470Y85979D01*
X376360Y85977D01*
X376251Y85971D01*
X376141Y85961D01*
X376033Y85948D01*
X375924Y85930D01*
X375817Y85909D01*
X375710Y85883D01*
X375604Y85854D01*
X375499Y85822D01*
X375396Y85785D01*
X375294Y85745D01*
X375193Y85701D01*
X375094Y85653D01*
X374997Y85603D01*
X374902Y85548D01*
X374809Y85490D01*
X374718Y85429D01*
X374629Y85365D01*
X377289Y82909D02*
X377356Y82951D01*
X377421Y82995D01*
X377483Y83043D01*
X377543Y83093D01*
X377601Y83146D01*
X377656Y83202D01*
X377708Y83261D01*
X377758Y83321D01*
X377805Y83385D01*
X377848Y83450D01*
X377889Y83517D01*
X377926Y83586D01*
X377960Y83657D01*
X377991Y83729D01*
X378018Y83803D01*
X378042Y83877D01*
X378062Y83953D01*
X378078Y84030D01*
X378091Y84107D01*
X378101Y84185D01*
X378106Y84264D01*
X378108Y84342D01*
X375038Y81682D02*
X374972Y81641D01*
X374907Y81596D01*
X374845Y81549D01*
X374785Y81498D01*
X374727Y81445D01*
X374672Y81389D01*
X374619Y81331D01*
X374570Y81270D01*
X374523Y81207D01*
X374480Y81142D01*
X374439Y81075D01*
X374402Y81006D01*
X374368Y80935D01*
X374337Y80863D01*
X374310Y80789D01*
X374286Y80714D01*
X374266Y80639D01*
X374250Y80562D01*
X374237Y80485D01*
X374227Y80407D01*
X374222Y80328D01*
X374220Y80250D01*
X375038Y81682D02*
X377289Y82910D01*
X367339Y78613D02*
X365293Y78613D01*
X365204Y78615D01*
X365115Y78621D01*
X365026Y78631D01*
X364938Y78644D01*
X364850Y78661D01*
X364763Y78683D01*
X364678Y78708D01*
X364593Y78736D01*
X364510Y78769D01*
X364428Y78805D01*
X364348Y78844D01*
X364270Y78887D01*
X364194Y78933D01*
X364119Y78983D01*
X364047Y79036D01*
X363978Y79092D01*
X363911Y79151D01*
X363846Y79212D01*
X363785Y79277D01*
X363726Y79344D01*
X363670Y79413D01*
X363617Y79485D01*
X363567Y79560D01*
X363521Y79636D01*
X363478Y79714D01*
X363439Y79794D01*
X363403Y79876D01*
X363370Y79959D01*
X363342Y80044D01*
X363317Y80129D01*
X363295Y80216D01*
X363278Y80304D01*
X363265Y80392D01*
X363255Y80481D01*
X363249Y80570D01*
X363247Y80659D01*
X363249Y80748D01*
X363255Y80837D01*
X363265Y80926D01*
X363278Y81014D01*
X363295Y81102D01*
X363317Y81189D01*
X363342Y81274D01*
X363370Y81359D01*
X363403Y81442D01*
X363439Y81524D01*
X363478Y81604D01*
X363521Y81682D01*
X363567Y81758D01*
X363617Y81833D01*
X363670Y81905D01*
X363726Y81974D01*
X363785Y82041D01*
X363846Y82106D01*
X363911Y82167D01*
X363978Y82226D01*
X364047Y82282D01*
X364119Y82335D01*
X364194Y82385D01*
X364270Y82431D01*
X364348Y82474D01*
X364428Y82513D01*
X364510Y82549D01*
X364593Y82582D01*
X364678Y82610D01*
X364763Y82635D01*
X364850Y82657D01*
X364938Y82674D01*
X365026Y82687D01*
X365115Y82697D01*
X365204Y82703D01*
X365293Y82705D01*
X364884Y85979D02*
X367339Y85979D01*
X364884Y85979D02*
X364805Y85977D01*
X364726Y85971D01*
X364647Y85962D01*
X364569Y85949D01*
X364492Y85931D01*
X364416Y85911D01*
X364341Y85886D01*
X364267Y85858D01*
X364194Y85827D01*
X364123Y85791D01*
X364054Y85753D01*
X363987Y85711D01*
X363922Y85666D01*
X363859Y85618D01*
X363798Y85567D01*
X363741Y85513D01*
X363685Y85457D01*
X363633Y85398D01*
X363583Y85336D01*
X363537Y85272D01*
X363493Y85206D01*
X363453Y85138D01*
X363417Y85068D01*
X363383Y84996D01*
X363353Y84922D01*
X363327Y84848D01*
X363304Y84772D01*
X363286Y84695D01*
X363270Y84618D01*
X363259Y84539D01*
X363251Y84461D01*
X363247Y84382D01*
X363247Y84302D01*
X363251Y84223D01*
X363259Y84145D01*
X363270Y84066D01*
X363286Y83989D01*
X363304Y83912D01*
X363327Y83836D01*
X363353Y83762D01*
X363383Y83688D01*
X363417Y83616D01*
X363453Y83546D01*
X363493Y83478D01*
X363537Y83412D01*
X363583Y83348D01*
X363633Y83286D01*
X363685Y83227D01*
X363741Y83171D01*
X363798Y83117D01*
X363859Y83066D01*
X363922Y83018D01*
X363987Y82973D01*
X364054Y82931D01*
X364123Y82893D01*
X364194Y82857D01*
X364267Y82826D01*
X364341Y82798D01*
X364416Y82773D01*
X364492Y82753D01*
X364569Y82735D01*
X364647Y82722D01*
X364726Y82713D01*
X364805Y82707D01*
X364884Y82705D01*
X366520Y82705D01*
X356531Y85979D02*
X354076Y78613D01*
X351621Y85979D01*
X346761Y85979D02*
X349216Y78613D01*
X344306Y78613D02*
X346761Y85979D01*
X348602Y80455D02*
X344919Y80455D01*
X341492Y84342D02*
X339446Y85979D01*
X339446Y78613D01*
X341492Y78613D02*
X337400Y78613D01*
X445202Y73787D02*
X445202Y66421D01*
X445202Y73787D02*
X441928Y73787D01*
X441928Y70513D02*
X445202Y70513D01*
X438878Y68467D02*
X438878Y73787D01*
X438878Y68467D02*
X438876Y68378D01*
X438870Y68289D01*
X438860Y68200D01*
X438847Y68112D01*
X438830Y68024D01*
X438808Y67937D01*
X438783Y67852D01*
X438755Y67767D01*
X438722Y67684D01*
X438686Y67602D01*
X438647Y67522D01*
X438604Y67444D01*
X438558Y67368D01*
X438508Y67293D01*
X438455Y67221D01*
X438399Y67152D01*
X438340Y67085D01*
X438279Y67020D01*
X438214Y66959D01*
X438147Y66900D01*
X438078Y66844D01*
X438006Y66791D01*
X437931Y66741D01*
X437855Y66695D01*
X437777Y66652D01*
X437697Y66613D01*
X437615Y66577D01*
X437532Y66544D01*
X437447Y66516D01*
X437362Y66491D01*
X437275Y66469D01*
X437187Y66452D01*
X437099Y66439D01*
X437010Y66429D01*
X436921Y66423D01*
X436832Y66421D01*
X436743Y66423D01*
X436654Y66429D01*
X436565Y66439D01*
X436477Y66452D01*
X436389Y66469D01*
X436302Y66491D01*
X436217Y66516D01*
X436132Y66544D01*
X436049Y66577D01*
X435967Y66613D01*
X435887Y66652D01*
X435809Y66695D01*
X435733Y66741D01*
X435658Y66791D01*
X435586Y66844D01*
X435517Y66900D01*
X435450Y66959D01*
X435385Y67020D01*
X435324Y67085D01*
X435265Y67152D01*
X435209Y67221D01*
X435156Y67293D01*
X435106Y67368D01*
X435060Y67444D01*
X435017Y67522D01*
X434978Y67602D01*
X434942Y67684D01*
X434909Y67767D01*
X434881Y67852D01*
X434856Y67937D01*
X434834Y68024D01*
X434817Y68112D01*
X434804Y68200D01*
X434794Y68289D01*
X434788Y68378D01*
X434786Y68467D01*
X434786Y73787D01*
X431075Y73787D02*
X431075Y66421D01*
X426983Y66421D02*
X431075Y73787D01*
X426983Y73787D02*
X426983Y66421D01*
X421902Y66421D02*
X420265Y66421D01*
X421902Y66421D02*
X421980Y66423D01*
X422058Y66428D01*
X422135Y66438D01*
X422212Y66451D01*
X422288Y66467D01*
X422363Y66487D01*
X422437Y66511D01*
X422510Y66538D01*
X422582Y66569D01*
X422652Y66603D01*
X422721Y66640D01*
X422787Y66681D01*
X422852Y66725D01*
X422914Y66771D01*
X422974Y66821D01*
X423032Y66873D01*
X423087Y66928D01*
X423139Y66986D01*
X423189Y67046D01*
X423235Y67108D01*
X423279Y67173D01*
X423320Y67240D01*
X423357Y67308D01*
X423391Y67378D01*
X423422Y67450D01*
X423449Y67523D01*
X423473Y67597D01*
X423493Y67672D01*
X423509Y67748D01*
X423522Y67825D01*
X423532Y67902D01*
X423537Y67980D01*
X423539Y68058D01*
X423539Y72150D01*
X423537Y72228D01*
X423532Y72306D01*
X423522Y72383D01*
X423509Y72460D01*
X423493Y72536D01*
X423473Y72611D01*
X423449Y72685D01*
X423422Y72758D01*
X423391Y72830D01*
X423357Y72900D01*
X423320Y72969D01*
X423279Y73035D01*
X423235Y73100D01*
X423189Y73162D01*
X423139Y73222D01*
X423087Y73280D01*
X423032Y73335D01*
X422974Y73387D01*
X422914Y73437D01*
X422852Y73483D01*
X422787Y73527D01*
X422721Y73568D01*
X422652Y73605D01*
X422582Y73639D01*
X422510Y73670D01*
X422437Y73697D01*
X422363Y73721D01*
X422288Y73741D01*
X422212Y73757D01*
X422135Y73770D01*
X422058Y73780D01*
X421980Y73785D01*
X421902Y73787D01*
X420265Y73787D01*
X415862Y73787D02*
X415862Y66421D01*
X417908Y73787D02*
X413816Y73787D01*
X410497Y73787D02*
X410497Y66421D01*
X409679Y66421D02*
X411316Y66421D01*
X411316Y73787D02*
X409679Y73787D01*
X406691Y71741D02*
X406691Y68467D01*
X406691Y71741D02*
X406689Y71830D01*
X406683Y71919D01*
X406673Y72008D01*
X406660Y72096D01*
X406643Y72184D01*
X406621Y72271D01*
X406596Y72356D01*
X406568Y72441D01*
X406535Y72524D01*
X406499Y72606D01*
X406460Y72686D01*
X406417Y72764D01*
X406371Y72840D01*
X406321Y72915D01*
X406268Y72987D01*
X406212Y73056D01*
X406153Y73123D01*
X406092Y73188D01*
X406027Y73249D01*
X405960Y73308D01*
X405891Y73364D01*
X405819Y73417D01*
X405744Y73467D01*
X405668Y73513D01*
X405590Y73556D01*
X405510Y73595D01*
X405428Y73631D01*
X405345Y73664D01*
X405260Y73692D01*
X405175Y73717D01*
X405088Y73739D01*
X405000Y73756D01*
X404912Y73769D01*
X404823Y73779D01*
X404734Y73785D01*
X404645Y73787D01*
X404556Y73785D01*
X404467Y73779D01*
X404378Y73769D01*
X404290Y73756D01*
X404202Y73739D01*
X404115Y73717D01*
X404030Y73692D01*
X403945Y73664D01*
X403862Y73631D01*
X403780Y73595D01*
X403700Y73556D01*
X403622Y73513D01*
X403546Y73467D01*
X403471Y73417D01*
X403399Y73364D01*
X403330Y73308D01*
X403263Y73249D01*
X403198Y73188D01*
X403137Y73123D01*
X403078Y73056D01*
X403022Y72987D01*
X402969Y72915D01*
X402919Y72840D01*
X402873Y72764D01*
X402830Y72686D01*
X402791Y72606D01*
X402755Y72524D01*
X402722Y72441D01*
X402694Y72356D01*
X402669Y72271D01*
X402647Y72184D01*
X402630Y72096D01*
X402617Y72008D01*
X402607Y71919D01*
X402601Y71830D01*
X402599Y71741D01*
X402599Y68467D01*
X402601Y68378D01*
X402607Y68289D01*
X402617Y68200D01*
X402630Y68112D01*
X402647Y68024D01*
X402669Y67937D01*
X402694Y67852D01*
X402722Y67767D01*
X402755Y67684D01*
X402791Y67602D01*
X402830Y67522D01*
X402873Y67444D01*
X402919Y67368D01*
X402969Y67293D01*
X403022Y67221D01*
X403078Y67152D01*
X403137Y67085D01*
X403198Y67020D01*
X403263Y66959D01*
X403330Y66900D01*
X403399Y66844D01*
X403471Y66791D01*
X403546Y66741D01*
X403622Y66695D01*
X403700Y66652D01*
X403780Y66613D01*
X403862Y66577D01*
X403945Y66544D01*
X404030Y66516D01*
X404115Y66491D01*
X404202Y66469D01*
X404290Y66452D01*
X404378Y66439D01*
X404467Y66429D01*
X404556Y66423D01*
X404645Y66421D01*
X404734Y66423D01*
X404823Y66429D01*
X404912Y66439D01*
X405000Y66452D01*
X405088Y66469D01*
X405175Y66491D01*
X405260Y66516D01*
X405345Y66544D01*
X405428Y66577D01*
X405510Y66613D01*
X405590Y66652D01*
X405668Y66695D01*
X405744Y66741D01*
X405819Y66791D01*
X405891Y66844D01*
X405960Y66900D01*
X406027Y66959D01*
X406092Y67020D01*
X406153Y67085D01*
X406212Y67152D01*
X406268Y67221D01*
X406321Y67293D01*
X406371Y67368D01*
X406417Y67444D01*
X406460Y67522D01*
X406499Y67602D01*
X406535Y67684D01*
X406568Y67767D01*
X406596Y67852D01*
X406621Y67937D01*
X406643Y68024D01*
X406660Y68112D01*
X406673Y68200D01*
X406683Y68289D01*
X406689Y68378D01*
X406691Y68467D01*
X399132Y66421D02*
X399132Y73787D01*
X395040Y66421D01*
X395040Y73787D01*
X387377Y73787D02*
X387377Y66421D01*
X387377Y73787D02*
X385331Y73787D01*
X385242Y73785D01*
X385153Y73779D01*
X385064Y73769D01*
X384976Y73756D01*
X384888Y73739D01*
X384801Y73717D01*
X384716Y73692D01*
X384631Y73664D01*
X384548Y73631D01*
X384466Y73595D01*
X384386Y73556D01*
X384308Y73513D01*
X384232Y73467D01*
X384157Y73417D01*
X384085Y73364D01*
X384016Y73308D01*
X383949Y73249D01*
X383884Y73188D01*
X383823Y73123D01*
X383764Y73056D01*
X383708Y72987D01*
X383655Y72915D01*
X383605Y72840D01*
X383559Y72764D01*
X383516Y72686D01*
X383477Y72606D01*
X383441Y72524D01*
X383408Y72441D01*
X383380Y72356D01*
X383355Y72271D01*
X383333Y72184D01*
X383316Y72096D01*
X383303Y72008D01*
X383293Y71919D01*
X383287Y71830D01*
X383285Y71741D01*
X383287Y71652D01*
X383293Y71563D01*
X383303Y71474D01*
X383316Y71386D01*
X383333Y71298D01*
X383355Y71211D01*
X383380Y71126D01*
X383408Y71041D01*
X383441Y70958D01*
X383477Y70876D01*
X383516Y70796D01*
X383559Y70718D01*
X383605Y70642D01*
X383655Y70567D01*
X383708Y70495D01*
X383764Y70426D01*
X383823Y70359D01*
X383884Y70294D01*
X383949Y70233D01*
X384016Y70174D01*
X384085Y70118D01*
X384157Y70065D01*
X384232Y70015D01*
X384308Y69969D01*
X384386Y69926D01*
X384466Y69887D01*
X384548Y69851D01*
X384631Y69818D01*
X384716Y69790D01*
X384801Y69765D01*
X384888Y69743D01*
X384976Y69726D01*
X385064Y69713D01*
X385153Y69703D01*
X385242Y69697D01*
X385331Y69695D01*
X387377Y69695D01*
X384921Y69695D02*
X383284Y66421D01*
X379853Y66421D02*
X376579Y66421D01*
X379853Y66421D02*
X379853Y73787D01*
X376579Y73787D01*
X377398Y70513D02*
X379853Y70513D01*
X371561Y66421D02*
X371483Y66423D01*
X371405Y66428D01*
X371328Y66438D01*
X371251Y66451D01*
X371175Y66467D01*
X371100Y66487D01*
X371026Y66511D01*
X370953Y66538D01*
X370881Y66569D01*
X370811Y66603D01*
X370743Y66640D01*
X370676Y66681D01*
X370611Y66725D01*
X370549Y66771D01*
X370489Y66821D01*
X370431Y66873D01*
X370376Y66928D01*
X370324Y66986D01*
X370274Y67046D01*
X370228Y67108D01*
X370184Y67173D01*
X370143Y67239D01*
X370106Y67308D01*
X370072Y67378D01*
X370041Y67450D01*
X370014Y67523D01*
X369990Y67597D01*
X369970Y67672D01*
X369954Y67748D01*
X369941Y67825D01*
X369931Y67902D01*
X369926Y67980D01*
X369924Y68058D01*
X371561Y66421D02*
X371675Y66423D01*
X371788Y66428D01*
X371902Y66438D01*
X372015Y66451D01*
X372127Y66468D01*
X372239Y66488D01*
X372350Y66512D01*
X372461Y66540D01*
X372570Y66571D01*
X372678Y66606D01*
X372785Y66645D01*
X372891Y66687D01*
X372995Y66732D01*
X373098Y66781D01*
X373199Y66834D01*
X373298Y66889D01*
X373396Y66948D01*
X373491Y67010D01*
X373584Y67075D01*
X373676Y67143D01*
X373764Y67214D01*
X373851Y67288D01*
X373935Y67365D01*
X374016Y67444D01*
X373812Y72150D02*
X373810Y72228D01*
X373805Y72306D01*
X373795Y72383D01*
X373782Y72460D01*
X373766Y72536D01*
X373746Y72611D01*
X373722Y72685D01*
X373695Y72758D01*
X373664Y72830D01*
X373630Y72900D01*
X373593Y72969D01*
X373552Y73035D01*
X373508Y73100D01*
X373462Y73162D01*
X373412Y73222D01*
X373360Y73280D01*
X373305Y73335D01*
X373247Y73387D01*
X373187Y73437D01*
X373125Y73483D01*
X373060Y73527D01*
X372994Y73568D01*
X372925Y73605D01*
X372855Y73639D01*
X372783Y73670D01*
X372710Y73697D01*
X372636Y73721D01*
X372561Y73741D01*
X372485Y73757D01*
X372408Y73770D01*
X372331Y73780D01*
X372253Y73785D01*
X372175Y73787D01*
X372065Y73785D01*
X371956Y73779D01*
X371846Y73769D01*
X371738Y73756D01*
X371629Y73738D01*
X371522Y73717D01*
X371415Y73691D01*
X371309Y73662D01*
X371204Y73630D01*
X371101Y73593D01*
X370999Y73553D01*
X370898Y73509D01*
X370799Y73461D01*
X370702Y73411D01*
X370607Y73356D01*
X370514Y73298D01*
X370423Y73237D01*
X370334Y73173D01*
X372994Y70717D02*
X373061Y70759D01*
X373126Y70803D01*
X373188Y70851D01*
X373248Y70901D01*
X373306Y70954D01*
X373361Y71010D01*
X373413Y71069D01*
X373463Y71129D01*
X373510Y71193D01*
X373553Y71258D01*
X373594Y71325D01*
X373631Y71394D01*
X373665Y71465D01*
X373696Y71537D01*
X373723Y71611D01*
X373747Y71685D01*
X373767Y71761D01*
X373783Y71838D01*
X373796Y71915D01*
X373806Y71993D01*
X373811Y72072D01*
X373813Y72150D01*
X370743Y69490D02*
X370677Y69449D01*
X370612Y69404D01*
X370550Y69357D01*
X370490Y69306D01*
X370432Y69253D01*
X370377Y69197D01*
X370324Y69139D01*
X370275Y69078D01*
X370228Y69015D01*
X370185Y68950D01*
X370144Y68883D01*
X370107Y68814D01*
X370073Y68743D01*
X370042Y68671D01*
X370015Y68597D01*
X369991Y68522D01*
X369971Y68447D01*
X369955Y68370D01*
X369942Y68293D01*
X369932Y68215D01*
X369927Y68136D01*
X369925Y68058D01*
X370743Y69490D02*
X372994Y70718D01*
X365387Y73787D02*
X365387Y66421D01*
X367433Y73787D02*
X363341Y73787D01*
X360605Y71741D02*
X360605Y68467D01*
X360605Y71741D02*
X360603Y71830D01*
X360597Y71919D01*
X360587Y72008D01*
X360574Y72096D01*
X360557Y72184D01*
X360535Y72271D01*
X360510Y72356D01*
X360482Y72441D01*
X360449Y72524D01*
X360413Y72606D01*
X360374Y72686D01*
X360331Y72764D01*
X360285Y72840D01*
X360235Y72915D01*
X360182Y72987D01*
X360126Y73056D01*
X360067Y73123D01*
X360006Y73188D01*
X359941Y73249D01*
X359874Y73308D01*
X359805Y73364D01*
X359733Y73417D01*
X359658Y73467D01*
X359582Y73513D01*
X359504Y73556D01*
X359424Y73595D01*
X359342Y73631D01*
X359259Y73664D01*
X359174Y73692D01*
X359089Y73717D01*
X359002Y73739D01*
X358914Y73756D01*
X358826Y73769D01*
X358737Y73779D01*
X358648Y73785D01*
X358559Y73787D01*
X358470Y73785D01*
X358381Y73779D01*
X358292Y73769D01*
X358204Y73756D01*
X358116Y73739D01*
X358029Y73717D01*
X357944Y73692D01*
X357859Y73664D01*
X357776Y73631D01*
X357694Y73595D01*
X357614Y73556D01*
X357536Y73513D01*
X357460Y73467D01*
X357385Y73417D01*
X357313Y73364D01*
X357244Y73308D01*
X357177Y73249D01*
X357112Y73188D01*
X357051Y73123D01*
X356992Y73056D01*
X356936Y72987D01*
X356883Y72915D01*
X356833Y72840D01*
X356787Y72764D01*
X356744Y72686D01*
X356705Y72606D01*
X356669Y72524D01*
X356636Y72441D01*
X356608Y72356D01*
X356583Y72271D01*
X356561Y72184D01*
X356544Y72096D01*
X356531Y72008D01*
X356521Y71919D01*
X356515Y71830D01*
X356513Y71741D01*
X356513Y68467D01*
X356515Y68378D01*
X356521Y68289D01*
X356531Y68200D01*
X356544Y68112D01*
X356561Y68024D01*
X356583Y67937D01*
X356608Y67852D01*
X356636Y67767D01*
X356669Y67684D01*
X356705Y67602D01*
X356744Y67522D01*
X356787Y67444D01*
X356833Y67368D01*
X356883Y67293D01*
X356936Y67221D01*
X356992Y67152D01*
X357051Y67085D01*
X357112Y67020D01*
X357177Y66959D01*
X357244Y66900D01*
X357313Y66844D01*
X357385Y66791D01*
X357460Y66741D01*
X357536Y66695D01*
X357614Y66652D01*
X357694Y66613D01*
X357776Y66577D01*
X357859Y66544D01*
X357944Y66516D01*
X358029Y66491D01*
X358116Y66469D01*
X358204Y66452D01*
X358292Y66439D01*
X358381Y66429D01*
X358470Y66423D01*
X358559Y66421D01*
X358648Y66423D01*
X358737Y66429D01*
X358826Y66439D01*
X358914Y66452D01*
X359002Y66469D01*
X359089Y66491D01*
X359174Y66516D01*
X359259Y66544D01*
X359342Y66577D01*
X359424Y66613D01*
X359504Y66652D01*
X359582Y66695D01*
X359658Y66741D01*
X359733Y66791D01*
X359805Y66844D01*
X359874Y66900D01*
X359941Y66959D01*
X360006Y67020D01*
X360067Y67085D01*
X360126Y67152D01*
X360182Y67221D01*
X360235Y67293D01*
X360285Y67368D01*
X360331Y67444D01*
X360374Y67522D01*
X360413Y67602D01*
X360449Y67684D01*
X360482Y67767D01*
X360510Y67852D01*
X360535Y67937D01*
X360557Y68024D01*
X360574Y68112D01*
X360587Y68200D01*
X360597Y68289D01*
X360603Y68378D01*
X360605Y68467D01*
X352995Y66421D02*
X352995Y73787D01*
X350949Y73787D01*
X350860Y73785D01*
X350771Y73779D01*
X350682Y73769D01*
X350594Y73756D01*
X350506Y73739D01*
X350419Y73717D01*
X350334Y73692D01*
X350249Y73664D01*
X350166Y73631D01*
X350084Y73595D01*
X350004Y73556D01*
X349926Y73513D01*
X349850Y73467D01*
X349775Y73417D01*
X349703Y73364D01*
X349634Y73308D01*
X349567Y73249D01*
X349502Y73188D01*
X349441Y73123D01*
X349382Y73056D01*
X349326Y72987D01*
X349273Y72915D01*
X349223Y72840D01*
X349177Y72764D01*
X349134Y72686D01*
X349095Y72606D01*
X349059Y72524D01*
X349026Y72441D01*
X348998Y72356D01*
X348973Y72271D01*
X348951Y72184D01*
X348934Y72096D01*
X348921Y72008D01*
X348911Y71919D01*
X348905Y71830D01*
X348903Y71741D01*
X348905Y71652D01*
X348911Y71563D01*
X348921Y71474D01*
X348934Y71386D01*
X348951Y71298D01*
X348973Y71211D01*
X348998Y71126D01*
X349026Y71041D01*
X349059Y70958D01*
X349095Y70876D01*
X349134Y70796D01*
X349177Y70718D01*
X349223Y70642D01*
X349273Y70567D01*
X349326Y70495D01*
X349382Y70426D01*
X349441Y70359D01*
X349502Y70294D01*
X349567Y70233D01*
X349634Y70174D01*
X349703Y70118D01*
X349775Y70065D01*
X349850Y70015D01*
X349926Y69969D01*
X350004Y69926D01*
X350084Y69887D01*
X350166Y69851D01*
X350249Y69818D01*
X350334Y69790D01*
X350419Y69765D01*
X350506Y69743D01*
X350594Y69726D01*
X350682Y69713D01*
X350771Y69703D01*
X350860Y69697D01*
X350949Y69695D01*
X352995Y69695D01*
X350540Y69695D02*
X348903Y66421D01*
X345472Y66421D02*
X342198Y66421D01*
X345472Y66421D02*
X345472Y73787D01*
X342198Y73787D01*
X343016Y70513D02*
X345472Y70513D01*
M02*
