G04 EAGLE Gerber RS-274X export*
G75*
%MOMM*%
%FSLAX34Y34*%
%LPD*%
%INSilkscreen Top*%
%IPPOS*%
%AMOC8*
5,1,8,0,0,1.08239X$1,22.5*%
G01*
%ADD10C,0.127000*%
%ADD11C,0.076200*%


D10*
X-7398Y41078D02*
X-4695Y41078D01*
X-4593Y41076D01*
X-4491Y41070D01*
X-4389Y41061D01*
X-4287Y41047D01*
X-4186Y41030D01*
X-4086Y41009D01*
X-3987Y40984D01*
X-3889Y40955D01*
X-3792Y40923D01*
X-3696Y40887D01*
X-3602Y40847D01*
X-3509Y40804D01*
X-3418Y40757D01*
X-3329Y40707D01*
X-3241Y40654D01*
X-3156Y40597D01*
X-3073Y40537D01*
X-2993Y40475D01*
X-2914Y40409D01*
X-2839Y40340D01*
X-2766Y40268D01*
X-2695Y40194D01*
X-2628Y40117D01*
X-2564Y40037D01*
X-2502Y39955D01*
X-2444Y39871D01*
X-2389Y39785D01*
X-2337Y39697D01*
X-2289Y39607D01*
X-2244Y39515D01*
X-2203Y39421D01*
X-2165Y39326D01*
X-2131Y39230D01*
X-2100Y39132D01*
X-2073Y39033D01*
X-2050Y38934D01*
X-2031Y38833D01*
X-2016Y38732D01*
X-2004Y38630D01*
X-1996Y38528D01*
X-1992Y38426D01*
X-1992Y38324D01*
X-1996Y38222D01*
X-2004Y38120D01*
X-2016Y38018D01*
X-2031Y37917D01*
X-2050Y37816D01*
X-2073Y37717D01*
X-2100Y37618D01*
X-2131Y37520D01*
X-2165Y37424D01*
X-2203Y37329D01*
X-2244Y37235D01*
X-2289Y37143D01*
X-2337Y37053D01*
X-2389Y36965D01*
X-2444Y36879D01*
X-2502Y36795D01*
X-2564Y36713D01*
X-2628Y36633D01*
X-2695Y36556D01*
X-2766Y36482D01*
X-2839Y36410D01*
X-2914Y36341D01*
X-2993Y36275D01*
X-3073Y36213D01*
X-3156Y36153D01*
X-3241Y36096D01*
X-3329Y36043D01*
X-3418Y35993D01*
X-3509Y35946D01*
X-3602Y35903D01*
X-3696Y35863D01*
X-3792Y35827D01*
X-3889Y35795D01*
X-3987Y35766D01*
X-4086Y35741D01*
X-4186Y35720D01*
X-4287Y35703D01*
X-4389Y35689D01*
X-4491Y35680D01*
X-4593Y35674D01*
X-4695Y35672D01*
X-4695Y35673D02*
X-7398Y35673D01*
X-7398Y45403D01*
X-4695Y45403D01*
X-4695Y45402D02*
X-4603Y45400D01*
X-4512Y45394D01*
X-4420Y45384D01*
X-4330Y45371D01*
X-4240Y45353D01*
X-4150Y45332D01*
X-4062Y45307D01*
X-3975Y45279D01*
X-3889Y45246D01*
X-3804Y45210D01*
X-3722Y45171D01*
X-3641Y45127D01*
X-3561Y45081D01*
X-3484Y45031D01*
X-3409Y44978D01*
X-3337Y44922D01*
X-3267Y44863D01*
X-3199Y44801D01*
X-3134Y44736D01*
X-3072Y44668D01*
X-3013Y44598D01*
X-2957Y44526D01*
X-2904Y44451D01*
X-2854Y44374D01*
X-2808Y44294D01*
X-2764Y44213D01*
X-2725Y44131D01*
X-2689Y44046D01*
X-2656Y43960D01*
X-2628Y43873D01*
X-2603Y43785D01*
X-2582Y43695D01*
X-2564Y43605D01*
X-2551Y43515D01*
X-2541Y43423D01*
X-2535Y43332D01*
X-2533Y43240D01*
X-2535Y43148D01*
X-2541Y43057D01*
X-2551Y42965D01*
X-2564Y42875D01*
X-2582Y42785D01*
X-2603Y42695D01*
X-2628Y42607D01*
X-2656Y42520D01*
X-2689Y42434D01*
X-2725Y42349D01*
X-2764Y42267D01*
X-2808Y42186D01*
X-2854Y42106D01*
X-2904Y42029D01*
X-2957Y41954D01*
X-3013Y41882D01*
X-3072Y41812D01*
X-3134Y41744D01*
X-3199Y41679D01*
X-3267Y41617D01*
X-3337Y41558D01*
X-3409Y41502D01*
X-3484Y41449D01*
X-3561Y41399D01*
X-3641Y41353D01*
X-3722Y41309D01*
X-3804Y41270D01*
X-3889Y41234D01*
X-3975Y41201D01*
X-4062Y41173D01*
X-4150Y41148D01*
X-4240Y41127D01*
X-4330Y41109D01*
X-4420Y41096D01*
X-4512Y41086D01*
X-4603Y41080D01*
X-4695Y41078D01*
X1993Y43240D02*
X4695Y45403D01*
X4695Y35673D01*
X1993Y35673D02*
X7398Y35673D01*
D11*
X275947Y39498D02*
X276032Y39496D01*
X276117Y39490D01*
X276201Y39480D01*
X276285Y39467D01*
X276369Y39449D01*
X276451Y39428D01*
X276532Y39403D01*
X276612Y39374D01*
X276691Y39341D01*
X276768Y39305D01*
X276843Y39265D01*
X276917Y39222D01*
X276988Y39176D01*
X277057Y39126D01*
X277124Y39073D01*
X277188Y39017D01*
X277249Y38958D01*
X277308Y38897D01*
X277364Y38833D01*
X277417Y38766D01*
X277467Y38697D01*
X277513Y38626D01*
X277556Y38552D01*
X277596Y38477D01*
X277632Y38400D01*
X277665Y38321D01*
X277694Y38241D01*
X277719Y38160D01*
X277740Y38078D01*
X277758Y37994D01*
X277771Y37910D01*
X277781Y37826D01*
X277787Y37741D01*
X277789Y37656D01*
X275947Y39497D02*
X275851Y39495D01*
X275755Y39489D01*
X275660Y39479D01*
X275565Y39466D01*
X275470Y39448D01*
X275377Y39427D01*
X275284Y39402D01*
X275193Y39373D01*
X275102Y39341D01*
X275013Y39305D01*
X274926Y39265D01*
X274840Y39222D01*
X274756Y39176D01*
X274674Y39126D01*
X274594Y39072D01*
X274517Y39016D01*
X274442Y38956D01*
X274369Y38894D01*
X274299Y38828D01*
X274231Y38760D01*
X274166Y38689D01*
X274105Y38616D01*
X274046Y38540D01*
X273990Y38461D01*
X273938Y38381D01*
X273889Y38298D01*
X273843Y38214D01*
X273801Y38128D01*
X273763Y38040D01*
X273728Y37951D01*
X273696Y37860D01*
X277175Y36224D02*
X277235Y36283D01*
X277292Y36345D01*
X277347Y36409D01*
X277398Y36476D01*
X277447Y36545D01*
X277493Y36615D01*
X277536Y36688D01*
X277576Y36762D01*
X277612Y36838D01*
X277645Y36916D01*
X277675Y36995D01*
X277702Y37075D01*
X277725Y37156D01*
X277744Y37238D01*
X277760Y37320D01*
X277773Y37404D01*
X277782Y37488D01*
X277787Y37572D01*
X277789Y37656D01*
X277175Y36223D02*
X273696Y32131D01*
X277789Y32131D01*
X281012Y33768D02*
X282648Y39497D01*
X281012Y33768D02*
X285104Y33768D01*
X283876Y35405D02*
X283876Y32131D01*
X301347Y39498D02*
X301432Y39496D01*
X301517Y39490D01*
X301601Y39480D01*
X301685Y39467D01*
X301769Y39449D01*
X301851Y39428D01*
X301932Y39403D01*
X302012Y39374D01*
X302091Y39341D01*
X302168Y39305D01*
X302243Y39265D01*
X302317Y39222D01*
X302388Y39176D01*
X302457Y39126D01*
X302524Y39073D01*
X302588Y39017D01*
X302649Y38958D01*
X302708Y38897D01*
X302764Y38833D01*
X302817Y38766D01*
X302867Y38697D01*
X302913Y38626D01*
X302956Y38552D01*
X302996Y38477D01*
X303032Y38400D01*
X303065Y38321D01*
X303094Y38241D01*
X303119Y38160D01*
X303140Y38078D01*
X303158Y37994D01*
X303171Y37910D01*
X303181Y37826D01*
X303187Y37741D01*
X303189Y37656D01*
X301347Y39497D02*
X301251Y39495D01*
X301155Y39489D01*
X301060Y39479D01*
X300965Y39466D01*
X300870Y39448D01*
X300777Y39427D01*
X300684Y39402D01*
X300593Y39373D01*
X300502Y39341D01*
X300413Y39305D01*
X300326Y39265D01*
X300240Y39222D01*
X300156Y39176D01*
X300074Y39126D01*
X299994Y39072D01*
X299917Y39016D01*
X299842Y38956D01*
X299769Y38894D01*
X299699Y38828D01*
X299631Y38760D01*
X299566Y38689D01*
X299505Y38616D01*
X299446Y38540D01*
X299390Y38461D01*
X299338Y38381D01*
X299289Y38298D01*
X299243Y38214D01*
X299201Y38128D01*
X299163Y38040D01*
X299128Y37951D01*
X299096Y37860D01*
X302575Y36224D02*
X302635Y36283D01*
X302692Y36345D01*
X302747Y36409D01*
X302798Y36476D01*
X302847Y36545D01*
X302893Y36615D01*
X302936Y36688D01*
X302976Y36762D01*
X303012Y36838D01*
X303045Y36916D01*
X303075Y36995D01*
X303102Y37075D01*
X303125Y37156D01*
X303144Y37238D01*
X303160Y37320D01*
X303173Y37404D01*
X303182Y37488D01*
X303187Y37572D01*
X303189Y37656D01*
X302575Y36223D02*
X299096Y32131D01*
X303189Y32131D01*
X306412Y32131D02*
X308867Y32131D01*
X308945Y32133D01*
X309023Y32138D01*
X309100Y32148D01*
X309177Y32161D01*
X309253Y32177D01*
X309328Y32197D01*
X309402Y32221D01*
X309475Y32248D01*
X309547Y32279D01*
X309617Y32313D01*
X309686Y32350D01*
X309752Y32391D01*
X309817Y32435D01*
X309879Y32481D01*
X309939Y32531D01*
X309997Y32583D01*
X310052Y32638D01*
X310104Y32696D01*
X310154Y32756D01*
X310200Y32818D01*
X310244Y32883D01*
X310285Y32950D01*
X310322Y33018D01*
X310356Y33088D01*
X310387Y33160D01*
X310414Y33233D01*
X310438Y33307D01*
X310458Y33382D01*
X310474Y33458D01*
X310487Y33535D01*
X310497Y33612D01*
X310502Y33690D01*
X310504Y33768D01*
X310504Y34586D01*
X310502Y34664D01*
X310497Y34742D01*
X310487Y34819D01*
X310474Y34896D01*
X310458Y34972D01*
X310438Y35047D01*
X310414Y35121D01*
X310387Y35194D01*
X310356Y35266D01*
X310322Y35336D01*
X310285Y35405D01*
X310244Y35471D01*
X310200Y35536D01*
X310154Y35598D01*
X310104Y35658D01*
X310052Y35716D01*
X309997Y35771D01*
X309939Y35823D01*
X309879Y35873D01*
X309817Y35919D01*
X309752Y35963D01*
X309686Y36004D01*
X309617Y36041D01*
X309547Y36075D01*
X309475Y36106D01*
X309402Y36133D01*
X309328Y36157D01*
X309253Y36177D01*
X309177Y36193D01*
X309100Y36206D01*
X309023Y36216D01*
X308945Y36221D01*
X308867Y36223D01*
X306412Y36223D01*
X306412Y39497D01*
X310504Y39497D01*
X326747Y39498D02*
X326832Y39496D01*
X326917Y39490D01*
X327001Y39480D01*
X327085Y39467D01*
X327169Y39449D01*
X327251Y39428D01*
X327332Y39403D01*
X327412Y39374D01*
X327491Y39341D01*
X327568Y39305D01*
X327643Y39265D01*
X327717Y39222D01*
X327788Y39176D01*
X327857Y39126D01*
X327924Y39073D01*
X327988Y39017D01*
X328049Y38958D01*
X328108Y38897D01*
X328164Y38833D01*
X328217Y38766D01*
X328267Y38697D01*
X328313Y38626D01*
X328356Y38552D01*
X328396Y38477D01*
X328432Y38400D01*
X328465Y38321D01*
X328494Y38241D01*
X328519Y38160D01*
X328540Y38078D01*
X328558Y37994D01*
X328571Y37910D01*
X328581Y37826D01*
X328587Y37741D01*
X328589Y37656D01*
X326747Y39497D02*
X326651Y39495D01*
X326555Y39489D01*
X326460Y39479D01*
X326365Y39466D01*
X326270Y39448D01*
X326177Y39427D01*
X326084Y39402D01*
X325993Y39373D01*
X325902Y39341D01*
X325813Y39305D01*
X325726Y39265D01*
X325640Y39222D01*
X325556Y39176D01*
X325474Y39126D01*
X325394Y39072D01*
X325317Y39016D01*
X325242Y38956D01*
X325169Y38894D01*
X325099Y38828D01*
X325031Y38760D01*
X324966Y38689D01*
X324905Y38616D01*
X324846Y38540D01*
X324790Y38461D01*
X324738Y38381D01*
X324689Y38298D01*
X324643Y38214D01*
X324601Y38128D01*
X324563Y38040D01*
X324528Y37951D01*
X324496Y37860D01*
X327975Y36224D02*
X328035Y36283D01*
X328092Y36345D01*
X328147Y36409D01*
X328198Y36476D01*
X328247Y36545D01*
X328293Y36615D01*
X328336Y36688D01*
X328376Y36762D01*
X328412Y36838D01*
X328445Y36916D01*
X328475Y36995D01*
X328502Y37075D01*
X328525Y37156D01*
X328544Y37238D01*
X328560Y37320D01*
X328573Y37404D01*
X328582Y37488D01*
X328587Y37572D01*
X328589Y37656D01*
X327975Y36223D02*
X324496Y32131D01*
X328589Y32131D01*
X331812Y36223D02*
X334267Y36223D01*
X334345Y36221D01*
X334423Y36216D01*
X334500Y36206D01*
X334577Y36193D01*
X334653Y36177D01*
X334728Y36157D01*
X334802Y36133D01*
X334875Y36106D01*
X334947Y36075D01*
X335017Y36041D01*
X335086Y36004D01*
X335152Y35963D01*
X335217Y35919D01*
X335279Y35873D01*
X335339Y35823D01*
X335397Y35771D01*
X335452Y35716D01*
X335504Y35658D01*
X335554Y35598D01*
X335600Y35536D01*
X335644Y35471D01*
X335685Y35405D01*
X335722Y35336D01*
X335756Y35266D01*
X335787Y35194D01*
X335814Y35121D01*
X335838Y35047D01*
X335858Y34972D01*
X335874Y34896D01*
X335887Y34819D01*
X335897Y34742D01*
X335902Y34664D01*
X335904Y34586D01*
X335904Y34177D01*
X335902Y34088D01*
X335896Y33999D01*
X335886Y33910D01*
X335873Y33822D01*
X335856Y33734D01*
X335834Y33647D01*
X335809Y33562D01*
X335781Y33477D01*
X335748Y33394D01*
X335712Y33312D01*
X335673Y33232D01*
X335630Y33154D01*
X335584Y33078D01*
X335534Y33003D01*
X335481Y32931D01*
X335425Y32862D01*
X335366Y32795D01*
X335305Y32730D01*
X335240Y32669D01*
X335173Y32610D01*
X335104Y32554D01*
X335032Y32501D01*
X334957Y32451D01*
X334881Y32405D01*
X334803Y32362D01*
X334723Y32323D01*
X334641Y32287D01*
X334558Y32254D01*
X334473Y32226D01*
X334388Y32201D01*
X334301Y32179D01*
X334213Y32162D01*
X334125Y32149D01*
X334036Y32139D01*
X333947Y32133D01*
X333858Y32131D01*
X333769Y32133D01*
X333680Y32139D01*
X333591Y32149D01*
X333503Y32162D01*
X333415Y32179D01*
X333328Y32201D01*
X333243Y32226D01*
X333158Y32254D01*
X333075Y32287D01*
X332993Y32323D01*
X332913Y32362D01*
X332835Y32405D01*
X332759Y32451D01*
X332684Y32501D01*
X332612Y32554D01*
X332543Y32610D01*
X332476Y32669D01*
X332411Y32730D01*
X332350Y32795D01*
X332291Y32862D01*
X332235Y32931D01*
X332182Y33003D01*
X332132Y33078D01*
X332086Y33154D01*
X332043Y33232D01*
X332004Y33312D01*
X331968Y33394D01*
X331935Y33477D01*
X331907Y33562D01*
X331882Y33647D01*
X331860Y33734D01*
X331843Y33822D01*
X331830Y33910D01*
X331820Y33999D01*
X331814Y34088D01*
X331812Y34177D01*
X331812Y36223D01*
X331811Y36223D02*
X331813Y36337D01*
X331819Y36451D01*
X331829Y36565D01*
X331843Y36679D01*
X331861Y36792D01*
X331883Y36904D01*
X331908Y37015D01*
X331938Y37125D01*
X331971Y37235D01*
X332008Y37343D01*
X332049Y37449D01*
X332094Y37555D01*
X332142Y37658D01*
X332194Y37760D01*
X332250Y37860D01*
X332308Y37958D01*
X332371Y38054D01*
X332436Y38147D01*
X332505Y38239D01*
X332577Y38327D01*
X332652Y38414D01*
X332730Y38497D01*
X332811Y38578D01*
X332894Y38656D01*
X332981Y38731D01*
X333069Y38803D01*
X333161Y38872D01*
X333254Y38937D01*
X333350Y38999D01*
X333448Y39058D01*
X333548Y39114D01*
X333650Y39166D01*
X333753Y39214D01*
X333859Y39259D01*
X333965Y39300D01*
X334073Y39337D01*
X334183Y39370D01*
X334293Y39400D01*
X334404Y39425D01*
X334516Y39447D01*
X334629Y39465D01*
X334743Y39479D01*
X334857Y39489D01*
X334971Y39495D01*
X335085Y39497D01*
X346239Y37860D02*
X348285Y39497D01*
X348285Y32131D01*
X346239Y32131D02*
X350331Y32131D01*
X353554Y32131D02*
X356009Y32131D01*
X356087Y32133D01*
X356165Y32138D01*
X356242Y32148D01*
X356319Y32161D01*
X356395Y32177D01*
X356470Y32197D01*
X356544Y32221D01*
X356617Y32248D01*
X356689Y32279D01*
X356759Y32313D01*
X356828Y32350D01*
X356894Y32391D01*
X356959Y32435D01*
X357021Y32481D01*
X357081Y32531D01*
X357139Y32583D01*
X357194Y32638D01*
X357246Y32696D01*
X357296Y32756D01*
X357342Y32818D01*
X357386Y32883D01*
X357427Y32950D01*
X357464Y33018D01*
X357498Y33088D01*
X357529Y33160D01*
X357556Y33233D01*
X357580Y33307D01*
X357600Y33382D01*
X357616Y33458D01*
X357629Y33535D01*
X357639Y33612D01*
X357644Y33690D01*
X357646Y33768D01*
X357646Y34586D01*
X357644Y34664D01*
X357639Y34742D01*
X357629Y34819D01*
X357616Y34896D01*
X357600Y34972D01*
X357580Y35047D01*
X357556Y35121D01*
X357529Y35194D01*
X357498Y35266D01*
X357464Y35336D01*
X357427Y35405D01*
X357386Y35471D01*
X357342Y35536D01*
X357296Y35598D01*
X357246Y35658D01*
X357194Y35716D01*
X357139Y35771D01*
X357081Y35823D01*
X357021Y35873D01*
X356959Y35919D01*
X356894Y35963D01*
X356828Y36004D01*
X356759Y36041D01*
X356689Y36075D01*
X356617Y36106D01*
X356544Y36133D01*
X356470Y36157D01*
X356395Y36177D01*
X356319Y36193D01*
X356242Y36206D01*
X356165Y36216D01*
X356087Y36221D01*
X356009Y36223D01*
X353554Y36223D01*
X353554Y39497D01*
X357646Y39497D01*
X363120Y39498D02*
X363205Y39496D01*
X363290Y39490D01*
X363374Y39480D01*
X363458Y39467D01*
X363542Y39449D01*
X363624Y39428D01*
X363705Y39403D01*
X363785Y39374D01*
X363864Y39341D01*
X363941Y39305D01*
X364016Y39265D01*
X364090Y39222D01*
X364161Y39176D01*
X364230Y39126D01*
X364297Y39073D01*
X364361Y39017D01*
X364422Y38958D01*
X364481Y38897D01*
X364537Y38833D01*
X364590Y38766D01*
X364640Y38697D01*
X364686Y38626D01*
X364729Y38552D01*
X364769Y38477D01*
X364805Y38400D01*
X364838Y38321D01*
X364867Y38241D01*
X364892Y38160D01*
X364913Y38078D01*
X364931Y37994D01*
X364944Y37910D01*
X364954Y37826D01*
X364960Y37741D01*
X364962Y37656D01*
X363120Y39497D02*
X363024Y39495D01*
X362928Y39489D01*
X362833Y39479D01*
X362738Y39466D01*
X362643Y39448D01*
X362550Y39427D01*
X362457Y39402D01*
X362366Y39373D01*
X362275Y39341D01*
X362186Y39305D01*
X362099Y39265D01*
X362013Y39222D01*
X361929Y39176D01*
X361847Y39126D01*
X361767Y39072D01*
X361690Y39016D01*
X361615Y38956D01*
X361542Y38894D01*
X361472Y38828D01*
X361404Y38760D01*
X361339Y38689D01*
X361278Y38616D01*
X361219Y38540D01*
X361163Y38461D01*
X361111Y38381D01*
X361062Y38298D01*
X361016Y38214D01*
X360974Y38128D01*
X360936Y38040D01*
X360901Y37951D01*
X360869Y37860D01*
X364347Y36224D02*
X364407Y36283D01*
X364464Y36345D01*
X364519Y36409D01*
X364570Y36476D01*
X364619Y36545D01*
X364665Y36615D01*
X364708Y36688D01*
X364748Y36762D01*
X364784Y36838D01*
X364817Y36916D01*
X364847Y36995D01*
X364874Y37075D01*
X364897Y37156D01*
X364916Y37238D01*
X364932Y37320D01*
X364945Y37404D01*
X364954Y37488D01*
X364959Y37572D01*
X364961Y37656D01*
X364348Y36223D02*
X360869Y32131D01*
X364961Y32131D01*
X447839Y37860D02*
X449885Y39497D01*
X449885Y32131D01*
X447839Y32131D02*
X451931Y32131D01*
X455154Y32131D02*
X457609Y32131D01*
X457687Y32133D01*
X457765Y32138D01*
X457842Y32148D01*
X457919Y32161D01*
X457995Y32177D01*
X458070Y32197D01*
X458144Y32221D01*
X458217Y32248D01*
X458289Y32279D01*
X458359Y32313D01*
X458428Y32350D01*
X458494Y32391D01*
X458559Y32435D01*
X458621Y32481D01*
X458681Y32531D01*
X458739Y32583D01*
X458794Y32638D01*
X458846Y32696D01*
X458896Y32756D01*
X458942Y32818D01*
X458986Y32883D01*
X459027Y32950D01*
X459064Y33018D01*
X459098Y33088D01*
X459129Y33160D01*
X459156Y33233D01*
X459180Y33307D01*
X459200Y33382D01*
X459216Y33458D01*
X459229Y33535D01*
X459239Y33612D01*
X459244Y33690D01*
X459246Y33768D01*
X459246Y34586D01*
X459244Y34664D01*
X459239Y34742D01*
X459229Y34819D01*
X459216Y34896D01*
X459200Y34972D01*
X459180Y35047D01*
X459156Y35121D01*
X459129Y35194D01*
X459098Y35266D01*
X459064Y35336D01*
X459027Y35405D01*
X458986Y35471D01*
X458942Y35536D01*
X458896Y35598D01*
X458846Y35658D01*
X458794Y35716D01*
X458739Y35771D01*
X458681Y35823D01*
X458621Y35873D01*
X458559Y35919D01*
X458494Y35963D01*
X458428Y36004D01*
X458359Y36041D01*
X458289Y36075D01*
X458217Y36106D01*
X458144Y36133D01*
X458070Y36157D01*
X457995Y36177D01*
X457919Y36193D01*
X457842Y36206D01*
X457765Y36216D01*
X457687Y36221D01*
X457609Y36223D01*
X455154Y36223D01*
X455154Y39497D01*
X459246Y39497D01*
X462469Y37860D02*
X464515Y39497D01*
X464515Y32131D01*
X462469Y32131D02*
X466561Y32131D01*
X498639Y37860D02*
X500685Y39497D01*
X500685Y32131D01*
X498639Y32131D02*
X502731Y32131D01*
X505954Y32131D02*
X508409Y32131D01*
X508487Y32133D01*
X508565Y32138D01*
X508642Y32148D01*
X508719Y32161D01*
X508795Y32177D01*
X508870Y32197D01*
X508944Y32221D01*
X509017Y32248D01*
X509089Y32279D01*
X509159Y32313D01*
X509228Y32350D01*
X509294Y32391D01*
X509359Y32435D01*
X509421Y32481D01*
X509481Y32531D01*
X509539Y32583D01*
X509594Y32638D01*
X509646Y32696D01*
X509696Y32756D01*
X509742Y32818D01*
X509786Y32883D01*
X509827Y32950D01*
X509864Y33018D01*
X509898Y33088D01*
X509929Y33160D01*
X509956Y33233D01*
X509980Y33307D01*
X510000Y33382D01*
X510016Y33458D01*
X510029Y33535D01*
X510039Y33612D01*
X510044Y33690D01*
X510046Y33768D01*
X510046Y34586D01*
X510044Y34664D01*
X510039Y34742D01*
X510029Y34819D01*
X510016Y34896D01*
X510000Y34972D01*
X509980Y35047D01*
X509956Y35121D01*
X509929Y35194D01*
X509898Y35266D01*
X509864Y35336D01*
X509827Y35405D01*
X509786Y35471D01*
X509742Y35536D01*
X509696Y35598D01*
X509646Y35658D01*
X509594Y35716D01*
X509539Y35771D01*
X509481Y35823D01*
X509421Y35873D01*
X509359Y35919D01*
X509294Y35963D01*
X509228Y36004D01*
X509159Y36041D01*
X509089Y36075D01*
X509017Y36106D01*
X508944Y36133D01*
X508870Y36157D01*
X508795Y36177D01*
X508719Y36193D01*
X508642Y36206D01*
X508565Y36216D01*
X508487Y36221D01*
X508409Y36223D01*
X505954Y36223D01*
X505954Y39497D01*
X510046Y39497D01*
X513269Y34177D02*
X513271Y34266D01*
X513277Y34355D01*
X513287Y34444D01*
X513300Y34532D01*
X513317Y34620D01*
X513339Y34707D01*
X513364Y34792D01*
X513392Y34877D01*
X513425Y34960D01*
X513461Y35042D01*
X513500Y35122D01*
X513543Y35200D01*
X513589Y35276D01*
X513639Y35351D01*
X513692Y35423D01*
X513748Y35492D01*
X513807Y35559D01*
X513868Y35624D01*
X513933Y35685D01*
X514000Y35744D01*
X514069Y35800D01*
X514141Y35853D01*
X514216Y35903D01*
X514292Y35949D01*
X514370Y35992D01*
X514450Y36031D01*
X514532Y36067D01*
X514615Y36100D01*
X514700Y36128D01*
X514785Y36153D01*
X514872Y36175D01*
X514960Y36192D01*
X515048Y36205D01*
X515137Y36215D01*
X515226Y36221D01*
X515315Y36223D01*
X515404Y36221D01*
X515493Y36215D01*
X515582Y36205D01*
X515670Y36192D01*
X515758Y36175D01*
X515845Y36153D01*
X515930Y36128D01*
X516015Y36100D01*
X516098Y36067D01*
X516180Y36031D01*
X516260Y35992D01*
X516338Y35949D01*
X516414Y35903D01*
X516489Y35853D01*
X516561Y35800D01*
X516630Y35744D01*
X516697Y35685D01*
X516762Y35624D01*
X516823Y35559D01*
X516882Y35492D01*
X516938Y35423D01*
X516991Y35351D01*
X517041Y35276D01*
X517087Y35200D01*
X517130Y35122D01*
X517169Y35042D01*
X517205Y34960D01*
X517238Y34877D01*
X517266Y34792D01*
X517291Y34707D01*
X517313Y34620D01*
X517330Y34532D01*
X517343Y34444D01*
X517353Y34355D01*
X517359Y34266D01*
X517361Y34177D01*
X517359Y34088D01*
X517353Y33999D01*
X517343Y33910D01*
X517330Y33822D01*
X517313Y33734D01*
X517291Y33647D01*
X517266Y33562D01*
X517238Y33477D01*
X517205Y33394D01*
X517169Y33312D01*
X517130Y33232D01*
X517087Y33154D01*
X517041Y33078D01*
X516991Y33003D01*
X516938Y32931D01*
X516882Y32862D01*
X516823Y32795D01*
X516762Y32730D01*
X516697Y32669D01*
X516630Y32610D01*
X516561Y32554D01*
X516489Y32501D01*
X516414Y32451D01*
X516338Y32405D01*
X516260Y32362D01*
X516180Y32323D01*
X516098Y32287D01*
X516015Y32254D01*
X515930Y32226D01*
X515845Y32201D01*
X515758Y32179D01*
X515670Y32162D01*
X515582Y32149D01*
X515493Y32139D01*
X515404Y32133D01*
X515315Y32131D01*
X515226Y32133D01*
X515137Y32139D01*
X515048Y32149D01*
X514960Y32162D01*
X514872Y32179D01*
X514785Y32201D01*
X514700Y32226D01*
X514615Y32254D01*
X514532Y32287D01*
X514450Y32323D01*
X514370Y32362D01*
X514292Y32405D01*
X514216Y32451D01*
X514141Y32501D01*
X514069Y32554D01*
X514000Y32610D01*
X513933Y32669D01*
X513868Y32730D01*
X513807Y32795D01*
X513748Y32862D01*
X513692Y32931D01*
X513639Y33003D01*
X513589Y33078D01*
X513543Y33154D01*
X513500Y33232D01*
X513461Y33312D01*
X513425Y33394D01*
X513392Y33477D01*
X513364Y33562D01*
X513339Y33647D01*
X513317Y33734D01*
X513300Y33822D01*
X513287Y33910D01*
X513277Y33999D01*
X513271Y34088D01*
X513269Y34177D01*
X513678Y37860D02*
X513680Y37939D01*
X513686Y38018D01*
X513695Y38097D01*
X513708Y38175D01*
X513726Y38252D01*
X513746Y38328D01*
X513771Y38403D01*
X513799Y38477D01*
X513830Y38550D01*
X513866Y38621D01*
X513904Y38690D01*
X513946Y38757D01*
X513991Y38822D01*
X514039Y38885D01*
X514090Y38946D01*
X514144Y39003D01*
X514200Y39059D01*
X514259Y39111D01*
X514321Y39161D01*
X514385Y39207D01*
X514451Y39251D01*
X514519Y39291D01*
X514589Y39327D01*
X514661Y39361D01*
X514735Y39391D01*
X514809Y39417D01*
X514885Y39440D01*
X514962Y39458D01*
X515039Y39474D01*
X515118Y39485D01*
X515196Y39493D01*
X515275Y39497D01*
X515355Y39497D01*
X515434Y39493D01*
X515512Y39485D01*
X515591Y39474D01*
X515668Y39458D01*
X515745Y39440D01*
X515821Y39417D01*
X515895Y39391D01*
X515969Y39361D01*
X516041Y39327D01*
X516111Y39291D01*
X516179Y39251D01*
X516245Y39207D01*
X516309Y39161D01*
X516371Y39111D01*
X516430Y39059D01*
X516486Y39003D01*
X516540Y38946D01*
X516591Y38885D01*
X516639Y38822D01*
X516684Y38757D01*
X516726Y38690D01*
X516764Y38621D01*
X516800Y38550D01*
X516831Y38477D01*
X516859Y38403D01*
X516884Y38328D01*
X516904Y38252D01*
X516922Y38175D01*
X516935Y38097D01*
X516944Y38018D01*
X516950Y37939D01*
X516952Y37860D01*
X516950Y37781D01*
X516944Y37702D01*
X516935Y37623D01*
X516922Y37545D01*
X516904Y37468D01*
X516884Y37392D01*
X516859Y37317D01*
X516831Y37243D01*
X516800Y37170D01*
X516764Y37099D01*
X516726Y37030D01*
X516684Y36963D01*
X516639Y36898D01*
X516591Y36835D01*
X516540Y36774D01*
X516486Y36717D01*
X516430Y36661D01*
X516371Y36609D01*
X516309Y36559D01*
X516245Y36513D01*
X516179Y36469D01*
X516111Y36429D01*
X516041Y36393D01*
X515969Y36359D01*
X515895Y36329D01*
X515821Y36303D01*
X515745Y36280D01*
X515668Y36262D01*
X515591Y36246D01*
X515512Y36235D01*
X515434Y36227D01*
X515355Y36223D01*
X515275Y36223D01*
X515196Y36227D01*
X515118Y36235D01*
X515039Y36246D01*
X514962Y36262D01*
X514885Y36280D01*
X514809Y36303D01*
X514735Y36329D01*
X514661Y36359D01*
X514589Y36393D01*
X514519Y36429D01*
X514451Y36469D01*
X514385Y36513D01*
X514321Y36559D01*
X514259Y36609D01*
X514200Y36661D01*
X514144Y36717D01*
X514090Y36774D01*
X514039Y36835D01*
X513991Y36898D01*
X513946Y36963D01*
X513904Y37030D01*
X513866Y37099D01*
X513830Y37170D01*
X513799Y37243D01*
X513771Y37317D01*
X513746Y37392D01*
X513726Y37468D01*
X513708Y37545D01*
X513695Y37623D01*
X513686Y37702D01*
X513680Y37781D01*
X513678Y37860D01*
X730896Y33768D02*
X732533Y39497D01*
X730896Y33768D02*
X734989Y33768D01*
X733761Y35405D02*
X733761Y32131D01*
X738212Y32131D02*
X740258Y32131D01*
X740347Y32133D01*
X740436Y32139D01*
X740525Y32149D01*
X740613Y32162D01*
X740701Y32179D01*
X740788Y32201D01*
X740873Y32226D01*
X740958Y32254D01*
X741041Y32287D01*
X741123Y32323D01*
X741203Y32362D01*
X741281Y32405D01*
X741357Y32451D01*
X741432Y32501D01*
X741504Y32554D01*
X741573Y32610D01*
X741640Y32669D01*
X741705Y32730D01*
X741766Y32795D01*
X741825Y32862D01*
X741881Y32931D01*
X741934Y33003D01*
X741984Y33078D01*
X742030Y33154D01*
X742073Y33232D01*
X742112Y33312D01*
X742148Y33394D01*
X742181Y33477D01*
X742209Y33562D01*
X742234Y33647D01*
X742256Y33734D01*
X742273Y33822D01*
X742286Y33910D01*
X742296Y33999D01*
X742302Y34088D01*
X742304Y34177D01*
X742302Y34266D01*
X742296Y34355D01*
X742286Y34444D01*
X742273Y34532D01*
X742256Y34620D01*
X742234Y34707D01*
X742209Y34792D01*
X742181Y34877D01*
X742148Y34960D01*
X742112Y35042D01*
X742073Y35122D01*
X742030Y35200D01*
X741984Y35276D01*
X741934Y35351D01*
X741881Y35423D01*
X741825Y35492D01*
X741766Y35559D01*
X741705Y35624D01*
X741640Y35685D01*
X741573Y35744D01*
X741504Y35800D01*
X741432Y35853D01*
X741357Y35903D01*
X741281Y35949D01*
X741203Y35992D01*
X741123Y36031D01*
X741041Y36067D01*
X740958Y36100D01*
X740873Y36128D01*
X740788Y36153D01*
X740701Y36175D01*
X740613Y36192D01*
X740525Y36205D01*
X740436Y36215D01*
X740347Y36221D01*
X740258Y36223D01*
X740667Y39497D02*
X738212Y39497D01*
X740667Y39497D02*
X740746Y39495D01*
X740825Y39489D01*
X740904Y39480D01*
X740982Y39467D01*
X741059Y39449D01*
X741135Y39429D01*
X741210Y39404D01*
X741284Y39376D01*
X741357Y39345D01*
X741428Y39309D01*
X741497Y39271D01*
X741564Y39229D01*
X741629Y39184D01*
X741692Y39136D01*
X741753Y39085D01*
X741810Y39031D01*
X741866Y38975D01*
X741918Y38916D01*
X741968Y38854D01*
X742014Y38790D01*
X742058Y38724D01*
X742098Y38656D01*
X742134Y38586D01*
X742168Y38514D01*
X742198Y38440D01*
X742224Y38366D01*
X742247Y38290D01*
X742265Y38213D01*
X742281Y38136D01*
X742292Y38057D01*
X742300Y37979D01*
X742304Y37900D01*
X742304Y37820D01*
X742300Y37741D01*
X742292Y37663D01*
X742281Y37584D01*
X742265Y37507D01*
X742247Y37430D01*
X742224Y37354D01*
X742198Y37280D01*
X742168Y37206D01*
X742134Y37134D01*
X742098Y37064D01*
X742058Y36996D01*
X742014Y36930D01*
X741968Y36866D01*
X741918Y36804D01*
X741866Y36745D01*
X741810Y36689D01*
X741753Y36635D01*
X741692Y36584D01*
X741629Y36536D01*
X741564Y36491D01*
X741497Y36449D01*
X741428Y36411D01*
X741357Y36375D01*
X741284Y36344D01*
X741210Y36316D01*
X741135Y36291D01*
X741059Y36271D01*
X740982Y36253D01*
X740904Y36240D01*
X740825Y36231D01*
X740746Y36225D01*
X740667Y36223D01*
X739030Y36223D01*
X781696Y33768D02*
X783333Y39497D01*
X781696Y33768D02*
X785789Y33768D01*
X784561Y35405D02*
X784561Y32131D01*
X791262Y39498D02*
X791347Y39496D01*
X791432Y39490D01*
X791516Y39480D01*
X791600Y39467D01*
X791684Y39449D01*
X791766Y39428D01*
X791847Y39403D01*
X791927Y39374D01*
X792006Y39341D01*
X792083Y39305D01*
X792158Y39265D01*
X792232Y39222D01*
X792303Y39176D01*
X792372Y39126D01*
X792439Y39073D01*
X792503Y39017D01*
X792564Y38958D01*
X792623Y38897D01*
X792679Y38833D01*
X792732Y38766D01*
X792782Y38697D01*
X792828Y38626D01*
X792871Y38552D01*
X792911Y38477D01*
X792947Y38400D01*
X792980Y38321D01*
X793009Y38241D01*
X793034Y38160D01*
X793055Y38078D01*
X793073Y37994D01*
X793086Y37910D01*
X793096Y37826D01*
X793102Y37741D01*
X793104Y37656D01*
X791262Y39497D02*
X791166Y39495D01*
X791070Y39489D01*
X790975Y39479D01*
X790880Y39466D01*
X790785Y39448D01*
X790692Y39427D01*
X790599Y39402D01*
X790508Y39373D01*
X790417Y39341D01*
X790328Y39305D01*
X790241Y39265D01*
X790155Y39222D01*
X790071Y39176D01*
X789989Y39126D01*
X789909Y39072D01*
X789832Y39016D01*
X789757Y38956D01*
X789684Y38894D01*
X789614Y38828D01*
X789546Y38760D01*
X789481Y38689D01*
X789420Y38616D01*
X789361Y38540D01*
X789305Y38461D01*
X789253Y38381D01*
X789204Y38298D01*
X789158Y38214D01*
X789116Y38128D01*
X789078Y38040D01*
X789043Y37951D01*
X789011Y37860D01*
X792490Y36224D02*
X792550Y36283D01*
X792607Y36345D01*
X792662Y36409D01*
X792713Y36476D01*
X792762Y36545D01*
X792808Y36615D01*
X792851Y36688D01*
X792891Y36762D01*
X792927Y36838D01*
X792960Y36916D01*
X792990Y36995D01*
X793017Y37075D01*
X793040Y37156D01*
X793059Y37238D01*
X793075Y37320D01*
X793088Y37404D01*
X793097Y37488D01*
X793102Y37572D01*
X793104Y37656D01*
X792490Y36223D02*
X789012Y32131D01*
X793104Y32131D01*
M02*
