G04 EAGLE Gerber RS-274X export*
G75*
%MOMM*%
%FSLAX34Y34*%
%LPD*%
%INBottom Copper*%
%IPPOS*%
%AMOC8*
5,1,8,0,0,1.08239X$1,22.5*%
G01*
%ADD10C,0.228600*%
%ADD11C,1.800000*%
%ADD12C,0.304800*%
%ADD13C,0.254000*%


D10*
X171101Y38220D02*
X160687Y41691D01*
X171101Y45163D01*
X168787Y50229D02*
X171101Y53121D01*
X160687Y53121D01*
X160687Y50229D02*
X160687Y56014D01*
X160687Y60833D02*
X161265Y60833D01*
X161265Y61412D01*
X160687Y61412D01*
X160687Y60833D01*
X168787Y66231D02*
X171101Y69123D01*
X160687Y69123D01*
X160687Y66231D02*
X160687Y72016D01*
X171101Y86939D02*
X171099Y87039D01*
X171093Y87138D01*
X171084Y87238D01*
X171070Y87336D01*
X171053Y87435D01*
X171033Y87532D01*
X171008Y87629D01*
X170980Y87725D01*
X170948Y87819D01*
X170912Y87912D01*
X170873Y88004D01*
X170831Y88094D01*
X170785Y88183D01*
X170735Y88270D01*
X170683Y88354D01*
X170627Y88437D01*
X170568Y88518D01*
X170506Y88596D01*
X170441Y88672D01*
X170373Y88745D01*
X170303Y88815D01*
X170230Y88883D01*
X170154Y88948D01*
X170076Y89010D01*
X169995Y89069D01*
X169912Y89125D01*
X169828Y89177D01*
X169741Y89227D01*
X169652Y89273D01*
X169562Y89315D01*
X169470Y89354D01*
X169377Y89390D01*
X169283Y89422D01*
X169187Y89450D01*
X169090Y89475D01*
X168993Y89495D01*
X168894Y89512D01*
X168796Y89526D01*
X168696Y89535D01*
X168597Y89541D01*
X168497Y89543D01*
X171101Y86939D02*
X171099Y86825D01*
X171093Y86712D01*
X171084Y86599D01*
X171070Y86486D01*
X171053Y86373D01*
X171032Y86262D01*
X171007Y86151D01*
X170978Y86041D01*
X170946Y85932D01*
X170910Y85824D01*
X170870Y85717D01*
X170827Y85612D01*
X170780Y85509D01*
X170729Y85407D01*
X170676Y85307D01*
X170618Y85208D01*
X170558Y85112D01*
X170494Y85018D01*
X170427Y84926D01*
X170357Y84836D01*
X170284Y84749D01*
X170209Y84664D01*
X170130Y84582D01*
X170048Y84503D01*
X169964Y84427D01*
X169878Y84353D01*
X169789Y84282D01*
X169697Y84215D01*
X169603Y84150D01*
X169508Y84089D01*
X169410Y84031D01*
X169310Y83977D01*
X169208Y83926D01*
X169105Y83878D01*
X169000Y83834D01*
X168894Y83794D01*
X168787Y83757D01*
X166472Y88675D02*
X166544Y88748D01*
X166619Y88819D01*
X166697Y88886D01*
X166777Y88951D01*
X166859Y89013D01*
X166943Y89072D01*
X167030Y89127D01*
X167119Y89180D01*
X167209Y89229D01*
X167301Y89275D01*
X167395Y89317D01*
X167491Y89356D01*
X167587Y89391D01*
X167685Y89423D01*
X167784Y89451D01*
X167884Y89475D01*
X167985Y89496D01*
X168087Y89513D01*
X168189Y89526D01*
X168291Y89535D01*
X168394Y89541D01*
X168497Y89543D01*
X166472Y88674D02*
X160687Y83757D01*
X160687Y89542D01*
X165894Y95186D02*
X166099Y95188D01*
X166304Y95196D01*
X166508Y95208D01*
X166712Y95225D01*
X166916Y95247D01*
X167119Y95274D01*
X167322Y95306D01*
X167523Y95342D01*
X167724Y95383D01*
X167923Y95429D01*
X168122Y95480D01*
X168319Y95536D01*
X168515Y95596D01*
X168709Y95661D01*
X168902Y95730D01*
X169093Y95804D01*
X169282Y95883D01*
X169469Y95966D01*
X169655Y96054D01*
X169654Y96054D02*
X169740Y96085D01*
X169825Y96120D01*
X169908Y96159D01*
X169989Y96202D01*
X170068Y96247D01*
X170146Y96296D01*
X170221Y96349D01*
X170294Y96404D01*
X170364Y96463D01*
X170432Y96524D01*
X170497Y96589D01*
X170559Y96656D01*
X170619Y96725D01*
X170675Y96798D01*
X170728Y96872D01*
X170778Y96949D01*
X170825Y97028D01*
X170868Y97108D01*
X170908Y97191D01*
X170944Y97275D01*
X170977Y97361D01*
X171006Y97447D01*
X171031Y97536D01*
X171052Y97625D01*
X171070Y97714D01*
X171083Y97805D01*
X171093Y97896D01*
X171099Y97987D01*
X171101Y98079D01*
X171099Y98171D01*
X171093Y98262D01*
X171083Y98353D01*
X171070Y98444D01*
X171052Y98533D01*
X171031Y98622D01*
X171006Y98711D01*
X170977Y98797D01*
X170944Y98883D01*
X170908Y98967D01*
X170868Y99050D01*
X170825Y99130D01*
X170778Y99209D01*
X170728Y99286D01*
X170675Y99360D01*
X170619Y99433D01*
X170559Y99502D01*
X170497Y99569D01*
X170432Y99634D01*
X170364Y99695D01*
X170294Y99754D01*
X170221Y99809D01*
X170146Y99862D01*
X170068Y99911D01*
X169989Y99956D01*
X169908Y99999D01*
X169825Y100038D01*
X169740Y100073D01*
X169654Y100104D01*
X169655Y100104D02*
X169469Y100192D01*
X169282Y100275D01*
X169093Y100354D01*
X168902Y100428D01*
X168709Y100497D01*
X168515Y100562D01*
X168319Y100622D01*
X168122Y100678D01*
X167923Y100729D01*
X167724Y100775D01*
X167523Y100816D01*
X167322Y100852D01*
X167119Y100884D01*
X166916Y100911D01*
X166712Y100933D01*
X166508Y100950D01*
X166304Y100962D01*
X166099Y100970D01*
X165894Y100972D01*
X165894Y95187D02*
X165689Y95189D01*
X165484Y95197D01*
X165280Y95209D01*
X165076Y95226D01*
X164872Y95248D01*
X164669Y95275D01*
X164467Y95307D01*
X164265Y95343D01*
X164064Y95384D01*
X163865Y95430D01*
X163666Y95481D01*
X163469Y95537D01*
X163273Y95597D01*
X163079Y95662D01*
X162886Y95731D01*
X162695Y95805D01*
X162506Y95884D01*
X162319Y95967D01*
X162133Y96055D01*
X162133Y96054D02*
X162047Y96085D01*
X161962Y96120D01*
X161879Y96159D01*
X161798Y96202D01*
X161719Y96247D01*
X161641Y96296D01*
X161566Y96349D01*
X161493Y96404D01*
X161423Y96463D01*
X161355Y96524D01*
X161290Y96589D01*
X161228Y96656D01*
X161168Y96725D01*
X161112Y96798D01*
X161059Y96872D01*
X161009Y96949D01*
X160962Y97028D01*
X160919Y97108D01*
X160879Y97191D01*
X160843Y97275D01*
X160810Y97361D01*
X160781Y97447D01*
X160756Y97536D01*
X160735Y97625D01*
X160717Y97714D01*
X160704Y97805D01*
X160694Y97896D01*
X160688Y97987D01*
X160686Y98079D01*
X162133Y100104D02*
X162319Y100192D01*
X162506Y100275D01*
X162695Y100354D01*
X162886Y100428D01*
X163079Y100497D01*
X163273Y100562D01*
X163469Y100622D01*
X163666Y100678D01*
X163865Y100729D01*
X164064Y100775D01*
X164265Y100816D01*
X164467Y100852D01*
X164669Y100884D01*
X164872Y100911D01*
X165076Y100933D01*
X165280Y100950D01*
X165484Y100962D01*
X165689Y100970D01*
X165894Y100972D01*
X162133Y100104D02*
X162047Y100073D01*
X161962Y100038D01*
X161879Y99999D01*
X161798Y99956D01*
X161719Y99911D01*
X161641Y99862D01*
X161566Y99809D01*
X161493Y99754D01*
X161423Y99695D01*
X161355Y99634D01*
X161290Y99569D01*
X161228Y99502D01*
X161168Y99433D01*
X161112Y99360D01*
X161059Y99286D01*
X161009Y99209D01*
X160962Y99130D01*
X160919Y99050D01*
X160879Y98967D01*
X160843Y98883D01*
X160810Y98797D01*
X160781Y98711D01*
X160756Y98622D01*
X160735Y98533D01*
X160717Y98444D01*
X160704Y98353D01*
X160694Y98262D01*
X160688Y98171D01*
X160686Y98079D01*
X163001Y95765D02*
X168787Y100394D01*
X159530Y106052D02*
X172258Y110680D01*
X169655Y116628D02*
X169469Y116540D01*
X169282Y116457D01*
X169093Y116378D01*
X168902Y116304D01*
X168709Y116235D01*
X168515Y116170D01*
X168319Y116110D01*
X168122Y116054D01*
X167923Y116003D01*
X167724Y115957D01*
X167523Y115916D01*
X167322Y115880D01*
X167119Y115848D01*
X166916Y115821D01*
X166712Y115799D01*
X166508Y115782D01*
X166304Y115770D01*
X166099Y115762D01*
X165894Y115760D01*
X169654Y116628D02*
X169740Y116659D01*
X169825Y116694D01*
X169908Y116733D01*
X169989Y116776D01*
X170068Y116821D01*
X170146Y116870D01*
X170221Y116923D01*
X170294Y116978D01*
X170364Y117037D01*
X170432Y117098D01*
X170497Y117163D01*
X170559Y117230D01*
X170619Y117299D01*
X170675Y117372D01*
X170728Y117446D01*
X170778Y117523D01*
X170825Y117602D01*
X170868Y117682D01*
X170908Y117765D01*
X170944Y117849D01*
X170977Y117935D01*
X171006Y118021D01*
X171031Y118110D01*
X171052Y118199D01*
X171070Y118288D01*
X171083Y118379D01*
X171093Y118470D01*
X171099Y118561D01*
X171101Y118653D01*
X171099Y118745D01*
X171093Y118836D01*
X171083Y118927D01*
X171070Y119018D01*
X171052Y119107D01*
X171031Y119196D01*
X171006Y119285D01*
X170977Y119371D01*
X170944Y119457D01*
X170908Y119541D01*
X170868Y119624D01*
X170825Y119704D01*
X170778Y119783D01*
X170728Y119860D01*
X170675Y119934D01*
X170619Y120007D01*
X170559Y120076D01*
X170497Y120143D01*
X170432Y120208D01*
X170364Y120269D01*
X170294Y120328D01*
X170221Y120383D01*
X170146Y120436D01*
X170068Y120485D01*
X169989Y120530D01*
X169908Y120573D01*
X169825Y120612D01*
X169740Y120647D01*
X169654Y120678D01*
X169655Y120678D02*
X169469Y120766D01*
X169282Y120849D01*
X169093Y120928D01*
X168902Y121002D01*
X168709Y121071D01*
X168515Y121136D01*
X168319Y121196D01*
X168122Y121252D01*
X167923Y121303D01*
X167724Y121349D01*
X167523Y121390D01*
X167322Y121426D01*
X167119Y121458D01*
X166916Y121485D01*
X166712Y121507D01*
X166508Y121524D01*
X166304Y121536D01*
X166099Y121544D01*
X165894Y121546D01*
X165894Y115761D02*
X165689Y115763D01*
X165484Y115771D01*
X165280Y115783D01*
X165076Y115800D01*
X164872Y115822D01*
X164669Y115849D01*
X164467Y115881D01*
X164265Y115917D01*
X164064Y115958D01*
X163865Y116004D01*
X163666Y116055D01*
X163469Y116111D01*
X163273Y116171D01*
X163079Y116236D01*
X162886Y116305D01*
X162695Y116379D01*
X162506Y116458D01*
X162319Y116541D01*
X162133Y116629D01*
X162133Y116628D02*
X162047Y116659D01*
X161962Y116694D01*
X161879Y116733D01*
X161798Y116776D01*
X161719Y116821D01*
X161641Y116870D01*
X161566Y116923D01*
X161493Y116978D01*
X161423Y117037D01*
X161355Y117098D01*
X161290Y117163D01*
X161228Y117230D01*
X161168Y117299D01*
X161112Y117372D01*
X161059Y117446D01*
X161009Y117523D01*
X160962Y117602D01*
X160919Y117682D01*
X160879Y117765D01*
X160843Y117849D01*
X160810Y117935D01*
X160781Y118021D01*
X160756Y118110D01*
X160735Y118199D01*
X160717Y118288D01*
X160704Y118379D01*
X160694Y118470D01*
X160688Y118561D01*
X160686Y118653D01*
X162133Y120678D02*
X162319Y120766D01*
X162506Y120849D01*
X162695Y120928D01*
X162886Y121002D01*
X163079Y121071D01*
X163273Y121136D01*
X163469Y121196D01*
X163666Y121252D01*
X163865Y121303D01*
X164064Y121349D01*
X164265Y121390D01*
X164467Y121426D01*
X164669Y121458D01*
X164872Y121485D01*
X165076Y121507D01*
X165280Y121524D01*
X165484Y121536D01*
X165689Y121544D01*
X165894Y121546D01*
X162133Y120678D02*
X162047Y120647D01*
X161962Y120612D01*
X161879Y120573D01*
X161798Y120530D01*
X161719Y120485D01*
X161641Y120436D01*
X161566Y120383D01*
X161493Y120328D01*
X161423Y120269D01*
X161355Y120208D01*
X161290Y120143D01*
X161228Y120076D01*
X161168Y120007D01*
X161112Y119934D01*
X161059Y119860D01*
X161009Y119783D01*
X160962Y119704D01*
X160919Y119624D01*
X160879Y119541D01*
X160843Y119457D01*
X160810Y119371D01*
X160781Y119285D01*
X160756Y119196D01*
X160735Y119107D01*
X160717Y119018D01*
X160704Y118927D01*
X160694Y118836D01*
X160688Y118745D01*
X160686Y118653D01*
X163001Y116339D02*
X168787Y120967D01*
X163580Y127190D02*
X163687Y127192D01*
X163794Y127198D01*
X163900Y127208D01*
X164006Y127222D01*
X164112Y127239D01*
X164216Y127261D01*
X164320Y127286D01*
X164423Y127316D01*
X164525Y127349D01*
X164625Y127385D01*
X164724Y127426D01*
X164821Y127470D01*
X164917Y127518D01*
X165011Y127569D01*
X165103Y127623D01*
X165193Y127681D01*
X165280Y127743D01*
X165366Y127807D01*
X165449Y127874D01*
X165529Y127945D01*
X165607Y128019D01*
X165682Y128095D01*
X165754Y128174D01*
X165823Y128255D01*
X165889Y128340D01*
X165952Y128426D01*
X166011Y128515D01*
X166067Y128606D01*
X166120Y128699D01*
X166170Y128793D01*
X166216Y128890D01*
X166258Y128988D01*
X166296Y129088D01*
X166331Y129189D01*
X166363Y129291D01*
X166390Y129395D01*
X166413Y129499D01*
X166433Y129604D01*
X166449Y129710D01*
X166461Y129816D01*
X166469Y129923D01*
X166473Y130030D01*
X166473Y130136D01*
X166469Y130243D01*
X166461Y130350D01*
X166449Y130456D01*
X166433Y130562D01*
X166413Y130667D01*
X166390Y130771D01*
X166363Y130875D01*
X166331Y130977D01*
X166296Y131078D01*
X166258Y131178D01*
X166216Y131276D01*
X166170Y131373D01*
X166120Y131467D01*
X166067Y131560D01*
X166011Y131651D01*
X165952Y131740D01*
X165889Y131826D01*
X165823Y131911D01*
X165754Y131992D01*
X165682Y132071D01*
X165607Y132147D01*
X165529Y132221D01*
X165449Y132292D01*
X165366Y132359D01*
X165280Y132423D01*
X165193Y132485D01*
X165103Y132543D01*
X165011Y132597D01*
X164917Y132648D01*
X164821Y132696D01*
X164724Y132740D01*
X164625Y132781D01*
X164525Y132817D01*
X164423Y132850D01*
X164320Y132880D01*
X164216Y132905D01*
X164112Y132927D01*
X164006Y132944D01*
X163900Y132958D01*
X163794Y132968D01*
X163687Y132974D01*
X163580Y132976D01*
X163473Y132974D01*
X163366Y132968D01*
X163260Y132958D01*
X163154Y132944D01*
X163048Y132927D01*
X162944Y132905D01*
X162840Y132880D01*
X162737Y132850D01*
X162635Y132817D01*
X162535Y132781D01*
X162436Y132740D01*
X162339Y132696D01*
X162243Y132648D01*
X162149Y132597D01*
X162057Y132543D01*
X161967Y132485D01*
X161880Y132423D01*
X161794Y132359D01*
X161711Y132292D01*
X161631Y132221D01*
X161553Y132147D01*
X161478Y132071D01*
X161406Y131992D01*
X161337Y131911D01*
X161271Y131826D01*
X161208Y131740D01*
X161149Y131651D01*
X161093Y131560D01*
X161040Y131467D01*
X160990Y131373D01*
X160944Y131276D01*
X160902Y131178D01*
X160864Y131078D01*
X160829Y130977D01*
X160797Y130875D01*
X160770Y130771D01*
X160747Y130667D01*
X160727Y130562D01*
X160711Y130456D01*
X160699Y130350D01*
X160691Y130243D01*
X160687Y130136D01*
X160687Y130030D01*
X160691Y129923D01*
X160699Y129816D01*
X160711Y129710D01*
X160727Y129604D01*
X160747Y129499D01*
X160770Y129395D01*
X160797Y129291D01*
X160829Y129189D01*
X160864Y129088D01*
X160902Y128988D01*
X160944Y128890D01*
X160990Y128793D01*
X161040Y128699D01*
X161093Y128606D01*
X161149Y128515D01*
X161208Y128426D01*
X161271Y128340D01*
X161337Y128255D01*
X161406Y128174D01*
X161478Y128095D01*
X161553Y128019D01*
X161631Y127945D01*
X161711Y127874D01*
X161794Y127807D01*
X161880Y127743D01*
X161967Y127681D01*
X162057Y127623D01*
X162149Y127569D01*
X162243Y127518D01*
X162339Y127470D01*
X162436Y127426D01*
X162535Y127385D01*
X162635Y127349D01*
X162737Y127316D01*
X162840Y127286D01*
X162944Y127261D01*
X163048Y127239D01*
X163154Y127222D01*
X163260Y127208D01*
X163366Y127198D01*
X163473Y127192D01*
X163580Y127190D01*
X168787Y127769D02*
X168881Y127771D01*
X168976Y127777D01*
X169070Y127786D01*
X169163Y127800D01*
X169256Y127817D01*
X169348Y127838D01*
X169439Y127863D01*
X169529Y127891D01*
X169618Y127923D01*
X169705Y127959D01*
X169791Y127998D01*
X169875Y128041D01*
X169958Y128087D01*
X170038Y128136D01*
X170116Y128189D01*
X170193Y128245D01*
X170266Y128304D01*
X170338Y128365D01*
X170406Y128430D01*
X170473Y128498D01*
X170536Y128568D01*
X170596Y128640D01*
X170654Y128715D01*
X170708Y128793D01*
X170759Y128872D01*
X170807Y128953D01*
X170851Y129037D01*
X170892Y129122D01*
X170929Y129208D01*
X170963Y129296D01*
X170994Y129386D01*
X171020Y129476D01*
X171043Y129568D01*
X171062Y129661D01*
X171077Y129754D01*
X171089Y129847D01*
X171097Y129941D01*
X171101Y130036D01*
X171101Y130130D01*
X171097Y130225D01*
X171089Y130319D01*
X171077Y130412D01*
X171062Y130505D01*
X171043Y130598D01*
X171020Y130690D01*
X170994Y130780D01*
X170963Y130870D01*
X170929Y130958D01*
X170892Y131044D01*
X170851Y131129D01*
X170807Y131213D01*
X170759Y131294D01*
X170708Y131373D01*
X170654Y131451D01*
X170596Y131526D01*
X170536Y131598D01*
X170473Y131668D01*
X170406Y131736D01*
X170338Y131801D01*
X170266Y131862D01*
X170193Y131921D01*
X170116Y131977D01*
X170038Y132030D01*
X169958Y132079D01*
X169875Y132125D01*
X169791Y132168D01*
X169705Y132207D01*
X169618Y132243D01*
X169529Y132275D01*
X169439Y132303D01*
X169348Y132328D01*
X169256Y132349D01*
X169163Y132366D01*
X169070Y132380D01*
X168976Y132389D01*
X168881Y132395D01*
X168787Y132397D01*
X168693Y132395D01*
X168598Y132389D01*
X168504Y132380D01*
X168411Y132366D01*
X168318Y132349D01*
X168226Y132328D01*
X168135Y132303D01*
X168045Y132275D01*
X167956Y132243D01*
X167869Y132207D01*
X167783Y132168D01*
X167699Y132125D01*
X167616Y132079D01*
X167536Y132030D01*
X167458Y131977D01*
X167381Y131921D01*
X167308Y131862D01*
X167236Y131801D01*
X167168Y131736D01*
X167101Y131668D01*
X167038Y131598D01*
X166978Y131526D01*
X166920Y131451D01*
X166866Y131373D01*
X166815Y131294D01*
X166767Y131213D01*
X166723Y131129D01*
X166682Y131044D01*
X166645Y130958D01*
X166611Y130870D01*
X166580Y130780D01*
X166554Y130690D01*
X166531Y130598D01*
X166512Y130505D01*
X166497Y130412D01*
X166485Y130319D01*
X166477Y130225D01*
X166473Y130130D01*
X166473Y130036D01*
X166477Y129941D01*
X166485Y129847D01*
X166497Y129754D01*
X166512Y129661D01*
X166531Y129568D01*
X166554Y129476D01*
X166580Y129386D01*
X166611Y129296D01*
X166645Y129208D01*
X166682Y129122D01*
X166723Y129037D01*
X166767Y128953D01*
X166815Y128872D01*
X166866Y128793D01*
X166920Y128715D01*
X166978Y128640D01*
X167038Y128568D01*
X167101Y128498D01*
X167168Y128430D01*
X167236Y128365D01*
X167308Y128304D01*
X167381Y128245D01*
X167458Y128189D01*
X167536Y128136D01*
X167616Y128087D01*
X167699Y128041D01*
X167783Y127998D01*
X167869Y127959D01*
X167956Y127923D01*
X168045Y127891D01*
X168135Y127863D01*
X168226Y127838D01*
X168318Y127817D01*
X168411Y127800D01*
X168504Y127786D01*
X168598Y127777D01*
X168693Y127771D01*
X168787Y127769D01*
X159530Y138056D02*
X172258Y142684D01*
X171101Y150946D02*
X171099Y151046D01*
X171093Y151145D01*
X171084Y151245D01*
X171070Y151343D01*
X171053Y151442D01*
X171033Y151539D01*
X171008Y151636D01*
X170980Y151732D01*
X170948Y151826D01*
X170912Y151919D01*
X170873Y152011D01*
X170831Y152101D01*
X170785Y152190D01*
X170735Y152277D01*
X170683Y152361D01*
X170627Y152444D01*
X170568Y152525D01*
X170506Y152603D01*
X170441Y152679D01*
X170373Y152752D01*
X170303Y152822D01*
X170230Y152890D01*
X170154Y152955D01*
X170076Y153017D01*
X169995Y153076D01*
X169912Y153132D01*
X169828Y153184D01*
X169741Y153234D01*
X169652Y153280D01*
X169562Y153322D01*
X169470Y153361D01*
X169377Y153397D01*
X169283Y153429D01*
X169187Y153457D01*
X169090Y153482D01*
X168993Y153502D01*
X168894Y153519D01*
X168796Y153533D01*
X168696Y153542D01*
X168597Y153548D01*
X168497Y153550D01*
X171101Y150946D02*
X171099Y150832D01*
X171093Y150719D01*
X171084Y150606D01*
X171070Y150493D01*
X171053Y150380D01*
X171032Y150269D01*
X171007Y150158D01*
X170978Y150048D01*
X170946Y149939D01*
X170910Y149831D01*
X170870Y149724D01*
X170827Y149619D01*
X170780Y149516D01*
X170729Y149414D01*
X170676Y149314D01*
X170618Y149215D01*
X170558Y149119D01*
X170494Y149025D01*
X170427Y148933D01*
X170357Y148843D01*
X170284Y148756D01*
X170209Y148671D01*
X170130Y148589D01*
X170048Y148510D01*
X169964Y148434D01*
X169878Y148360D01*
X169789Y148289D01*
X169697Y148222D01*
X169603Y148157D01*
X169508Y148096D01*
X169410Y148038D01*
X169310Y147984D01*
X169208Y147933D01*
X169105Y147885D01*
X169000Y147841D01*
X168894Y147801D01*
X168787Y147764D01*
X166472Y152682D02*
X166544Y152755D01*
X166619Y152826D01*
X166697Y152893D01*
X166777Y152958D01*
X166859Y153020D01*
X166943Y153079D01*
X167030Y153134D01*
X167119Y153187D01*
X167209Y153236D01*
X167301Y153282D01*
X167395Y153324D01*
X167491Y153363D01*
X167587Y153398D01*
X167685Y153430D01*
X167784Y153458D01*
X167884Y153482D01*
X167985Y153503D01*
X168087Y153520D01*
X168189Y153533D01*
X168291Y153542D01*
X168394Y153548D01*
X168497Y153550D01*
X166472Y152682D02*
X160687Y147764D01*
X160687Y153550D01*
X160687Y159194D02*
X160687Y162087D01*
X160689Y162194D01*
X160695Y162301D01*
X160705Y162407D01*
X160719Y162513D01*
X160736Y162619D01*
X160758Y162723D01*
X160783Y162827D01*
X160813Y162930D01*
X160846Y163032D01*
X160882Y163132D01*
X160923Y163231D01*
X160967Y163328D01*
X161015Y163424D01*
X161066Y163518D01*
X161120Y163610D01*
X161178Y163700D01*
X161240Y163787D01*
X161304Y163873D01*
X161371Y163956D01*
X161442Y164036D01*
X161516Y164114D01*
X161592Y164189D01*
X161671Y164261D01*
X161752Y164330D01*
X161837Y164396D01*
X161923Y164459D01*
X162012Y164518D01*
X162103Y164574D01*
X162196Y164627D01*
X162290Y164677D01*
X162387Y164723D01*
X162485Y164765D01*
X162585Y164803D01*
X162686Y164838D01*
X162788Y164870D01*
X162892Y164897D01*
X162996Y164920D01*
X163101Y164940D01*
X163207Y164956D01*
X163313Y164968D01*
X163420Y164976D01*
X163527Y164980D01*
X163633Y164980D01*
X163740Y164976D01*
X163847Y164968D01*
X163953Y164956D01*
X164059Y164940D01*
X164164Y164920D01*
X164268Y164897D01*
X164372Y164870D01*
X164474Y164838D01*
X164575Y164803D01*
X164675Y164765D01*
X164773Y164723D01*
X164870Y164677D01*
X164964Y164627D01*
X165057Y164574D01*
X165148Y164518D01*
X165237Y164459D01*
X165323Y164396D01*
X165408Y164330D01*
X165489Y164261D01*
X165568Y164189D01*
X165644Y164114D01*
X165718Y164036D01*
X165789Y163956D01*
X165856Y163873D01*
X165920Y163787D01*
X165982Y163700D01*
X166040Y163610D01*
X166094Y163518D01*
X166145Y163424D01*
X166193Y163328D01*
X166237Y163231D01*
X166278Y163132D01*
X166314Y163032D01*
X166347Y162930D01*
X166377Y162827D01*
X166402Y162723D01*
X166424Y162619D01*
X166441Y162513D01*
X166455Y162407D01*
X166465Y162301D01*
X166471Y162194D01*
X166473Y162087D01*
X171101Y162666D02*
X171101Y159194D01*
X171101Y162666D02*
X171099Y162760D01*
X171093Y162855D01*
X171084Y162949D01*
X171070Y163042D01*
X171053Y163135D01*
X171032Y163227D01*
X171007Y163318D01*
X170979Y163408D01*
X170947Y163497D01*
X170911Y163584D01*
X170872Y163670D01*
X170829Y163754D01*
X170783Y163837D01*
X170734Y163917D01*
X170681Y163995D01*
X170625Y164072D01*
X170566Y164145D01*
X170505Y164217D01*
X170440Y164285D01*
X170372Y164352D01*
X170302Y164415D01*
X170230Y164475D01*
X170155Y164533D01*
X170077Y164587D01*
X169998Y164638D01*
X169917Y164686D01*
X169833Y164730D01*
X169748Y164771D01*
X169662Y164808D01*
X169574Y164842D01*
X169484Y164873D01*
X169394Y164899D01*
X169302Y164922D01*
X169209Y164941D01*
X169116Y164956D01*
X169023Y164968D01*
X168929Y164976D01*
X168834Y164980D01*
X168740Y164980D01*
X168645Y164976D01*
X168551Y164968D01*
X168458Y164956D01*
X168365Y164941D01*
X168272Y164922D01*
X168180Y164899D01*
X168090Y164873D01*
X168000Y164842D01*
X167912Y164808D01*
X167826Y164771D01*
X167741Y164730D01*
X167657Y164686D01*
X167576Y164638D01*
X167497Y164587D01*
X167419Y164533D01*
X167344Y164475D01*
X167272Y164415D01*
X167202Y164352D01*
X167134Y164285D01*
X167069Y164217D01*
X167008Y164145D01*
X166949Y164072D01*
X166893Y163995D01*
X166840Y163917D01*
X166791Y163837D01*
X166745Y163754D01*
X166702Y163670D01*
X166663Y163584D01*
X166627Y163497D01*
X166595Y163408D01*
X166567Y163318D01*
X166542Y163227D01*
X166521Y163135D01*
X166504Y163042D01*
X166490Y162949D01*
X166481Y162855D01*
X166475Y162760D01*
X166473Y162666D01*
X166472Y162666D02*
X166472Y160351D01*
D11*
X25400Y228600D03*
X406400Y228600D03*
D12*
X39688Y214313D02*
X25400Y228600D01*
X50800Y209550D02*
X381000Y209550D01*
X381376Y209555D01*
X381752Y209568D01*
X382128Y209592D01*
X382503Y209624D01*
X382877Y209665D01*
X383249Y209716D01*
X383621Y209776D01*
X383991Y209845D01*
X384359Y209922D01*
X384725Y210009D01*
X385089Y210105D01*
X385450Y210210D01*
X385809Y210324D01*
X386165Y210446D01*
X386517Y210577D01*
X386867Y210717D01*
X387212Y210865D01*
X387554Y211022D01*
X387893Y211187D01*
X388227Y211360D01*
X388556Y211542D01*
X388881Y211731D01*
X389202Y211928D01*
X389517Y212134D01*
X389827Y212346D01*
X390132Y212567D01*
X390431Y212795D01*
X390725Y213030D01*
X391013Y213272D01*
X391295Y213521D01*
X391571Y213777D01*
X391840Y214040D01*
X406400Y228600D01*
X50800Y209550D02*
X50435Y209554D01*
X50071Y209567D01*
X49706Y209589D01*
X49343Y209619D01*
X48980Y209658D01*
X48618Y209706D01*
X48258Y209762D01*
X47899Y209827D01*
X47541Y209900D01*
X47186Y209982D01*
X46832Y210072D01*
X46481Y210171D01*
X46132Y210278D01*
X45786Y210393D01*
X45443Y210517D01*
X45102Y210648D01*
X44765Y210788D01*
X44432Y210935D01*
X44102Y211091D01*
X43775Y211254D01*
X43453Y211425D01*
X43135Y211604D01*
X42821Y211790D01*
X42512Y211984D01*
X42207Y212184D01*
X41908Y212393D01*
X41613Y212608D01*
X41324Y212830D01*
X41040Y213059D01*
X40761Y213294D01*
X40488Y213537D01*
X40221Y213785D01*
X39960Y214040D01*
X39688Y214313D01*
D13*
X39687Y214312D02*
X39211Y214926D01*
X38750Y215551D01*
X38303Y216186D01*
X37872Y216832D01*
X37456Y217488D01*
X37056Y218154D01*
X36672Y218829D01*
X36305Y219513D01*
X35953Y220205D01*
X35618Y220906D01*
X35300Y221614D01*
X34999Y222330D01*
X34715Y223053D01*
X34448Y223782D01*
X34199Y224518D01*
X33967Y225259D01*
X33753Y226005D01*
X33557Y226757D01*
X33379Y227513D01*
X33218Y228273D01*
X33076Y229036D01*
X32952Y229803D01*
X32953Y229803D02*
X24197Y221047D01*
X24197Y221048D02*
X24964Y220924D01*
X25727Y220782D01*
X26487Y220621D01*
X27243Y220443D01*
X27995Y220247D01*
X28741Y220033D01*
X29482Y219801D01*
X30218Y219552D01*
X30947Y219285D01*
X31670Y219001D01*
X32386Y218700D01*
X33094Y218382D01*
X33795Y218047D01*
X34487Y217695D01*
X35171Y217328D01*
X35846Y216944D01*
X36512Y216544D01*
X37168Y216128D01*
X37814Y215697D01*
X38449Y215250D01*
X39074Y214789D01*
X39688Y214313D01*
X30163Y219869D02*
X34131Y223838D01*
X392113Y214312D02*
X392589Y214926D01*
X393050Y215551D01*
X393497Y216186D01*
X393928Y216832D01*
X394344Y217488D01*
X394744Y218154D01*
X395128Y218829D01*
X395495Y219513D01*
X395847Y220205D01*
X396182Y220906D01*
X396500Y221614D01*
X396801Y222330D01*
X397085Y223053D01*
X397352Y223782D01*
X397601Y224518D01*
X397833Y225259D01*
X398047Y226005D01*
X398243Y226757D01*
X398421Y227513D01*
X398582Y228273D01*
X398724Y229036D01*
X398848Y229803D01*
X398847Y229803D02*
X407603Y221047D01*
X407603Y221048D02*
X406836Y220924D01*
X406073Y220782D01*
X405313Y220621D01*
X404557Y220443D01*
X403805Y220247D01*
X403059Y220033D01*
X402318Y219801D01*
X401582Y219552D01*
X400853Y219285D01*
X400130Y219001D01*
X399414Y218700D01*
X398706Y218382D01*
X398005Y218047D01*
X397313Y217695D01*
X396629Y217328D01*
X395954Y216944D01*
X395288Y216544D01*
X394632Y216128D01*
X393986Y215697D01*
X393351Y215250D01*
X392726Y214789D01*
X392112Y214313D01*
X397669Y223838D02*
X401638Y219869D01*
D11*
X165894Y3175D03*
X203200Y228600D03*
M02*
