G04 EAGLE Gerber RS-274X export*
G75*
%MOMM*%
%FSLAX34Y34*%
%LPD*%
%IN*%
%IPPOS*%
%AMOC8*
5,1,8,0,0,1.08239X$1,22.5*%
G01*
%ADD10C,0.254000*%


D10*
X7938Y190500D02*
X7986Y189393D01*
X8130Y188295D01*
X8370Y187213D01*
X8703Y186156D01*
X9127Y185133D01*
X9639Y184150D01*
X10234Y183216D01*
X10909Y182337D01*
X11657Y181520D01*
X12474Y180771D01*
X13353Y180097D01*
X14288Y179501D01*
X15270Y178990D01*
X16294Y178566D01*
X17351Y178233D01*
X18432Y177993D01*
X19531Y177848D01*
X20638Y177800D01*
X127794Y177800D01*
X128901Y177752D01*
X129999Y177607D01*
X131081Y177367D01*
X132137Y177034D01*
X133161Y176610D01*
X134144Y176099D01*
X135078Y175503D01*
X135957Y174829D01*
X136774Y174080D01*
X137523Y173263D01*
X138197Y172384D01*
X138792Y171450D01*
X139304Y170467D01*
X139728Y169444D01*
X140061Y168387D01*
X140301Y167305D01*
X140445Y166207D01*
X140494Y165100D01*
X140494Y15875D01*
X140542Y14768D01*
X140687Y13670D01*
X140927Y12588D01*
X141260Y11531D01*
X141684Y10508D01*
X142195Y9525D01*
X142791Y8591D01*
X143465Y7712D01*
X144214Y6895D01*
X145030Y6146D01*
X145909Y5472D01*
X146844Y4876D01*
X147827Y4365D01*
X148850Y3941D01*
X149907Y3608D01*
X150988Y3368D01*
X152087Y3223D01*
X153194Y3175D01*
X178594Y3175D01*
X179701Y3223D01*
X180799Y3368D01*
X181881Y3608D01*
X182937Y3941D01*
X183961Y4365D01*
X184944Y4876D01*
X185878Y5472D01*
X186757Y6146D01*
X187574Y6895D01*
X188323Y7712D01*
X188997Y8591D01*
X189592Y9525D01*
X190104Y10508D01*
X190528Y11531D01*
X190861Y12588D01*
X191101Y13670D01*
X191245Y14768D01*
X191294Y15875D01*
X191294Y165100D01*
X191342Y166207D01*
X191487Y167305D01*
X191727Y168387D01*
X192060Y169444D01*
X192484Y170467D01*
X192995Y171450D01*
X193591Y172384D01*
X194265Y173263D01*
X195014Y174080D01*
X195830Y174829D01*
X196709Y175503D01*
X197644Y176099D01*
X198627Y176610D01*
X199650Y177034D01*
X200707Y177367D01*
X201788Y177607D01*
X202887Y177752D01*
X203994Y177800D01*
X411163Y177800D01*
X412269Y177848D01*
X413368Y177993D01*
X414450Y178233D01*
X415506Y178566D01*
X416530Y178990D01*
X417513Y179501D01*
X418447Y180097D01*
X419326Y180771D01*
X420143Y181520D01*
X420891Y182337D01*
X421566Y183216D01*
X422161Y184150D01*
X422673Y185133D01*
X423097Y186156D01*
X423430Y187213D01*
X423670Y188295D01*
X423814Y189393D01*
X423863Y190500D01*
X423863Y228600D01*
X7938Y228600D01*
X7938Y190500D01*
X56800Y228263D02*
X56725Y227593D01*
X56575Y226936D01*
X56352Y226300D01*
X56060Y225693D01*
X55701Y225123D01*
X55281Y224596D01*
X54804Y224119D01*
X54278Y223699D01*
X53707Y223340D01*
X53100Y223048D01*
X52464Y222825D01*
X51807Y222675D01*
X51137Y222600D01*
X50463Y222600D01*
X49793Y222675D01*
X49136Y222825D01*
X48500Y223048D01*
X47893Y223340D01*
X47323Y223699D01*
X46796Y224119D01*
X46319Y224596D01*
X45899Y225123D01*
X45540Y225693D01*
X45248Y226300D01*
X45025Y226936D01*
X44875Y227593D01*
X44800Y228263D01*
X44800Y228937D01*
X44875Y229607D01*
X45025Y230264D01*
X45248Y230900D01*
X45540Y231507D01*
X45899Y232078D01*
X46319Y232604D01*
X46796Y233081D01*
X47323Y233501D01*
X47893Y233860D01*
X48500Y234152D01*
X49136Y234375D01*
X49793Y234525D01*
X50463Y234600D01*
X51137Y234600D01*
X51807Y234525D01*
X52464Y234375D01*
X53100Y234152D01*
X53707Y233860D01*
X54278Y233501D01*
X54804Y233081D01*
X55281Y232604D01*
X55701Y232078D01*
X56060Y231507D01*
X56352Y230900D01*
X56575Y230264D01*
X56725Y229607D01*
X56800Y228937D01*
X56800Y228263D01*
X82200Y228263D02*
X82125Y227593D01*
X81975Y226936D01*
X81752Y226300D01*
X81460Y225693D01*
X81101Y225123D01*
X80681Y224596D01*
X80204Y224119D01*
X79678Y223699D01*
X79107Y223340D01*
X78500Y223048D01*
X77864Y222825D01*
X77207Y222675D01*
X76537Y222600D01*
X75863Y222600D01*
X75193Y222675D01*
X74536Y222825D01*
X73900Y223048D01*
X73293Y223340D01*
X72723Y223699D01*
X72196Y224119D01*
X71719Y224596D01*
X71299Y225123D01*
X70940Y225693D01*
X70648Y226300D01*
X70425Y226936D01*
X70275Y227593D01*
X70200Y228263D01*
X70200Y228937D01*
X70275Y229607D01*
X70425Y230264D01*
X70648Y230900D01*
X70940Y231507D01*
X71299Y232078D01*
X71719Y232604D01*
X72196Y233081D01*
X72723Y233501D01*
X73293Y233860D01*
X73900Y234152D01*
X74536Y234375D01*
X75193Y234525D01*
X75863Y234600D01*
X76537Y234600D01*
X77207Y234525D01*
X77864Y234375D01*
X78500Y234152D01*
X79107Y233860D01*
X79678Y233501D01*
X80204Y233081D01*
X80681Y232604D01*
X81101Y232078D01*
X81460Y231507D01*
X81752Y230900D01*
X81975Y230264D01*
X82125Y229607D01*
X82200Y228937D01*
X82200Y228263D01*
X107600Y228263D02*
X107525Y227593D01*
X107375Y226936D01*
X107152Y226300D01*
X106860Y225693D01*
X106501Y225123D01*
X106081Y224596D01*
X105604Y224119D01*
X105078Y223699D01*
X104507Y223340D01*
X103900Y223048D01*
X103264Y222825D01*
X102607Y222675D01*
X101937Y222600D01*
X101263Y222600D01*
X100593Y222675D01*
X99936Y222825D01*
X99300Y223048D01*
X98693Y223340D01*
X98123Y223699D01*
X97596Y224119D01*
X97119Y224596D01*
X96699Y225123D01*
X96340Y225693D01*
X96048Y226300D01*
X95825Y226936D01*
X95675Y227593D01*
X95600Y228263D01*
X95600Y228937D01*
X95675Y229607D01*
X95825Y230264D01*
X96048Y230900D01*
X96340Y231507D01*
X96699Y232078D01*
X97119Y232604D01*
X97596Y233081D01*
X98123Y233501D01*
X98693Y233860D01*
X99300Y234152D01*
X99936Y234375D01*
X100593Y234525D01*
X101263Y234600D01*
X101937Y234600D01*
X102607Y234525D01*
X103264Y234375D01*
X103900Y234152D01*
X104507Y233860D01*
X105078Y233501D01*
X105604Y233081D01*
X106081Y232604D01*
X106501Y232078D01*
X106860Y231507D01*
X107152Y230900D01*
X107375Y230264D01*
X107525Y229607D01*
X107600Y228937D01*
X107600Y228263D01*
X133000Y228263D02*
X132925Y227593D01*
X132775Y226936D01*
X132552Y226300D01*
X132260Y225693D01*
X131901Y225123D01*
X131481Y224596D01*
X131004Y224119D01*
X130478Y223699D01*
X129907Y223340D01*
X129300Y223048D01*
X128664Y222825D01*
X128007Y222675D01*
X127337Y222600D01*
X126663Y222600D01*
X125993Y222675D01*
X125336Y222825D01*
X124700Y223048D01*
X124093Y223340D01*
X123523Y223699D01*
X122996Y224119D01*
X122519Y224596D01*
X122099Y225123D01*
X121740Y225693D01*
X121448Y226300D01*
X121225Y226936D01*
X121075Y227593D01*
X121000Y228263D01*
X121000Y228937D01*
X121075Y229607D01*
X121225Y230264D01*
X121448Y230900D01*
X121740Y231507D01*
X122099Y232078D01*
X122519Y232604D01*
X122996Y233081D01*
X123523Y233501D01*
X124093Y233860D01*
X124700Y234152D01*
X125336Y234375D01*
X125993Y234525D01*
X126663Y234600D01*
X127337Y234600D01*
X128007Y234525D01*
X128664Y234375D01*
X129300Y234152D01*
X129907Y233860D01*
X130478Y233501D01*
X131004Y233081D01*
X131481Y232604D01*
X131901Y232078D01*
X132260Y231507D01*
X132552Y230900D01*
X132775Y230264D01*
X132925Y229607D01*
X133000Y228937D01*
X133000Y228263D01*
X158400Y228263D02*
X158325Y227593D01*
X158175Y226936D01*
X157952Y226300D01*
X157660Y225693D01*
X157301Y225123D01*
X156881Y224596D01*
X156404Y224119D01*
X155878Y223699D01*
X155307Y223340D01*
X154700Y223048D01*
X154064Y222825D01*
X153407Y222675D01*
X152737Y222600D01*
X152063Y222600D01*
X151393Y222675D01*
X150736Y222825D01*
X150100Y223048D01*
X149493Y223340D01*
X148923Y223699D01*
X148396Y224119D01*
X147919Y224596D01*
X147499Y225123D01*
X147140Y225693D01*
X146848Y226300D01*
X146625Y226936D01*
X146475Y227593D01*
X146400Y228263D01*
X146400Y228937D01*
X146475Y229607D01*
X146625Y230264D01*
X146848Y230900D01*
X147140Y231507D01*
X147499Y232078D01*
X147919Y232604D01*
X148396Y233081D01*
X148923Y233501D01*
X149493Y233860D01*
X150100Y234152D01*
X150736Y234375D01*
X151393Y234525D01*
X152063Y234600D01*
X152737Y234600D01*
X153407Y234525D01*
X154064Y234375D01*
X154700Y234152D01*
X155307Y233860D01*
X155878Y233501D01*
X156404Y233081D01*
X156881Y232604D01*
X157301Y232078D01*
X157660Y231507D01*
X157952Y230900D01*
X158175Y230264D01*
X158325Y229607D01*
X158400Y228937D01*
X158400Y228263D01*
X183800Y228263D02*
X183725Y227593D01*
X183575Y226936D01*
X183352Y226300D01*
X183060Y225693D01*
X182701Y225123D01*
X182281Y224596D01*
X181804Y224119D01*
X181278Y223699D01*
X180707Y223340D01*
X180100Y223048D01*
X179464Y222825D01*
X178807Y222675D01*
X178137Y222600D01*
X177463Y222600D01*
X176793Y222675D01*
X176136Y222825D01*
X175500Y223048D01*
X174893Y223340D01*
X174323Y223699D01*
X173796Y224119D01*
X173319Y224596D01*
X172899Y225123D01*
X172540Y225693D01*
X172248Y226300D01*
X172025Y226936D01*
X171875Y227593D01*
X171800Y228263D01*
X171800Y228937D01*
X171875Y229607D01*
X172025Y230264D01*
X172248Y230900D01*
X172540Y231507D01*
X172899Y232078D01*
X173319Y232604D01*
X173796Y233081D01*
X174323Y233501D01*
X174893Y233860D01*
X175500Y234152D01*
X176136Y234375D01*
X176793Y234525D01*
X177463Y234600D01*
X178137Y234600D01*
X178807Y234525D01*
X179464Y234375D01*
X180100Y234152D01*
X180707Y233860D01*
X181278Y233501D01*
X181804Y233081D01*
X182281Y232604D01*
X182701Y232078D01*
X183060Y231507D01*
X183352Y230900D01*
X183575Y230264D01*
X183725Y229607D01*
X183800Y228937D01*
X183800Y228263D01*
X234600Y228263D02*
X234525Y227593D01*
X234375Y226936D01*
X234152Y226300D01*
X233860Y225693D01*
X233501Y225123D01*
X233081Y224596D01*
X232604Y224119D01*
X232078Y223699D01*
X231507Y223340D01*
X230900Y223048D01*
X230264Y222825D01*
X229607Y222675D01*
X228937Y222600D01*
X228263Y222600D01*
X227593Y222675D01*
X226936Y222825D01*
X226300Y223048D01*
X225693Y223340D01*
X225123Y223699D01*
X224596Y224119D01*
X224119Y224596D01*
X223699Y225123D01*
X223340Y225693D01*
X223048Y226300D01*
X222825Y226936D01*
X222675Y227593D01*
X222600Y228263D01*
X222600Y228937D01*
X222675Y229607D01*
X222825Y230264D01*
X223048Y230900D01*
X223340Y231507D01*
X223699Y232078D01*
X224119Y232604D01*
X224596Y233081D01*
X225123Y233501D01*
X225693Y233860D01*
X226300Y234152D01*
X226936Y234375D01*
X227593Y234525D01*
X228263Y234600D01*
X228937Y234600D01*
X229607Y234525D01*
X230264Y234375D01*
X230900Y234152D01*
X231507Y233860D01*
X232078Y233501D01*
X232604Y233081D01*
X233081Y232604D01*
X233501Y232078D01*
X233860Y231507D01*
X234152Y230900D01*
X234375Y230264D01*
X234525Y229607D01*
X234600Y228937D01*
X234600Y228263D01*
X260000Y228263D02*
X259925Y227593D01*
X259775Y226936D01*
X259552Y226300D01*
X259260Y225693D01*
X258901Y225123D01*
X258481Y224596D01*
X258004Y224119D01*
X257478Y223699D01*
X256907Y223340D01*
X256300Y223048D01*
X255664Y222825D01*
X255007Y222675D01*
X254337Y222600D01*
X253663Y222600D01*
X252993Y222675D01*
X252336Y222825D01*
X251700Y223048D01*
X251093Y223340D01*
X250523Y223699D01*
X249996Y224119D01*
X249519Y224596D01*
X249099Y225123D01*
X248740Y225693D01*
X248448Y226300D01*
X248225Y226936D01*
X248075Y227593D01*
X248000Y228263D01*
X248000Y228937D01*
X248075Y229607D01*
X248225Y230264D01*
X248448Y230900D01*
X248740Y231507D01*
X249099Y232078D01*
X249519Y232604D01*
X249996Y233081D01*
X250523Y233501D01*
X251093Y233860D01*
X251700Y234152D01*
X252336Y234375D01*
X252993Y234525D01*
X253663Y234600D01*
X254337Y234600D01*
X255007Y234525D01*
X255664Y234375D01*
X256300Y234152D01*
X256907Y233860D01*
X257478Y233501D01*
X258004Y233081D01*
X258481Y232604D01*
X258901Y232078D01*
X259260Y231507D01*
X259552Y230900D01*
X259775Y230264D01*
X259925Y229607D01*
X260000Y228937D01*
X260000Y228263D01*
X285400Y228263D02*
X285325Y227593D01*
X285175Y226936D01*
X284952Y226300D01*
X284660Y225693D01*
X284301Y225123D01*
X283881Y224596D01*
X283404Y224119D01*
X282878Y223699D01*
X282307Y223340D01*
X281700Y223048D01*
X281064Y222825D01*
X280407Y222675D01*
X279737Y222600D01*
X279063Y222600D01*
X278393Y222675D01*
X277736Y222825D01*
X277100Y223048D01*
X276493Y223340D01*
X275923Y223699D01*
X275396Y224119D01*
X274919Y224596D01*
X274499Y225123D01*
X274140Y225693D01*
X273848Y226300D01*
X273625Y226936D01*
X273475Y227593D01*
X273400Y228263D01*
X273400Y228937D01*
X273475Y229607D01*
X273625Y230264D01*
X273848Y230900D01*
X274140Y231507D01*
X274499Y232078D01*
X274919Y232604D01*
X275396Y233081D01*
X275923Y233501D01*
X276493Y233860D01*
X277100Y234152D01*
X277736Y234375D01*
X278393Y234525D01*
X279063Y234600D01*
X279737Y234600D01*
X280407Y234525D01*
X281064Y234375D01*
X281700Y234152D01*
X282307Y233860D01*
X282878Y233501D01*
X283404Y233081D01*
X283881Y232604D01*
X284301Y232078D01*
X284660Y231507D01*
X284952Y230900D01*
X285175Y230264D01*
X285325Y229607D01*
X285400Y228937D01*
X285400Y228263D01*
X310800Y228263D02*
X310725Y227593D01*
X310575Y226936D01*
X310352Y226300D01*
X310060Y225693D01*
X309701Y225123D01*
X309281Y224596D01*
X308804Y224119D01*
X308278Y223699D01*
X307707Y223340D01*
X307100Y223048D01*
X306464Y222825D01*
X305807Y222675D01*
X305137Y222600D01*
X304463Y222600D01*
X303793Y222675D01*
X303136Y222825D01*
X302500Y223048D01*
X301893Y223340D01*
X301323Y223699D01*
X300796Y224119D01*
X300319Y224596D01*
X299899Y225123D01*
X299540Y225693D01*
X299248Y226300D01*
X299025Y226936D01*
X298875Y227593D01*
X298800Y228263D01*
X298800Y228937D01*
X298875Y229607D01*
X299025Y230264D01*
X299248Y230900D01*
X299540Y231507D01*
X299899Y232078D01*
X300319Y232604D01*
X300796Y233081D01*
X301323Y233501D01*
X301893Y233860D01*
X302500Y234152D01*
X303136Y234375D01*
X303793Y234525D01*
X304463Y234600D01*
X305137Y234600D01*
X305807Y234525D01*
X306464Y234375D01*
X307100Y234152D01*
X307707Y233860D01*
X308278Y233501D01*
X308804Y233081D01*
X309281Y232604D01*
X309701Y232078D01*
X310060Y231507D01*
X310352Y230900D01*
X310575Y230264D01*
X310725Y229607D01*
X310800Y228937D01*
X310800Y228263D01*
X336200Y228263D02*
X336125Y227593D01*
X335975Y226936D01*
X335752Y226300D01*
X335460Y225693D01*
X335101Y225123D01*
X334681Y224596D01*
X334204Y224119D01*
X333678Y223699D01*
X333107Y223340D01*
X332500Y223048D01*
X331864Y222825D01*
X331207Y222675D01*
X330537Y222600D01*
X329863Y222600D01*
X329193Y222675D01*
X328536Y222825D01*
X327900Y223048D01*
X327293Y223340D01*
X326723Y223699D01*
X326196Y224119D01*
X325719Y224596D01*
X325299Y225123D01*
X324940Y225693D01*
X324648Y226300D01*
X324425Y226936D01*
X324275Y227593D01*
X324200Y228263D01*
X324200Y228937D01*
X324275Y229607D01*
X324425Y230264D01*
X324648Y230900D01*
X324940Y231507D01*
X325299Y232078D01*
X325719Y232604D01*
X326196Y233081D01*
X326723Y233501D01*
X327293Y233860D01*
X327900Y234152D01*
X328536Y234375D01*
X329193Y234525D01*
X329863Y234600D01*
X330537Y234600D01*
X331207Y234525D01*
X331864Y234375D01*
X332500Y234152D01*
X333107Y233860D01*
X333678Y233501D01*
X334204Y233081D01*
X334681Y232604D01*
X335101Y232078D01*
X335460Y231507D01*
X335752Y230900D01*
X335975Y230264D01*
X336125Y229607D01*
X336200Y228937D01*
X336200Y228263D01*
X361600Y228263D02*
X361525Y227593D01*
X361375Y226936D01*
X361152Y226300D01*
X360860Y225693D01*
X360501Y225123D01*
X360081Y224596D01*
X359604Y224119D01*
X359078Y223699D01*
X358507Y223340D01*
X357900Y223048D01*
X357264Y222825D01*
X356607Y222675D01*
X355937Y222600D01*
X355263Y222600D01*
X354593Y222675D01*
X353936Y222825D01*
X353300Y223048D01*
X352693Y223340D01*
X352123Y223699D01*
X351596Y224119D01*
X351119Y224596D01*
X350699Y225123D01*
X350340Y225693D01*
X350048Y226300D01*
X349825Y226936D01*
X349675Y227593D01*
X349600Y228263D01*
X349600Y228937D01*
X349675Y229607D01*
X349825Y230264D01*
X350048Y230900D01*
X350340Y231507D01*
X350699Y232078D01*
X351119Y232604D01*
X351596Y233081D01*
X352123Y233501D01*
X352693Y233860D01*
X353300Y234152D01*
X353936Y234375D01*
X354593Y234525D01*
X355263Y234600D01*
X355937Y234600D01*
X356607Y234525D01*
X357264Y234375D01*
X357900Y234152D01*
X358507Y233860D01*
X359078Y233501D01*
X359604Y233081D01*
X360081Y232604D01*
X360501Y232078D01*
X360860Y231507D01*
X361152Y230900D01*
X361375Y230264D01*
X361525Y229607D01*
X361600Y228937D01*
X361600Y228263D01*
X387000Y228263D02*
X386925Y227593D01*
X386775Y226936D01*
X386552Y226300D01*
X386260Y225693D01*
X385901Y225123D01*
X385481Y224596D01*
X385004Y224119D01*
X384478Y223699D01*
X383907Y223340D01*
X383300Y223048D01*
X382664Y222825D01*
X382007Y222675D01*
X381337Y222600D01*
X380663Y222600D01*
X379993Y222675D01*
X379336Y222825D01*
X378700Y223048D01*
X378093Y223340D01*
X377523Y223699D01*
X376996Y224119D01*
X376519Y224596D01*
X376099Y225123D01*
X375740Y225693D01*
X375448Y226300D01*
X375225Y226936D01*
X375075Y227593D01*
X375000Y228263D01*
X375000Y228937D01*
X375075Y229607D01*
X375225Y230264D01*
X375448Y230900D01*
X375740Y231507D01*
X376099Y232078D01*
X376519Y232604D01*
X376996Y233081D01*
X377523Y233501D01*
X378093Y233860D01*
X378700Y234152D01*
X379336Y234375D01*
X379993Y234525D01*
X380663Y234600D01*
X381337Y234600D01*
X382007Y234525D01*
X382664Y234375D01*
X383300Y234152D01*
X383907Y233860D01*
X384478Y233501D01*
X385004Y233081D01*
X385481Y232604D01*
X385901Y232078D01*
X386260Y231507D01*
X386552Y230900D01*
X386775Y230264D01*
X386925Y229607D01*
X387000Y228937D01*
X387000Y228263D01*
M02*
