G04 EAGLE Gerber RS-274X export*
G75*
%MOMM*%
%FSLAX34Y34*%
%LPD*%
%INSilkscreen Top*%
%IPPOS*%
%AMOC8*
5,1,8,0,0,1.08239X$1,22.5*%
G01*
%ADD10C,0.076200*%


D10*
X397219Y213833D02*
X399266Y213833D01*
X399355Y213831D01*
X399444Y213825D01*
X399533Y213815D01*
X399621Y213802D01*
X399709Y213785D01*
X399796Y213763D01*
X399881Y213738D01*
X399966Y213710D01*
X400049Y213677D01*
X400131Y213641D01*
X400211Y213602D01*
X400289Y213559D01*
X400365Y213513D01*
X400440Y213463D01*
X400512Y213410D01*
X400581Y213354D01*
X400648Y213295D01*
X400713Y213234D01*
X400774Y213169D01*
X400833Y213102D01*
X400889Y213033D01*
X400942Y212961D01*
X400992Y212886D01*
X401038Y212810D01*
X401081Y212732D01*
X401120Y212652D01*
X401156Y212570D01*
X401189Y212487D01*
X401217Y212402D01*
X401242Y212317D01*
X401264Y212230D01*
X401281Y212142D01*
X401294Y212054D01*
X401304Y211965D01*
X401310Y211876D01*
X401312Y211787D01*
X401310Y211698D01*
X401304Y211609D01*
X401294Y211520D01*
X401281Y211432D01*
X401264Y211344D01*
X401242Y211257D01*
X401217Y211172D01*
X401189Y211087D01*
X401156Y211004D01*
X401120Y210922D01*
X401081Y210842D01*
X401038Y210764D01*
X400992Y210688D01*
X400942Y210613D01*
X400889Y210541D01*
X400833Y210472D01*
X400774Y210405D01*
X400713Y210340D01*
X400648Y210279D01*
X400581Y210220D01*
X400512Y210164D01*
X400440Y210111D01*
X400365Y210061D01*
X400289Y210015D01*
X400211Y209972D01*
X400131Y209933D01*
X400049Y209897D01*
X399966Y209864D01*
X399881Y209836D01*
X399796Y209811D01*
X399709Y209789D01*
X399621Y209772D01*
X399533Y209759D01*
X399444Y209749D01*
X399355Y209743D01*
X399266Y209741D01*
X397219Y209741D01*
X397219Y217107D01*
X399266Y217107D01*
X399345Y217105D01*
X399424Y217099D01*
X399503Y217090D01*
X399581Y217077D01*
X399658Y217059D01*
X399734Y217039D01*
X399809Y217014D01*
X399883Y216986D01*
X399956Y216955D01*
X400027Y216919D01*
X400096Y216881D01*
X400163Y216839D01*
X400228Y216794D01*
X400291Y216746D01*
X400352Y216695D01*
X400409Y216641D01*
X400465Y216585D01*
X400517Y216526D01*
X400567Y216464D01*
X400613Y216400D01*
X400657Y216334D01*
X400697Y216266D01*
X400733Y216196D01*
X400767Y216124D01*
X400797Y216050D01*
X400823Y215976D01*
X400846Y215900D01*
X400864Y215823D01*
X400880Y215746D01*
X400891Y215667D01*
X400899Y215589D01*
X400903Y215510D01*
X400903Y215430D01*
X400899Y215351D01*
X400891Y215273D01*
X400880Y215194D01*
X400864Y215117D01*
X400846Y215040D01*
X400823Y214964D01*
X400797Y214890D01*
X400767Y214816D01*
X400733Y214744D01*
X400697Y214674D01*
X400657Y214606D01*
X400613Y214540D01*
X400567Y214476D01*
X400517Y214414D01*
X400465Y214355D01*
X400409Y214299D01*
X400352Y214245D01*
X400291Y214194D01*
X400228Y214146D01*
X400163Y214101D01*
X400096Y214059D01*
X400027Y214021D01*
X399956Y213985D01*
X399883Y213954D01*
X399809Y213926D01*
X399734Y213901D01*
X399658Y213881D01*
X399581Y213863D01*
X399503Y213850D01*
X399424Y213841D01*
X399345Y213835D01*
X399266Y213833D01*
X404173Y215470D02*
X406219Y217107D01*
X406219Y209741D01*
X404173Y209741D02*
X408265Y209741D01*
X411488Y215470D02*
X413534Y217107D01*
X413534Y209741D01*
X411488Y209741D02*
X415581Y209741D01*
X196066Y213833D02*
X194019Y213833D01*
X196066Y213833D02*
X196155Y213831D01*
X196244Y213825D01*
X196333Y213815D01*
X196421Y213802D01*
X196509Y213785D01*
X196596Y213763D01*
X196681Y213738D01*
X196766Y213710D01*
X196849Y213677D01*
X196931Y213641D01*
X197011Y213602D01*
X197089Y213559D01*
X197165Y213513D01*
X197240Y213463D01*
X197312Y213410D01*
X197381Y213354D01*
X197448Y213295D01*
X197513Y213234D01*
X197574Y213169D01*
X197633Y213102D01*
X197689Y213033D01*
X197742Y212961D01*
X197792Y212886D01*
X197838Y212810D01*
X197881Y212732D01*
X197920Y212652D01*
X197956Y212570D01*
X197989Y212487D01*
X198017Y212402D01*
X198042Y212317D01*
X198064Y212230D01*
X198081Y212142D01*
X198094Y212054D01*
X198104Y211965D01*
X198110Y211876D01*
X198112Y211787D01*
X198110Y211698D01*
X198104Y211609D01*
X198094Y211520D01*
X198081Y211432D01*
X198064Y211344D01*
X198042Y211257D01*
X198017Y211172D01*
X197989Y211087D01*
X197956Y211004D01*
X197920Y210922D01*
X197881Y210842D01*
X197838Y210764D01*
X197792Y210688D01*
X197742Y210613D01*
X197689Y210541D01*
X197633Y210472D01*
X197574Y210405D01*
X197513Y210340D01*
X197448Y210279D01*
X197381Y210220D01*
X197312Y210164D01*
X197240Y210111D01*
X197165Y210061D01*
X197089Y210015D01*
X197011Y209972D01*
X196931Y209933D01*
X196849Y209897D01*
X196766Y209864D01*
X196681Y209836D01*
X196596Y209811D01*
X196509Y209789D01*
X196421Y209772D01*
X196333Y209759D01*
X196244Y209749D01*
X196155Y209743D01*
X196066Y209741D01*
X194019Y209741D01*
X194019Y217107D01*
X196066Y217107D01*
X196145Y217105D01*
X196224Y217099D01*
X196303Y217090D01*
X196381Y217077D01*
X196458Y217059D01*
X196534Y217039D01*
X196609Y217014D01*
X196683Y216986D01*
X196756Y216955D01*
X196827Y216919D01*
X196896Y216881D01*
X196963Y216839D01*
X197028Y216794D01*
X197091Y216746D01*
X197152Y216695D01*
X197209Y216641D01*
X197265Y216585D01*
X197317Y216526D01*
X197367Y216464D01*
X197413Y216400D01*
X197457Y216334D01*
X197497Y216266D01*
X197533Y216196D01*
X197567Y216124D01*
X197597Y216050D01*
X197623Y215976D01*
X197646Y215900D01*
X197664Y215823D01*
X197680Y215746D01*
X197691Y215667D01*
X197699Y215589D01*
X197703Y215510D01*
X197703Y215430D01*
X197699Y215351D01*
X197691Y215273D01*
X197680Y215194D01*
X197664Y215117D01*
X197646Y215040D01*
X197623Y214964D01*
X197597Y214890D01*
X197567Y214816D01*
X197533Y214744D01*
X197497Y214674D01*
X197457Y214606D01*
X197413Y214540D01*
X197367Y214476D01*
X197317Y214414D01*
X197265Y214355D01*
X197209Y214299D01*
X197152Y214245D01*
X197091Y214194D01*
X197028Y214146D01*
X196963Y214101D01*
X196896Y214059D01*
X196827Y214021D01*
X196756Y213985D01*
X196683Y213954D01*
X196609Y213926D01*
X196534Y213901D01*
X196458Y213881D01*
X196381Y213863D01*
X196303Y213850D01*
X196224Y213841D01*
X196145Y213835D01*
X196066Y213833D01*
X200973Y215470D02*
X203019Y217107D01*
X203019Y209741D01*
X200973Y209741D02*
X205065Y209741D01*
X209925Y213014D02*
X212381Y213014D01*
X209925Y213014D02*
X209847Y213016D01*
X209769Y213021D01*
X209692Y213031D01*
X209615Y213044D01*
X209539Y213060D01*
X209464Y213080D01*
X209390Y213104D01*
X209317Y213131D01*
X209245Y213162D01*
X209175Y213196D01*
X209106Y213233D01*
X209040Y213274D01*
X208975Y213318D01*
X208913Y213364D01*
X208853Y213414D01*
X208795Y213466D01*
X208740Y213521D01*
X208688Y213579D01*
X208638Y213639D01*
X208592Y213701D01*
X208548Y213766D01*
X208507Y213833D01*
X208470Y213901D01*
X208436Y213971D01*
X208405Y214043D01*
X208378Y214116D01*
X208354Y214190D01*
X208334Y214265D01*
X208318Y214341D01*
X208305Y214418D01*
X208295Y214495D01*
X208290Y214573D01*
X208288Y214651D01*
X208288Y215060D01*
X208290Y215149D01*
X208296Y215238D01*
X208306Y215327D01*
X208319Y215415D01*
X208336Y215503D01*
X208358Y215590D01*
X208383Y215675D01*
X208411Y215760D01*
X208444Y215843D01*
X208480Y215925D01*
X208519Y216005D01*
X208562Y216083D01*
X208608Y216159D01*
X208658Y216234D01*
X208711Y216306D01*
X208767Y216375D01*
X208826Y216442D01*
X208887Y216507D01*
X208952Y216568D01*
X209019Y216627D01*
X209088Y216683D01*
X209160Y216736D01*
X209235Y216786D01*
X209311Y216832D01*
X209389Y216875D01*
X209469Y216914D01*
X209551Y216950D01*
X209634Y216983D01*
X209719Y217011D01*
X209804Y217036D01*
X209891Y217058D01*
X209979Y217075D01*
X210067Y217088D01*
X210156Y217098D01*
X210245Y217104D01*
X210334Y217106D01*
X210423Y217104D01*
X210512Y217098D01*
X210601Y217088D01*
X210689Y217075D01*
X210777Y217058D01*
X210864Y217036D01*
X210949Y217011D01*
X211034Y216983D01*
X211117Y216950D01*
X211199Y216914D01*
X211279Y216875D01*
X211357Y216832D01*
X211433Y216786D01*
X211508Y216736D01*
X211580Y216683D01*
X211649Y216627D01*
X211716Y216568D01*
X211781Y216507D01*
X211842Y216442D01*
X211901Y216375D01*
X211957Y216306D01*
X212010Y216234D01*
X212060Y216159D01*
X212106Y216083D01*
X212149Y216005D01*
X212188Y215925D01*
X212224Y215843D01*
X212257Y215760D01*
X212285Y215675D01*
X212310Y215590D01*
X212332Y215503D01*
X212349Y215415D01*
X212362Y215327D01*
X212372Y215238D01*
X212378Y215149D01*
X212380Y215060D01*
X212381Y215060D02*
X212381Y213014D01*
X212379Y212902D01*
X212373Y212791D01*
X212364Y212679D01*
X212351Y212568D01*
X212333Y212458D01*
X212313Y212348D01*
X212288Y212239D01*
X212260Y212131D01*
X212228Y212024D01*
X212192Y211918D01*
X212153Y211813D01*
X212110Y211710D01*
X212064Y211608D01*
X212014Y211508D01*
X211961Y211409D01*
X211904Y211313D01*
X211845Y211218D01*
X211782Y211126D01*
X211716Y211036D01*
X211647Y210948D01*
X211575Y210862D01*
X211500Y210779D01*
X211422Y210699D01*
X211342Y210621D01*
X211259Y210546D01*
X211173Y210474D01*
X211085Y210405D01*
X210995Y210339D01*
X210903Y210276D01*
X210808Y210217D01*
X210712Y210160D01*
X210613Y210107D01*
X210513Y210057D01*
X210411Y210011D01*
X210308Y209968D01*
X210203Y209929D01*
X210097Y209893D01*
X209990Y209861D01*
X209882Y209833D01*
X209773Y209808D01*
X209663Y209788D01*
X209553Y209770D01*
X209442Y209757D01*
X209330Y209748D01*
X209219Y209742D01*
X209107Y209740D01*
X18266Y213833D02*
X16219Y213833D01*
X18266Y213833D02*
X18355Y213831D01*
X18444Y213825D01*
X18533Y213815D01*
X18621Y213802D01*
X18709Y213785D01*
X18796Y213763D01*
X18881Y213738D01*
X18966Y213710D01*
X19049Y213677D01*
X19131Y213641D01*
X19211Y213602D01*
X19289Y213559D01*
X19365Y213513D01*
X19440Y213463D01*
X19512Y213410D01*
X19581Y213354D01*
X19648Y213295D01*
X19713Y213234D01*
X19774Y213169D01*
X19833Y213102D01*
X19889Y213033D01*
X19942Y212961D01*
X19992Y212886D01*
X20038Y212810D01*
X20081Y212732D01*
X20120Y212652D01*
X20156Y212570D01*
X20189Y212487D01*
X20217Y212402D01*
X20242Y212317D01*
X20264Y212230D01*
X20281Y212142D01*
X20294Y212054D01*
X20304Y211965D01*
X20310Y211876D01*
X20312Y211787D01*
X20310Y211698D01*
X20304Y211609D01*
X20294Y211520D01*
X20281Y211432D01*
X20264Y211344D01*
X20242Y211257D01*
X20217Y211172D01*
X20189Y211087D01*
X20156Y211004D01*
X20120Y210922D01*
X20081Y210842D01*
X20038Y210764D01*
X19992Y210688D01*
X19942Y210613D01*
X19889Y210541D01*
X19833Y210472D01*
X19774Y210405D01*
X19713Y210340D01*
X19648Y210279D01*
X19581Y210220D01*
X19512Y210164D01*
X19440Y210111D01*
X19365Y210061D01*
X19289Y210015D01*
X19211Y209972D01*
X19131Y209933D01*
X19049Y209897D01*
X18966Y209864D01*
X18881Y209836D01*
X18796Y209811D01*
X18709Y209789D01*
X18621Y209772D01*
X18533Y209759D01*
X18444Y209749D01*
X18355Y209743D01*
X18266Y209741D01*
X16219Y209741D01*
X16219Y217107D01*
X18266Y217107D01*
X18345Y217105D01*
X18424Y217099D01*
X18503Y217090D01*
X18581Y217077D01*
X18658Y217059D01*
X18734Y217039D01*
X18809Y217014D01*
X18883Y216986D01*
X18956Y216955D01*
X19027Y216919D01*
X19096Y216881D01*
X19163Y216839D01*
X19228Y216794D01*
X19291Y216746D01*
X19352Y216695D01*
X19409Y216641D01*
X19465Y216585D01*
X19517Y216526D01*
X19567Y216464D01*
X19613Y216400D01*
X19657Y216334D01*
X19697Y216266D01*
X19733Y216196D01*
X19767Y216124D01*
X19797Y216050D01*
X19823Y215976D01*
X19846Y215900D01*
X19864Y215823D01*
X19880Y215746D01*
X19891Y215667D01*
X19899Y215589D01*
X19903Y215510D01*
X19903Y215430D01*
X19899Y215351D01*
X19891Y215273D01*
X19880Y215194D01*
X19864Y215117D01*
X19846Y215040D01*
X19823Y214964D01*
X19797Y214890D01*
X19767Y214816D01*
X19733Y214744D01*
X19697Y214674D01*
X19657Y214606D01*
X19613Y214540D01*
X19567Y214476D01*
X19517Y214414D01*
X19465Y214355D01*
X19409Y214299D01*
X19352Y214245D01*
X19291Y214194D01*
X19228Y214146D01*
X19163Y214101D01*
X19096Y214059D01*
X19027Y214021D01*
X18956Y213985D01*
X18883Y213954D01*
X18809Y213926D01*
X18734Y213901D01*
X18658Y213881D01*
X18581Y213863D01*
X18503Y213850D01*
X18424Y213841D01*
X18345Y213835D01*
X18266Y213833D01*
X25424Y217107D02*
X25509Y217105D01*
X25594Y217099D01*
X25678Y217089D01*
X25762Y217076D01*
X25846Y217058D01*
X25928Y217037D01*
X26009Y217012D01*
X26089Y216983D01*
X26168Y216950D01*
X26245Y216914D01*
X26320Y216874D01*
X26394Y216831D01*
X26465Y216785D01*
X26534Y216735D01*
X26601Y216682D01*
X26665Y216626D01*
X26726Y216567D01*
X26785Y216506D01*
X26841Y216442D01*
X26894Y216375D01*
X26944Y216306D01*
X26990Y216235D01*
X27033Y216161D01*
X27073Y216086D01*
X27109Y216009D01*
X27142Y215930D01*
X27171Y215850D01*
X27196Y215769D01*
X27217Y215687D01*
X27235Y215603D01*
X27248Y215519D01*
X27258Y215435D01*
X27264Y215350D01*
X27266Y215265D01*
X25424Y217107D02*
X25328Y217105D01*
X25232Y217099D01*
X25137Y217089D01*
X25042Y217076D01*
X24947Y217058D01*
X24854Y217037D01*
X24761Y217012D01*
X24670Y216983D01*
X24579Y216951D01*
X24490Y216915D01*
X24403Y216875D01*
X24317Y216832D01*
X24233Y216786D01*
X24151Y216736D01*
X24071Y216682D01*
X23994Y216626D01*
X23919Y216566D01*
X23846Y216504D01*
X23776Y216438D01*
X23708Y216370D01*
X23643Y216299D01*
X23582Y216226D01*
X23523Y216150D01*
X23467Y216071D01*
X23415Y215991D01*
X23366Y215908D01*
X23320Y215824D01*
X23278Y215738D01*
X23240Y215650D01*
X23205Y215561D01*
X23173Y215470D01*
X26651Y213833D02*
X26711Y213892D01*
X26768Y213954D01*
X26823Y214018D01*
X26874Y214085D01*
X26923Y214154D01*
X26969Y214224D01*
X27012Y214297D01*
X27052Y214371D01*
X27088Y214447D01*
X27121Y214525D01*
X27151Y214604D01*
X27178Y214684D01*
X27201Y214765D01*
X27220Y214847D01*
X27236Y214929D01*
X27249Y215013D01*
X27258Y215097D01*
X27263Y215181D01*
X27265Y215265D01*
X26652Y213833D02*
X23173Y209741D01*
X27265Y209741D01*
X30488Y213833D02*
X32944Y213833D01*
X33022Y213831D01*
X33100Y213826D01*
X33177Y213816D01*
X33254Y213803D01*
X33330Y213787D01*
X33405Y213767D01*
X33479Y213743D01*
X33552Y213716D01*
X33624Y213685D01*
X33694Y213651D01*
X33763Y213614D01*
X33829Y213573D01*
X33894Y213529D01*
X33956Y213483D01*
X34016Y213433D01*
X34074Y213381D01*
X34129Y213326D01*
X34181Y213268D01*
X34231Y213208D01*
X34277Y213146D01*
X34321Y213081D01*
X34362Y213015D01*
X34399Y212946D01*
X34433Y212876D01*
X34464Y212804D01*
X34491Y212731D01*
X34515Y212657D01*
X34535Y212582D01*
X34551Y212506D01*
X34564Y212429D01*
X34574Y212352D01*
X34579Y212274D01*
X34581Y212196D01*
X34581Y211787D01*
X34580Y211787D02*
X34578Y211698D01*
X34572Y211609D01*
X34562Y211520D01*
X34549Y211432D01*
X34532Y211344D01*
X34510Y211257D01*
X34485Y211172D01*
X34457Y211087D01*
X34424Y211004D01*
X34388Y210922D01*
X34349Y210842D01*
X34306Y210764D01*
X34260Y210688D01*
X34210Y210613D01*
X34157Y210541D01*
X34101Y210472D01*
X34042Y210405D01*
X33981Y210340D01*
X33916Y210279D01*
X33849Y210220D01*
X33780Y210164D01*
X33708Y210111D01*
X33633Y210061D01*
X33557Y210015D01*
X33479Y209972D01*
X33399Y209933D01*
X33317Y209897D01*
X33234Y209864D01*
X33149Y209836D01*
X33064Y209811D01*
X32977Y209789D01*
X32889Y209772D01*
X32801Y209759D01*
X32712Y209749D01*
X32623Y209743D01*
X32534Y209741D01*
X32445Y209743D01*
X32356Y209749D01*
X32267Y209759D01*
X32179Y209772D01*
X32091Y209789D01*
X32004Y209811D01*
X31919Y209836D01*
X31834Y209864D01*
X31751Y209897D01*
X31669Y209933D01*
X31589Y209972D01*
X31511Y210015D01*
X31435Y210061D01*
X31360Y210111D01*
X31288Y210164D01*
X31219Y210220D01*
X31152Y210279D01*
X31087Y210340D01*
X31026Y210405D01*
X30967Y210472D01*
X30911Y210541D01*
X30858Y210613D01*
X30808Y210688D01*
X30762Y210764D01*
X30719Y210842D01*
X30680Y210922D01*
X30644Y211004D01*
X30611Y211087D01*
X30583Y211172D01*
X30558Y211257D01*
X30536Y211344D01*
X30519Y211432D01*
X30506Y211520D01*
X30496Y211609D01*
X30490Y211698D01*
X30488Y211787D01*
X30488Y213833D01*
X30490Y213947D01*
X30496Y214061D01*
X30506Y214175D01*
X30520Y214289D01*
X30538Y214402D01*
X30560Y214514D01*
X30585Y214625D01*
X30615Y214735D01*
X30648Y214845D01*
X30685Y214953D01*
X30726Y215059D01*
X30771Y215165D01*
X30819Y215268D01*
X30871Y215370D01*
X30927Y215470D01*
X30985Y215568D01*
X31048Y215664D01*
X31113Y215757D01*
X31182Y215849D01*
X31254Y215937D01*
X31329Y216024D01*
X31407Y216107D01*
X31488Y216188D01*
X31571Y216266D01*
X31658Y216341D01*
X31746Y216413D01*
X31838Y216482D01*
X31931Y216547D01*
X32027Y216609D01*
X32125Y216668D01*
X32225Y216724D01*
X32327Y216776D01*
X32430Y216824D01*
X32536Y216869D01*
X32642Y216910D01*
X32750Y216947D01*
X32860Y216980D01*
X32970Y217010D01*
X33081Y217035D01*
X33193Y217057D01*
X33306Y217075D01*
X33420Y217089D01*
X33534Y217099D01*
X33648Y217105D01*
X33762Y217107D01*
X158579Y22035D02*
X156532Y20398D01*
X158579Y22035D02*
X158579Y14669D01*
X160625Y14669D02*
X156532Y14669D01*
X163848Y14669D02*
X166303Y14669D01*
X166303Y14668D02*
X166381Y14670D01*
X166459Y14675D01*
X166536Y14685D01*
X166613Y14698D01*
X166689Y14714D01*
X166764Y14734D01*
X166838Y14758D01*
X166911Y14785D01*
X166983Y14816D01*
X167053Y14850D01*
X167122Y14887D01*
X167188Y14928D01*
X167253Y14972D01*
X167315Y15018D01*
X167375Y15068D01*
X167433Y15120D01*
X167488Y15175D01*
X167540Y15233D01*
X167590Y15293D01*
X167636Y15355D01*
X167680Y15420D01*
X167721Y15487D01*
X167758Y15555D01*
X167792Y15625D01*
X167823Y15697D01*
X167850Y15770D01*
X167874Y15844D01*
X167894Y15919D01*
X167910Y15995D01*
X167923Y16072D01*
X167933Y16149D01*
X167938Y16227D01*
X167940Y16305D01*
X167940Y17124D01*
X167938Y17202D01*
X167933Y17280D01*
X167923Y17357D01*
X167910Y17434D01*
X167894Y17510D01*
X167874Y17585D01*
X167850Y17659D01*
X167823Y17732D01*
X167792Y17804D01*
X167758Y17874D01*
X167721Y17943D01*
X167680Y18009D01*
X167636Y18074D01*
X167590Y18136D01*
X167540Y18196D01*
X167488Y18254D01*
X167433Y18309D01*
X167375Y18361D01*
X167315Y18411D01*
X167253Y18457D01*
X167188Y18501D01*
X167122Y18542D01*
X167053Y18579D01*
X166983Y18613D01*
X166911Y18644D01*
X166838Y18671D01*
X166764Y18695D01*
X166689Y18715D01*
X166613Y18731D01*
X166536Y18744D01*
X166459Y18754D01*
X166381Y18759D01*
X166303Y18761D01*
X163848Y18761D01*
X163848Y22035D01*
X167940Y22035D01*
X172800Y22035D02*
X171163Y16305D01*
X175255Y16305D01*
X174027Y14669D02*
X174027Y17942D01*
M02*
