G04 EAGLE Gerber RS-274X export*
G75*
%MOMM*%
%FSLAX34Y34*%
%LPD*%
%INSilkscreen Bottom*%
%IPPOS*%
%AMOC8*
5,1,8,0,0,1.08239X$1,22.5*%
G01*
%ADD10C,0.076200*%


D10*
X360153Y207898D02*
X360155Y207811D01*
X360161Y207724D01*
X360171Y207637D01*
X360184Y207551D01*
X360202Y207466D01*
X360223Y207381D01*
X360248Y207298D01*
X360277Y207216D01*
X360309Y207135D01*
X360345Y207055D01*
X360385Y206978D01*
X360428Y206902D01*
X360474Y206828D01*
X360524Y206757D01*
X360577Y206687D01*
X360633Y206620D01*
X360691Y206556D01*
X360753Y206494D01*
X360817Y206436D01*
X360884Y206380D01*
X360954Y206327D01*
X361025Y206277D01*
X361099Y206231D01*
X361175Y206188D01*
X361252Y206148D01*
X361332Y206112D01*
X361413Y206080D01*
X361495Y206051D01*
X361578Y206026D01*
X361663Y206005D01*
X361748Y205987D01*
X361834Y205974D01*
X361921Y205964D01*
X362008Y205958D01*
X362095Y205956D01*
X362220Y205958D01*
X362344Y205964D01*
X362468Y205973D01*
X362592Y205986D01*
X362716Y206003D01*
X362838Y206024D01*
X362960Y206048D01*
X363082Y206076D01*
X363202Y206108D01*
X363322Y206144D01*
X363440Y206183D01*
X363557Y206225D01*
X363673Y206272D01*
X363787Y206321D01*
X363900Y206374D01*
X364011Y206431D01*
X364120Y206491D01*
X364227Y206554D01*
X364333Y206620D01*
X364436Y206690D01*
X364537Y206762D01*
X364636Y206838D01*
X364733Y206917D01*
X364827Y206998D01*
X364919Y207082D01*
X365008Y207170D01*
X364765Y212752D02*
X364763Y212839D01*
X364757Y212926D01*
X364747Y213013D01*
X364734Y213099D01*
X364716Y213184D01*
X364695Y213269D01*
X364670Y213352D01*
X364641Y213434D01*
X364609Y213515D01*
X364573Y213595D01*
X364533Y213672D01*
X364490Y213748D01*
X364444Y213822D01*
X364394Y213893D01*
X364341Y213963D01*
X364285Y214030D01*
X364227Y214094D01*
X364165Y214156D01*
X364101Y214214D01*
X364034Y214270D01*
X363964Y214323D01*
X363893Y214373D01*
X363819Y214419D01*
X363743Y214462D01*
X363666Y214502D01*
X363586Y214538D01*
X363505Y214570D01*
X363423Y214599D01*
X363340Y214624D01*
X363255Y214645D01*
X363170Y214663D01*
X363084Y214676D01*
X362997Y214686D01*
X362910Y214692D01*
X362823Y214694D01*
X362706Y214692D01*
X362589Y214686D01*
X362472Y214677D01*
X362356Y214664D01*
X362240Y214647D01*
X362124Y214626D01*
X362010Y214602D01*
X361896Y214574D01*
X361783Y214542D01*
X361672Y214507D01*
X361561Y214468D01*
X361452Y214426D01*
X361344Y214380D01*
X361238Y214331D01*
X361133Y214278D01*
X361030Y214222D01*
X360929Y214163D01*
X360830Y214100D01*
X360733Y214035D01*
X360638Y213966D01*
X363793Y211053D02*
X363866Y211098D01*
X363936Y211146D01*
X364005Y211197D01*
X364071Y211251D01*
X364135Y211308D01*
X364196Y211367D01*
X364254Y211429D01*
X364310Y211493D01*
X364363Y211560D01*
X364413Y211629D01*
X364460Y211700D01*
X364504Y211774D01*
X364545Y211849D01*
X364582Y211925D01*
X364616Y212003D01*
X364647Y212083D01*
X364674Y212164D01*
X364698Y212246D01*
X364718Y212329D01*
X364735Y212412D01*
X364747Y212497D01*
X364757Y212582D01*
X364762Y212667D01*
X364764Y212752D01*
X361124Y209597D02*
X361051Y209552D01*
X360981Y209504D01*
X360912Y209453D01*
X360846Y209399D01*
X360783Y209343D01*
X360721Y209283D01*
X360663Y209221D01*
X360607Y209157D01*
X360554Y209090D01*
X360504Y209021D01*
X360457Y208950D01*
X360413Y208876D01*
X360372Y208801D01*
X360335Y208725D01*
X360301Y208647D01*
X360270Y208567D01*
X360243Y208486D01*
X360219Y208404D01*
X360199Y208321D01*
X360182Y208238D01*
X360170Y208153D01*
X360160Y208068D01*
X360155Y207983D01*
X360153Y207898D01*
X361124Y209597D02*
X363794Y211053D01*
X356440Y205956D02*
X352557Y205956D01*
X356440Y205956D02*
X356440Y214694D01*
X352557Y214694D01*
X353528Y210810D02*
X356440Y210810D01*
X345649Y210810D02*
X344193Y210810D01*
X344193Y205956D01*
X347106Y205956D01*
X347193Y205958D01*
X347280Y205964D01*
X347367Y205974D01*
X347453Y205987D01*
X347538Y206005D01*
X347623Y206026D01*
X347706Y206051D01*
X347788Y206080D01*
X347869Y206112D01*
X347949Y206148D01*
X348026Y206188D01*
X348102Y206231D01*
X348176Y206277D01*
X348247Y206327D01*
X348317Y206380D01*
X348384Y206436D01*
X348448Y206494D01*
X348510Y206556D01*
X348568Y206620D01*
X348624Y206687D01*
X348677Y206757D01*
X348727Y206828D01*
X348773Y206902D01*
X348816Y206978D01*
X348856Y207055D01*
X348892Y207135D01*
X348924Y207216D01*
X348953Y207298D01*
X348978Y207381D01*
X348999Y207466D01*
X349017Y207551D01*
X349030Y207637D01*
X349040Y207724D01*
X349046Y207811D01*
X349048Y207898D01*
X349047Y207898D02*
X349047Y212752D01*
X349048Y212752D02*
X349046Y212839D01*
X349040Y212926D01*
X349030Y213013D01*
X349017Y213099D01*
X348999Y213184D01*
X348978Y213269D01*
X348953Y213352D01*
X348924Y213434D01*
X348892Y213515D01*
X348856Y213595D01*
X348816Y213672D01*
X348773Y213748D01*
X348727Y213822D01*
X348677Y213893D01*
X348624Y213963D01*
X348568Y214030D01*
X348510Y214094D01*
X348448Y214156D01*
X348384Y214214D01*
X348317Y214270D01*
X348247Y214323D01*
X348176Y214373D01*
X348102Y214419D01*
X348026Y214462D01*
X347949Y214502D01*
X347869Y214538D01*
X347788Y214570D01*
X347706Y214599D01*
X347623Y214624D01*
X347538Y214645D01*
X347453Y214663D01*
X347367Y214676D01*
X347280Y214686D01*
X347193Y214692D01*
X347106Y214694D01*
X344193Y214694D01*
X337785Y214694D02*
X340698Y205956D01*
X334872Y205956D02*
X337785Y214694D01*
X335601Y208141D02*
X339970Y208141D01*
X323419Y210810D02*
X321963Y210810D01*
X321963Y205956D01*
X324876Y205956D01*
X324963Y205958D01*
X325050Y205964D01*
X325137Y205974D01*
X325223Y205987D01*
X325308Y206005D01*
X325393Y206026D01*
X325476Y206051D01*
X325558Y206080D01*
X325639Y206112D01*
X325719Y206148D01*
X325796Y206188D01*
X325872Y206231D01*
X325946Y206277D01*
X326017Y206327D01*
X326087Y206380D01*
X326154Y206436D01*
X326218Y206494D01*
X326280Y206556D01*
X326338Y206620D01*
X326394Y206687D01*
X326447Y206757D01*
X326497Y206828D01*
X326543Y206902D01*
X326586Y206978D01*
X326626Y207055D01*
X326662Y207135D01*
X326694Y207216D01*
X326723Y207298D01*
X326748Y207381D01*
X326769Y207466D01*
X326787Y207551D01*
X326800Y207637D01*
X326810Y207724D01*
X326816Y207811D01*
X326818Y207898D01*
X326817Y207898D02*
X326817Y212752D01*
X326818Y212752D02*
X326816Y212839D01*
X326810Y212926D01*
X326800Y213013D01*
X326787Y213099D01*
X326769Y213184D01*
X326748Y213269D01*
X326723Y213352D01*
X326694Y213434D01*
X326662Y213515D01*
X326626Y213595D01*
X326586Y213672D01*
X326543Y213748D01*
X326497Y213822D01*
X326447Y213893D01*
X326394Y213963D01*
X326338Y214030D01*
X326280Y214094D01*
X326218Y214156D01*
X326154Y214214D01*
X326087Y214270D01*
X326017Y214323D01*
X325946Y214373D01*
X325872Y214419D01*
X325796Y214462D01*
X325719Y214502D01*
X325639Y214538D01*
X325558Y214570D01*
X325476Y214599D01*
X325393Y214624D01*
X325308Y214645D01*
X325223Y214663D01*
X325137Y214676D01*
X325050Y214686D01*
X324963Y214692D01*
X324876Y214694D01*
X321963Y214694D01*
X317680Y205956D02*
X313797Y205956D01*
X317680Y205956D02*
X317680Y214694D01*
X313797Y214694D01*
X314768Y210810D02*
X317680Y210810D01*
X310287Y214694D02*
X310287Y205956D01*
X305433Y205956D02*
X310287Y214694D01*
X305433Y214694D02*
X305433Y205956D01*
X301150Y205956D02*
X297267Y205956D01*
X301150Y205956D02*
X301150Y214694D01*
X297267Y214694D01*
X298238Y210810D02*
X301150Y210810D01*
X291415Y205956D02*
X291328Y205958D01*
X291241Y205964D01*
X291154Y205974D01*
X291068Y205987D01*
X290983Y206005D01*
X290898Y206026D01*
X290815Y206051D01*
X290733Y206080D01*
X290652Y206112D01*
X290572Y206148D01*
X290495Y206188D01*
X290419Y206231D01*
X290345Y206277D01*
X290274Y206327D01*
X290204Y206380D01*
X290137Y206436D01*
X290073Y206494D01*
X290011Y206556D01*
X289953Y206620D01*
X289897Y206687D01*
X289844Y206757D01*
X289794Y206828D01*
X289748Y206902D01*
X289705Y206978D01*
X289665Y207055D01*
X289629Y207135D01*
X289597Y207216D01*
X289568Y207298D01*
X289543Y207381D01*
X289522Y207466D01*
X289504Y207551D01*
X289491Y207637D01*
X289481Y207724D01*
X289475Y207811D01*
X289473Y207898D01*
X291415Y205956D02*
X291540Y205958D01*
X291664Y205964D01*
X291788Y205973D01*
X291912Y205986D01*
X292036Y206003D01*
X292158Y206024D01*
X292280Y206048D01*
X292402Y206076D01*
X292522Y206108D01*
X292642Y206144D01*
X292760Y206183D01*
X292877Y206225D01*
X292993Y206272D01*
X293107Y206321D01*
X293220Y206374D01*
X293331Y206431D01*
X293440Y206491D01*
X293547Y206554D01*
X293653Y206620D01*
X293756Y206690D01*
X293857Y206762D01*
X293956Y206838D01*
X294053Y206917D01*
X294147Y206998D01*
X294239Y207082D01*
X294328Y207170D01*
X294085Y212752D02*
X294083Y212839D01*
X294077Y212926D01*
X294067Y213013D01*
X294054Y213099D01*
X294036Y213184D01*
X294015Y213269D01*
X293990Y213352D01*
X293961Y213434D01*
X293929Y213515D01*
X293893Y213595D01*
X293853Y213672D01*
X293810Y213748D01*
X293764Y213822D01*
X293714Y213893D01*
X293661Y213963D01*
X293605Y214030D01*
X293547Y214094D01*
X293485Y214156D01*
X293421Y214214D01*
X293354Y214270D01*
X293284Y214323D01*
X293213Y214373D01*
X293139Y214419D01*
X293063Y214462D01*
X292986Y214502D01*
X292906Y214538D01*
X292825Y214570D01*
X292743Y214599D01*
X292660Y214624D01*
X292575Y214645D01*
X292490Y214663D01*
X292404Y214676D01*
X292317Y214686D01*
X292230Y214692D01*
X292143Y214694D01*
X292026Y214692D01*
X291909Y214686D01*
X291792Y214677D01*
X291676Y214664D01*
X291560Y214647D01*
X291444Y214626D01*
X291330Y214602D01*
X291216Y214574D01*
X291103Y214542D01*
X290992Y214507D01*
X290881Y214468D01*
X290772Y214426D01*
X290664Y214380D01*
X290558Y214331D01*
X290453Y214278D01*
X290350Y214222D01*
X290249Y214163D01*
X290150Y214100D01*
X290053Y214035D01*
X289958Y213966D01*
X293114Y211053D02*
X293187Y211098D01*
X293257Y211146D01*
X293326Y211197D01*
X293392Y211251D01*
X293456Y211308D01*
X293517Y211367D01*
X293575Y211429D01*
X293631Y211493D01*
X293684Y211560D01*
X293734Y211629D01*
X293781Y211700D01*
X293825Y211774D01*
X293866Y211849D01*
X293903Y211925D01*
X293937Y212003D01*
X293968Y212083D01*
X293995Y212164D01*
X294019Y212246D01*
X294039Y212329D01*
X294056Y212412D01*
X294068Y212497D01*
X294078Y212582D01*
X294083Y212667D01*
X294085Y212752D01*
X290444Y209597D02*
X290371Y209552D01*
X290301Y209504D01*
X290232Y209453D01*
X290166Y209399D01*
X290103Y209343D01*
X290041Y209283D01*
X289983Y209221D01*
X289927Y209157D01*
X289874Y209090D01*
X289824Y209021D01*
X289777Y208950D01*
X289733Y208876D01*
X289692Y208801D01*
X289655Y208725D01*
X289621Y208647D01*
X289590Y208567D01*
X289563Y208486D01*
X289539Y208404D01*
X289519Y208321D01*
X289502Y208238D01*
X289490Y208153D01*
X289480Y208068D01*
X289475Y207983D01*
X289473Y207898D01*
X290444Y209597D02*
X293114Y211053D01*
X285345Y214694D02*
X285345Y205956D01*
X286316Y205956D02*
X284374Y205956D01*
X284374Y214694D02*
X286316Y214694D01*
X278305Y205956D02*
X278218Y205958D01*
X278131Y205964D01*
X278044Y205974D01*
X277958Y205987D01*
X277873Y206005D01*
X277788Y206026D01*
X277705Y206051D01*
X277623Y206080D01*
X277542Y206112D01*
X277462Y206148D01*
X277385Y206188D01*
X277309Y206231D01*
X277235Y206277D01*
X277164Y206327D01*
X277094Y206380D01*
X277027Y206436D01*
X276963Y206494D01*
X276901Y206556D01*
X276843Y206620D01*
X276787Y206687D01*
X276734Y206757D01*
X276684Y206828D01*
X276638Y206902D01*
X276595Y206978D01*
X276555Y207055D01*
X276519Y207135D01*
X276487Y207216D01*
X276458Y207298D01*
X276433Y207381D01*
X276412Y207466D01*
X276394Y207551D01*
X276381Y207637D01*
X276371Y207724D01*
X276365Y207811D01*
X276363Y207898D01*
X278305Y205956D02*
X278430Y205958D01*
X278554Y205964D01*
X278678Y205973D01*
X278802Y205986D01*
X278926Y206003D01*
X279048Y206024D01*
X279170Y206048D01*
X279292Y206076D01*
X279412Y206108D01*
X279532Y206144D01*
X279650Y206183D01*
X279767Y206225D01*
X279883Y206272D01*
X279997Y206321D01*
X280110Y206374D01*
X280221Y206431D01*
X280330Y206491D01*
X280437Y206554D01*
X280543Y206620D01*
X280646Y206690D01*
X280747Y206762D01*
X280846Y206838D01*
X280943Y206917D01*
X281037Y206998D01*
X281129Y207082D01*
X281218Y207170D01*
X280975Y212752D02*
X280973Y212839D01*
X280967Y212926D01*
X280957Y213013D01*
X280944Y213099D01*
X280926Y213184D01*
X280905Y213269D01*
X280880Y213352D01*
X280851Y213434D01*
X280819Y213515D01*
X280783Y213595D01*
X280743Y213672D01*
X280700Y213748D01*
X280654Y213822D01*
X280604Y213893D01*
X280551Y213963D01*
X280495Y214030D01*
X280437Y214094D01*
X280375Y214156D01*
X280311Y214214D01*
X280244Y214270D01*
X280174Y214323D01*
X280103Y214373D01*
X280029Y214419D01*
X279953Y214462D01*
X279876Y214502D01*
X279796Y214538D01*
X279715Y214570D01*
X279633Y214599D01*
X279550Y214624D01*
X279465Y214645D01*
X279380Y214663D01*
X279294Y214676D01*
X279207Y214686D01*
X279120Y214692D01*
X279033Y214694D01*
X278916Y214692D01*
X278799Y214686D01*
X278682Y214677D01*
X278566Y214664D01*
X278450Y214647D01*
X278334Y214626D01*
X278220Y214602D01*
X278106Y214574D01*
X277993Y214542D01*
X277882Y214507D01*
X277771Y214468D01*
X277662Y214426D01*
X277554Y214380D01*
X277448Y214331D01*
X277343Y214278D01*
X277240Y214222D01*
X277139Y214163D01*
X277040Y214100D01*
X276943Y214035D01*
X276848Y213966D01*
X280004Y211053D02*
X280077Y211098D01*
X280147Y211146D01*
X280216Y211197D01*
X280282Y211251D01*
X280346Y211308D01*
X280407Y211367D01*
X280465Y211429D01*
X280521Y211493D01*
X280574Y211560D01*
X280624Y211629D01*
X280671Y211700D01*
X280715Y211774D01*
X280756Y211849D01*
X280793Y211925D01*
X280827Y212003D01*
X280858Y212083D01*
X280885Y212164D01*
X280909Y212246D01*
X280929Y212329D01*
X280946Y212412D01*
X280958Y212497D01*
X280968Y212582D01*
X280973Y212667D01*
X280975Y212752D01*
X277334Y209597D02*
X277261Y209552D01*
X277191Y209504D01*
X277122Y209453D01*
X277056Y209399D01*
X276993Y209343D01*
X276931Y209283D01*
X276873Y209221D01*
X276817Y209157D01*
X276764Y209090D01*
X276714Y209021D01*
X276667Y208950D01*
X276623Y208876D01*
X276582Y208801D01*
X276545Y208725D01*
X276511Y208647D01*
X276480Y208567D01*
X276453Y208486D01*
X276429Y208404D01*
X276409Y208321D01*
X276392Y208238D01*
X276380Y208153D01*
X276370Y208068D01*
X276365Y207983D01*
X276363Y207898D01*
X277334Y209597D02*
X280004Y211053D01*
X268392Y205956D02*
X265965Y205956D01*
X265867Y205958D01*
X265770Y205964D01*
X265672Y205974D01*
X265576Y205987D01*
X265480Y206005D01*
X265384Y206027D01*
X265290Y206052D01*
X265196Y206081D01*
X265104Y206114D01*
X265014Y206150D01*
X264925Y206190D01*
X264837Y206234D01*
X264752Y206281D01*
X264668Y206332D01*
X264586Y206386D01*
X264507Y206443D01*
X264430Y206503D01*
X264356Y206566D01*
X264284Y206633D01*
X264215Y206702D01*
X264148Y206774D01*
X264085Y206848D01*
X264025Y206925D01*
X263968Y207004D01*
X263914Y207086D01*
X263863Y207170D01*
X263816Y207255D01*
X263772Y207343D01*
X263732Y207432D01*
X263696Y207522D01*
X263663Y207614D01*
X263634Y207708D01*
X263609Y207802D01*
X263587Y207898D01*
X263569Y207994D01*
X263556Y208090D01*
X263546Y208188D01*
X263540Y208285D01*
X263538Y208383D01*
X263540Y208481D01*
X263546Y208578D01*
X263556Y208676D01*
X263569Y208772D01*
X263587Y208868D01*
X263609Y208964D01*
X263634Y209058D01*
X263663Y209152D01*
X263696Y209244D01*
X263732Y209334D01*
X263772Y209423D01*
X263816Y209511D01*
X263863Y209597D01*
X263914Y209680D01*
X263968Y209762D01*
X264025Y209841D01*
X264085Y209918D01*
X264148Y209992D01*
X264215Y210064D01*
X264284Y210133D01*
X264356Y210200D01*
X264430Y210263D01*
X264507Y210323D01*
X264586Y210380D01*
X264668Y210434D01*
X264752Y210485D01*
X264837Y210532D01*
X264925Y210576D01*
X265014Y210616D01*
X265104Y210652D01*
X265196Y210685D01*
X265290Y210714D01*
X265384Y210739D01*
X265480Y210761D01*
X265576Y210779D01*
X265672Y210792D01*
X265770Y210802D01*
X265867Y210808D01*
X265965Y210810D01*
X265480Y214694D02*
X268392Y214694D01*
X265480Y214694D02*
X265393Y214692D01*
X265306Y214686D01*
X265219Y214676D01*
X265133Y214663D01*
X265048Y214645D01*
X264963Y214624D01*
X264880Y214599D01*
X264798Y214570D01*
X264717Y214538D01*
X264637Y214502D01*
X264560Y214462D01*
X264484Y214419D01*
X264410Y214373D01*
X264339Y214323D01*
X264269Y214270D01*
X264202Y214214D01*
X264138Y214156D01*
X264076Y214094D01*
X264018Y214030D01*
X263962Y213963D01*
X263909Y213893D01*
X263859Y213822D01*
X263813Y213748D01*
X263770Y213672D01*
X263730Y213595D01*
X263694Y213515D01*
X263662Y213434D01*
X263633Y213352D01*
X263608Y213269D01*
X263587Y213184D01*
X263569Y213099D01*
X263556Y213013D01*
X263546Y212926D01*
X263540Y212839D01*
X263538Y212752D01*
X263540Y212665D01*
X263546Y212578D01*
X263556Y212491D01*
X263569Y212405D01*
X263587Y212320D01*
X263608Y212235D01*
X263633Y212152D01*
X263662Y212070D01*
X263694Y211989D01*
X263730Y211909D01*
X263770Y211832D01*
X263813Y211756D01*
X263859Y211682D01*
X263909Y211611D01*
X263962Y211541D01*
X264018Y211474D01*
X264076Y211410D01*
X264138Y211348D01*
X264202Y211290D01*
X264269Y211234D01*
X264339Y211181D01*
X264410Y211131D01*
X264484Y211085D01*
X264560Y211042D01*
X264637Y211002D01*
X264717Y210966D01*
X264798Y210934D01*
X264880Y210905D01*
X264963Y210880D01*
X265048Y210859D01*
X265133Y210841D01*
X265219Y210828D01*
X265306Y210818D01*
X265393Y210812D01*
X265480Y210810D01*
X267422Y210810D01*
X255768Y214694D02*
X252855Y205956D01*
X249943Y214694D01*
X244305Y214694D02*
X247218Y205956D01*
X241393Y205956D02*
X244305Y214694D01*
X242121Y208141D02*
X246490Y208141D01*
X235513Y214695D02*
X235420Y214693D01*
X235328Y214687D01*
X235235Y214677D01*
X235144Y214664D01*
X235053Y214646D01*
X234962Y214624D01*
X234873Y214599D01*
X234785Y214570D01*
X234698Y214537D01*
X234613Y214501D01*
X234529Y214461D01*
X234447Y214418D01*
X234367Y214371D01*
X234289Y214320D01*
X234214Y214267D01*
X234140Y214210D01*
X234069Y214150D01*
X234001Y214087D01*
X233936Y214022D01*
X233873Y213954D01*
X233813Y213883D01*
X233756Y213809D01*
X233703Y213734D01*
X233652Y213656D01*
X233605Y213576D01*
X233562Y213494D01*
X233522Y213410D01*
X233486Y213325D01*
X233453Y213238D01*
X233424Y213150D01*
X233399Y213061D01*
X233377Y212970D01*
X233359Y212879D01*
X233346Y212788D01*
X233336Y212695D01*
X233330Y212603D01*
X233328Y212510D01*
X235513Y214694D02*
X235617Y214692D01*
X235720Y214686D01*
X235824Y214677D01*
X235927Y214663D01*
X236029Y214646D01*
X236131Y214625D01*
X236231Y214600D01*
X236331Y214572D01*
X236430Y214540D01*
X236527Y214504D01*
X236623Y214465D01*
X236718Y214422D01*
X236811Y214376D01*
X236902Y214326D01*
X236991Y214273D01*
X237078Y214217D01*
X237163Y214157D01*
X237246Y214095D01*
X237327Y214029D01*
X237405Y213961D01*
X237480Y213889D01*
X237553Y213815D01*
X237622Y213738D01*
X237689Y213659D01*
X237753Y213577D01*
X237814Y213493D01*
X237872Y213407D01*
X237927Y213319D01*
X237978Y213229D01*
X238026Y213137D01*
X238070Y213043D01*
X238111Y212947D01*
X238149Y212851D01*
X238182Y212753D01*
X234056Y210811D02*
X233989Y210878D01*
X233924Y210948D01*
X233862Y211020D01*
X233803Y211094D01*
X233748Y211171D01*
X233695Y211250D01*
X233646Y211331D01*
X233600Y211414D01*
X233557Y211499D01*
X233518Y211586D01*
X233482Y211674D01*
X233450Y211763D01*
X233422Y211854D01*
X233397Y211946D01*
X233376Y212038D01*
X233359Y212132D01*
X233345Y212226D01*
X233336Y212320D01*
X233330Y212415D01*
X233328Y212510D01*
X234056Y210810D02*
X238182Y205956D01*
X233328Y205956D01*
X224771Y205956D02*
X224771Y214694D01*
X220887Y214694D01*
X220887Y210810D02*
X224771Y210810D01*
X217378Y208383D02*
X217378Y214694D01*
X217377Y208383D02*
X217375Y208285D01*
X217369Y208188D01*
X217359Y208090D01*
X217346Y207994D01*
X217328Y207898D01*
X217306Y207802D01*
X217281Y207708D01*
X217252Y207614D01*
X217219Y207522D01*
X217183Y207432D01*
X217143Y207343D01*
X217099Y207255D01*
X217052Y207169D01*
X217001Y207086D01*
X216947Y207004D01*
X216890Y206925D01*
X216830Y206848D01*
X216767Y206774D01*
X216700Y206702D01*
X216631Y206633D01*
X216559Y206566D01*
X216485Y206503D01*
X216408Y206443D01*
X216329Y206386D01*
X216247Y206332D01*
X216163Y206281D01*
X216078Y206234D01*
X215990Y206190D01*
X215901Y206150D01*
X215811Y206114D01*
X215719Y206081D01*
X215625Y206052D01*
X215531Y206027D01*
X215435Y206005D01*
X215339Y205987D01*
X215243Y205974D01*
X215145Y205964D01*
X215048Y205958D01*
X214950Y205956D01*
X214852Y205958D01*
X214755Y205964D01*
X214657Y205974D01*
X214561Y205987D01*
X214465Y206005D01*
X214369Y206027D01*
X214275Y206052D01*
X214181Y206081D01*
X214089Y206114D01*
X213999Y206150D01*
X213910Y206190D01*
X213822Y206234D01*
X213737Y206281D01*
X213653Y206332D01*
X213571Y206386D01*
X213492Y206443D01*
X213415Y206503D01*
X213341Y206566D01*
X213269Y206633D01*
X213200Y206702D01*
X213133Y206774D01*
X213070Y206848D01*
X213010Y206925D01*
X212953Y207004D01*
X212899Y207086D01*
X212848Y207170D01*
X212801Y207255D01*
X212757Y207343D01*
X212717Y207432D01*
X212681Y207522D01*
X212648Y207614D01*
X212619Y207708D01*
X212594Y207802D01*
X212572Y207898D01*
X212554Y207994D01*
X212541Y208090D01*
X212531Y208188D01*
X212525Y208285D01*
X212523Y208383D01*
X212523Y214694D01*
X208258Y214694D02*
X208258Y205956D01*
X203403Y205956D02*
X208258Y214694D01*
X203403Y214694D02*
X203403Y205956D01*
X197506Y205956D02*
X195564Y205956D01*
X197506Y205956D02*
X197593Y205958D01*
X197680Y205964D01*
X197767Y205974D01*
X197853Y205987D01*
X197938Y206005D01*
X198023Y206026D01*
X198106Y206051D01*
X198188Y206080D01*
X198269Y206112D01*
X198349Y206148D01*
X198426Y206188D01*
X198502Y206231D01*
X198576Y206277D01*
X198647Y206327D01*
X198717Y206380D01*
X198784Y206436D01*
X198848Y206494D01*
X198910Y206556D01*
X198968Y206620D01*
X199024Y206687D01*
X199077Y206757D01*
X199127Y206828D01*
X199173Y206902D01*
X199216Y206978D01*
X199256Y207055D01*
X199292Y207135D01*
X199324Y207216D01*
X199353Y207298D01*
X199378Y207381D01*
X199399Y207466D01*
X199417Y207551D01*
X199430Y207637D01*
X199440Y207724D01*
X199446Y207811D01*
X199448Y207898D01*
X199447Y207898D02*
X199447Y212752D01*
X199448Y212752D02*
X199446Y212839D01*
X199440Y212926D01*
X199430Y213013D01*
X199417Y213099D01*
X199399Y213184D01*
X199378Y213269D01*
X199353Y213352D01*
X199324Y213434D01*
X199292Y213515D01*
X199256Y213595D01*
X199216Y213672D01*
X199173Y213748D01*
X199127Y213822D01*
X199077Y213893D01*
X199024Y213963D01*
X198968Y214030D01*
X198910Y214094D01*
X198848Y214156D01*
X198784Y214214D01*
X198717Y214270D01*
X198647Y214323D01*
X198576Y214373D01*
X198502Y214419D01*
X198426Y214462D01*
X198349Y214502D01*
X198269Y214538D01*
X198188Y214570D01*
X198106Y214599D01*
X198023Y214624D01*
X197938Y214645D01*
X197853Y214663D01*
X197767Y214676D01*
X197680Y214686D01*
X197593Y214692D01*
X197506Y214694D01*
X195564Y214694D01*
X190440Y214694D02*
X190440Y205956D01*
X188013Y214694D02*
X192868Y214694D01*
X184170Y214694D02*
X184170Y205956D01*
X185141Y205956D02*
X183199Y205956D01*
X183199Y214694D02*
X185141Y214694D01*
X179758Y212267D02*
X179758Y208383D01*
X179757Y212267D02*
X179755Y212365D01*
X179749Y212462D01*
X179739Y212560D01*
X179726Y212656D01*
X179708Y212752D01*
X179686Y212848D01*
X179661Y212942D01*
X179632Y213036D01*
X179599Y213128D01*
X179563Y213218D01*
X179523Y213307D01*
X179479Y213395D01*
X179432Y213481D01*
X179381Y213564D01*
X179327Y213646D01*
X179270Y213725D01*
X179210Y213802D01*
X179147Y213876D01*
X179080Y213948D01*
X179011Y214017D01*
X178939Y214084D01*
X178865Y214147D01*
X178788Y214207D01*
X178709Y214264D01*
X178627Y214318D01*
X178544Y214369D01*
X178458Y214416D01*
X178370Y214460D01*
X178281Y214500D01*
X178191Y214536D01*
X178099Y214569D01*
X178005Y214598D01*
X177911Y214623D01*
X177815Y214645D01*
X177719Y214663D01*
X177623Y214676D01*
X177525Y214686D01*
X177428Y214692D01*
X177330Y214694D01*
X177232Y214692D01*
X177135Y214686D01*
X177037Y214676D01*
X176941Y214663D01*
X176845Y214645D01*
X176749Y214623D01*
X176655Y214598D01*
X176561Y214569D01*
X176469Y214536D01*
X176379Y214500D01*
X176290Y214460D01*
X176202Y214416D01*
X176117Y214369D01*
X176033Y214318D01*
X175951Y214264D01*
X175872Y214207D01*
X175795Y214147D01*
X175721Y214084D01*
X175649Y214017D01*
X175580Y213948D01*
X175513Y213876D01*
X175450Y213802D01*
X175390Y213725D01*
X175333Y213646D01*
X175279Y213564D01*
X175228Y213481D01*
X175181Y213395D01*
X175137Y213307D01*
X175097Y213218D01*
X175061Y213128D01*
X175028Y213036D01*
X174999Y212942D01*
X174974Y212848D01*
X174952Y212752D01*
X174934Y212656D01*
X174921Y212560D01*
X174911Y212462D01*
X174905Y212365D01*
X174903Y212267D01*
X174903Y208383D01*
X174905Y208285D01*
X174911Y208188D01*
X174921Y208090D01*
X174934Y207994D01*
X174952Y207898D01*
X174974Y207802D01*
X174999Y207708D01*
X175028Y207614D01*
X175061Y207522D01*
X175097Y207432D01*
X175137Y207343D01*
X175181Y207255D01*
X175228Y207170D01*
X175279Y207086D01*
X175333Y207004D01*
X175390Y206925D01*
X175450Y206848D01*
X175513Y206774D01*
X175580Y206702D01*
X175649Y206633D01*
X175721Y206566D01*
X175795Y206503D01*
X175872Y206443D01*
X175951Y206386D01*
X176033Y206332D01*
X176117Y206281D01*
X176202Y206234D01*
X176290Y206190D01*
X176379Y206150D01*
X176469Y206114D01*
X176561Y206081D01*
X176655Y206052D01*
X176749Y206027D01*
X176845Y206005D01*
X176941Y205987D01*
X177037Y205974D01*
X177135Y205964D01*
X177232Y205958D01*
X177330Y205956D01*
X177428Y205958D01*
X177525Y205964D01*
X177623Y205974D01*
X177719Y205987D01*
X177815Y206005D01*
X177911Y206027D01*
X178005Y206052D01*
X178099Y206081D01*
X178191Y206114D01*
X178281Y206150D01*
X178370Y206190D01*
X178458Y206234D01*
X178543Y206281D01*
X178627Y206332D01*
X178709Y206386D01*
X178788Y206443D01*
X178865Y206503D01*
X178939Y206566D01*
X179011Y206633D01*
X179080Y206702D01*
X179147Y206774D01*
X179210Y206848D01*
X179270Y206925D01*
X179327Y207004D01*
X179381Y207086D01*
X179432Y207169D01*
X179479Y207255D01*
X179523Y207343D01*
X179563Y207432D01*
X179599Y207522D01*
X179632Y207614D01*
X179661Y207708D01*
X179686Y207802D01*
X179708Y207898D01*
X179726Y207994D01*
X179739Y208090D01*
X179749Y208188D01*
X179755Y208285D01*
X179757Y208383D01*
X170923Y205956D02*
X170923Y214694D01*
X166068Y205956D01*
X166068Y214694D01*
X157187Y214694D02*
X157187Y205956D01*
X157187Y214694D02*
X154760Y214694D01*
X154662Y214692D01*
X154565Y214686D01*
X154467Y214676D01*
X154371Y214663D01*
X154275Y214645D01*
X154179Y214623D01*
X154085Y214598D01*
X153991Y214569D01*
X153899Y214536D01*
X153809Y214500D01*
X153720Y214460D01*
X153632Y214416D01*
X153547Y214369D01*
X153463Y214318D01*
X153381Y214264D01*
X153302Y214207D01*
X153225Y214147D01*
X153151Y214084D01*
X153079Y214017D01*
X153010Y213948D01*
X152943Y213876D01*
X152880Y213802D01*
X152820Y213725D01*
X152763Y213646D01*
X152709Y213564D01*
X152658Y213481D01*
X152611Y213395D01*
X152567Y213307D01*
X152527Y213218D01*
X152491Y213128D01*
X152458Y213036D01*
X152429Y212942D01*
X152404Y212848D01*
X152382Y212752D01*
X152364Y212656D01*
X152351Y212560D01*
X152341Y212462D01*
X152335Y212365D01*
X152333Y212267D01*
X152335Y212169D01*
X152341Y212072D01*
X152351Y211974D01*
X152364Y211878D01*
X152382Y211782D01*
X152404Y211686D01*
X152429Y211592D01*
X152458Y211498D01*
X152491Y211406D01*
X152527Y211316D01*
X152567Y211227D01*
X152611Y211139D01*
X152658Y211054D01*
X152709Y210970D01*
X152763Y210888D01*
X152820Y210809D01*
X152880Y210732D01*
X152943Y210658D01*
X153010Y210586D01*
X153079Y210517D01*
X153151Y210450D01*
X153225Y210387D01*
X153302Y210327D01*
X153381Y210270D01*
X153463Y210216D01*
X153546Y210165D01*
X153632Y210118D01*
X153720Y210074D01*
X153809Y210034D01*
X153899Y209998D01*
X153991Y209965D01*
X154085Y209936D01*
X154179Y209911D01*
X154275Y209889D01*
X154371Y209871D01*
X154467Y209858D01*
X154565Y209848D01*
X154662Y209842D01*
X154760Y209840D01*
X157187Y209840D01*
X154275Y209840D02*
X152333Y205956D01*
X148391Y205956D02*
X144507Y205956D01*
X148391Y205956D02*
X148391Y214694D01*
X144507Y214694D01*
X145478Y210810D02*
X148391Y210810D01*
X138655Y205956D02*
X138568Y205958D01*
X138481Y205964D01*
X138394Y205974D01*
X138308Y205987D01*
X138223Y206005D01*
X138138Y206026D01*
X138055Y206051D01*
X137973Y206080D01*
X137892Y206112D01*
X137812Y206148D01*
X137735Y206188D01*
X137659Y206231D01*
X137585Y206277D01*
X137514Y206327D01*
X137444Y206380D01*
X137377Y206436D01*
X137313Y206494D01*
X137251Y206556D01*
X137193Y206620D01*
X137137Y206687D01*
X137084Y206757D01*
X137034Y206828D01*
X136988Y206902D01*
X136945Y206978D01*
X136905Y207055D01*
X136869Y207135D01*
X136837Y207216D01*
X136808Y207298D01*
X136783Y207381D01*
X136762Y207466D01*
X136744Y207551D01*
X136731Y207637D01*
X136721Y207724D01*
X136715Y207811D01*
X136713Y207898D01*
X138655Y205956D02*
X138780Y205958D01*
X138904Y205964D01*
X139028Y205973D01*
X139152Y205986D01*
X139276Y206003D01*
X139398Y206024D01*
X139520Y206048D01*
X139642Y206076D01*
X139762Y206108D01*
X139882Y206144D01*
X140000Y206183D01*
X140117Y206225D01*
X140233Y206272D01*
X140347Y206321D01*
X140460Y206374D01*
X140571Y206431D01*
X140680Y206491D01*
X140787Y206554D01*
X140893Y206620D01*
X140996Y206690D01*
X141097Y206762D01*
X141196Y206838D01*
X141293Y206917D01*
X141387Y206998D01*
X141479Y207082D01*
X141568Y207170D01*
X141325Y212752D02*
X141323Y212839D01*
X141317Y212926D01*
X141307Y213013D01*
X141294Y213099D01*
X141276Y213184D01*
X141255Y213269D01*
X141230Y213352D01*
X141201Y213434D01*
X141169Y213515D01*
X141133Y213595D01*
X141093Y213672D01*
X141050Y213748D01*
X141004Y213822D01*
X140954Y213893D01*
X140901Y213963D01*
X140845Y214030D01*
X140787Y214094D01*
X140725Y214156D01*
X140661Y214214D01*
X140594Y214270D01*
X140524Y214323D01*
X140453Y214373D01*
X140379Y214419D01*
X140303Y214462D01*
X140226Y214502D01*
X140146Y214538D01*
X140065Y214570D01*
X139983Y214599D01*
X139900Y214624D01*
X139815Y214645D01*
X139730Y214663D01*
X139644Y214676D01*
X139557Y214686D01*
X139470Y214692D01*
X139383Y214694D01*
X139266Y214692D01*
X139149Y214686D01*
X139032Y214677D01*
X138916Y214664D01*
X138800Y214647D01*
X138684Y214626D01*
X138570Y214602D01*
X138456Y214574D01*
X138343Y214542D01*
X138232Y214507D01*
X138121Y214468D01*
X138012Y214426D01*
X137904Y214380D01*
X137798Y214331D01*
X137693Y214278D01*
X137590Y214222D01*
X137489Y214163D01*
X137390Y214100D01*
X137293Y214035D01*
X137198Y213966D01*
X140354Y211053D02*
X140427Y211098D01*
X140497Y211146D01*
X140566Y211197D01*
X140632Y211251D01*
X140696Y211308D01*
X140757Y211367D01*
X140815Y211429D01*
X140871Y211493D01*
X140924Y211560D01*
X140974Y211629D01*
X141021Y211700D01*
X141065Y211774D01*
X141106Y211849D01*
X141143Y211925D01*
X141177Y212003D01*
X141208Y212083D01*
X141235Y212164D01*
X141259Y212246D01*
X141279Y212329D01*
X141296Y212412D01*
X141308Y212497D01*
X141318Y212582D01*
X141323Y212667D01*
X141325Y212752D01*
X137684Y209597D02*
X137611Y209552D01*
X137541Y209504D01*
X137472Y209453D01*
X137406Y209399D01*
X137343Y209343D01*
X137281Y209283D01*
X137223Y209221D01*
X137167Y209157D01*
X137114Y209090D01*
X137064Y209021D01*
X137017Y208950D01*
X136973Y208876D01*
X136932Y208801D01*
X136895Y208725D01*
X136861Y208647D01*
X136830Y208567D01*
X136803Y208486D01*
X136779Y208404D01*
X136759Y208321D01*
X136742Y208238D01*
X136730Y208153D01*
X136720Y208068D01*
X136715Y207983D01*
X136713Y207898D01*
X137684Y209597D02*
X140354Y211053D01*
X131445Y214694D02*
X131445Y205956D01*
X129018Y214694D02*
X133873Y214694D01*
X125893Y212267D02*
X125893Y208383D01*
X125892Y212267D02*
X125890Y212365D01*
X125884Y212462D01*
X125874Y212560D01*
X125861Y212656D01*
X125843Y212752D01*
X125821Y212848D01*
X125796Y212942D01*
X125767Y213036D01*
X125734Y213128D01*
X125698Y213218D01*
X125658Y213307D01*
X125614Y213395D01*
X125567Y213481D01*
X125516Y213564D01*
X125462Y213646D01*
X125405Y213725D01*
X125345Y213802D01*
X125282Y213876D01*
X125215Y213948D01*
X125146Y214017D01*
X125074Y214084D01*
X125000Y214147D01*
X124923Y214207D01*
X124844Y214264D01*
X124762Y214318D01*
X124679Y214369D01*
X124593Y214416D01*
X124505Y214460D01*
X124416Y214500D01*
X124326Y214536D01*
X124234Y214569D01*
X124140Y214598D01*
X124046Y214623D01*
X123950Y214645D01*
X123854Y214663D01*
X123758Y214676D01*
X123660Y214686D01*
X123563Y214692D01*
X123465Y214694D01*
X123367Y214692D01*
X123270Y214686D01*
X123172Y214676D01*
X123076Y214663D01*
X122980Y214645D01*
X122884Y214623D01*
X122790Y214598D01*
X122696Y214569D01*
X122604Y214536D01*
X122514Y214500D01*
X122425Y214460D01*
X122337Y214416D01*
X122252Y214369D01*
X122168Y214318D01*
X122086Y214264D01*
X122007Y214207D01*
X121930Y214147D01*
X121856Y214084D01*
X121784Y214017D01*
X121715Y213948D01*
X121648Y213876D01*
X121585Y213802D01*
X121525Y213725D01*
X121468Y213646D01*
X121414Y213564D01*
X121363Y213481D01*
X121316Y213395D01*
X121272Y213307D01*
X121232Y213218D01*
X121196Y213128D01*
X121163Y213036D01*
X121134Y212942D01*
X121109Y212848D01*
X121087Y212752D01*
X121069Y212656D01*
X121056Y212560D01*
X121046Y212462D01*
X121040Y212365D01*
X121038Y212267D01*
X121038Y208383D01*
X121040Y208285D01*
X121046Y208188D01*
X121056Y208090D01*
X121069Y207994D01*
X121087Y207898D01*
X121109Y207802D01*
X121134Y207708D01*
X121163Y207614D01*
X121196Y207522D01*
X121232Y207432D01*
X121272Y207343D01*
X121316Y207255D01*
X121363Y207170D01*
X121414Y207086D01*
X121468Y207004D01*
X121525Y206925D01*
X121585Y206848D01*
X121648Y206774D01*
X121715Y206702D01*
X121784Y206633D01*
X121856Y206566D01*
X121930Y206503D01*
X122007Y206443D01*
X122086Y206386D01*
X122168Y206332D01*
X122251Y206281D01*
X122337Y206234D01*
X122425Y206190D01*
X122514Y206150D01*
X122604Y206114D01*
X122696Y206081D01*
X122790Y206052D01*
X122884Y206027D01*
X122980Y206005D01*
X123076Y205987D01*
X123172Y205974D01*
X123270Y205964D01*
X123367Y205958D01*
X123465Y205956D01*
X123563Y205958D01*
X123660Y205964D01*
X123758Y205974D01*
X123854Y205987D01*
X123950Y206005D01*
X124046Y206027D01*
X124140Y206052D01*
X124234Y206081D01*
X124326Y206114D01*
X124416Y206150D01*
X124505Y206190D01*
X124593Y206234D01*
X124678Y206281D01*
X124762Y206332D01*
X124844Y206386D01*
X124923Y206443D01*
X125000Y206503D01*
X125074Y206566D01*
X125146Y206633D01*
X125215Y206702D01*
X125282Y206774D01*
X125345Y206848D01*
X125405Y206925D01*
X125462Y207004D01*
X125516Y207086D01*
X125567Y207169D01*
X125614Y207255D01*
X125658Y207343D01*
X125698Y207432D01*
X125734Y207522D01*
X125767Y207614D01*
X125796Y207708D01*
X125821Y207802D01*
X125843Y207898D01*
X125861Y207994D01*
X125874Y208090D01*
X125884Y208188D01*
X125890Y208285D01*
X125892Y208383D01*
X117003Y205956D02*
X117003Y214694D01*
X114575Y214694D01*
X114477Y214692D01*
X114380Y214686D01*
X114282Y214676D01*
X114186Y214663D01*
X114090Y214645D01*
X113994Y214623D01*
X113900Y214598D01*
X113806Y214569D01*
X113714Y214536D01*
X113624Y214500D01*
X113535Y214460D01*
X113447Y214416D01*
X113362Y214369D01*
X113278Y214318D01*
X113196Y214264D01*
X113117Y214207D01*
X113040Y214147D01*
X112966Y214084D01*
X112894Y214017D01*
X112825Y213948D01*
X112758Y213876D01*
X112695Y213802D01*
X112635Y213725D01*
X112578Y213646D01*
X112524Y213564D01*
X112473Y213481D01*
X112426Y213395D01*
X112382Y213307D01*
X112342Y213218D01*
X112306Y213128D01*
X112273Y213036D01*
X112244Y212942D01*
X112219Y212848D01*
X112197Y212752D01*
X112179Y212656D01*
X112166Y212560D01*
X112156Y212462D01*
X112150Y212365D01*
X112148Y212267D01*
X112150Y212169D01*
X112156Y212072D01*
X112166Y211974D01*
X112179Y211878D01*
X112197Y211782D01*
X112219Y211686D01*
X112244Y211592D01*
X112273Y211498D01*
X112306Y211406D01*
X112342Y211316D01*
X112382Y211227D01*
X112426Y211139D01*
X112473Y211054D01*
X112524Y210970D01*
X112578Y210888D01*
X112635Y210809D01*
X112695Y210732D01*
X112758Y210658D01*
X112825Y210586D01*
X112894Y210517D01*
X112966Y210450D01*
X113040Y210387D01*
X113117Y210327D01*
X113196Y210270D01*
X113278Y210216D01*
X113361Y210165D01*
X113447Y210118D01*
X113535Y210074D01*
X113624Y210034D01*
X113714Y209998D01*
X113806Y209965D01*
X113900Y209936D01*
X113994Y209911D01*
X114090Y209889D01*
X114186Y209871D01*
X114282Y209858D01*
X114380Y209848D01*
X114477Y209842D01*
X114575Y209840D01*
X117003Y209840D01*
X114090Y209840D02*
X112148Y205956D01*
X108206Y205956D02*
X104322Y205956D01*
X108206Y205956D02*
X108206Y214694D01*
X104322Y214694D01*
X105293Y210810D02*
X108206Y210810D01*
X96168Y214694D02*
X96168Y205956D01*
X93256Y209840D02*
X96168Y214694D01*
X93256Y209840D02*
X90343Y214694D01*
X90343Y205956D01*
X85561Y205956D02*
X85561Y214694D01*
X86531Y205956D02*
X84590Y205956D01*
X84590Y214694D02*
X86531Y214694D01*
X80863Y214694D02*
X80863Y205956D01*
X76008Y205956D02*
X80863Y214694D01*
X76008Y214694D02*
X76008Y205956D01*
X71311Y205956D02*
X71311Y214694D01*
X72281Y205956D02*
X70340Y205956D01*
X70340Y214694D02*
X72281Y214694D01*
X67278Y206441D02*
X67278Y205956D01*
X67278Y206441D02*
X66793Y206441D01*
X66793Y205956D01*
X67278Y205956D01*
X387860Y200444D02*
X387860Y191706D01*
X387860Y200444D02*
X385432Y200444D01*
X385334Y200442D01*
X385237Y200436D01*
X385139Y200426D01*
X385043Y200413D01*
X384947Y200395D01*
X384851Y200373D01*
X384757Y200348D01*
X384663Y200319D01*
X384571Y200286D01*
X384481Y200250D01*
X384392Y200210D01*
X384304Y200166D01*
X384219Y200119D01*
X384135Y200068D01*
X384053Y200014D01*
X383974Y199957D01*
X383897Y199897D01*
X383823Y199834D01*
X383751Y199767D01*
X383682Y199698D01*
X383615Y199626D01*
X383552Y199552D01*
X383492Y199475D01*
X383435Y199396D01*
X383381Y199314D01*
X383330Y199231D01*
X383283Y199145D01*
X383239Y199057D01*
X383199Y198968D01*
X383163Y198878D01*
X383130Y198786D01*
X383101Y198692D01*
X383076Y198598D01*
X383054Y198502D01*
X383036Y198406D01*
X383023Y198310D01*
X383013Y198212D01*
X383007Y198115D01*
X383005Y198017D01*
X383005Y194133D01*
X383007Y194035D01*
X383013Y193938D01*
X383023Y193840D01*
X383036Y193744D01*
X383054Y193648D01*
X383076Y193552D01*
X383101Y193458D01*
X383130Y193364D01*
X383163Y193272D01*
X383199Y193182D01*
X383239Y193093D01*
X383283Y193005D01*
X383330Y192920D01*
X383381Y192836D01*
X383435Y192754D01*
X383492Y192675D01*
X383552Y192598D01*
X383615Y192524D01*
X383682Y192452D01*
X383751Y192383D01*
X383823Y192316D01*
X383897Y192253D01*
X383974Y192193D01*
X384053Y192136D01*
X384135Y192082D01*
X384219Y192031D01*
X384304Y191984D01*
X384392Y191940D01*
X384481Y191900D01*
X384571Y191864D01*
X384663Y191831D01*
X384757Y191802D01*
X384851Y191777D01*
X384947Y191755D01*
X385043Y191737D01*
X385139Y191724D01*
X385237Y191714D01*
X385334Y191708D01*
X385432Y191706D01*
X387860Y191706D01*
X378723Y191706D02*
X374839Y191706D01*
X378723Y191706D02*
X378723Y200444D01*
X374839Y200444D01*
X375810Y196560D02*
X378723Y196560D01*
X368987Y191706D02*
X368900Y191708D01*
X368813Y191714D01*
X368726Y191724D01*
X368640Y191737D01*
X368555Y191755D01*
X368470Y191776D01*
X368387Y191801D01*
X368305Y191830D01*
X368224Y191862D01*
X368144Y191898D01*
X368067Y191938D01*
X367991Y191981D01*
X367917Y192027D01*
X367846Y192077D01*
X367776Y192130D01*
X367709Y192186D01*
X367645Y192244D01*
X367583Y192306D01*
X367525Y192370D01*
X367469Y192437D01*
X367416Y192507D01*
X367366Y192578D01*
X367320Y192652D01*
X367277Y192728D01*
X367237Y192805D01*
X367201Y192885D01*
X367169Y192966D01*
X367140Y193048D01*
X367115Y193131D01*
X367094Y193216D01*
X367076Y193301D01*
X367063Y193387D01*
X367053Y193474D01*
X367047Y193561D01*
X367045Y193648D01*
X368987Y191706D02*
X369112Y191708D01*
X369236Y191714D01*
X369360Y191723D01*
X369484Y191736D01*
X369608Y191753D01*
X369730Y191774D01*
X369852Y191798D01*
X369974Y191826D01*
X370094Y191858D01*
X370214Y191894D01*
X370332Y191933D01*
X370449Y191975D01*
X370565Y192022D01*
X370679Y192071D01*
X370792Y192124D01*
X370903Y192181D01*
X371012Y192241D01*
X371119Y192304D01*
X371225Y192370D01*
X371328Y192440D01*
X371429Y192512D01*
X371528Y192588D01*
X371625Y192667D01*
X371719Y192748D01*
X371811Y192832D01*
X371900Y192920D01*
X371657Y198502D02*
X371655Y198589D01*
X371649Y198676D01*
X371639Y198763D01*
X371626Y198849D01*
X371608Y198934D01*
X371587Y199019D01*
X371562Y199102D01*
X371533Y199184D01*
X371501Y199265D01*
X371465Y199345D01*
X371425Y199422D01*
X371382Y199498D01*
X371336Y199572D01*
X371286Y199643D01*
X371233Y199713D01*
X371177Y199780D01*
X371119Y199844D01*
X371057Y199906D01*
X370993Y199964D01*
X370926Y200020D01*
X370856Y200073D01*
X370785Y200123D01*
X370711Y200169D01*
X370635Y200212D01*
X370558Y200252D01*
X370478Y200288D01*
X370397Y200320D01*
X370315Y200349D01*
X370232Y200374D01*
X370147Y200395D01*
X370062Y200413D01*
X369976Y200426D01*
X369889Y200436D01*
X369802Y200442D01*
X369715Y200444D01*
X369598Y200442D01*
X369481Y200436D01*
X369364Y200427D01*
X369248Y200414D01*
X369132Y200397D01*
X369016Y200376D01*
X368902Y200352D01*
X368788Y200324D01*
X368675Y200292D01*
X368564Y200257D01*
X368453Y200218D01*
X368344Y200176D01*
X368236Y200130D01*
X368130Y200081D01*
X368025Y200028D01*
X367922Y199972D01*
X367821Y199913D01*
X367722Y199850D01*
X367625Y199785D01*
X367530Y199716D01*
X370686Y196803D02*
X370759Y196848D01*
X370829Y196896D01*
X370898Y196947D01*
X370964Y197001D01*
X371028Y197058D01*
X371089Y197117D01*
X371147Y197179D01*
X371203Y197243D01*
X371256Y197310D01*
X371306Y197379D01*
X371353Y197450D01*
X371397Y197524D01*
X371438Y197599D01*
X371475Y197675D01*
X371509Y197753D01*
X371540Y197833D01*
X371567Y197914D01*
X371591Y197996D01*
X371611Y198079D01*
X371628Y198162D01*
X371640Y198247D01*
X371650Y198332D01*
X371655Y198417D01*
X371657Y198502D01*
X368016Y195347D02*
X367943Y195302D01*
X367873Y195254D01*
X367804Y195203D01*
X367738Y195149D01*
X367675Y195093D01*
X367613Y195033D01*
X367555Y194971D01*
X367499Y194907D01*
X367446Y194840D01*
X367396Y194771D01*
X367349Y194700D01*
X367305Y194626D01*
X367264Y194551D01*
X367227Y194475D01*
X367193Y194397D01*
X367162Y194317D01*
X367135Y194236D01*
X367111Y194154D01*
X367091Y194071D01*
X367074Y193988D01*
X367062Y193903D01*
X367052Y193818D01*
X367047Y193733D01*
X367045Y193648D01*
X368016Y195347D02*
X370686Y196803D01*
X362917Y200444D02*
X362917Y191706D01*
X361947Y191706D02*
X363888Y191706D01*
X363888Y200444D02*
X361947Y200444D01*
X354822Y196560D02*
X353365Y196560D01*
X353365Y191706D01*
X356278Y191706D01*
X356365Y191708D01*
X356452Y191714D01*
X356539Y191724D01*
X356625Y191737D01*
X356710Y191755D01*
X356795Y191776D01*
X356878Y191801D01*
X356960Y191830D01*
X357041Y191862D01*
X357121Y191898D01*
X357198Y191938D01*
X357274Y191981D01*
X357348Y192027D01*
X357419Y192077D01*
X357489Y192130D01*
X357556Y192186D01*
X357620Y192244D01*
X357682Y192306D01*
X357740Y192370D01*
X357796Y192437D01*
X357849Y192507D01*
X357899Y192578D01*
X357945Y192652D01*
X357988Y192728D01*
X358028Y192805D01*
X358064Y192885D01*
X358096Y192966D01*
X358125Y193048D01*
X358150Y193131D01*
X358171Y193216D01*
X358189Y193301D01*
X358202Y193387D01*
X358212Y193474D01*
X358218Y193561D01*
X358220Y193648D01*
X358220Y198502D01*
X358218Y198589D01*
X358212Y198676D01*
X358202Y198763D01*
X358189Y198849D01*
X358171Y198934D01*
X358150Y199019D01*
X358125Y199102D01*
X358096Y199184D01*
X358064Y199265D01*
X358028Y199345D01*
X357988Y199422D01*
X357945Y199498D01*
X357899Y199572D01*
X357849Y199643D01*
X357796Y199713D01*
X357740Y199780D01*
X357682Y199844D01*
X357620Y199906D01*
X357556Y199964D01*
X357489Y200020D01*
X357419Y200073D01*
X357348Y200123D01*
X357274Y200169D01*
X357198Y200212D01*
X357121Y200252D01*
X357041Y200288D01*
X356960Y200320D01*
X356878Y200349D01*
X356795Y200374D01*
X356710Y200395D01*
X356625Y200413D01*
X356539Y200426D01*
X356452Y200436D01*
X356365Y200442D01*
X356278Y200444D01*
X353365Y200444D01*
X349100Y200444D02*
X349100Y191706D01*
X344245Y191706D02*
X349100Y200444D01*
X344245Y200444D02*
X344245Y191706D01*
X336190Y191706D02*
X333278Y200444D01*
X330365Y191706D01*
X331093Y193891D02*
X335462Y193891D01*
X326870Y191706D02*
X326870Y200444D01*
X322015Y191706D01*
X322015Y200444D01*
X317750Y200444D02*
X317750Y191706D01*
X317750Y200444D02*
X315323Y200444D01*
X315225Y200442D01*
X315128Y200436D01*
X315030Y200426D01*
X314934Y200413D01*
X314838Y200395D01*
X314742Y200373D01*
X314648Y200348D01*
X314554Y200319D01*
X314462Y200286D01*
X314372Y200250D01*
X314283Y200210D01*
X314195Y200166D01*
X314110Y200119D01*
X314026Y200068D01*
X313944Y200014D01*
X313865Y199957D01*
X313788Y199897D01*
X313714Y199834D01*
X313642Y199767D01*
X313573Y199698D01*
X313506Y199626D01*
X313443Y199552D01*
X313383Y199475D01*
X313326Y199396D01*
X313272Y199314D01*
X313221Y199231D01*
X313174Y199145D01*
X313130Y199057D01*
X313090Y198968D01*
X313054Y198878D01*
X313021Y198786D01*
X312992Y198692D01*
X312967Y198598D01*
X312945Y198502D01*
X312927Y198406D01*
X312914Y198310D01*
X312904Y198212D01*
X312898Y198115D01*
X312896Y198017D01*
X312895Y198017D02*
X312895Y194133D01*
X312896Y194133D02*
X312898Y194035D01*
X312904Y193938D01*
X312914Y193840D01*
X312927Y193744D01*
X312945Y193648D01*
X312967Y193552D01*
X312992Y193458D01*
X313021Y193364D01*
X313054Y193272D01*
X313090Y193182D01*
X313130Y193093D01*
X313174Y193005D01*
X313221Y192920D01*
X313272Y192836D01*
X313326Y192754D01*
X313383Y192675D01*
X313443Y192598D01*
X313506Y192524D01*
X313573Y192452D01*
X313642Y192383D01*
X313714Y192316D01*
X313788Y192253D01*
X313865Y192193D01*
X313944Y192136D01*
X314026Y192082D01*
X314110Y192031D01*
X314195Y191984D01*
X314283Y191940D01*
X314372Y191900D01*
X314462Y191864D01*
X314554Y191831D01*
X314648Y191802D01*
X314742Y191777D01*
X314838Y191755D01*
X314934Y191737D01*
X315030Y191724D01*
X315128Y191714D01*
X315225Y191708D01*
X315323Y191706D01*
X317750Y191706D01*
X302438Y191706D02*
X300496Y191706D01*
X302438Y191706D02*
X302525Y191708D01*
X302612Y191714D01*
X302699Y191724D01*
X302785Y191737D01*
X302870Y191755D01*
X302955Y191776D01*
X303038Y191801D01*
X303120Y191830D01*
X303201Y191862D01*
X303281Y191898D01*
X303358Y191938D01*
X303434Y191981D01*
X303508Y192027D01*
X303579Y192077D01*
X303649Y192130D01*
X303716Y192186D01*
X303780Y192244D01*
X303842Y192306D01*
X303900Y192370D01*
X303956Y192437D01*
X304009Y192507D01*
X304059Y192578D01*
X304105Y192652D01*
X304148Y192728D01*
X304188Y192805D01*
X304224Y192885D01*
X304256Y192966D01*
X304285Y193048D01*
X304310Y193131D01*
X304331Y193216D01*
X304349Y193301D01*
X304362Y193387D01*
X304372Y193474D01*
X304378Y193561D01*
X304380Y193648D01*
X304380Y198502D01*
X304378Y198589D01*
X304372Y198676D01*
X304362Y198763D01*
X304349Y198849D01*
X304331Y198934D01*
X304310Y199019D01*
X304285Y199102D01*
X304256Y199184D01*
X304224Y199265D01*
X304188Y199345D01*
X304148Y199422D01*
X304105Y199498D01*
X304059Y199572D01*
X304009Y199643D01*
X303956Y199713D01*
X303900Y199780D01*
X303842Y199844D01*
X303780Y199906D01*
X303716Y199964D01*
X303649Y200020D01*
X303579Y200073D01*
X303508Y200123D01*
X303434Y200169D01*
X303358Y200212D01*
X303281Y200252D01*
X303201Y200288D01*
X303120Y200320D01*
X303038Y200349D01*
X302955Y200374D01*
X302870Y200395D01*
X302785Y200413D01*
X302699Y200426D01*
X302612Y200436D01*
X302525Y200442D01*
X302438Y200444D01*
X300496Y200444D01*
X297230Y198017D02*
X297230Y194133D01*
X297230Y198017D02*
X297228Y198115D01*
X297222Y198212D01*
X297212Y198310D01*
X297199Y198406D01*
X297181Y198502D01*
X297159Y198598D01*
X297134Y198692D01*
X297105Y198786D01*
X297072Y198878D01*
X297036Y198968D01*
X296996Y199057D01*
X296952Y199145D01*
X296905Y199231D01*
X296854Y199314D01*
X296800Y199396D01*
X296743Y199475D01*
X296683Y199552D01*
X296620Y199626D01*
X296553Y199698D01*
X296484Y199767D01*
X296412Y199834D01*
X296338Y199897D01*
X296261Y199957D01*
X296182Y200014D01*
X296100Y200068D01*
X296017Y200119D01*
X295931Y200166D01*
X295843Y200210D01*
X295754Y200250D01*
X295664Y200286D01*
X295572Y200319D01*
X295478Y200348D01*
X295384Y200373D01*
X295288Y200395D01*
X295192Y200413D01*
X295096Y200426D01*
X294998Y200436D01*
X294901Y200442D01*
X294803Y200444D01*
X294705Y200442D01*
X294608Y200436D01*
X294510Y200426D01*
X294414Y200413D01*
X294318Y200395D01*
X294222Y200373D01*
X294128Y200348D01*
X294034Y200319D01*
X293942Y200286D01*
X293852Y200250D01*
X293763Y200210D01*
X293675Y200166D01*
X293590Y200119D01*
X293506Y200068D01*
X293424Y200014D01*
X293345Y199957D01*
X293268Y199897D01*
X293194Y199834D01*
X293122Y199767D01*
X293053Y199698D01*
X292986Y199626D01*
X292923Y199552D01*
X292863Y199475D01*
X292806Y199396D01*
X292752Y199314D01*
X292701Y199231D01*
X292654Y199145D01*
X292610Y199057D01*
X292570Y198968D01*
X292534Y198878D01*
X292501Y198786D01*
X292472Y198692D01*
X292447Y198598D01*
X292425Y198502D01*
X292407Y198406D01*
X292394Y198310D01*
X292384Y198212D01*
X292378Y198115D01*
X292376Y198017D01*
X292375Y198017D02*
X292375Y194133D01*
X292376Y194133D02*
X292378Y194035D01*
X292384Y193938D01*
X292394Y193840D01*
X292407Y193744D01*
X292425Y193648D01*
X292447Y193552D01*
X292472Y193458D01*
X292501Y193364D01*
X292534Y193272D01*
X292570Y193182D01*
X292610Y193093D01*
X292654Y193005D01*
X292701Y192920D01*
X292752Y192836D01*
X292806Y192754D01*
X292863Y192675D01*
X292923Y192598D01*
X292986Y192524D01*
X293053Y192452D01*
X293122Y192383D01*
X293194Y192316D01*
X293268Y192253D01*
X293345Y192193D01*
X293424Y192136D01*
X293506Y192082D01*
X293590Y192031D01*
X293675Y191984D01*
X293763Y191940D01*
X293852Y191900D01*
X293942Y191864D01*
X294034Y191831D01*
X294128Y191802D01*
X294222Y191777D01*
X294318Y191755D01*
X294414Y191737D01*
X294510Y191724D01*
X294608Y191714D01*
X294705Y191708D01*
X294803Y191706D01*
X294901Y191708D01*
X294998Y191714D01*
X295096Y191724D01*
X295192Y191737D01*
X295288Y191755D01*
X295384Y191777D01*
X295478Y191802D01*
X295572Y191831D01*
X295664Y191864D01*
X295754Y191900D01*
X295843Y191940D01*
X295931Y191984D01*
X296017Y192031D01*
X296100Y192082D01*
X296182Y192136D01*
X296261Y192193D01*
X296338Y192253D01*
X296412Y192316D01*
X296484Y192383D01*
X296553Y192452D01*
X296620Y192524D01*
X296683Y192598D01*
X296743Y192675D01*
X296800Y192754D01*
X296854Y192836D01*
X296905Y192919D01*
X296952Y193005D01*
X296996Y193093D01*
X297036Y193182D01*
X297072Y193272D01*
X297105Y193364D01*
X297134Y193458D01*
X297159Y193552D01*
X297181Y193648D01*
X297199Y193744D01*
X297212Y193840D01*
X297222Y193938D01*
X297228Y194035D01*
X297230Y194133D01*
X288395Y191706D02*
X288395Y200444D01*
X283540Y191706D01*
X283540Y200444D01*
X277643Y191706D02*
X275701Y191706D01*
X277643Y191706D02*
X277730Y191708D01*
X277817Y191714D01*
X277904Y191724D01*
X277990Y191737D01*
X278075Y191755D01*
X278160Y191776D01*
X278243Y191801D01*
X278325Y191830D01*
X278406Y191862D01*
X278486Y191898D01*
X278563Y191938D01*
X278639Y191981D01*
X278713Y192027D01*
X278784Y192077D01*
X278854Y192130D01*
X278921Y192186D01*
X278985Y192244D01*
X279047Y192306D01*
X279105Y192370D01*
X279161Y192437D01*
X279214Y192507D01*
X279264Y192578D01*
X279310Y192652D01*
X279353Y192728D01*
X279393Y192805D01*
X279429Y192885D01*
X279461Y192966D01*
X279490Y193048D01*
X279515Y193131D01*
X279536Y193216D01*
X279554Y193301D01*
X279567Y193387D01*
X279577Y193474D01*
X279583Y193561D01*
X279585Y193648D01*
X279585Y198502D01*
X279583Y198589D01*
X279577Y198676D01*
X279567Y198763D01*
X279554Y198849D01*
X279536Y198934D01*
X279515Y199019D01*
X279490Y199102D01*
X279461Y199184D01*
X279429Y199265D01*
X279393Y199345D01*
X279353Y199422D01*
X279310Y199498D01*
X279264Y199572D01*
X279214Y199643D01*
X279161Y199713D01*
X279105Y199780D01*
X279047Y199844D01*
X278985Y199906D01*
X278921Y199964D01*
X278854Y200020D01*
X278784Y200073D01*
X278713Y200123D01*
X278639Y200169D01*
X278563Y200212D01*
X278486Y200252D01*
X278406Y200288D01*
X278325Y200320D01*
X278243Y200349D01*
X278160Y200374D01*
X278075Y200395D01*
X277990Y200413D01*
X277904Y200426D01*
X277817Y200436D01*
X277730Y200442D01*
X277643Y200444D01*
X275701Y200444D01*
X272133Y191706D02*
X268249Y191706D01*
X272133Y191706D02*
X272133Y200444D01*
X268249Y200444D01*
X269220Y196560D02*
X272133Y196560D01*
X264613Y200444D02*
X264613Y191706D01*
X264613Y200444D02*
X262186Y200444D01*
X262088Y200442D01*
X261991Y200436D01*
X261893Y200426D01*
X261797Y200413D01*
X261701Y200395D01*
X261605Y200373D01*
X261511Y200348D01*
X261417Y200319D01*
X261325Y200286D01*
X261235Y200250D01*
X261146Y200210D01*
X261058Y200166D01*
X260973Y200119D01*
X260889Y200068D01*
X260807Y200014D01*
X260728Y199957D01*
X260651Y199897D01*
X260577Y199834D01*
X260505Y199767D01*
X260436Y199698D01*
X260369Y199626D01*
X260306Y199552D01*
X260246Y199475D01*
X260189Y199396D01*
X260135Y199314D01*
X260084Y199231D01*
X260037Y199145D01*
X259993Y199057D01*
X259953Y198968D01*
X259917Y198878D01*
X259884Y198786D01*
X259855Y198692D01*
X259830Y198598D01*
X259808Y198502D01*
X259790Y198406D01*
X259777Y198310D01*
X259767Y198212D01*
X259761Y198115D01*
X259759Y198017D01*
X259761Y197919D01*
X259767Y197822D01*
X259777Y197724D01*
X259790Y197628D01*
X259808Y197532D01*
X259830Y197436D01*
X259855Y197342D01*
X259884Y197248D01*
X259917Y197156D01*
X259953Y197066D01*
X259993Y196977D01*
X260037Y196889D01*
X260084Y196804D01*
X260135Y196720D01*
X260189Y196638D01*
X260246Y196559D01*
X260306Y196482D01*
X260369Y196408D01*
X260436Y196336D01*
X260505Y196267D01*
X260577Y196200D01*
X260651Y196137D01*
X260728Y196077D01*
X260807Y196020D01*
X260889Y195966D01*
X260972Y195915D01*
X261058Y195868D01*
X261146Y195824D01*
X261235Y195784D01*
X261325Y195748D01*
X261417Y195715D01*
X261511Y195686D01*
X261605Y195661D01*
X261701Y195639D01*
X261797Y195621D01*
X261893Y195608D01*
X261991Y195598D01*
X262088Y195592D01*
X262186Y195590D01*
X264613Y195590D01*
X254618Y191706D02*
X254618Y200444D01*
X257045Y200444D02*
X252190Y200444D01*
X244821Y200444D02*
X242880Y191706D01*
X240938Y197531D01*
X238996Y191706D01*
X237054Y200444D01*
X233991Y200444D02*
X232050Y191706D01*
X230108Y197531D01*
X228166Y191706D01*
X226224Y200444D01*
X223161Y200444D02*
X221220Y191706D01*
X219278Y197531D01*
X217336Y191706D01*
X215394Y200444D01*
X212396Y192191D02*
X212396Y191706D01*
X212396Y192191D02*
X211910Y192191D01*
X211910Y191706D01*
X212396Y191706D01*
X206678Y191706D02*
X204736Y191706D01*
X206678Y191706D02*
X206765Y191708D01*
X206852Y191714D01*
X206939Y191724D01*
X207025Y191737D01*
X207110Y191755D01*
X207195Y191776D01*
X207278Y191801D01*
X207360Y191830D01*
X207441Y191862D01*
X207521Y191898D01*
X207598Y191938D01*
X207674Y191981D01*
X207748Y192027D01*
X207819Y192077D01*
X207889Y192130D01*
X207956Y192186D01*
X208020Y192244D01*
X208082Y192306D01*
X208140Y192370D01*
X208196Y192437D01*
X208249Y192507D01*
X208299Y192578D01*
X208345Y192652D01*
X208388Y192728D01*
X208428Y192805D01*
X208464Y192885D01*
X208496Y192966D01*
X208525Y193048D01*
X208550Y193131D01*
X208571Y193216D01*
X208589Y193301D01*
X208602Y193387D01*
X208612Y193474D01*
X208618Y193561D01*
X208620Y193648D01*
X208620Y198502D01*
X208618Y198589D01*
X208612Y198676D01*
X208602Y198763D01*
X208589Y198849D01*
X208571Y198934D01*
X208550Y199019D01*
X208525Y199102D01*
X208496Y199184D01*
X208464Y199265D01*
X208428Y199345D01*
X208388Y199422D01*
X208345Y199498D01*
X208299Y199572D01*
X208249Y199643D01*
X208196Y199713D01*
X208140Y199780D01*
X208082Y199844D01*
X208020Y199906D01*
X207956Y199964D01*
X207889Y200020D01*
X207819Y200073D01*
X207748Y200123D01*
X207674Y200169D01*
X207598Y200212D01*
X207521Y200252D01*
X207441Y200288D01*
X207360Y200320D01*
X207278Y200349D01*
X207195Y200374D01*
X207110Y200395D01*
X207025Y200413D01*
X206939Y200426D01*
X206852Y200436D01*
X206765Y200442D01*
X206678Y200444D01*
X204736Y200444D01*
X201470Y198017D02*
X201470Y194133D01*
X201470Y198017D02*
X201468Y198115D01*
X201462Y198212D01*
X201452Y198310D01*
X201439Y198406D01*
X201421Y198502D01*
X201399Y198598D01*
X201374Y198692D01*
X201345Y198786D01*
X201312Y198878D01*
X201276Y198968D01*
X201236Y199057D01*
X201192Y199145D01*
X201145Y199231D01*
X201094Y199314D01*
X201040Y199396D01*
X200983Y199475D01*
X200923Y199552D01*
X200860Y199626D01*
X200793Y199698D01*
X200724Y199767D01*
X200652Y199834D01*
X200578Y199897D01*
X200501Y199957D01*
X200422Y200014D01*
X200340Y200068D01*
X200257Y200119D01*
X200171Y200166D01*
X200083Y200210D01*
X199994Y200250D01*
X199904Y200286D01*
X199812Y200319D01*
X199718Y200348D01*
X199624Y200373D01*
X199528Y200395D01*
X199432Y200413D01*
X199336Y200426D01*
X199238Y200436D01*
X199141Y200442D01*
X199043Y200444D01*
X198945Y200442D01*
X198848Y200436D01*
X198750Y200426D01*
X198654Y200413D01*
X198558Y200395D01*
X198462Y200373D01*
X198368Y200348D01*
X198274Y200319D01*
X198182Y200286D01*
X198092Y200250D01*
X198003Y200210D01*
X197915Y200166D01*
X197830Y200119D01*
X197746Y200068D01*
X197664Y200014D01*
X197585Y199957D01*
X197508Y199897D01*
X197434Y199834D01*
X197362Y199767D01*
X197293Y199698D01*
X197226Y199626D01*
X197163Y199552D01*
X197103Y199475D01*
X197046Y199396D01*
X196992Y199314D01*
X196941Y199231D01*
X196894Y199145D01*
X196850Y199057D01*
X196810Y198968D01*
X196774Y198878D01*
X196741Y198786D01*
X196712Y198692D01*
X196687Y198598D01*
X196665Y198502D01*
X196647Y198406D01*
X196634Y198310D01*
X196624Y198212D01*
X196618Y198115D01*
X196616Y198017D01*
X196616Y194133D01*
X196618Y194035D01*
X196624Y193938D01*
X196634Y193840D01*
X196647Y193744D01*
X196665Y193648D01*
X196687Y193552D01*
X196712Y193458D01*
X196741Y193364D01*
X196774Y193272D01*
X196810Y193182D01*
X196850Y193093D01*
X196894Y193005D01*
X196941Y192920D01*
X196992Y192836D01*
X197046Y192754D01*
X197103Y192675D01*
X197163Y192598D01*
X197226Y192524D01*
X197293Y192452D01*
X197362Y192383D01*
X197434Y192316D01*
X197508Y192253D01*
X197585Y192193D01*
X197664Y192136D01*
X197746Y192082D01*
X197830Y192031D01*
X197915Y191984D01*
X198003Y191940D01*
X198092Y191900D01*
X198182Y191864D01*
X198274Y191831D01*
X198368Y191802D01*
X198462Y191777D01*
X198558Y191755D01*
X198654Y191737D01*
X198750Y191724D01*
X198848Y191714D01*
X198945Y191708D01*
X199043Y191706D01*
X199141Y191708D01*
X199238Y191714D01*
X199336Y191724D01*
X199432Y191737D01*
X199528Y191755D01*
X199624Y191777D01*
X199718Y191802D01*
X199812Y191831D01*
X199904Y191864D01*
X199994Y191900D01*
X200083Y191940D01*
X200171Y191984D01*
X200256Y192031D01*
X200340Y192082D01*
X200422Y192136D01*
X200501Y192193D01*
X200578Y192253D01*
X200652Y192316D01*
X200724Y192383D01*
X200793Y192452D01*
X200860Y192524D01*
X200923Y192598D01*
X200983Y192675D01*
X201040Y192754D01*
X201094Y192836D01*
X201145Y192919D01*
X201192Y193005D01*
X201236Y193093D01*
X201276Y193182D01*
X201312Y193272D01*
X201345Y193364D01*
X201374Y193458D01*
X201399Y193552D01*
X201421Y193648D01*
X201439Y193744D01*
X201452Y193840D01*
X201462Y193938D01*
X201468Y194035D01*
X201470Y194133D01*
X192635Y191706D02*
X192635Y200444D01*
X187781Y191706D01*
X187781Y200444D01*
X179230Y193648D02*
X179232Y193561D01*
X179238Y193474D01*
X179248Y193387D01*
X179261Y193301D01*
X179279Y193216D01*
X179300Y193131D01*
X179325Y193048D01*
X179354Y192966D01*
X179386Y192885D01*
X179422Y192805D01*
X179462Y192728D01*
X179505Y192652D01*
X179551Y192578D01*
X179601Y192507D01*
X179654Y192437D01*
X179710Y192370D01*
X179768Y192306D01*
X179830Y192244D01*
X179894Y192186D01*
X179961Y192130D01*
X180031Y192077D01*
X180102Y192027D01*
X180176Y191981D01*
X180252Y191938D01*
X180329Y191898D01*
X180409Y191862D01*
X180490Y191830D01*
X180572Y191801D01*
X180655Y191776D01*
X180740Y191755D01*
X180825Y191737D01*
X180911Y191724D01*
X180998Y191714D01*
X181085Y191708D01*
X181172Y191706D01*
X181297Y191708D01*
X181421Y191714D01*
X181545Y191723D01*
X181669Y191736D01*
X181793Y191753D01*
X181915Y191774D01*
X182037Y191798D01*
X182159Y191826D01*
X182279Y191858D01*
X182399Y191894D01*
X182517Y191933D01*
X182634Y191975D01*
X182750Y192022D01*
X182864Y192071D01*
X182977Y192124D01*
X183088Y192181D01*
X183197Y192241D01*
X183304Y192304D01*
X183410Y192370D01*
X183513Y192440D01*
X183614Y192512D01*
X183713Y192588D01*
X183810Y192667D01*
X183904Y192748D01*
X183996Y192832D01*
X184085Y192920D01*
X183843Y198502D02*
X183841Y198589D01*
X183835Y198676D01*
X183825Y198763D01*
X183812Y198849D01*
X183794Y198934D01*
X183773Y199019D01*
X183748Y199102D01*
X183719Y199184D01*
X183687Y199265D01*
X183651Y199345D01*
X183611Y199422D01*
X183568Y199498D01*
X183522Y199572D01*
X183472Y199643D01*
X183419Y199713D01*
X183363Y199780D01*
X183305Y199844D01*
X183243Y199906D01*
X183179Y199964D01*
X183112Y200020D01*
X183042Y200073D01*
X182971Y200123D01*
X182897Y200169D01*
X182821Y200212D01*
X182744Y200252D01*
X182664Y200288D01*
X182583Y200320D01*
X182501Y200349D01*
X182418Y200374D01*
X182333Y200395D01*
X182248Y200413D01*
X182162Y200426D01*
X182075Y200436D01*
X181988Y200442D01*
X181901Y200444D01*
X181784Y200442D01*
X181667Y200436D01*
X181550Y200427D01*
X181434Y200414D01*
X181318Y200397D01*
X181202Y200376D01*
X181088Y200352D01*
X180974Y200324D01*
X180861Y200292D01*
X180750Y200257D01*
X180639Y200218D01*
X180530Y200176D01*
X180422Y200130D01*
X180316Y200081D01*
X180211Y200028D01*
X180108Y199972D01*
X180007Y199913D01*
X179908Y199850D01*
X179811Y199785D01*
X179716Y199716D01*
X182871Y196803D02*
X182944Y196848D01*
X183014Y196896D01*
X183083Y196947D01*
X183149Y197001D01*
X183213Y197058D01*
X183274Y197117D01*
X183332Y197179D01*
X183388Y197243D01*
X183441Y197310D01*
X183491Y197379D01*
X183538Y197450D01*
X183582Y197524D01*
X183623Y197599D01*
X183660Y197675D01*
X183694Y197753D01*
X183725Y197833D01*
X183752Y197914D01*
X183776Y197996D01*
X183796Y198079D01*
X183813Y198162D01*
X183825Y198247D01*
X183835Y198332D01*
X183840Y198417D01*
X183842Y198502D01*
X180202Y195347D02*
X180129Y195302D01*
X180059Y195254D01*
X179990Y195203D01*
X179924Y195149D01*
X179861Y195093D01*
X179799Y195033D01*
X179741Y194971D01*
X179685Y194907D01*
X179632Y194840D01*
X179582Y194771D01*
X179535Y194700D01*
X179491Y194626D01*
X179450Y194551D01*
X179413Y194475D01*
X179379Y194397D01*
X179348Y194317D01*
X179321Y194236D01*
X179297Y194154D01*
X179277Y194071D01*
X179260Y193988D01*
X179248Y193903D01*
X179238Y193818D01*
X179233Y193733D01*
X179231Y193648D01*
X180202Y195347D02*
X182871Y196803D01*
X175820Y198017D02*
X175820Y194133D01*
X175820Y198017D02*
X175818Y198115D01*
X175812Y198212D01*
X175802Y198310D01*
X175789Y198406D01*
X175771Y198502D01*
X175749Y198598D01*
X175724Y198692D01*
X175695Y198786D01*
X175662Y198878D01*
X175626Y198968D01*
X175586Y199057D01*
X175542Y199145D01*
X175495Y199231D01*
X175444Y199314D01*
X175390Y199396D01*
X175333Y199475D01*
X175273Y199552D01*
X175210Y199626D01*
X175143Y199698D01*
X175074Y199767D01*
X175002Y199834D01*
X174928Y199897D01*
X174851Y199957D01*
X174772Y200014D01*
X174690Y200068D01*
X174607Y200119D01*
X174521Y200166D01*
X174433Y200210D01*
X174344Y200250D01*
X174254Y200286D01*
X174162Y200319D01*
X174068Y200348D01*
X173974Y200373D01*
X173878Y200395D01*
X173782Y200413D01*
X173686Y200426D01*
X173588Y200436D01*
X173491Y200442D01*
X173393Y200444D01*
X173295Y200442D01*
X173198Y200436D01*
X173100Y200426D01*
X173004Y200413D01*
X172908Y200395D01*
X172812Y200373D01*
X172718Y200348D01*
X172624Y200319D01*
X172532Y200286D01*
X172442Y200250D01*
X172353Y200210D01*
X172265Y200166D01*
X172180Y200119D01*
X172096Y200068D01*
X172014Y200014D01*
X171935Y199957D01*
X171858Y199897D01*
X171784Y199834D01*
X171712Y199767D01*
X171643Y199698D01*
X171576Y199626D01*
X171513Y199552D01*
X171453Y199475D01*
X171396Y199396D01*
X171342Y199314D01*
X171291Y199231D01*
X171244Y199145D01*
X171200Y199057D01*
X171160Y198968D01*
X171124Y198878D01*
X171091Y198786D01*
X171062Y198692D01*
X171037Y198598D01*
X171015Y198502D01*
X170997Y198406D01*
X170984Y198310D01*
X170974Y198212D01*
X170968Y198115D01*
X170966Y198017D01*
X170966Y194133D01*
X170968Y194035D01*
X170974Y193938D01*
X170984Y193840D01*
X170997Y193744D01*
X171015Y193648D01*
X171037Y193552D01*
X171062Y193458D01*
X171091Y193364D01*
X171124Y193272D01*
X171160Y193182D01*
X171200Y193093D01*
X171244Y193005D01*
X171291Y192920D01*
X171342Y192836D01*
X171396Y192754D01*
X171453Y192675D01*
X171513Y192598D01*
X171576Y192524D01*
X171643Y192452D01*
X171712Y192383D01*
X171784Y192316D01*
X171858Y192253D01*
X171935Y192193D01*
X172014Y192136D01*
X172096Y192082D01*
X172180Y192031D01*
X172265Y191984D01*
X172353Y191940D01*
X172442Y191900D01*
X172532Y191864D01*
X172624Y191831D01*
X172718Y191802D01*
X172812Y191777D01*
X172908Y191755D01*
X173004Y191737D01*
X173100Y191724D01*
X173198Y191714D01*
X173295Y191708D01*
X173393Y191706D01*
X173491Y191708D01*
X173588Y191714D01*
X173686Y191724D01*
X173782Y191737D01*
X173878Y191755D01*
X173974Y191777D01*
X174068Y191802D01*
X174162Y191831D01*
X174254Y191864D01*
X174344Y191900D01*
X174433Y191940D01*
X174521Y191984D01*
X174606Y192031D01*
X174690Y192082D01*
X174772Y192136D01*
X174851Y192193D01*
X174928Y192253D01*
X175002Y192316D01*
X175074Y192383D01*
X175143Y192452D01*
X175210Y192524D01*
X175273Y192598D01*
X175333Y192675D01*
X175390Y192754D01*
X175444Y192836D01*
X175495Y192919D01*
X175542Y193005D01*
X175586Y193093D01*
X175626Y193182D01*
X175662Y193272D01*
X175695Y193364D01*
X175724Y193458D01*
X175749Y193552D01*
X175771Y193648D01*
X175789Y193744D01*
X175802Y193840D01*
X175812Y193938D01*
X175818Y194035D01*
X175820Y194133D01*
X166968Y191706D02*
X166968Y200444D01*
X166968Y191706D02*
X163085Y191706D01*
X159558Y191706D02*
X155675Y191706D01*
X159558Y191706D02*
X159558Y200444D01*
X155675Y200444D01*
X156646Y196560D02*
X159558Y196560D01*
X149822Y191706D02*
X149735Y191708D01*
X149648Y191714D01*
X149561Y191724D01*
X149475Y191737D01*
X149390Y191755D01*
X149305Y191776D01*
X149222Y191801D01*
X149140Y191830D01*
X149059Y191862D01*
X148979Y191898D01*
X148902Y191938D01*
X148826Y191981D01*
X148752Y192027D01*
X148681Y192077D01*
X148611Y192130D01*
X148544Y192186D01*
X148480Y192244D01*
X148418Y192306D01*
X148360Y192370D01*
X148304Y192437D01*
X148251Y192507D01*
X148201Y192578D01*
X148155Y192652D01*
X148112Y192728D01*
X148072Y192805D01*
X148036Y192885D01*
X148004Y192966D01*
X147975Y193048D01*
X147950Y193131D01*
X147929Y193216D01*
X147911Y193301D01*
X147898Y193387D01*
X147888Y193474D01*
X147882Y193561D01*
X147880Y193648D01*
X149822Y191706D02*
X149947Y191708D01*
X150071Y191714D01*
X150195Y191723D01*
X150319Y191736D01*
X150443Y191753D01*
X150565Y191774D01*
X150687Y191798D01*
X150809Y191826D01*
X150929Y191858D01*
X151049Y191894D01*
X151167Y191933D01*
X151284Y191975D01*
X151400Y192022D01*
X151514Y192071D01*
X151627Y192124D01*
X151738Y192181D01*
X151847Y192241D01*
X151954Y192304D01*
X152060Y192370D01*
X152163Y192440D01*
X152264Y192512D01*
X152363Y192588D01*
X152460Y192667D01*
X152554Y192748D01*
X152646Y192832D01*
X152735Y192920D01*
X152493Y198502D02*
X152491Y198589D01*
X152485Y198676D01*
X152475Y198763D01*
X152462Y198849D01*
X152444Y198934D01*
X152423Y199019D01*
X152398Y199102D01*
X152369Y199184D01*
X152337Y199265D01*
X152301Y199345D01*
X152261Y199422D01*
X152218Y199498D01*
X152172Y199572D01*
X152122Y199643D01*
X152069Y199713D01*
X152013Y199780D01*
X151955Y199844D01*
X151893Y199906D01*
X151829Y199964D01*
X151762Y200020D01*
X151692Y200073D01*
X151621Y200123D01*
X151547Y200169D01*
X151471Y200212D01*
X151394Y200252D01*
X151314Y200288D01*
X151233Y200320D01*
X151151Y200349D01*
X151068Y200374D01*
X150983Y200395D01*
X150898Y200413D01*
X150812Y200426D01*
X150725Y200436D01*
X150638Y200442D01*
X150551Y200444D01*
X150434Y200442D01*
X150317Y200436D01*
X150200Y200427D01*
X150084Y200414D01*
X149968Y200397D01*
X149852Y200376D01*
X149738Y200352D01*
X149624Y200324D01*
X149511Y200292D01*
X149400Y200257D01*
X149289Y200218D01*
X149180Y200176D01*
X149072Y200130D01*
X148966Y200081D01*
X148861Y200028D01*
X148758Y199972D01*
X148657Y199913D01*
X148558Y199850D01*
X148461Y199785D01*
X148366Y199716D01*
X151521Y196803D02*
X151594Y196848D01*
X151664Y196896D01*
X151733Y196947D01*
X151799Y197001D01*
X151863Y197058D01*
X151924Y197117D01*
X151982Y197179D01*
X152038Y197243D01*
X152091Y197310D01*
X152141Y197379D01*
X152188Y197450D01*
X152232Y197524D01*
X152273Y197599D01*
X152310Y197675D01*
X152344Y197753D01*
X152375Y197833D01*
X152402Y197914D01*
X152426Y197996D01*
X152446Y198079D01*
X152463Y198162D01*
X152475Y198247D01*
X152485Y198332D01*
X152490Y198417D01*
X152492Y198502D01*
X148852Y195347D02*
X148779Y195302D01*
X148709Y195254D01*
X148640Y195203D01*
X148574Y195149D01*
X148511Y195093D01*
X148449Y195033D01*
X148391Y194971D01*
X148335Y194907D01*
X148282Y194840D01*
X148232Y194771D01*
X148185Y194700D01*
X148141Y194626D01*
X148100Y194551D01*
X148063Y194475D01*
X148029Y194397D01*
X147998Y194317D01*
X147971Y194236D01*
X147947Y194154D01*
X147927Y194071D01*
X147910Y193988D01*
X147898Y193903D01*
X147888Y193818D01*
X147883Y193733D01*
X147881Y193648D01*
X148852Y195347D02*
X151522Y196803D01*
X144185Y194133D02*
X144185Y200444D01*
X144185Y194133D02*
X144183Y194035D01*
X144177Y193938D01*
X144167Y193840D01*
X144154Y193744D01*
X144136Y193648D01*
X144114Y193552D01*
X144089Y193458D01*
X144060Y193364D01*
X144027Y193272D01*
X143991Y193182D01*
X143951Y193093D01*
X143907Y193005D01*
X143860Y192919D01*
X143809Y192836D01*
X143755Y192754D01*
X143698Y192675D01*
X143638Y192598D01*
X143575Y192524D01*
X143508Y192452D01*
X143439Y192383D01*
X143367Y192316D01*
X143293Y192253D01*
X143216Y192193D01*
X143137Y192136D01*
X143055Y192082D01*
X142971Y192031D01*
X142886Y191984D01*
X142798Y191940D01*
X142709Y191900D01*
X142619Y191864D01*
X142527Y191831D01*
X142433Y191802D01*
X142339Y191777D01*
X142243Y191755D01*
X142147Y191737D01*
X142051Y191724D01*
X141953Y191714D01*
X141856Y191708D01*
X141758Y191706D01*
X141660Y191708D01*
X141563Y191714D01*
X141465Y191724D01*
X141369Y191737D01*
X141273Y191755D01*
X141177Y191777D01*
X141083Y191802D01*
X140989Y191831D01*
X140897Y191864D01*
X140807Y191900D01*
X140718Y191940D01*
X140630Y191984D01*
X140545Y192031D01*
X140461Y192082D01*
X140379Y192136D01*
X140300Y192193D01*
X140223Y192253D01*
X140149Y192316D01*
X140077Y192383D01*
X140008Y192452D01*
X139941Y192524D01*
X139878Y192598D01*
X139818Y192675D01*
X139761Y192754D01*
X139707Y192836D01*
X139656Y192920D01*
X139609Y193005D01*
X139565Y193093D01*
X139525Y193182D01*
X139489Y193272D01*
X139456Y193364D01*
X139427Y193458D01*
X139402Y193552D01*
X139380Y193648D01*
X139362Y193744D01*
X139349Y193840D01*
X139339Y193938D01*
X139333Y194035D01*
X139331Y194133D01*
X139331Y200444D01*
X135065Y200444D02*
X135065Y191706D01*
X130211Y191706D02*
X135065Y200444D01*
X130211Y200444D02*
X130211Y191706D01*
X125928Y191706D02*
X125928Y200444D01*
X125928Y191706D02*
X122045Y191706D01*
X118518Y191706D02*
X114635Y191706D01*
X118518Y191706D02*
X118518Y200444D01*
X114635Y200444D01*
X115606Y196560D02*
X118518Y196560D01*
X111896Y191706D02*
X108983Y200444D01*
X106070Y191706D01*
X106798Y193891D02*
X111167Y193891D01*
X100232Y191706D02*
X100145Y191708D01*
X100058Y191714D01*
X99971Y191724D01*
X99885Y191737D01*
X99800Y191755D01*
X99715Y191776D01*
X99632Y191801D01*
X99550Y191830D01*
X99469Y191862D01*
X99389Y191898D01*
X99312Y191938D01*
X99236Y191981D01*
X99162Y192027D01*
X99091Y192077D01*
X99021Y192130D01*
X98954Y192186D01*
X98890Y192244D01*
X98828Y192306D01*
X98770Y192370D01*
X98714Y192437D01*
X98661Y192507D01*
X98611Y192578D01*
X98565Y192652D01*
X98522Y192728D01*
X98482Y192805D01*
X98446Y192885D01*
X98414Y192966D01*
X98385Y193048D01*
X98360Y193131D01*
X98339Y193216D01*
X98321Y193301D01*
X98308Y193387D01*
X98298Y193474D01*
X98292Y193561D01*
X98290Y193648D01*
X100232Y191706D02*
X100357Y191708D01*
X100481Y191714D01*
X100605Y191723D01*
X100729Y191736D01*
X100853Y191753D01*
X100975Y191774D01*
X101097Y191798D01*
X101219Y191826D01*
X101339Y191858D01*
X101459Y191894D01*
X101577Y191933D01*
X101694Y191975D01*
X101810Y192022D01*
X101924Y192071D01*
X102037Y192124D01*
X102148Y192181D01*
X102257Y192241D01*
X102364Y192304D01*
X102470Y192370D01*
X102573Y192440D01*
X102674Y192512D01*
X102773Y192588D01*
X102870Y192667D01*
X102964Y192748D01*
X103056Y192832D01*
X103145Y192920D01*
X102903Y198502D02*
X102901Y198589D01*
X102895Y198676D01*
X102885Y198763D01*
X102872Y198849D01*
X102854Y198934D01*
X102833Y199019D01*
X102808Y199102D01*
X102779Y199184D01*
X102747Y199265D01*
X102711Y199345D01*
X102671Y199422D01*
X102628Y199498D01*
X102582Y199572D01*
X102532Y199643D01*
X102479Y199713D01*
X102423Y199780D01*
X102365Y199844D01*
X102303Y199906D01*
X102239Y199964D01*
X102172Y200020D01*
X102102Y200073D01*
X102031Y200123D01*
X101957Y200169D01*
X101881Y200212D01*
X101804Y200252D01*
X101724Y200288D01*
X101643Y200320D01*
X101561Y200349D01*
X101478Y200374D01*
X101393Y200395D01*
X101308Y200413D01*
X101222Y200426D01*
X101135Y200436D01*
X101048Y200442D01*
X100961Y200444D01*
X100844Y200442D01*
X100727Y200436D01*
X100610Y200427D01*
X100494Y200414D01*
X100378Y200397D01*
X100262Y200376D01*
X100148Y200352D01*
X100034Y200324D01*
X99921Y200292D01*
X99810Y200257D01*
X99699Y200218D01*
X99590Y200176D01*
X99482Y200130D01*
X99376Y200081D01*
X99271Y200028D01*
X99168Y199972D01*
X99067Y199913D01*
X98968Y199850D01*
X98871Y199785D01*
X98776Y199716D01*
X101931Y196803D02*
X102004Y196848D01*
X102074Y196896D01*
X102143Y196947D01*
X102209Y197001D01*
X102273Y197058D01*
X102334Y197117D01*
X102392Y197179D01*
X102448Y197243D01*
X102501Y197310D01*
X102551Y197379D01*
X102598Y197450D01*
X102642Y197524D01*
X102683Y197599D01*
X102720Y197675D01*
X102754Y197753D01*
X102785Y197833D01*
X102812Y197914D01*
X102836Y197996D01*
X102856Y198079D01*
X102873Y198162D01*
X102885Y198247D01*
X102895Y198332D01*
X102900Y198417D01*
X102902Y198502D01*
X99262Y195347D02*
X99189Y195302D01*
X99119Y195254D01*
X99050Y195203D01*
X98984Y195149D01*
X98921Y195093D01*
X98859Y195033D01*
X98801Y194971D01*
X98745Y194907D01*
X98692Y194840D01*
X98642Y194771D01*
X98595Y194700D01*
X98551Y194626D01*
X98510Y194551D01*
X98473Y194475D01*
X98439Y194397D01*
X98408Y194317D01*
X98381Y194236D01*
X98357Y194154D01*
X98337Y194071D01*
X98320Y193988D01*
X98308Y193903D01*
X98298Y193818D01*
X98293Y193733D01*
X98291Y193648D01*
X99262Y195347D02*
X101932Y196803D01*
X94595Y200444D02*
X94595Y191706D01*
X94595Y196560D02*
X89741Y196560D01*
X89741Y200444D02*
X89741Y191706D01*
X85458Y191706D02*
X81575Y191706D01*
X85458Y191706D02*
X85458Y200444D01*
X81575Y200444D01*
X82546Y196560D02*
X85458Y196560D01*
X78065Y200444D02*
X78065Y191706D01*
X78065Y200444D02*
X75638Y200444D01*
X75540Y200442D01*
X75443Y200436D01*
X75345Y200426D01*
X75249Y200413D01*
X75153Y200395D01*
X75057Y200373D01*
X74963Y200348D01*
X74869Y200319D01*
X74777Y200286D01*
X74687Y200250D01*
X74598Y200210D01*
X74510Y200166D01*
X74425Y200119D01*
X74341Y200068D01*
X74259Y200014D01*
X74180Y199957D01*
X74103Y199897D01*
X74029Y199834D01*
X73957Y199767D01*
X73888Y199698D01*
X73821Y199626D01*
X73758Y199552D01*
X73698Y199475D01*
X73641Y199396D01*
X73587Y199314D01*
X73536Y199231D01*
X73489Y199145D01*
X73445Y199057D01*
X73405Y198968D01*
X73369Y198878D01*
X73336Y198786D01*
X73307Y198692D01*
X73282Y198598D01*
X73260Y198502D01*
X73242Y198406D01*
X73229Y198310D01*
X73219Y198212D01*
X73213Y198115D01*
X73211Y198017D01*
X73211Y194133D01*
X73213Y194035D01*
X73219Y193938D01*
X73229Y193840D01*
X73242Y193744D01*
X73260Y193648D01*
X73282Y193552D01*
X73307Y193458D01*
X73336Y193364D01*
X73369Y193272D01*
X73405Y193182D01*
X73445Y193093D01*
X73489Y193005D01*
X73536Y192920D01*
X73587Y192836D01*
X73641Y192754D01*
X73698Y192675D01*
X73758Y192598D01*
X73821Y192524D01*
X73888Y192452D01*
X73957Y192383D01*
X74029Y192316D01*
X74103Y192253D01*
X74180Y192193D01*
X74259Y192136D01*
X74341Y192082D01*
X74424Y192031D01*
X74510Y191984D01*
X74598Y191940D01*
X74687Y191900D01*
X74777Y191864D01*
X74869Y191831D01*
X74963Y191802D01*
X75057Y191777D01*
X75153Y191755D01*
X75249Y191737D01*
X75345Y191724D01*
X75443Y191714D01*
X75540Y191708D01*
X75638Y191706D01*
X78065Y191706D01*
X69611Y191706D02*
X69611Y192191D01*
X69125Y192191D01*
X69125Y191706D01*
X69611Y191706D01*
X63893Y191706D02*
X61952Y191706D01*
X63893Y191706D02*
X63980Y191708D01*
X64067Y191714D01*
X64154Y191724D01*
X64240Y191737D01*
X64325Y191755D01*
X64410Y191776D01*
X64493Y191801D01*
X64575Y191830D01*
X64656Y191862D01*
X64736Y191898D01*
X64813Y191938D01*
X64889Y191981D01*
X64963Y192027D01*
X65034Y192077D01*
X65104Y192130D01*
X65171Y192186D01*
X65235Y192244D01*
X65297Y192306D01*
X65355Y192370D01*
X65411Y192437D01*
X65464Y192507D01*
X65514Y192578D01*
X65560Y192652D01*
X65603Y192728D01*
X65643Y192805D01*
X65679Y192885D01*
X65711Y192966D01*
X65740Y193048D01*
X65765Y193131D01*
X65786Y193216D01*
X65804Y193301D01*
X65817Y193387D01*
X65827Y193474D01*
X65833Y193561D01*
X65835Y193648D01*
X65835Y198502D01*
X65833Y198589D01*
X65827Y198676D01*
X65817Y198763D01*
X65804Y198849D01*
X65786Y198934D01*
X65765Y199019D01*
X65740Y199102D01*
X65711Y199184D01*
X65679Y199265D01*
X65643Y199345D01*
X65603Y199422D01*
X65560Y199498D01*
X65514Y199572D01*
X65464Y199643D01*
X65411Y199713D01*
X65355Y199780D01*
X65297Y199844D01*
X65235Y199906D01*
X65171Y199964D01*
X65104Y200020D01*
X65034Y200073D01*
X64963Y200123D01*
X64889Y200169D01*
X64813Y200212D01*
X64736Y200252D01*
X64656Y200288D01*
X64575Y200320D01*
X64493Y200349D01*
X64410Y200374D01*
X64325Y200395D01*
X64240Y200413D01*
X64154Y200426D01*
X64067Y200436D01*
X63980Y200442D01*
X63893Y200444D01*
X61952Y200444D01*
X58685Y198017D02*
X58685Y194133D01*
X58685Y198017D02*
X58683Y198115D01*
X58677Y198212D01*
X58667Y198310D01*
X58654Y198406D01*
X58636Y198502D01*
X58614Y198598D01*
X58589Y198692D01*
X58560Y198786D01*
X58527Y198878D01*
X58491Y198968D01*
X58451Y199057D01*
X58407Y199145D01*
X58360Y199231D01*
X58309Y199314D01*
X58255Y199396D01*
X58198Y199475D01*
X58138Y199552D01*
X58075Y199626D01*
X58008Y199698D01*
X57939Y199767D01*
X57867Y199834D01*
X57793Y199897D01*
X57716Y199957D01*
X57637Y200014D01*
X57555Y200068D01*
X57472Y200119D01*
X57386Y200166D01*
X57298Y200210D01*
X57209Y200250D01*
X57119Y200286D01*
X57027Y200319D01*
X56933Y200348D01*
X56839Y200373D01*
X56743Y200395D01*
X56647Y200413D01*
X56551Y200426D01*
X56453Y200436D01*
X56356Y200442D01*
X56258Y200444D01*
X56160Y200442D01*
X56063Y200436D01*
X55965Y200426D01*
X55869Y200413D01*
X55773Y200395D01*
X55677Y200373D01*
X55583Y200348D01*
X55489Y200319D01*
X55397Y200286D01*
X55307Y200250D01*
X55218Y200210D01*
X55130Y200166D01*
X55045Y200119D01*
X54961Y200068D01*
X54879Y200014D01*
X54800Y199957D01*
X54723Y199897D01*
X54649Y199834D01*
X54577Y199767D01*
X54508Y199698D01*
X54441Y199626D01*
X54378Y199552D01*
X54318Y199475D01*
X54261Y199396D01*
X54207Y199314D01*
X54156Y199231D01*
X54109Y199145D01*
X54065Y199057D01*
X54025Y198968D01*
X53989Y198878D01*
X53956Y198786D01*
X53927Y198692D01*
X53902Y198598D01*
X53880Y198502D01*
X53862Y198406D01*
X53849Y198310D01*
X53839Y198212D01*
X53833Y198115D01*
X53831Y198017D01*
X53831Y194133D01*
X53833Y194035D01*
X53839Y193938D01*
X53849Y193840D01*
X53862Y193744D01*
X53880Y193648D01*
X53902Y193552D01*
X53927Y193458D01*
X53956Y193364D01*
X53989Y193272D01*
X54025Y193182D01*
X54065Y193093D01*
X54109Y193005D01*
X54156Y192920D01*
X54207Y192836D01*
X54261Y192754D01*
X54318Y192675D01*
X54378Y192598D01*
X54441Y192524D01*
X54508Y192452D01*
X54577Y192383D01*
X54649Y192316D01*
X54723Y192253D01*
X54800Y192193D01*
X54879Y192136D01*
X54961Y192082D01*
X55044Y192031D01*
X55130Y191984D01*
X55218Y191940D01*
X55307Y191900D01*
X55397Y191864D01*
X55489Y191831D01*
X55583Y191802D01*
X55677Y191777D01*
X55773Y191755D01*
X55869Y191737D01*
X55965Y191724D01*
X56063Y191714D01*
X56160Y191708D01*
X56258Y191706D01*
X56356Y191708D01*
X56453Y191714D01*
X56551Y191724D01*
X56647Y191737D01*
X56743Y191755D01*
X56839Y191777D01*
X56933Y191802D01*
X57027Y191831D01*
X57119Y191864D01*
X57209Y191900D01*
X57298Y191940D01*
X57386Y191984D01*
X57471Y192031D01*
X57555Y192082D01*
X57637Y192136D01*
X57716Y192193D01*
X57793Y192253D01*
X57867Y192316D01*
X57939Y192383D01*
X58008Y192452D01*
X58075Y192524D01*
X58138Y192598D01*
X58198Y192675D01*
X58255Y192754D01*
X58309Y192836D01*
X58360Y192919D01*
X58407Y193005D01*
X58451Y193093D01*
X58491Y193182D01*
X58527Y193272D01*
X58560Y193364D01*
X58589Y193458D01*
X58614Y193552D01*
X58636Y193648D01*
X58654Y193744D01*
X58667Y193840D01*
X58677Y193938D01*
X58683Y194035D01*
X58685Y194133D01*
X49766Y191706D02*
X49766Y200444D01*
X46853Y195590D01*
X43940Y200444D01*
X43940Y191706D01*
M02*
