M48
;GenerationSoftware,Autodesk,EAGLE,9.6.2*%
;CreationDate,2023-08-20T12:44:21Z*%
FMAT,2
ICI,OFF
METRIC,TZ,000.000
T2C0.400
T1C1.200
%
G90
M71
T1
X2540Y22860
X40640Y22860
X16589Y318
X20320Y22860
X60960Y22860
X66040Y22860
X5080Y22860
X7620Y22860
X10160Y22860
X12700Y22860
X15240Y22860
X17780Y22860
X22860Y22860
X25400Y22860
X27940Y22860
X30480Y22860
X33020Y22860
X35560Y22860
X38100Y22860
X43180Y22860
X45720Y22860
X48260Y22860
X50800Y22860
X53340Y22860
X55880Y22860
X58420Y22860
X63500Y22860
T2
X36513Y20003
X31591Y19050
M30